<?xml version="1.0" encoding="UTF-8"?>
<svg xmlns="http://www.w3.org/2000/svg" width="1280" height="680" viewBox="0 0 1280 680">
<rect width="100%" height="100%" fill="#fbfbf8"/>
<style>text{font-family:Segoe UI,Arial,sans-serif;fill:#222}.title{font-size:24px;font-weight:700}.small{font-size:13px}.tick{font-size:12px;fill:#555}.axis{font-size:14px;font-weight:600}</style>
<text class="title" x="86" y="32">Proporcja obligacje 30+ / zmiennoprocentowe</text>
<text class="small" x="86" y="56">Jedna linia pokazuje udzial obligacji 30+ w czesci defensywnej: 0% = floating/gotowka, 50% = pol na pol, 100% = calosc 30+</text>
<line x1="86" y1="602.00" x2="1194" y2="602.00" stroke="#deded8" stroke-width="1"/>
<text class="tick" x="76" y="606.00" text-anchor="end">0%</text>
<line x1="86" y1="548.00" x2="1194" y2="548.00" stroke="#deded8" stroke-width="1"/>
<text class="tick" x="76" y="552.00" text-anchor="end">10%</text>
<line x1="86" y1="494.00" x2="1194" y2="494.00" stroke="#deded8" stroke-width="1"/>
<text class="tick" x="76" y="498.00" text-anchor="end">20%</text>
<line x1="86" y1="440.00" x2="1194" y2="440.00" stroke="#deded8" stroke-width="1"/>
<text class="tick" x="76" y="444.00" text-anchor="end">30%</text>
<line x1="86" y1="386.00" x2="1194" y2="386.00" stroke="#deded8" stroke-width="1"/>
<text class="tick" x="76" y="390.00" text-anchor="end">40%</text>
<line x1="86" y1="332.00" x2="1194" y2="332.00" stroke="#deded8" stroke-width="1"/>
<text class="tick" x="76" y="336.00" text-anchor="end">50%</text>
<line x1="86" y1="278.00" x2="1194" y2="278.00" stroke="#deded8" stroke-width="1"/>
<text class="tick" x="76" y="282.00" text-anchor="end">60%</text>
<line x1="86" y1="224.00" x2="1194" y2="224.00" stroke="#deded8" stroke-width="1"/>
<text class="tick" x="76" y="228.00" text-anchor="end">70%</text>
<line x1="86" y1="170.00" x2="1194" y2="170.00" stroke="#deded8" stroke-width="1"/>
<text class="tick" x="76" y="174.00" text-anchor="end">80%</text>
<line x1="86" y1="116.00" x2="1194" y2="116.00" stroke="#deded8" stroke-width="1"/>
<text class="tick" x="76" y="120.00" text-anchor="end">90%</text>
<line x1="86" y1="62.00" x2="1194" y2="62.00" stroke="#deded8" stroke-width="1"/>
<text class="tick" x="76" y="66.00" text-anchor="end">100%</text>
<line x1="93.96" y1="62" x2="93.96" y2="602" stroke="#eeeeea" stroke-width="1"/>
<text class="tick" x="93.96" y="636" text-anchor="middle">1955</text>
<line x1="170.62" y1="62" x2="170.62" y2="602" stroke="#eeeeea" stroke-width="1"/>
<text class="tick" x="170.62" y="636" text-anchor="middle">1960</text>
<line x1="247.57" y1="62" x2="247.57" y2="602" stroke="#eeeeea" stroke-width="1"/>
<text class="tick" x="247.57" y="636" text-anchor="middle">1965</text>
<line x1="324.52" y1="62" x2="324.52" y2="602" stroke="#eeeeea" stroke-width="1"/>
<text class="tick" x="324.52" y="636" text-anchor="middle">1970</text>
<line x1="401.48" y1="62" x2="401.48" y2="602" stroke="#eeeeea" stroke-width="1"/>
<text class="tick" x="401.48" y="636" text-anchor="middle">1975</text>
<line x1="478.43" y1="62" x2="478.43" y2="602" stroke="#eeeeea" stroke-width="1"/>
<text class="tick" x="478.43" y="636" text-anchor="middle">1980</text>
<line x1="555.38" y1="62" x2="555.38" y2="602" stroke="#eeeeea" stroke-width="1"/>
<text class="tick" x="555.38" y="636" text-anchor="middle">1985</text>
<line x1="632.33" y1="62" x2="632.33" y2="602" stroke="#eeeeea" stroke-width="1"/>
<text class="tick" x="632.33" y="636" text-anchor="middle">1990</text>
<line x1="709.29" y1="62" x2="709.29" y2="602" stroke="#eeeeea" stroke-width="1"/>
<text class="tick" x="709.29" y="636" text-anchor="middle">1995</text>
<line x1="786.24" y1="62" x2="786.24" y2="602" stroke="#eeeeea" stroke-width="1"/>
<text class="tick" x="786.24" y="636" text-anchor="middle">2000</text>
<line x1="863.19" y1="62" x2="863.19" y2="602" stroke="#eeeeea" stroke-width="1"/>
<text class="tick" x="863.19" y="636" text-anchor="middle">2005</text>
<line x1="939.85" y1="62" x2="939.85" y2="602" stroke="#eeeeea" stroke-width="1"/>
<text class="tick" x="939.85" y="636" text-anchor="middle">2010</text>
<line x1="1016.80" y1="62" x2="1016.80" y2="602" stroke="#eeeeea" stroke-width="1"/>
<text class="tick" x="1016.80" y="636" text-anchor="middle">2015</text>
<line x1="1093.76" y1="62" x2="1093.76" y2="602" stroke="#eeeeea" stroke-width="1"/>
<text class="tick" x="1093.76" y="636" text-anchor="middle">2020</text>
<line x1="1170.71" y1="62" x2="1170.71" y2="602" stroke="#eeeeea" stroke-width="1"/>
<text class="tick" x="1170.71" y="636" text-anchor="middle">2025</text>
<line x1="86" y1="62" x2="86" y2="602" stroke="#333" stroke-width="1.2"/>
<line x1="86" y1="602" x2="1194" y2="602" stroke="#333" stroke-width="1.2"/>
<text class="axis" transform="translate(24 332.00) rotate(-90)" text-anchor="middle">Udzial obligacji 30+ w czesci defensywnej</text>
<text class="small" x="1202" y="606.00" fill="#555">Floating</text>
<text class="small" x="1202" y="336.00" fill="#555">50/50</text>
<text class="small" x="1202" y="66.00" fill="#555">30+</text>
<polyline fill="none" stroke="#073b3a" stroke-width="3.8" stroke-linejoin="round" stroke-linecap="round" points="86.00,602.00 86.29,602.00 86.59,602.00 86.88,602.00 87.18,602.00 87.47,602.00 87.77,602.00 88.06,602.00 88.36,602.00 88.65,602.00 88.95,602.00 89.24,602.00 89.54,602.00 89.83,602.00 90.13,602.00 90.42,602.00 90.72,602.00 91.01,602.00 91.31,602.00 91.60,602.00 91.90,602.00 92.19,602.00 92.49,602.00 92.78,602.00 93.08,602.00 93.37,602.00 93.67,602.00 93.96,602.00 94.26,602.00 94.55,602.00 94.85,602.00 95.14,602.00 95.43,602.00 95.73,602.00 96.02,602.00 96.32,602.00 96.61,602.00 96.91,602.00 97.20,602.00 97.50,602.00 97.79,602.00 98.09,602.00 98.38,602.00 98.68,602.00 98.97,602.00 99.27,602.00 99.56,602.00 99.86,602.00 100.15,602.00 100.45,602.00 100.74,602.00 101.04,602.00 101.33,602.00 101.63,602.00 101.92,602.00 102.22,602.00 102.51,602.00 102.81,602.00 103.10,602.00 103.40,602.00 103.69,602.00 103.99,602.00 104.28,602.00 104.57,602.00 104.87,602.00 105.16,602.00 105.46,602.00 105.75,602.00 106.05,602.00 106.34,602.00 106.64,602.00 106.93,602.00 107.23,602.00 107.52,602.00 107.82,602.00 108.11,602.00 108.41,602.00 108.70,602.00 109.00,602.00 109.29,602.00 109.59,602.00 109.88,602.00 110.18,602.00 110.47,332.00 110.77,332.00 111.06,332.00 111.36,332.00 111.65,332.00 111.95,332.00 112.24,332.00 112.54,332.00 112.83,332.00 113.13,332.00 113.42,332.00 113.71,332.00 114.01,332.00 114.30,332.00 114.60,332.00 114.89,332.00 115.19,332.00 115.48,602.00 115.78,602.00 116.07,602.00 116.37,602.00 116.66,602.00 116.96,602.00 117.25,602.00 117.55,602.00 117.84,602.00 118.14,602.00 118.43,602.00 118.73,602.00 119.02,602.00 119.32,602.00 119.61,602.00 119.91,602.00 120.20,602.00 120.50,602.00 120.79,602.00 121.09,602.00 121.38,602.00 121.68,602.00 121.97,602.00 122.27,602.00 122.56,602.00 122.85,602.00 123.15,602.00 123.44,602.00 123.74,602.00 124.03,602.00 124.33,602.00 124.62,602.00 124.92,602.00 125.21,602.00 125.51,602.00 125.80,602.00 126.10,602.00 126.39,602.00 126.69,602.00 126.98,602.00 127.28,602.00 127.57,602.00 127.87,602.00 128.16,602.00 128.46,602.00 128.75,602.00 129.05,602.00 129.34,602.00 129.64,602.00 129.93,602.00 130.23,602.00 130.52,602.00 130.82,602.00 131.11,602.00 131.41,602.00 131.70,602.00 131.99,602.00 132.29,602.00 132.58,602.00 132.88,602.00 133.17,602.00 133.47,602.00 133.76,602.00 134.06,602.00 134.35,602.00 134.65,602.00 134.94,602.00 135.24,602.00 135.53,602.00 135.83,602.00 136.12,602.00 136.42,602.00 136.71,602.00 137.01,602.00 137.30,602.00 137.60,602.00 137.89,602.00 138.19,602.00 138.48,602.00 138.78,602.00 139.07,602.00 139.37,602.00 139.66,602.00 139.96,602.00 140.25,602.00 140.54,602.00 140.84,602.00 141.13,602.00 141.43,602.00 141.72,602.00 142.02,602.00 142.31,602.00 142.61,602.00 142.90,602.00 143.20,602.00 143.49,602.00 143.79,602.00 144.08,602.00 144.38,602.00 144.67,602.00 144.97,602.00 145.26,602.00 145.56,602.00 145.85,602.00 146.15,602.00 146.44,602.00 146.74,602.00 147.03,602.00 147.33,602.00 147.62,602.00 147.92,602.00 148.21,602.00 148.51,602.00 148.80,602.00 149.10,602.00 149.39,602.00 149.68,602.00 149.98,602.00 150.27,602.00 150.57,602.00 150.86,602.00 151.16,602.00 151.45,602.00 151.75,602.00 152.04,602.00 152.34,602.00 152.63,602.00 152.93,602.00 153.22,602.00 153.52,602.00 153.81,602.00 154.11,602.00 154.40,602.00 154.70,602.00 154.99,602.00 155.29,602.00 155.58,602.00 155.88,602.00 156.17,602.00 156.47,602.00 156.76,602.00 157.06,602.00 157.35,602.00 157.65,602.00 157.94,602.00 158.24,602.00 158.53,602.00 158.82,602.00 159.12,602.00 159.41,602.00 159.71,602.00 160.00,602.00 160.30,197.00 160.59,197.00 160.89,197.00 161.18,197.00 161.48,197.00 161.77,197.00 162.07,197.00 162.36,197.00 162.66,197.00 162.95,197.00 163.25,197.00 163.54,197.00 163.84,197.00 164.13,197.00 164.43,197.00 164.72,197.00 165.02,197.00 165.31,197.00 165.61,197.00 165.90,197.00 166.20,197.00 166.49,197.00 166.79,197.00 167.08,197.00 167.38,197.00 167.67,197.00 167.96,197.00 168.26,197.00 168.55,197.00 168.85,197.00 169.14,197.00 169.44,197.00 169.73,197.00 170.03,197.00 170.32,197.00 170.62,197.00 170.91,197.00 171.21,197.00 171.50,197.00 171.80,197.00 172.09,197.00 172.39,197.00 172.68,197.00 172.98,197.00 173.27,197.00 173.57,197.00 173.86,197.00 174.16,197.00 174.45,197.00 174.75,197.00 175.04,197.00 175.34,197.00 175.63,197.00 175.93,197.00 176.22,197.00 176.52,197.00 176.81,197.00 177.10,197.00 177.40,197.00 177.69,197.00 177.99,197.00 178.28,197.00 178.58,197.00 178.87,197.00 179.17,197.00 179.46,197.00 179.76,197.00 180.05,197.00 180.35,197.00 180.64,197.00 180.94,197.00 181.23,197.00 181.53,197.00 181.82,197.00 182.12,197.00 182.41,197.00 182.71,197.00 183.00,197.00 183.30,197.00 183.59,197.00 183.89,197.00 184.18,197.00 184.48,197.00 184.77,197.00 185.07,197.00 185.36,197.00 185.66,197.00 185.95,197.00 186.24,197.00 186.54,197.00 186.83,197.00 187.13,197.00 187.42,197.00 187.72,197.00 188.01,197.00 188.31,197.00 188.60,197.00 188.90,197.00 189.19,197.00 189.49,197.00 189.78,197.00 190.08,197.00 190.37,197.00 190.67,197.00 190.96,197.00 191.26,197.00 191.55,197.00 191.85,197.00 192.14,197.00 192.44,197.00 192.73,197.00 193.03,197.00 193.32,197.00 193.62,197.00 193.91,197.00 194.21,197.00 194.50,197.00 194.80,197.00 195.09,197.00 195.38,197.00 195.68,197.00 195.97,197.00 196.27,197.00 196.56,197.00 196.86,197.00 197.15,197.00 197.45,197.00 197.74,467.00 198.04,467.00 198.33,467.00 198.63,467.00 198.92,467.00 199.22,467.00 199.51,467.00 199.81,467.00 200.10,332.00 200.40,332.00 200.69,332.00 200.99,332.00 201.28,332.00 201.58,332.00 201.87,332.00 202.17,332.00 202.46,332.00 202.76,332.00 203.05,332.00 203.35,332.00 203.64,332.00 203.94,332.00 204.23,332.00 204.52,332.00 204.82,332.00 205.11,332.00 205.41,332.00 205.70,332.00 206.00,332.00 206.29,332.00 206.59,332.00 206.88,332.00 207.18,332.00 207.47,332.00 207.77,332.00 208.06,332.00 208.36,332.00 208.65,332.00 208.95,332.00 209.24,332.00 209.54,332.00 209.83,332.00 210.13,332.00 210.42,332.00 210.72,332.00 211.01,332.00 211.31,332.00 211.60,332.00 211.90,332.00 212.19,332.00 212.49,332.00 212.78,332.00 213.08,332.00 213.37,332.00 213.66,332.00 213.96,332.00 214.25,332.00 214.55,332.00 214.84,332.00 215.14,332.00 215.43,332.00 215.73,332.00 216.02,332.00 216.32,332.00 216.61,332.00 216.91,332.00 217.20,332.00 217.50,332.00 217.79,332.00 218.09,332.00 218.38,332.00 218.68,332.00 218.97,332.00 219.27,332.00 219.56,332.00 219.86,332.00 220.15,332.00 220.45,332.00 220.74,332.00 221.04,332.00 221.33,332.00 221.63,332.00 221.92,332.00 222.22,332.00 222.51,332.00 222.80,332.00 223.10,332.00 223.39,332.00 223.69,332.00 223.98,332.00 224.28,332.00 224.57,332.00 224.87,332.00 225.16,332.00 225.46,332.00 225.75,332.00 226.05,332.00 226.34,332.00 226.64,332.00 226.93,332.00 227.23,332.00 227.52,332.00 227.82,332.00 228.11,332.00 228.41,332.00 228.70,332.00 229.00,332.00 229.29,332.00 229.59,332.00 229.88,332.00 230.18,332.00 230.47,332.00 230.77,332.00 231.06,332.00 231.35,332.00 231.65,332.00 231.94,332.00 232.24,332.00 232.53,332.00 232.83,332.00 233.12,332.00 233.42,332.00 233.71,332.00 234.01,332.00 234.30,332.00 234.60,332.00 234.89,332.00 235.19,332.00 235.48,332.00 235.78,332.00 236.07,332.00 236.37,332.00 236.66,332.00 236.96,332.00 237.25,332.00 237.55,332.00 237.84,332.00 238.14,332.00 238.43,332.00 238.73,332.00 239.02,332.00 239.32,332.00 239.61,332.00 239.91,332.00 240.20,332.00 240.49,332.00 240.79,332.00 241.08,332.00 241.38,332.00 241.67,332.00 241.97,332.00 242.26,332.00 242.56,332.00 242.85,332.00 243.15,332.00 243.44,332.00 243.74,332.00 244.03,332.00 244.33,332.00 244.62,332.00 244.92,332.00 245.21,332.00 245.51,332.00 245.80,332.00 246.10,332.00 246.39,332.00 246.69,332.00 246.98,332.00 247.28,332.00 247.57,332.00 247.87,332.00 248.16,332.00 248.46,332.00 248.75,332.00 249.05,332.00 249.34,332.00 249.63,332.00 249.93,332.00 250.22,332.00 250.52,332.00 250.81,332.00 251.11,332.00 251.40,332.00 251.70,332.00 251.99,332.00 252.29,332.00 252.58,332.00 252.88,332.00 253.17,332.00 253.47,332.00 253.76,332.00 254.06,332.00 254.35,332.00 254.65,332.00 254.94,332.00 255.24,332.00 255.53,332.00 255.83,332.00 256.12,332.00 256.42,332.00 256.71,332.00 257.01,332.00 257.30,332.00 257.60,332.00 257.89,332.00 258.19,332.00 258.48,332.00 258.77,332.00 259.07,332.00 259.36,332.00 259.66,332.00 259.95,332.00 260.25,332.00 260.54,332.00 260.84,332.00 261.13,332.00 261.43,332.00 261.72,332.00 262.02,332.00 262.31,332.00 262.61,332.00 262.90,332.00 263.20,332.00 263.49,332.00 263.79,332.00 264.08,332.00 264.38,332.00 264.67,332.00 264.97,332.00 265.26,332.00 265.56,332.00 265.85,332.00 266.15,332.00 266.44,332.00 266.74,332.00 267.03,332.00 267.33,332.00 267.62,332.00 267.91,332.00 268.21,332.00 268.50,332.00 268.80,332.00 269.09,332.00 269.39,332.00 269.68,332.00 269.98,332.00 270.27,332.00 270.57,332.00 270.86,332.00 271.16,332.00 271.45,332.00 271.75,332.00 272.04,332.00 272.34,332.00 272.63,332.00 272.93,602.00 273.22,602.00 273.52,602.00 273.81,602.00 274.11,602.00 274.40,602.00 274.70,602.00 274.99,602.00 275.29,602.00 275.58,602.00 275.88,602.00 276.17,602.00 276.47,602.00 276.76,602.00 277.05,197.00 277.35,197.00 277.64,197.00 277.94,197.00 278.23,197.00 278.53,197.00 278.82,197.00 279.12,197.00 279.41,197.00 279.71,197.00 280.00,197.00 280.30,197.00 280.59,197.00 280.89,197.00 281.18,197.00 281.48,197.00 281.77,197.00 282.07,197.00 282.36,197.00 282.66,197.00 282.95,197.00 283.25,197.00 283.54,197.00 283.84,197.00 284.13,197.00 284.43,197.00 284.72,197.00 285.02,197.00 285.31,197.00 285.61,197.00 285.90,197.00 286.19,197.00 286.49,197.00 286.78,197.00 287.08,197.00 287.37,197.00 287.67,197.00 287.96,197.00 288.26,197.00 288.55,197.00 288.85,197.00 289.14,197.00 289.44,197.00 289.73,197.00 290.03,197.00 290.32,197.00 290.62,197.00 290.91,197.00 291.21,197.00 291.50,197.00 291.80,197.00 292.09,197.00 292.39,197.00 292.68,197.00 292.98,197.00 293.27,197.00 293.57,467.00 293.86,467.00 294.16,467.00 294.45,467.00 294.75,467.00 295.04,467.00 295.33,467.00 295.63,467.00 295.92,602.00 296.22,602.00 296.51,602.00 296.81,602.00 297.10,602.00 297.40,602.00 297.69,602.00 297.99,602.00 298.28,602.00 298.58,602.00 298.87,602.00 299.17,602.00 299.46,602.00 299.76,602.00 300.05,602.00 300.35,602.00 300.64,602.00 300.94,602.00 301.23,602.00 301.53,602.00 301.82,602.00 302.12,602.00 302.41,602.00 302.71,602.00 303.00,602.00 303.30,602.00 303.59,602.00 303.89,197.00 304.18,197.00 304.47,197.00 304.77,197.00 305.06,197.00 305.36,197.00 305.65,197.00 305.95,197.00 306.24,197.00 306.54,197.00 306.83,197.00 307.13,197.00 307.42,197.00 307.72,197.00 308.01,197.00 308.31,197.00 308.60,197.00 308.90,197.00 309.19,197.00 309.49,197.00 309.78,197.00 310.08,197.00 310.37,197.00 310.67,197.00 310.96,197.00 311.26,197.00 311.55,197.00 311.85,332.00 312.14,332.00 312.44,332.00 312.73,332.00 313.03,332.00 313.32,332.00 313.61,332.00 313.91,332.00 314.20,332.00 314.50,332.00 314.79,332.00 315.09,332.00 315.38,602.00 315.68,602.00 315.97,602.00 316.27,602.00 316.56,602.00 316.86,467.00 317.15,467.00 317.45,467.00 317.74,467.00 318.04,467.00 318.33,467.00 318.63,467.00 318.92,467.00 319.22,602.00 319.51,602.00 319.81,602.00 320.10,602.00 320.40,602.00 320.69,602.00 320.99,602.00 321.28,602.00 321.58,602.00 321.87,332.00 322.16,332.00 322.46,332.00 322.75,332.00 323.05,332.00 323.34,332.00 323.64,332.00 323.93,332.00 324.23,332.00 324.52,197.00 324.82,197.00 325.11,197.00 325.41,197.00 325.70,197.00 326.00,197.00 326.29,197.00 326.59,197.00 326.88,332.00 327.18,332.00 327.47,332.00 327.77,332.00 328.06,332.00 328.36,332.00 328.65,332.00 328.95,332.00 329.24,197.00 329.54,197.00 329.83,197.00 330.13,197.00 330.42,197.00 330.72,197.00 331.01,197.00 331.30,197.00 331.60,197.00 331.89,197.00 332.19,197.00 332.48,197.00 332.78,197.00 333.07,197.00 333.37,197.00 333.66,197.00 333.96,197.00 334.25,197.00 334.55,197.00 334.84,197.00 335.14,197.00 335.43,197.00 335.73,197.00 336.02,197.00 336.32,197.00 336.61,197.00 336.91,197.00 337.20,197.00 337.50,197.00 337.79,197.00 338.09,197.00 338.38,197.00 338.68,197.00 338.97,197.00 339.27,197.00 339.56,197.00 339.86,197.00 340.15,197.00 340.44,197.00 340.74,197.00 341.03,197.00 341.33,197.00 341.62,197.00 341.92,197.00 342.21,197.00 342.51,197.00 342.80,197.00 343.10,197.00 343.39,197.00 343.69,197.00 343.98,197.00 344.28,197.00 344.57,197.00 344.87,197.00 345.16,332.00 345.46,332.00 345.75,332.00 346.05,332.00 346.34,332.00 346.64,332.00 346.93,332.00 347.23,332.00 347.52,332.00 347.82,332.00 348.11,332.00 348.41,467.00 348.70,467.00 349.00,467.00 349.29,467.00 349.58,467.00 349.88,467.00 350.17,467.00 350.47,467.00 350.76,332.00 351.06,332.00 351.35,332.00 351.65,332.00 351.94,332.00 352.24,332.00 352.53,332.00 352.83,332.00 353.12,197.00 353.42,197.00 353.71,197.00 354.01,197.00 354.30,197.00 354.60,197.00 354.89,197.00 355.19,197.00 355.48,197.00 355.78,197.00 356.07,197.00 356.37,197.00 356.66,197.00 356.96,197.00 357.25,197.00 357.55,197.00 357.84,197.00 358.14,197.00 358.43,197.00 358.72,197.00 359.02,197.00 359.31,332.00 359.61,332.00 359.90,332.00 360.20,332.00 360.49,332.00 360.79,332.00 361.08,332.00 361.38,332.00 361.67,332.00 361.97,332.00 362.26,332.00 362.56,332.00 362.85,332.00 363.15,197.00 363.44,197.00 363.74,197.00 364.03,197.00 364.33,197.00 364.62,197.00 364.92,197.00 365.21,197.00 365.51,197.00 365.80,197.00 366.10,197.00 366.39,197.00 366.69,197.00 366.98,197.00 367.28,197.00 367.57,197.00 367.86,332.00 368.16,332.00 368.45,332.00 368.75,332.00 369.04,332.00 369.34,332.00 369.63,332.00 369.93,332.00 370.22,332.00 370.52,332.00 370.81,332.00 371.11,332.00 371.40,332.00 371.70,332.00 371.99,332.00 372.29,332.00 372.58,332.00 372.88,332.00 373.17,332.00 373.47,332.00 373.76,332.00 374.06,332.00 374.35,332.00 374.65,332.00 374.94,332.00 375.24,332.00 375.53,332.00 375.83,332.00 376.12,602.00 376.42,602.00 376.71,602.00 377.00,602.00 377.30,602.00 377.59,602.00 377.89,602.00 378.18,602.00 378.48,602.00 378.77,602.00 379.07,602.00 379.36,602.00 379.66,602.00 379.95,602.00 380.25,602.00 380.54,602.00 380.84,602.00 381.13,602.00 381.43,602.00 381.72,602.00 382.02,602.00 382.31,602.00 382.61,602.00 382.90,602.00 383.20,602.00 383.49,602.00 383.79,602.00 384.08,602.00 384.38,602.00 384.67,197.00 384.97,197.00 385.26,197.00 385.56,197.00 385.85,197.00 386.14,197.00 386.44,197.00 386.73,197.00 387.03,197.00 387.32,197.00 387.62,197.00 387.91,197.00 388.21,197.00 388.50,332.00 388.80,332.00 389.09,332.00 389.39,332.00 389.68,332.00 389.98,332.00 390.27,332.00 390.57,332.00 390.86,467.00 391.16,467.00 391.45,467.00 391.75,467.00 392.04,467.00 392.34,467.00 392.63,467.00 392.93,467.00 393.22,602.00 393.52,602.00 393.81,602.00 394.11,602.00 394.40,602.00 394.70,602.00 394.99,602.00 395.28,602.00 395.58,602.00 395.87,602.00 396.17,602.00 396.46,467.00 396.76,467.00 397.05,467.00 397.35,467.00 397.64,467.00 397.94,467.00 398.23,467.00 398.53,467.00 398.82,467.00 399.12,467.00 399.41,467.00 399.71,467.00 400.00,467.00 400.30,467.00 400.59,467.00 400.89,467.00 401.18,467.00 401.48,332.00 401.77,332.00 402.07,332.00 402.36,332.00 402.66,332.00 402.95,332.00 403.25,332.00 403.54,332.00 403.84,197.00 404.13,197.00 404.42,197.00 404.72,197.00 405.01,197.00 405.31,197.00 405.60,197.00 405.90,197.00 406.19,197.00 406.49,197.00 406.78,197.00 407.08,197.00 407.37,197.00 407.67,197.00 407.96,197.00 408.26,197.00 408.55,197.00 408.85,197.00 409.14,197.00 409.44,197.00 409.73,197.00 410.03,197.00 410.32,332.00 410.62,332.00 410.91,332.00 411.21,332.00 411.50,332.00 411.80,332.00 412.09,332.00 412.39,332.00 412.68,467.00 412.97,467.00 413.27,467.00 413.56,467.00 413.86,467.00 414.15,197.00 414.45,197.00 414.74,197.00 415.04,197.00 415.33,197.00 415.63,197.00 415.92,197.00 416.22,197.00 416.51,197.00 416.81,197.00 417.10,197.00 417.40,197.00 417.69,197.00 417.99,197.00 418.28,197.00 418.58,197.00 418.87,197.00 419.17,197.00 419.46,197.00 419.76,197.00 420.05,197.00 420.35,197.00 420.64,197.00 420.94,197.00 421.23,197.00 421.53,197.00 421.82,197.00 422.11,332.00 422.41,332.00 422.70,332.00 423.00,332.00 423.29,332.00 423.59,332.00 423.88,332.00 424.18,332.00 424.47,332.00 424.77,332.00 425.06,332.00 425.36,332.00 425.65,332.00 425.95,332.00 426.24,332.00 426.54,332.00 426.83,332.00 427.13,332.00 427.42,332.00 427.72,332.00 428.01,332.00 428.31,332.00 428.60,332.00 428.90,332.00 429.19,332.00 429.49,332.00 429.78,332.00 430.08,332.00 430.37,332.00 430.67,332.00 430.96,332.00 431.25,332.00 431.55,332.00 431.84,332.00 432.14,332.00 432.43,332.00 432.73,332.00 433.02,332.00 433.32,332.00 433.61,332.00 433.91,332.00 434.20,332.00 434.50,332.00 434.79,332.00 435.09,332.00 435.38,332.00 435.68,332.00 435.97,332.00 436.27,332.00 436.56,332.00 436.86,332.00 437.15,332.00 437.45,467.00 437.74,467.00 438.04,467.00 438.33,467.00 438.63,467.00 438.92,467.00 439.22,467.00 439.51,467.00 439.81,602.00 440.10,602.00 440.39,602.00 440.69,602.00 440.98,602.00 441.28,602.00 441.57,602.00 441.87,602.00 442.16,602.00 442.46,602.00 442.75,602.00 443.05,602.00 443.34,602.00 443.64,602.00 443.93,602.00 444.23,602.00 444.52,602.00 444.82,602.00 445.11,602.00 445.41,602.00 445.70,602.00 446.00,602.00 446.29,602.00 446.59,602.00 446.88,602.00 447.18,467.00 447.47,467.00 447.77,467.00 448.06,467.00 448.36,467.00 448.65,467.00 448.95,467.00 449.24,467.00 449.53,467.00 449.83,467.00 450.12,197.00 450.42,197.00 450.71,197.00 451.01,197.00 451.30,197.00 451.60,197.00 451.89,197.00 452.19,197.00 452.48,197.00 452.78,332.00 453.07,332.00 453.37,332.00 453.66,332.00 453.96,332.00 454.25,332.00 454.55,332.00 454.84,332.00 455.14,332.00 455.43,332.00 455.73,332.00 456.02,332.00 456.32,332.00 456.61,467.00 456.91,467.00 457.20,467.00 457.50,467.00 457.79,467.00 458.09,467.00 458.38,467.00 458.67,602.00 458.97,602.00 459.26,602.00 459.56,602.00 459.85,602.00 460.15,602.00 460.44,602.00 460.74,602.00 461.03,602.00 461.33,602.00 461.62,602.00 461.92,602.00 462.21,602.00 462.51,602.00 462.80,602.00 463.10,602.00 463.39,602.00 463.69,602.00 463.98,602.00 464.28,467.00 464.57,467.00 464.87,467.00 465.16,467.00 465.46,467.00 465.75,467.00 466.05,467.00 466.34,467.00 466.64,467.00 466.93,467.00 467.23,467.00 467.52,467.00 467.81,467.00 468.11,467.00 468.40,467.00 468.70,467.00 468.99,467.00 469.29,467.00 469.58,467.00 469.88,467.00 470.17,467.00 470.47,467.00 470.76,467.00 471.06,467.00 471.35,467.00 471.65,467.00 471.94,602.00 472.24,602.00 472.53,602.00 472.83,602.00 473.12,602.00 473.42,602.00 473.71,602.00 474.01,602.00 474.30,467.00 474.60,467.00 474.89,467.00 475.19,467.00 475.48,467.00 475.78,467.00 476.07,467.00 476.37,467.00 476.66,602.00 476.95,602.00 477.25,602.00 477.54,602.00 477.84,602.00 478.13,602.00 478.43,602.00 478.72,602.00 479.02,467.00 479.31,467.00 479.61,467.00 479.90,467.00 480.20,467.00 480.49,467.00 480.79,467.00 481.08,467.00 481.38,602.00 481.67,602.00 481.97,602.00 482.26,602.00 482.56,602.00 482.85,602.00 483.15,602.00 483.44,602.00 483.74,467.00 484.03,467.00 484.33,467.00 484.62,467.00 484.92,467.00 485.21,467.00 485.51,467.00 485.80,197.00 486.09,197.00 486.39,197.00 486.68,197.00 486.98,197.00 487.27,197.00 487.57,197.00 487.86,197.00 488.16,197.00 488.45,197.00 488.75,332.00 489.04,332.00 489.34,332.00 489.63,332.00 489.93,332.00 490.22,332.00 490.52,332.00 490.81,332.00 491.11,467.00 491.40,467.00 491.70,467.00 491.99,467.00 492.29,467.00 492.58,467.00 492.88,467.00 493.17,467.00 493.47,602.00 493.76,602.00 494.06,602.00 494.35,602.00 494.65,602.00 494.94,602.00 495.23,602.00 495.53,602.00 495.82,332.00 496.12,332.00 496.41,332.00 496.71,332.00 497.00,332.00 497.30,332.00 497.59,332.00 497.89,332.00 498.18,332.00 498.48,332.00 498.77,332.00 499.07,332.00 499.36,332.00 499.66,332.00 499.95,332.00 500.25,332.00 500.54,332.00 500.84,332.00 501.13,332.00 501.43,332.00 501.72,332.00 502.02,332.00 502.31,332.00 502.61,332.00 502.90,332.00 503.20,332.00 503.49,332.00 503.78,332.00 504.08,332.00 504.37,332.00 504.67,332.00 504.96,332.00 505.26,197.00 505.55,197.00 505.85,197.00 506.14,197.00 506.44,197.00 506.73,197.00 507.03,197.00 507.32,197.00 507.62,197.00 507.91,197.00 508.21,197.00 508.50,197.00 508.80,197.00 509.09,197.00 509.39,197.00 509.68,197.00 509.98,197.00 510.27,197.00 510.57,332.00 510.86,332.00 511.16,332.00 511.45,332.00 511.75,332.00 512.04,332.00 512.34,332.00 512.63,332.00 512.92,197.00 513.22,197.00 513.51,197.00 513.81,197.00 514.10,197.00 514.40,197.00 514.69,197.00 514.99,197.00 515.28,197.00 515.58,197.00 515.87,197.00 516.17,197.00 516.46,197.00 516.76,197.00 517.05,197.00 517.35,197.00 517.64,197.00 517.94,197.00 518.23,197.00 518.53,197.00 518.82,197.00 519.12,197.00 519.41,197.00 519.71,197.00 520.00,197.00 520.30,197.00 520.59,197.00 520.89,197.00 521.18,197.00 521.48,197.00 521.77,197.00 522.06,197.00 522.36,197.00 522.65,197.00 522.95,197.00 523.24,197.00 523.54,197.00 523.83,197.00 524.13,197.00 524.42,197.00 524.72,197.00 525.01,197.00 525.31,197.00 525.60,197.00 525.90,197.00 526.19,197.00 526.49,197.00 526.78,197.00 527.08,197.00 527.37,197.00 527.67,197.00 527.96,197.00 528.26,197.00 528.55,332.00 528.85,332.00 529.14,332.00 529.44,332.00 529.73,332.00 530.03,332.00 530.32,332.00 530.62,332.00 530.91,197.00 531.20,197.00 531.50,197.00 531.79,197.00 532.09,197.00 532.38,197.00 532.68,197.00 532.97,197.00 533.27,332.00 533.56,332.00 533.86,332.00 534.15,332.00 534.45,332.00 534.74,332.00 535.04,332.00 535.33,332.00 535.63,197.00 535.92,197.00 536.22,197.00 536.51,197.00 536.81,197.00 537.10,197.00 537.40,197.00 537.69,197.00 537.99,197.00 538.28,332.00 538.58,332.00 538.87,332.00 539.17,332.00 539.46,332.00 539.76,332.00 540.05,332.00 540.34,332.00 540.64,332.00 540.93,332.00 541.23,467.00 541.52,467.00 541.82,467.00 542.11,467.00 542.41,467.00 542.70,467.00 543.00,467.00 543.29,467.00 543.59,332.00 543.88,332.00 544.18,332.00 544.47,332.00 544.77,332.00 545.06,332.00 545.36,332.00 545.65,332.00 545.95,467.00 546.24,467.00 546.54,467.00 546.83,467.00 547.13,467.00 547.42,467.00 547.72,467.00 548.01,467.00 548.31,332.00 548.60,332.00 548.90,332.00 549.19,332.00 549.48,332.00 549.78,332.00 550.07,332.00 550.37,332.00 550.66,197.00 550.96,197.00 551.25,197.00 551.55,197.00 551.84,197.00 552.14,197.00 552.43,197.00 552.73,197.00 553.02,197.00 553.32,197.00 553.61,197.00 553.91,197.00 554.20,197.00 554.50,197.00 554.79,197.00 555.09,197.00 555.38,197.00 555.68,197.00 555.97,197.00 556.27,197.00 556.56,197.00 556.86,197.00 557.15,197.00 557.45,197.00 557.74,197.00 558.04,197.00 558.33,197.00 558.62,197.00 558.92,197.00 559.21,197.00 559.51,197.00 559.80,197.00 560.10,197.00 560.39,197.00 560.69,197.00 560.98,197.00 561.28,197.00 561.57,197.00 561.87,197.00 562.16,197.00 562.46,197.00 562.75,197.00 563.05,197.00 563.34,197.00 563.64,197.00 563.93,197.00 564.23,197.00 564.52,197.00 564.82,197.00 565.11,197.00 565.41,197.00 565.70,197.00 566.00,197.00 566.29,197.00 566.59,197.00 566.88,197.00 567.18,197.00 567.47,197.00 567.76,197.00 568.06,197.00 568.35,197.00 568.65,197.00 568.94,197.00 569.24,197.00 569.53,332.00 569.83,332.00 570.12,332.00 570.42,332.00 570.71,332.00 571.01,332.00 571.30,332.00 571.60,332.00 571.89,197.00 572.19,197.00 572.48,197.00 572.78,197.00 573.07,197.00 573.37,197.00 573.66,197.00 573.96,197.00 574.25,197.00 574.55,197.00 574.84,197.00 575.14,197.00 575.43,197.00 575.73,197.00 576.02,197.00 576.32,197.00 576.61,197.00 576.90,197.00 577.20,197.00 577.49,197.00 577.79,197.00 578.08,197.00 578.38,197.00 578.67,197.00 578.97,197.00 579.26,197.00 579.56,197.00 579.85,197.00 580.15,197.00 580.44,197.00 580.74,197.00 581.03,197.00 581.33,197.00 581.62,197.00 581.92,197.00 582.21,197.00 582.51,197.00 582.80,197.00 583.10,197.00 583.39,197.00 583.69,197.00 583.98,197.00 584.28,197.00 584.57,197.00 584.87,332.00 585.16,332.00 585.46,332.00 585.75,332.00 586.04,332.00 586.34,332.00 586.63,332.00 586.93,332.00 587.22,197.00 587.52,197.00 587.81,197.00 588.11,197.00 588.40,197.00 588.70,197.00 588.99,197.00 589.29,197.00 589.58,197.00 589.88,467.00 590.17,467.00 590.47,467.00 590.76,467.00 591.06,467.00 591.35,467.00 591.65,467.00 591.94,467.00 592.24,467.00 592.53,467.00 592.83,467.00 593.12,467.00 593.42,467.00 593.71,467.00 594.01,467.00 594.30,467.00 594.59,467.00 594.89,467.00 595.18,467.00 595.48,467.00 595.77,197.00 596.07,467.00 596.36,197.00 596.66,197.00 596.95,197.00 597.25,197.00 597.54,197.00 597.84,197.00 598.13,197.00 598.43,197.00 598.72,332.00 599.02,197.00 599.31,197.00 599.61,197.00 599.90,197.00 600.20,197.00 600.49,197.00 600.79,197.00 601.08,197.00 601.38,197.00 601.67,197.00 601.97,197.00 602.26,197.00 602.56,197.00 602.85,197.00 603.15,197.00 603.44,197.00 603.73,197.00 604.03,197.00 604.32,197.00 604.62,197.00 604.91,197.00 605.21,197.00 605.50,197.00 605.80,197.00 606.09,197.00 606.39,197.00 606.68,197.00 606.98,197.00 607.27,197.00 607.57,197.00 607.86,197.00 608.16,197.00 608.45,197.00 608.75,197.00 609.04,197.00 609.34,197.00 609.63,197.00 609.93,467.00 610.22,467.00 610.52,467.00 610.81,467.00 611.11,467.00 611.40,467.00 611.70,467.00 611.99,467.00 612.29,467.00 612.58,467.00 612.87,467.00 613.17,467.00 613.46,467.00 613.76,467.00 614.05,467.00 614.35,467.00 614.64,467.00 614.94,467.00 615.23,467.00 615.53,467.00 615.82,467.00 616.12,467.00 616.41,467.00 616.71,467.00 617.00,467.00 617.30,467.00 617.59,467.00 617.89,467.00 618.18,467.00 618.48,467.00 618.77,467.00 619.07,467.00 619.36,467.00 619.66,467.00 619.95,467.00 620.25,467.00 620.54,467.00 620.84,467.00 621.13,467.00 621.43,467.00 621.72,467.00 622.01,467.00 622.31,467.00 622.60,467.00 622.90,467.00 623.19,467.00 623.49,467.00 623.78,467.00 624.08,467.00 624.37,467.00 624.67,467.00 624.96,467.00 625.26,467.00 625.55,467.00 625.85,467.00 626.14,467.00 626.44,467.00 626.73,467.00 627.03,467.00 627.32,467.00 627.62,467.00 627.91,467.00 628.21,467.00 628.50,467.00 628.80,467.00 629.09,467.00 629.39,467.00 629.68,467.00 629.98,467.00 630.27,467.00 630.57,467.00 630.86,467.00 631.15,467.00 631.45,467.00 631.74,467.00 632.04,467.00 632.33,467.00 632.63,467.00 632.92,467.00 633.22,467.00 633.51,467.00 633.81,467.00 634.10,467.00 634.40,467.00 634.69,467.00 634.99,467.00 635.28,467.00 635.58,467.00 635.87,467.00 636.17,467.00 636.46,467.00 636.76,467.00 637.05,467.00 637.35,467.00 637.64,467.00 637.94,467.00 638.23,467.00 638.53,467.00 638.82,467.00 639.12,467.00 639.41,467.00 639.71,467.00 640.00,467.00 640.29,467.00 640.59,467.00 640.88,467.00 641.18,467.00 641.47,467.00 641.77,467.00 642.06,467.00 642.36,467.00 642.65,332.00 642.95,332.00 643.24,332.00 643.54,332.00 643.83,332.00 644.13,332.00 644.42,332.00 644.72,332.00 645.01,467.00 645.31,467.00 645.60,467.00 645.90,467.00 646.19,332.00 646.49,332.00 646.78,332.00 647.08,332.00 647.37,332.00 647.67,197.00 647.96,197.00 648.26,197.00 648.55,197.00 648.85,197.00 649.14,197.00 649.43,197.00 649.73,197.00 650.02,197.00 650.32,197.00 650.61,197.00 650.91,197.00 651.20,197.00 651.50,197.00 651.79,197.00 652.09,197.00 652.38,197.00 652.68,197.00 652.97,197.00 653.27,197.00 653.56,197.00 653.86,197.00 654.15,197.00 654.45,197.00 654.74,197.00 655.04,197.00 655.33,197.00 655.63,197.00 655.92,197.00 656.22,197.00 656.51,197.00 656.81,197.00 657.10,197.00 657.40,197.00 657.69,197.00 657.99,197.00 658.28,197.00 658.57,197.00 658.87,197.00 659.16,197.00 659.46,197.00 659.75,197.00 660.05,197.00 660.34,197.00 660.64,197.00 660.93,197.00 661.23,197.00 661.52,197.00 661.82,197.00 662.11,197.00 662.41,197.00 662.70,197.00 663.00,197.00 663.29,197.00 663.59,197.00 663.88,197.00 664.18,197.00 664.47,197.00 664.77,197.00 665.06,197.00 665.36,197.00 665.65,197.00 665.95,197.00 666.24,197.00 666.54,197.00 666.83,332.00 667.13,332.00 667.42,332.00 667.71,332.00 668.01,332.00 668.30,332.00 668.60,332.00 668.89,332.00 669.19,332.00 669.48,197.00 669.78,197.00 670.07,197.00 670.37,197.00 670.66,197.00 670.96,197.00 671.25,197.00 671.55,197.00 671.84,197.00 672.14,197.00 672.43,197.00 672.73,197.00 673.02,197.00 673.32,197.00 673.61,197.00 673.91,197.00 674.20,197.00 674.50,197.00 674.79,197.00 675.09,197.00 675.38,332.00 675.68,332.00 675.97,332.00 676.27,332.00 676.56,332.00 676.85,332.00 677.15,332.00 677.44,332.00 677.74,197.00 678.03,197.00 678.33,197.00 678.62,197.00 678.92,197.00 679.21,197.00 679.51,332.00 679.80,332.00 680.10,332.00 680.39,332.00 680.69,197.00 680.98,197.00 681.28,197.00 681.57,197.00 681.87,197.00 682.16,197.00 682.46,197.00 682.75,197.00 683.05,197.00 683.34,197.00 683.64,197.00 683.93,197.00 684.23,197.00 684.52,197.00 684.82,197.00 685.11,197.00 685.41,197.00 685.70,197.00 685.99,197.00 686.29,197.00 686.58,197.00 686.88,197.00 687.17,197.00 687.47,197.00 687.76,197.00 688.06,197.00 688.35,197.00 688.65,197.00 688.94,197.00 689.24,197.00 689.53,197.00 689.83,197.00 690.12,197.00 690.42,197.00 690.71,197.00 691.01,197.00 691.30,197.00 691.60,197.00 691.89,197.00 692.19,197.00 692.48,197.00 692.78,197.00 693.07,197.00 693.37,197.00 693.66,197.00 693.96,197.00 694.25,197.00 694.54,197.00 694.84,197.00 695.13,197.00 695.43,197.00 695.72,197.00 696.02,197.00 696.31,197.00 696.61,197.00 696.90,197.00 697.20,197.00 697.49,332.00 697.79,332.00 698.08,332.00 698.38,332.00 698.67,332.00 698.97,332.00 699.26,332.00 699.56,332.00 699.85,332.00 700.15,332.00 700.44,332.00 700.74,332.00 701.03,332.00 701.33,332.00 701.62,332.00 701.92,332.00 702.21,332.00 702.51,332.00 702.80,332.00 703.10,332.00 703.39,332.00 703.68,332.00 703.98,332.00 704.27,332.00 704.57,332.00 704.86,332.00 705.16,332.00 705.45,332.00 705.75,332.00 706.04,332.00 706.34,332.00 706.63,332.00 706.93,332.00 707.22,332.00 707.52,332.00 707.81,332.00 708.11,332.00 708.40,332.00 708.70,332.00 708.99,332.00 709.29,332.00 709.58,332.00 709.88,332.00 710.17,332.00 710.47,332.00 710.76,332.00 711.06,332.00 711.35,332.00 711.65,332.00 711.94,332.00 712.24,332.00 712.53,332.00 712.82,332.00 713.12,332.00 713.41,332.00 713.71,332.00 714.00,332.00 714.30,332.00 714.59,332.00 714.89,332.00 715.18,332.00 715.48,332.00 715.77,332.00 716.07,332.00 716.36,332.00 716.66,332.00 716.95,332.00 717.25,332.00 717.54,332.00 717.84,332.00 718.13,332.00 718.43,332.00 718.72,332.00 719.02,332.00 719.31,332.00 719.61,332.00 719.90,332.00 720.20,332.00 720.49,332.00 720.79,332.00 721.08,332.00 721.38,332.00 721.67,332.00 721.96,332.00 722.26,332.00 722.55,332.00 722.85,332.00 723.14,332.00 723.44,332.00 723.73,332.00 724.03,332.00 724.32,332.00 724.62,332.00 724.91,332.00 725.21,332.00 725.50,332.00 725.80,332.00 726.09,332.00 726.39,332.00 726.68,332.00 726.98,332.00 727.27,332.00 727.57,332.00 727.86,332.00 728.16,332.00 728.45,332.00 728.75,332.00 729.04,332.00 729.34,332.00 729.63,332.00 729.93,332.00 730.22,332.00 730.52,332.00 730.81,332.00 731.10,332.00 731.40,332.00 731.69,332.00 731.99,332.00 732.28,332.00 732.58,332.00 732.87,332.00 733.17,332.00 733.46,332.00 733.76,332.00 734.05,332.00 734.35,332.00 734.64,332.00 734.94,332.00 735.23,332.00 735.53,332.00 735.82,332.00 736.12,332.00 736.41,332.00 736.71,332.00 737.00,332.00 737.30,332.00 737.59,332.00 737.89,332.00 738.18,332.00 738.48,332.00 738.77,332.00 739.07,332.00 739.36,332.00 739.66,332.00 739.95,332.00 740.24,332.00 740.54,332.00 740.83,332.00 741.13,332.00 741.42,332.00 741.72,332.00 742.01,332.00 742.31,332.00 742.60,332.00 742.90,332.00 743.19,332.00 743.49,332.00 743.78,332.00 744.08,332.00 744.37,332.00 744.67,332.00 744.96,332.00 745.26,332.00 745.55,332.00 745.85,332.00 746.14,332.00 746.44,332.00 746.73,332.00 747.03,332.00 747.32,332.00 747.62,332.00 747.91,332.00 748.21,332.00 748.50,332.00 748.80,332.00 749.09,332.00 749.38,332.00 749.68,332.00 749.97,332.00 750.27,332.00 750.56,332.00 750.86,332.00 751.15,332.00 751.45,332.00 751.74,332.00 752.04,332.00 752.33,332.00 752.63,332.00 752.92,332.00 753.22,332.00 753.51,332.00 753.81,332.00 754.10,332.00 754.40,332.00 754.69,332.00 754.99,332.00 755.28,332.00 755.58,332.00 755.87,332.00 756.17,332.00 756.46,332.00 756.76,332.00 757.05,332.00 757.35,332.00 757.64,332.00 757.94,332.00 758.23,332.00 758.52,332.00 758.82,332.00 759.11,332.00 759.41,332.00 759.70,332.00 760.00,332.00 760.29,332.00 760.59,332.00 760.88,332.00 761.18,332.00 761.47,332.00 761.77,332.00 762.06,332.00 762.36,332.00 762.65,332.00 762.95,332.00 763.24,332.00 763.54,332.00 763.83,332.00 764.13,332.00 764.42,332.00 764.72,332.00 765.01,332.00 765.31,332.00 765.60,197.00 765.90,197.00 766.19,197.00 766.49,197.00 766.78,197.00 767.08,197.00 767.37,197.00 767.66,197.00 767.96,197.00 768.25,197.00 768.55,197.00 768.84,197.00 769.14,197.00 769.43,197.00 769.73,197.00 770.02,197.00 770.32,197.00 770.61,197.00 770.91,197.00 771.20,197.00 771.50,197.00 771.79,197.00 772.09,197.00 772.38,197.00 772.68,197.00 772.97,197.00 773.27,197.00 773.56,197.00 773.86,197.00 774.15,197.00 774.45,197.00 774.74,197.00 775.04,197.00 775.33,197.00 775.63,197.00 775.92,197.00 776.22,197.00 776.51,197.00 776.80,197.00 777.10,197.00 777.39,197.00 777.69,197.00 777.98,197.00 778.28,197.00 778.57,197.00 778.87,197.00 779.16,197.00 779.46,197.00 779.75,197.00 780.05,197.00 780.34,197.00 780.64,197.00 780.93,197.00 781.23,197.00 781.52,197.00 781.82,197.00 782.11,197.00 782.41,197.00 782.70,197.00 783.00,197.00 783.29,197.00 783.59,197.00 783.88,197.00 784.18,197.00 784.47,197.00 784.77,197.00 785.06,197.00 785.35,197.00 785.65,197.00 785.94,197.00 786.24,197.00 786.53,197.00 786.83,197.00 787.12,197.00 787.42,197.00 787.71,197.00 788.01,197.00 788.30,197.00 788.60,197.00 788.89,197.00 789.19,197.00 789.48,197.00 789.78,197.00 790.07,197.00 790.37,197.00 790.66,197.00 790.96,197.00 791.25,197.00 791.55,197.00 791.84,197.00 792.14,197.00 792.43,467.00 792.73,467.00 793.02,467.00 793.32,467.00 793.61,467.00 793.91,467.00 794.20,467.00 794.49,467.00 794.79,467.00 795.08,467.00 795.38,467.00 795.67,467.00 795.97,467.00 796.26,332.00 796.56,332.00 796.85,332.00 797.15,332.00 797.44,332.00 797.74,332.00 798.03,332.00 798.33,332.00 798.62,197.00 798.92,197.00 799.21,197.00 799.51,197.00 799.80,197.00 800.10,197.00 800.39,197.00 800.69,197.00 800.98,197.00 801.28,197.00 801.57,197.00 801.87,197.00 802.16,467.00 802.46,467.00 802.75,467.00 803.05,467.00 803.34,467.00 803.63,467.00 803.93,197.00 804.22,197.00 804.52,197.00 804.81,197.00 805.11,197.00 805.40,197.00 805.70,197.00 805.99,197.00 806.29,197.00 806.58,197.00 806.88,197.00 807.17,197.00 807.47,197.00 807.76,197.00 808.06,197.00 808.35,197.00 808.65,197.00 808.94,197.00 809.24,197.00 809.53,197.00 809.83,197.00 810.12,197.00 810.42,197.00 810.71,197.00 811.01,197.00 811.30,197.00 811.60,197.00 811.89,197.00 812.19,197.00 812.48,197.00 812.77,197.00 813.07,197.00 813.36,197.00 813.66,197.00 813.95,197.00 814.25,197.00 814.54,197.00 814.84,197.00 815.13,197.00 815.43,197.00 815.72,197.00 816.02,197.00 816.31,197.00 816.61,197.00 816.90,197.00 817.20,197.00 817.49,197.00 817.79,197.00 818.08,197.00 818.38,197.00 818.67,197.00 818.97,197.00 819.26,197.00 819.56,197.00 819.85,197.00 820.15,197.00 820.44,197.00 820.74,197.00 821.03,197.00 821.33,197.00 821.62,197.00 821.91,197.00 822.21,197.00 822.50,197.00 822.80,197.00 823.09,197.00 823.39,197.00 823.68,197.00 823.98,197.00 824.27,197.00 824.57,197.00 824.86,197.00 825.16,197.00 825.45,197.00 825.75,197.00 826.04,197.00 826.34,197.00 826.63,197.00 826.93,332.00 827.22,332.00 827.52,332.00 827.81,332.00 828.11,197.00 828.40,197.00 828.70,197.00 828.99,197.00 829.29,197.00 829.58,197.00 829.88,197.00 830.17,197.00 830.47,332.00 830.76,332.00 831.05,332.00 831.35,332.00 831.64,332.00 831.94,332.00 832.23,332.00 832.53,332.00 832.82,467.00 833.12,467.00 833.41,467.00 833.71,467.00 834.00,467.00 834.30,467.00 834.59,467.00 834.89,467.00 835.18,602.00 835.48,602.00 835.77,602.00 836.07,602.00 836.36,467.00 836.66,467.00 836.95,467.00 837.25,467.00 837.54,332.00 837.84,332.00 838.13,332.00 838.43,332.00 838.72,332.00 839.02,332.00 839.31,332.00 839.61,197.00 839.90,197.00 840.19,197.00 840.49,197.00 840.78,197.00 841.08,197.00 841.37,197.00 841.67,197.00 841.96,197.00 842.26,197.00 842.55,197.00 842.85,197.00 843.14,332.00 843.44,332.00 843.73,332.00 844.03,332.00 844.32,197.00 844.62,197.00 844.91,197.00 845.21,197.00 845.50,197.00 845.80,197.00 846.09,197.00 846.39,197.00 846.68,197.00 846.98,332.00 847.27,332.00 847.57,332.00 847.86,332.00 848.16,197.00 848.45,197.00 848.75,197.00 849.04,197.00 849.33,197.00 849.63,197.00 849.92,197.00 850.22,197.00 850.51,197.00 850.81,197.00 851.10,197.00 851.40,197.00 851.69,197.00 851.99,197.00 852.28,197.00 852.58,197.00 852.87,197.00 853.17,197.00 853.46,197.00 853.76,197.00 854.05,197.00 854.35,197.00 854.64,197.00 854.94,197.00 855.23,197.00 855.53,197.00 855.82,332.00 856.12,332.00 856.41,332.00 856.71,332.00 857.00,332.00 857.30,332.00 857.59,332.00 857.89,332.00 858.18,197.00 858.47,197.00 858.77,197.00 859.06,197.00 859.36,197.00 859.65,197.00 859.95,197.00 860.24,197.00 860.54,467.00 860.83,467.00 861.13,467.00 861.42,467.00 861.72,467.00 862.01,467.00 862.31,467.00 862.60,467.00 862.90,467.00 863.19,467.00 863.49,467.00 863.78,467.00 864.08,467.00 864.37,467.00 864.67,467.00 864.96,467.00 865.26,467.00 865.55,467.00 865.85,467.00 866.14,467.00 866.44,467.00 866.73,467.00 867.03,467.00 867.32,467.00 867.61,467.00 867.91,467.00 868.20,467.00 868.50,467.00 868.79,467.00 869.09,467.00 869.38,467.00 869.68,467.00 869.97,467.00 870.27,467.00 870.56,467.00 870.86,467.00 871.15,467.00 871.45,467.00 871.74,467.00 872.04,467.00 872.33,467.00 872.63,467.00 872.92,467.00 873.22,467.00 873.51,467.00 873.81,467.00 874.10,467.00 874.40,467.00 874.69,467.00 874.99,467.00 875.28,467.00 875.58,467.00 875.87,467.00 876.16,467.00 876.46,467.00 876.75,467.00 877.05,467.00 877.34,467.00 877.64,467.00 877.93,467.00 878.23,467.00 878.52,467.00 878.82,467.00 879.11,467.00 879.41,467.00 879.70,467.00 880.00,467.00 880.29,467.00 880.59,467.00 880.88,467.00 881.18,467.00 881.47,467.00 881.77,467.00 882.06,467.00 882.36,467.00 882.65,467.00 882.95,467.00 883.24,467.00 883.54,467.00 883.83,467.00 884.13,467.00 884.42,467.00 884.72,467.00 885.01,467.00 885.30,467.00 885.60,467.00 885.89,467.00 886.19,467.00 886.48,467.00 886.78,467.00 887.07,467.00 887.37,467.00 887.66,467.00 887.96,467.00 888.25,467.00 888.55,602.00 888.84,602.00 889.14,602.00 889.43,602.00 889.73,602.00 890.02,602.00 890.32,602.00 890.61,602.00 890.91,602.00 891.20,602.00 891.50,602.00 891.79,602.00 892.09,602.00 892.38,602.00 892.68,602.00 892.97,602.00 893.27,602.00 893.56,602.00 893.86,197.00 894.15,197.00 894.44,197.00 894.74,197.00 895.03,197.00 895.33,197.00 895.62,197.00 895.92,197.00 896.21,197.00 896.51,197.00 896.80,197.00 897.10,197.00 897.39,197.00 897.69,197.00 897.98,197.00 898.28,197.00 898.57,197.00 898.87,197.00 899.16,197.00 899.46,197.00 899.75,197.00 900.05,197.00 900.34,197.00 900.64,197.00 900.93,197.00 901.23,197.00 901.52,197.00 901.82,197.00 902.11,197.00 902.41,197.00 902.70,197.00 903.00,197.00 903.29,197.00 903.58,197.00 903.88,197.00 904.17,197.00 904.47,197.00 904.76,197.00 905.06,197.00 905.35,467.00 905.65,467.00 905.94,467.00 906.24,467.00 906.53,467.00 906.83,467.00 907.12,467.00 907.42,467.00 907.71,467.00 908.01,467.00 908.30,467.00 908.60,467.00 908.89,467.00 909.19,467.00 909.48,467.00 909.78,467.00 910.07,467.00 910.37,467.00 910.66,467.00 910.96,467.00 911.25,467.00 911.55,467.00 911.84,467.00 912.14,467.00 912.43,467.00 912.72,467.00 913.02,467.00 913.31,467.00 913.61,467.00 913.90,467.00 914.20,467.00 914.49,467.00 914.79,467.00 915.08,467.00 915.38,467.00 915.67,467.00 915.97,602.00 916.26,602.00 916.56,602.00 916.85,602.00 917.15,602.00 917.44,602.00 917.74,602.00 918.03,602.00 918.33,602.00 918.62,602.00 918.92,602.00 919.21,602.00 919.51,467.00 919.80,467.00 920.10,467.00 920.39,467.00 920.69,332.00 920.98,332.00 921.28,332.00 921.57,332.00 921.86,332.00 922.16,197.00 922.45,197.00 922.75,197.00 923.04,197.00 923.34,197.00 923.63,197.00 923.93,197.00 924.22,197.00 924.52,332.00 924.81,332.00 925.11,332.00 925.40,332.00 925.70,332.00 925.99,197.00 926.29,197.00 926.58,197.00 926.88,197.00 927.17,197.00 927.47,197.00 927.76,197.00 928.06,197.00 928.35,332.00 928.65,332.00 928.94,332.00 929.24,332.00 929.53,332.00 929.83,332.00 930.12,332.00 930.42,332.00 930.71,332.00 931.00,332.00 931.30,332.00 931.59,332.00 931.89,332.00 932.18,332.00 932.48,332.00 932.77,332.00 933.07,332.00 933.36,332.00 933.66,332.00 933.95,332.00 934.25,332.00 934.54,332.00 934.84,332.00 935.13,332.00 935.43,332.00 935.72,332.00 936.02,332.00 936.31,332.00 936.61,332.00 936.90,332.00 937.20,332.00 937.49,332.00 937.79,332.00 938.08,332.00 938.38,332.00 938.67,332.00 938.97,332.00 939.26,332.00 939.56,332.00 939.85,467.00 940.14,467.00 940.44,467.00 940.73,467.00 941.03,467.00 941.32,467.00 941.62,467.00 941.91,467.00 942.21,332.00 942.50,332.00 942.80,332.00 943.09,332.00 943.39,332.00 943.68,332.00 943.98,332.00 944.27,332.00 944.57,332.00 944.86,332.00 945.16,332.00 945.45,332.00 945.75,332.00 946.04,332.00 946.34,332.00 946.63,332.00 946.93,332.00 947.22,332.00 947.52,332.00 947.81,332.00 948.11,332.00 948.40,332.00 948.70,332.00 948.99,332.00 949.28,332.00 949.58,332.00 949.87,332.00 950.17,332.00 950.46,332.00 950.76,332.00 951.05,332.00 951.35,332.00 951.64,332.00 951.94,332.00 952.23,332.00 952.53,332.00 952.82,467.00 953.12,467.00 953.41,467.00 953.71,467.00 954.00,467.00 954.30,467.00 954.59,467.00 954.89,467.00 955.18,602.00 955.48,602.00 955.77,602.00 956.07,602.00 956.36,602.00 956.66,602.00 956.95,602.00 957.25,602.00 957.54,602.00 957.84,602.00 958.13,602.00 958.42,602.00 958.72,602.00 959.01,602.00 959.31,602.00 959.60,602.00 959.90,602.00 960.19,602.00 960.49,602.00 960.78,602.00 961.08,602.00 961.37,602.00 961.67,602.00 961.96,602.00 962.26,602.00 962.55,602.00 962.85,602.00 963.14,602.00 963.44,602.00 963.73,602.00 964.03,602.00 964.32,602.00 964.62,602.00 964.91,602.00 965.21,602.00 965.50,602.00 965.80,602.00 966.09,602.00 966.39,602.00 966.68,602.00 966.97,602.00 967.27,602.00 967.56,602.00 967.86,602.00 968.15,602.00 968.45,602.00 968.74,602.00 969.04,602.00 969.33,602.00 969.63,602.00 969.92,602.00 970.22,602.00 970.51,602.00 970.81,602.00 971.10,602.00 971.40,602.00 971.69,602.00 971.99,602.00 972.28,602.00 972.58,602.00 972.87,602.00 973.17,602.00 973.46,602.00 973.76,602.00 974.05,602.00 974.35,602.00 974.64,602.00 974.94,602.00 975.23,602.00 975.53,602.00 975.82,602.00 976.11,602.00 976.41,602.00 976.70,602.00 977.00,602.00 977.29,602.00 977.59,602.00 977.88,602.00 978.18,602.00 978.47,602.00 978.77,602.00 979.06,602.00 979.36,602.00 979.65,602.00 979.95,602.00 980.24,602.00 980.54,602.00 980.83,602.00 981.13,602.00 981.42,602.00 981.72,602.00 982.01,602.00 982.31,602.00 982.60,602.00 982.90,602.00 983.19,602.00 983.49,602.00 983.78,602.00 984.08,602.00 984.37,602.00 984.67,602.00 984.96,602.00 985.25,602.00 985.55,602.00 985.84,602.00 986.14,602.00 986.43,602.00 986.73,602.00 987.02,602.00 987.32,602.00 987.61,602.00 987.91,602.00 988.20,602.00 988.50,602.00 988.79,602.00 989.09,602.00 989.38,602.00 989.68,602.00 989.97,602.00 990.27,602.00 990.56,602.00 990.86,602.00 991.15,602.00 991.45,602.00 991.74,602.00 992.04,602.00 992.33,602.00 992.63,602.00 992.92,602.00 993.22,602.00 993.51,602.00 993.81,602.00 994.10,602.00 994.39,602.00 994.69,602.00 994.98,602.00 995.28,602.00 995.57,602.00 995.87,602.00 996.16,602.00 996.46,602.00 996.75,602.00 997.05,602.00 997.34,602.00 997.64,602.00 997.93,602.00 998.23,602.00 998.52,602.00 998.82,602.00 999.11,602.00 999.41,602.00 999.70,602.00 1000.00,602.00 1000.29,602.00 1000.59,602.00 1000.88,602.00 1001.18,602.00 1001.47,467.00 1001.77,467.00 1002.06,467.00 1002.36,467.00 1002.65,467.00 1002.95,467.00 1003.24,467.00 1003.53,467.00 1003.83,467.00 1004.12,467.00 1004.42,467.00 1004.71,467.00 1005.01,467.00 1005.30,602.00 1005.60,602.00 1005.89,602.00 1006.19,602.00 1006.48,602.00 1006.78,602.00 1007.07,602.00 1007.37,602.00 1007.66,602.00 1007.96,602.00 1008.25,602.00 1008.55,602.00 1008.84,602.00 1009.14,602.00 1009.43,602.00 1009.73,602.00 1010.02,602.00 1010.32,602.00 1010.61,602.00 1010.91,602.00 1011.20,602.00 1011.50,602.00 1011.79,602.00 1012.09,602.00 1012.38,602.00 1012.67,602.00 1012.97,602.00 1013.26,602.00 1013.56,602.00 1013.85,602.00 1014.15,602.00 1014.44,602.00 1014.74,602.00 1015.03,602.00 1015.33,602.00 1015.62,602.00 1015.92,602.00 1016.21,602.00 1016.51,602.00 1016.80,602.00 1017.10,602.00 1017.39,602.00 1017.69,602.00 1017.98,602.00 1018.28,602.00 1018.57,602.00 1018.87,602.00 1019.16,602.00 1019.46,602.00 1019.75,602.00 1020.05,602.00 1020.34,602.00 1020.64,602.00 1020.93,602.00 1021.23,602.00 1021.52,602.00 1021.81,602.00 1022.11,602.00 1022.40,602.00 1022.70,602.00 1022.99,602.00 1023.29,602.00 1023.58,602.00 1023.88,602.00 1024.17,602.00 1024.47,602.00 1024.76,602.00 1025.06,602.00 1025.35,602.00 1025.65,602.00 1025.94,602.00 1026.24,602.00 1026.53,602.00 1026.83,602.00 1027.12,602.00 1027.42,602.00 1027.71,602.00 1028.01,602.00 1028.30,602.00 1028.60,602.00 1028.89,602.00 1029.19,602.00 1029.48,602.00 1029.78,602.00 1030.07,602.00 1030.37,602.00 1030.66,602.00 1030.95,602.00 1031.25,602.00 1031.54,602.00 1031.84,602.00 1032.13,602.00 1032.43,602.00 1032.72,602.00 1033.02,602.00 1033.31,602.00 1033.61,602.00 1033.90,602.00 1034.20,602.00 1034.49,602.00 1034.79,602.00 1035.08,602.00 1035.38,602.00 1035.67,602.00 1035.97,602.00 1036.26,602.00 1036.56,602.00 1036.85,602.00 1037.15,602.00 1037.44,602.00 1037.74,602.00 1038.03,602.00 1038.33,602.00 1038.62,602.00 1038.92,602.00 1039.21,602.00 1039.51,602.00 1039.80,602.00 1040.09,602.00 1040.39,602.00 1040.68,602.00 1040.98,602.00 1041.27,602.00 1041.57,602.00 1041.86,602.00 1042.16,602.00 1042.45,602.00 1042.75,602.00 1043.04,602.00 1043.34,602.00 1043.63,602.00 1043.93,602.00 1044.22,602.00 1044.52,602.00 1044.81,602.00 1045.11,602.00 1045.40,602.00 1045.70,602.00 1045.99,602.00 1046.29,602.00 1046.58,602.00 1046.88,602.00 1047.17,602.00 1047.47,602.00 1047.76,602.00 1048.06,602.00 1048.35,602.00 1048.65,602.00 1048.94,602.00 1049.23,602.00 1049.53,602.00 1049.82,602.00 1050.12,602.00 1050.41,602.00 1050.71,602.00 1051.00,602.00 1051.30,602.00 1051.59,602.00 1051.89,602.00 1052.18,602.00 1052.48,602.00 1052.77,602.00 1053.07,602.00 1053.36,602.00 1053.66,602.00 1053.95,602.00 1054.25,602.00 1054.54,602.00 1054.84,602.00 1055.13,602.00 1055.43,602.00 1055.72,602.00 1056.02,602.00 1056.31,602.00 1056.61,602.00 1056.90,602.00 1057.20,602.00 1057.49,602.00 1057.78,602.00 1058.08,602.00 1058.37,602.00 1058.67,602.00 1058.96,602.00 1059.26,602.00 1059.55,602.00 1059.85,602.00 1060.14,602.00 1060.44,602.00 1060.73,602.00 1061.03,602.00 1061.32,602.00 1061.62,602.00 1061.91,602.00 1062.21,602.00 1062.50,602.00 1062.80,602.00 1063.09,602.00 1063.39,602.00 1063.68,602.00 1063.98,602.00 1064.27,602.00 1064.57,602.00 1064.86,602.00 1065.16,602.00 1065.45,602.00 1065.75,602.00 1066.04,602.00 1066.34,602.00 1066.63,602.00 1066.92,602.00 1067.22,602.00 1067.51,602.00 1067.81,602.00 1068.10,602.00 1068.40,602.00 1068.69,602.00 1068.99,602.00 1069.28,602.00 1069.58,602.00 1069.87,602.00 1070.17,602.00 1070.46,602.00 1070.76,602.00 1071.05,602.00 1071.35,602.00 1071.64,602.00 1071.94,602.00 1072.23,602.00 1072.53,602.00 1072.82,602.00 1073.12,602.00 1073.41,602.00 1073.71,602.00 1074.00,602.00 1074.30,602.00 1074.59,602.00 1074.89,602.00 1075.18,602.00 1075.48,602.00 1075.77,602.00 1076.06,602.00 1076.36,602.00 1076.65,602.00 1076.95,602.00 1077.24,467.00 1077.54,467.00 1077.83,467.00 1078.13,467.00 1078.42,467.00 1078.72,467.00 1079.01,467.00 1079.31,467.00 1079.60,467.00 1079.90,467.00 1080.19,467.00 1080.49,467.00 1080.78,467.00 1081.08,467.00 1081.37,467.00 1081.67,467.00 1081.96,467.00 1082.26,602.00 1082.55,602.00 1082.85,602.00 1083.14,602.00 1083.44,602.00 1083.73,602.00 1084.03,602.00 1084.32,602.00 1084.62,602.00 1084.91,602.00 1085.20,602.00 1085.50,602.00 1085.79,602.00 1086.09,602.00 1086.38,602.00 1086.68,602.00 1086.97,602.00 1087.27,602.00 1087.56,602.00 1087.86,602.00 1088.15,602.00 1088.45,602.00 1088.74,602.00 1089.04,602.00 1089.33,602.00 1089.63,602.00 1089.92,602.00 1090.22,602.00 1090.51,602.00 1090.81,602.00 1091.10,602.00 1091.40,602.00 1091.69,602.00 1091.99,602.00 1092.28,602.00 1092.58,602.00 1092.87,602.00 1093.17,602.00 1093.46,602.00 1093.76,467.00 1094.05,467.00 1094.34,467.00 1094.64,467.00 1094.93,467.00 1095.23,467.00 1095.52,467.00 1095.82,467.00 1096.11,467.00 1096.41,467.00 1096.70,467.00 1097.00,467.00 1097.29,467.00 1097.59,602.00 1097.88,602.00 1098.18,602.00 1098.47,602.00 1098.77,602.00 1099.06,602.00 1099.36,602.00 1099.65,602.00 1099.95,602.00 1100.24,602.00 1100.54,602.00 1100.83,602.00 1101.13,602.00 1101.42,602.00 1101.72,602.00 1102.01,602.00 1102.31,602.00 1102.60,602.00 1102.90,602.00 1103.19,602.00 1103.48,602.00 1103.78,602.00 1104.07,602.00 1104.37,602.00 1104.66,602.00 1104.96,602.00 1105.25,602.00 1105.55,602.00 1105.84,602.00 1106.14,602.00 1106.43,602.00 1106.73,602.00 1107.02,602.00 1107.32,602.00 1107.61,602.00 1107.91,602.00 1108.20,602.00 1108.50,602.00 1108.79,602.00 1109.09,602.00 1109.38,602.00 1109.68,602.00 1109.97,602.00 1110.27,602.00 1110.56,602.00 1110.86,602.00 1111.15,602.00 1111.45,602.00 1111.74,602.00 1112.04,602.00 1112.33,602.00 1112.62,602.00 1112.92,602.00 1113.21,602.00 1113.51,602.00 1113.80,602.00 1114.10,602.00 1114.39,602.00 1114.69,602.00 1114.98,602.00 1115.28,602.00 1115.57,602.00 1115.87,602.00 1116.16,602.00 1116.46,602.00 1116.75,602.00 1117.05,602.00 1117.34,602.00 1117.64,602.00 1117.93,602.00 1118.23,602.00 1118.52,602.00 1118.82,602.00 1119.11,602.00 1119.41,602.00 1119.70,602.00 1120.00,602.00 1120.29,602.00 1120.59,602.00 1120.88,602.00 1121.18,602.00 1121.47,602.00 1121.76,602.00 1122.06,602.00 1122.35,602.00 1122.65,602.00 1122.94,602.00 1123.24,602.00 1123.53,602.00 1123.83,602.00 1124.12,602.00 1124.42,602.00 1124.71,602.00 1125.01,602.00 1125.30,602.00 1125.60,602.00 1125.89,602.00 1126.19,602.00 1126.48,602.00 1126.78,602.00 1127.07,602.00 1127.37,602.00 1127.66,602.00 1127.96,602.00 1128.25,602.00 1128.55,602.00 1128.84,602.00 1129.14,602.00 1129.43,602.00 1129.73,602.00 1130.02,602.00 1130.32,602.00 1130.61,602.00 1130.90,602.00 1131.20,602.00 1131.49,602.00 1131.79,602.00 1132.08,602.00 1132.38,602.00 1132.67,602.00 1132.97,602.00 1133.26,602.00 1133.56,602.00 1133.85,602.00 1134.15,602.00 1134.44,602.00 1134.74,602.00 1135.03,602.00 1135.33,602.00 1135.62,602.00 1135.92,602.00 1136.21,602.00 1136.51,602.00 1136.80,602.00 1137.10,602.00 1137.39,602.00 1137.69,602.00 1137.98,602.00 1138.28,602.00 1138.57,602.00 1138.87,602.00 1139.16,602.00 1139.46,602.00 1139.75,602.00 1140.04,467.00 1140.34,467.00 1140.63,467.00 1140.93,467.00 1141.22,467.00 1141.52,467.00 1141.81,467.00 1142.11,467.00 1142.40,467.00 1142.70,467.00 1142.99,467.00 1143.29,467.00 1143.58,467.00 1143.88,467.00 1144.17,467.00 1144.47,467.00 1144.76,332.00 1145.06,332.00 1145.35,332.00 1145.65,332.00 1145.94,332.00 1146.24,332.00 1146.53,332.00 1146.83,332.00 1147.12,197.00 1147.42,197.00 1147.71,197.00 1148.01,197.00 1148.30,197.00 1148.59,197.00 1148.89,437.85 1149.18,437.85 1149.48,437.85 1149.77,197.00 1150.07,197.00 1150.36,437.85 1150.66,437.85 1150.95,437.85 1151.25,437.85 1151.54,197.00 1151.84,197.00 1152.13,197.00 1152.43,197.00 1152.72,197.00 1153.02,197.00 1153.31,197.00 1153.61,197.00 1153.90,197.00 1154.20,197.00 1154.49,197.00 1154.79,197.00 1155.08,197.00 1155.38,197.00 1155.67,197.00 1155.97,197.00 1156.26,197.00 1156.56,197.00 1156.85,197.00 1157.15,197.00 1157.44,197.00 1157.73,197.00 1158.03,197.00 1158.32,197.00 1158.62,197.00 1158.91,197.00 1159.21,602.00 1159.50,602.00 1159.80,602.00 1160.09,602.00 1160.39,197.00 1160.68,197.00 1160.98,197.00 1161.27,197.00 1161.57,197.00 1161.86,197.00 1162.16,197.00 1162.45,197.00 1162.75,197.00 1163.04,197.00 1163.34,197.00 1163.63,197.00 1163.93,197.00 1164.22,197.00 1164.52,197.00 1164.81,197.00 1165.11,197.00 1165.40,197.00 1165.70,197.00 1165.99,197.00 1166.29,197.00 1166.58,197.00 1166.87,197.00 1167.17,197.00 1167.46,197.00 1167.76,197.00 1168.05,197.00 1168.35,197.00 1168.64,197.00 1168.94,197.00 1169.23,197.00 1169.53,197.00 1169.82,197.00 1170.12,197.00 1170.41,197.00 1170.71,197.00 1171.00,197.00 1171.30,197.00 1171.59,197.00 1171.89,197.00 1172.18,197.00 1172.48,197.00 1172.77,197.00 1173.07,197.00 1173.36,197.00 1173.66,197.00 1173.95,197.00 1174.25,197.00 1174.54,197.00 1174.84,197.00 1175.13,197.00 1175.43,197.00 1175.72,197.00 1176.01,197.00 1176.31,197.00 1176.60,197.00 1176.90,197.00 1177.19,197.00 1177.49,197.00 1177.78,197.00 1178.08,197.00 1178.37,197.00 1178.67,197.00 1178.96,197.00 1179.26,197.00 1179.55,197.00 1179.85,197.00 1180.14,197.00 1180.44,197.00 1180.73,332.00 1181.03,332.00 1181.32,332.00 1181.62,332.00 1181.91,332.00 1182.21,332.00 1182.50,332.00 1182.80,332.00 1183.09,332.00 1183.39,332.00 1183.68,332.00 1183.98,332.00 1184.27,332.00 1184.57,332.00 1184.86,332.00 1185.15,197.00 1185.45,197.00 1185.74,197.00 1186.04,197.00 1186.33,197.00 1186.63,197.00 1186.92,197.00 1187.22,197.00 1187.51,332.00 1187.81,332.00 1188.10,332.00 1188.40,332.00 1188.69,332.00 1188.99,332.00 1189.28,332.00 1189.58,332.00 1189.87,467.00 1190.17,467.00 1190.46,467.00 1190.76,467.00 1191.05,467.00 1191.35,467.00 1191.64,467.00 1191.94,467.00 1192.23,467.00 1192.53,467.00 1192.82,467.00 1193.12,467.00 1193.41,467.00 1193.71,332.00 1194.00,332.00"/>
<line x1="104" y1="84" x2="138" y2="84" stroke="#073b3a" stroke-width="4"/>
<text class="small" x="148" y="89">Obligacje 30+: 50.0%; floating/gotowka: 50.0%</text>
</svg>