<?xml version="1.0" encoding="UTF-8"?>
<svg xmlns="http://www.w3.org/2000/svg" width="1280" height="680" viewBox="0 0 1280 680">
<rect width="100%" height="100%" fill="#fbfbf8"/>
<style>text{font-family:Segoe UI,Arial,sans-serif;fill:#222}.title{font-size:24px;font-weight:700}.small{font-size:13px}.tick{font-size:12px;fill:#555}.axis{font-size:14px;font-weight:600}</style>
<text class="title" x="86" y="32">Proporcja obligacje 30+ / zmiennoprocentowe</text>
<text class="small" x="86" y="56">Jedna linia pokazuje udzial obligacji 30+ w czesci defensywnej: 0% = floating/gotowka, 50% = pol na pol, 100% = calosc 30+</text>
<line x1="86" y1="602.00" x2="1194" y2="602.00" stroke="#deded8" stroke-width="1"/>
<text class="tick" x="76" y="606.00" text-anchor="end">0%</text>
<line x1="86" y1="548.00" x2="1194" y2="548.00" stroke="#deded8" stroke-width="1"/>
<text class="tick" x="76" y="552.00" text-anchor="end">10%</text>
<line x1="86" y1="494.00" x2="1194" y2="494.00" stroke="#deded8" stroke-width="1"/>
<text class="tick" x="76" y="498.00" text-anchor="end">20%</text>
<line x1="86" y1="440.00" x2="1194" y2="440.00" stroke="#deded8" stroke-width="1"/>
<text class="tick" x="76" y="444.00" text-anchor="end">30%</text>
<line x1="86" y1="386.00" x2="1194" y2="386.00" stroke="#deded8" stroke-width="1"/>
<text class="tick" x="76" y="390.00" text-anchor="end">40%</text>
<line x1="86" y1="332.00" x2="1194" y2="332.00" stroke="#deded8" stroke-width="1"/>
<text class="tick" x="76" y="336.00" text-anchor="end">50%</text>
<line x1="86" y1="278.00" x2="1194" y2="278.00" stroke="#deded8" stroke-width="1"/>
<text class="tick" x="76" y="282.00" text-anchor="end">60%</text>
<line x1="86" y1="224.00" x2="1194" y2="224.00" stroke="#deded8" stroke-width="1"/>
<text class="tick" x="76" y="228.00" text-anchor="end">70%</text>
<line x1="86" y1="170.00" x2="1194" y2="170.00" stroke="#deded8" stroke-width="1"/>
<text class="tick" x="76" y="174.00" text-anchor="end">80%</text>
<line x1="86" y1="116.00" x2="1194" y2="116.00" stroke="#deded8" stroke-width="1"/>
<text class="tick" x="76" y="120.00" text-anchor="end">90%</text>
<line x1="86" y1="62.00" x2="1194" y2="62.00" stroke="#deded8" stroke-width="1"/>
<text class="tick" x="76" y="66.00" text-anchor="end">100%</text>
<line x1="101.71" y1="62" x2="101.71" y2="602" stroke="#eeeeea" stroke-width="1"/>
<text class="tick" x="101.71" y="636" text-anchor="middle">1955</text>
<line x1="253.01" y1="62" x2="253.01" y2="602" stroke="#eeeeea" stroke-width="1"/>
<text class="tick" x="253.01" y="636" text-anchor="middle">1960</text>
<line x1="404.90" y1="62" x2="404.90" y2="602" stroke="#eeeeea" stroke-width="1"/>
<text class="tick" x="404.90" y="636" text-anchor="middle">1965</text>
<line x1="556.78" y1="62" x2="556.78" y2="602" stroke="#eeeeea" stroke-width="1"/>
<text class="tick" x="556.78" y="636" text-anchor="middle">1970</text>
<line x1="708.67" y1="62" x2="708.67" y2="602" stroke="#eeeeea" stroke-width="1"/>
<text class="tick" x="708.67" y="636" text-anchor="middle">1975</text>
<line x1="860.55" y1="62" x2="860.55" y2="602" stroke="#eeeeea" stroke-width="1"/>
<text class="tick" x="860.55" y="636" text-anchor="middle">1980</text>
<line x1="1012.44" y1="62" x2="1012.44" y2="602" stroke="#eeeeea" stroke-width="1"/>
<text class="tick" x="1012.44" y="636" text-anchor="middle">1985</text>
<line x1="1164.32" y1="62" x2="1164.32" y2="602" stroke="#eeeeea" stroke-width="1"/>
<text class="tick" x="1164.32" y="636" text-anchor="middle">1990</text>
<line x1="86" y1="62" x2="86" y2="602" stroke="#333" stroke-width="1.2"/>
<line x1="86" y1="602" x2="1194" y2="602" stroke="#333" stroke-width="1.2"/>
<text class="axis" transform="translate(24 332.00) rotate(-90)" text-anchor="middle">Udzial obligacji 30+ w czesci defensywnej</text>
<text class="small" x="1202" y="606.00" fill="#555">Floating</text>
<text class="small" x="1202" y="336.00" fill="#555">50/50</text>
<text class="small" x="1202" y="66.00" fill="#555">30+</text>
<polyline fill="none" stroke="#073b3a" stroke-width="3.8" stroke-linejoin="round" stroke-linecap="round" points="86.00,602.00 86.58,602.00 87.16,602.00 87.75,602.00 88.33,602.00 88.91,602.00 89.49,602.00 90.07,602.00 90.66,602.00 91.24,602.00 91.82,602.00 92.40,602.00 92.98,602.00 93.57,602.00 94.15,602.00 94.73,602.00 95.31,602.00 95.89,602.00 96.47,602.00 97.06,602.00 97.64,602.00 98.22,602.00 98.80,602.00 99.38,602.00 99.97,602.00 100.55,602.00 101.13,602.00 101.71,602.00 102.29,602.00 102.88,602.00 103.46,602.00 104.04,602.00 104.62,602.00 105.20,602.00 105.79,602.00 106.37,602.00 106.95,602.00 107.53,602.00 108.11,602.00 108.70,602.00 109.28,602.00 109.86,602.00 110.44,602.00 111.02,602.00 111.61,602.00 112.19,602.00 112.77,602.00 113.35,602.00 113.93,602.00 114.51,602.00 115.10,602.00 115.68,602.00 116.26,602.00 116.84,602.00 117.42,602.00 118.01,602.00 118.59,602.00 119.17,602.00 119.75,602.00 120.33,602.00 120.92,602.00 121.50,602.00 122.08,602.00 122.66,602.00 123.24,602.00 123.83,602.00 124.41,602.00 124.99,602.00 125.57,602.00 126.15,602.00 126.74,602.00 127.32,602.00 127.90,602.00 128.48,602.00 129.06,602.00 129.64,602.00 130.23,602.00 130.81,602.00 131.39,602.00 131.97,602.00 132.55,602.00 133.14,602.00 133.72,602.00 134.30,332.00 134.88,332.00 135.46,332.00 136.05,332.00 136.63,332.00 137.21,332.00 137.79,332.00 138.37,332.00 138.96,332.00 139.54,332.00 140.12,332.00 140.70,332.00 141.28,332.00 141.87,332.00 142.45,332.00 143.03,332.00 143.61,332.00 144.19,602.00 144.78,602.00 145.36,602.00 145.94,602.00 146.52,602.00 147.10,602.00 147.68,602.00 148.27,602.00 148.85,602.00 149.43,602.00 150.01,602.00 150.59,602.00 151.18,602.00 151.76,602.00 152.34,602.00 152.92,602.00 153.50,602.00 154.09,602.00 154.67,602.00 155.25,602.00 155.83,602.00 156.41,602.00 157.00,602.00 157.58,602.00 158.16,602.00 158.74,602.00 159.32,602.00 159.91,602.00 160.49,602.00 161.07,602.00 161.65,602.00 162.23,602.00 162.82,602.00 163.40,602.00 163.98,602.00 164.56,602.00 165.14,602.00 165.72,602.00 166.31,602.00 166.89,602.00 167.47,602.00 168.05,602.00 168.63,602.00 169.22,602.00 169.80,602.00 170.38,602.00 170.96,602.00 171.54,602.00 172.13,602.00 172.71,602.00 173.29,602.00 173.87,602.00 174.45,602.00 175.04,602.00 175.62,602.00 176.20,602.00 176.78,602.00 177.36,602.00 177.95,602.00 178.53,602.00 179.11,602.00 179.69,602.00 180.27,602.00 180.86,602.00 181.44,602.00 182.02,602.00 182.60,602.00 183.18,602.00 183.76,602.00 184.35,602.00 184.93,602.00 185.51,602.00 186.09,602.00 186.67,602.00 187.26,602.00 187.84,602.00 188.42,602.00 189.00,602.00 189.58,602.00 190.17,602.00 190.75,602.00 191.33,602.00 191.91,602.00 192.49,602.00 193.08,602.00 193.66,602.00 194.24,602.00 194.82,602.00 195.40,602.00 195.99,602.00 196.57,602.00 197.15,602.00 197.73,602.00 198.31,602.00 198.89,602.00 199.48,602.00 200.06,602.00 200.64,602.00 201.22,602.00 201.80,602.00 202.39,602.00 202.97,602.00 203.55,602.00 204.13,602.00 204.71,602.00 205.30,602.00 205.88,602.00 206.46,602.00 207.04,602.00 207.62,602.00 208.21,602.00 208.79,602.00 209.37,602.00 209.95,602.00 210.53,602.00 211.12,602.00 211.70,602.00 212.28,602.00 212.86,602.00 213.44,602.00 214.03,602.00 214.61,602.00 215.19,602.00 215.77,602.00 216.35,602.00 216.93,602.00 217.52,602.00 218.10,602.00 218.68,602.00 219.26,602.00 219.84,602.00 220.43,602.00 221.01,602.00 221.59,602.00 222.17,602.00 222.75,602.00 223.34,602.00 223.92,602.00 224.50,602.00 225.08,602.00 225.66,602.00 226.25,602.00 226.83,602.00 227.41,602.00 227.99,602.00 228.57,602.00 229.16,602.00 229.74,602.00 230.32,602.00 230.90,602.00 231.48,602.00 232.07,602.00 232.65,197.00 233.23,197.00 233.81,197.00 234.39,197.00 234.97,197.00 235.56,197.00 236.14,197.00 236.72,197.00 237.30,197.00 237.88,197.00 238.47,197.00 239.05,197.00 239.63,197.00 240.21,197.00 240.79,197.00 241.38,197.00 241.96,197.00 242.54,197.00 243.12,197.00 243.70,197.00 244.29,197.00 244.87,197.00 245.45,197.00 246.03,197.00 246.61,197.00 247.20,197.00 247.78,197.00 248.36,197.00 248.94,197.00 249.52,197.00 250.11,197.00 250.69,197.00 251.27,197.00 251.85,197.00 252.43,197.00 253.01,197.00 253.60,197.00 254.18,197.00 254.76,197.00 255.34,197.00 255.92,197.00 256.51,197.00 257.09,197.00 257.67,197.00 258.25,197.00 258.83,197.00 259.42,197.00 260.00,197.00 260.58,197.00 261.16,197.00 261.74,197.00 262.33,197.00 262.91,197.00 263.49,197.00 264.07,197.00 264.65,197.00 265.24,197.00 265.82,197.00 266.40,197.00 266.98,197.00 267.56,197.00 268.14,197.00 268.73,197.00 269.31,197.00 269.89,197.00 270.47,197.00 271.05,197.00 271.64,197.00 272.22,197.00 272.80,197.00 273.38,197.00 273.96,197.00 274.55,197.00 275.13,197.00 275.71,197.00 276.29,197.00 276.87,197.00 277.46,197.00 278.04,197.00 278.62,197.00 279.20,197.00 279.78,197.00 280.37,197.00 280.95,197.00 281.53,197.00 282.11,197.00 282.69,197.00 283.28,197.00 283.86,197.00 284.44,197.00 285.02,197.00 285.60,197.00 286.18,197.00 286.77,197.00 287.35,197.00 287.93,197.00 288.51,197.00 289.09,197.00 289.68,197.00 290.26,197.00 290.84,197.00 291.42,197.00 292.00,197.00 292.59,197.00 293.17,197.00 293.75,197.00 294.33,197.00 294.91,197.00 295.50,197.00 296.08,197.00 296.66,197.00 297.24,197.00 297.82,197.00 298.41,197.00 298.99,197.00 299.57,197.00 300.15,197.00 300.73,197.00 301.32,197.00 301.90,197.00 302.48,197.00 303.06,197.00 303.64,197.00 304.22,197.00 304.81,197.00 305.39,197.00 305.97,197.00 306.55,467.00 307.13,467.00 307.72,467.00 308.30,467.00 308.88,467.00 309.46,467.00 310.04,467.00 310.63,467.00 311.21,332.00 311.79,332.00 312.37,332.00 312.95,332.00 313.54,332.00 314.12,332.00 314.70,332.00 315.28,332.00 315.86,332.00 316.45,332.00 317.03,332.00 317.61,332.00 318.19,332.00 318.77,332.00 319.36,332.00 319.94,332.00 320.52,332.00 321.10,332.00 321.68,332.00 322.26,332.00 322.85,332.00 323.43,332.00 324.01,332.00 324.59,332.00 325.17,332.00 325.76,332.00 326.34,332.00 326.92,332.00 327.50,332.00 328.08,332.00 328.67,332.00 329.25,332.00 329.83,332.00 330.41,332.00 330.99,332.00 331.58,332.00 332.16,332.00 332.74,332.00 333.32,332.00 333.90,332.00 334.49,332.00 335.07,332.00 335.65,332.00 336.23,332.00 336.81,332.00 337.39,332.00 337.98,332.00 338.56,332.00 339.14,332.00 339.72,332.00 340.30,332.00 340.89,332.00 341.47,332.00 342.05,332.00 342.63,332.00 343.21,332.00 343.80,332.00 344.38,332.00 344.96,332.00 345.54,332.00 346.12,332.00 346.71,332.00 347.29,332.00 347.87,332.00 348.45,332.00 349.03,332.00 349.62,332.00 350.20,332.00 350.78,332.00 351.36,332.00 351.94,332.00 352.53,332.00 353.11,332.00 353.69,332.00 354.27,332.00 354.85,332.00 355.43,332.00 356.02,332.00 356.60,332.00 357.18,332.00 357.76,332.00 358.34,332.00 358.93,332.00 359.51,332.00 360.09,332.00 360.67,332.00 361.25,332.00 361.84,332.00 362.42,332.00 363.00,332.00 363.58,332.00 364.16,332.00 364.75,332.00 365.33,332.00 365.91,332.00 366.49,332.00 367.07,332.00 367.66,332.00 368.24,332.00 368.82,332.00 369.40,332.00 369.98,332.00 370.57,332.00 371.15,332.00 371.73,332.00 372.31,332.00 372.89,332.00 373.47,332.00 374.06,332.00 374.64,332.00 375.22,332.00 375.80,332.00 376.38,332.00 376.97,332.00 377.55,332.00 378.13,332.00 378.71,332.00 379.29,332.00 379.88,332.00 380.46,332.00 381.04,332.00 381.62,332.00 382.20,332.00 382.79,332.00 383.37,332.00 383.95,332.00 384.53,332.00 385.11,332.00 385.70,332.00 386.28,332.00 386.86,332.00 387.44,332.00 388.02,332.00 388.61,332.00 389.19,332.00 389.77,332.00 390.35,332.00 390.93,332.00 391.51,332.00 392.10,332.00 392.68,332.00 393.26,332.00 393.84,332.00 394.42,332.00 395.01,332.00 395.59,332.00 396.17,332.00 396.75,332.00 397.33,332.00 397.92,332.00 398.50,332.00 399.08,332.00 399.66,332.00 400.24,332.00 400.83,332.00 401.41,332.00 401.99,332.00 402.57,332.00 403.15,332.00 403.74,332.00 404.32,332.00 404.90,332.00 405.48,332.00 406.06,332.00 406.64,332.00 407.23,332.00 407.81,332.00 408.39,332.00 408.97,332.00 409.55,332.00 410.14,332.00 410.72,332.00 411.30,332.00 411.88,332.00 412.46,332.00 413.05,332.00 413.63,332.00 414.21,332.00 414.79,332.00 415.37,332.00 415.96,332.00 416.54,332.00 417.12,332.00 417.70,332.00 418.28,332.00 418.87,332.00 419.45,332.00 420.03,332.00 420.61,332.00 421.19,332.00 421.78,332.00 422.36,332.00 422.94,332.00 423.52,332.00 424.10,332.00 424.68,332.00 425.27,332.00 425.85,332.00 426.43,332.00 427.01,332.00 427.59,332.00 428.18,332.00 428.76,332.00 429.34,332.00 429.92,332.00 430.50,332.00 431.09,332.00 431.67,332.00 432.25,332.00 432.83,332.00 433.41,332.00 434.00,332.00 434.58,332.00 435.16,332.00 435.74,332.00 436.32,332.00 436.91,332.00 437.49,332.00 438.07,332.00 438.65,332.00 439.23,332.00 439.82,332.00 440.40,332.00 440.98,332.00 441.56,332.00 442.14,332.00 442.72,332.00 443.31,332.00 443.89,332.00 444.47,332.00 445.05,332.00 445.63,332.00 446.22,332.00 446.80,332.00 447.38,332.00 447.96,332.00 448.54,332.00 449.13,332.00 449.71,332.00 450.29,332.00 450.87,332.00 451.45,332.00 452.04,332.00 452.62,332.00 453.20,332.00 453.78,332.00 454.36,332.00 454.95,602.00 455.53,602.00 456.11,602.00 456.69,602.00 457.27,602.00 457.86,602.00 458.44,602.00 459.02,602.00 459.60,602.00 460.18,602.00 460.76,602.00 461.35,602.00 461.93,602.00 462.51,602.00 463.09,197.00 463.67,197.00 464.26,197.00 464.84,197.00 465.42,197.00 466.00,197.00 466.58,197.00 467.17,197.00 467.75,197.00 468.33,197.00 468.91,197.00 469.49,197.00 470.08,197.00 470.66,197.00 471.24,197.00 471.82,197.00 472.40,197.00 472.99,197.00 473.57,197.00 474.15,197.00 474.73,197.00 475.31,197.00 475.89,197.00 476.48,197.00 477.06,197.00 477.64,197.00 478.22,197.00 478.80,197.00 479.39,197.00 479.97,197.00 480.55,197.00 481.13,197.00 481.71,197.00 482.30,197.00 482.88,197.00 483.46,197.00 484.04,197.00 484.62,197.00 485.21,197.00 485.79,197.00 486.37,197.00 486.95,197.00 487.53,197.00 488.12,197.00 488.70,197.00 489.28,197.00 489.86,197.00 490.44,197.00 491.03,197.00 491.61,197.00 492.19,197.00 492.77,197.00 493.35,197.00 493.93,197.00 494.52,197.00 495.10,197.00 495.68,467.00 496.26,467.00 496.84,467.00 497.43,467.00 498.01,467.00 498.59,467.00 499.17,467.00 499.75,467.00 500.34,602.00 500.92,602.00 501.50,602.00 502.08,602.00 502.66,602.00 503.25,602.00 503.83,602.00 504.41,602.00 504.99,602.00 505.57,602.00 506.16,602.00 506.74,602.00 507.32,602.00 507.90,602.00 508.48,602.00 509.07,602.00 509.65,602.00 510.23,602.00 510.81,602.00 511.39,602.00 511.97,602.00 512.56,602.00 513.14,602.00 513.72,602.00 514.30,602.00 514.88,602.00 515.47,602.00 516.05,197.00 516.63,197.00 517.21,197.00 517.79,197.00 518.38,197.00 518.96,197.00 519.54,197.00 520.12,197.00 520.70,197.00 521.29,197.00 521.87,197.00 522.45,197.00 523.03,197.00 523.61,197.00 524.20,197.00 524.78,197.00 525.36,197.00 525.94,197.00 526.52,197.00 527.11,197.00 527.69,197.00 528.27,197.00 528.85,197.00 529.43,197.00 530.01,197.00 530.60,197.00 531.18,197.00 531.76,332.00 532.34,332.00 532.92,332.00 533.51,332.00 534.09,332.00 534.67,332.00 535.25,332.00 535.83,332.00 536.42,332.00 537.00,332.00 537.58,332.00 538.16,332.00 538.74,602.00 539.33,602.00 539.91,602.00 540.49,602.00 541.07,602.00 541.65,467.00 542.24,467.00 542.82,467.00 543.40,467.00 543.98,467.00 544.56,467.00 545.14,467.00 545.73,467.00 546.31,602.00 546.89,602.00 547.47,602.00 548.05,602.00 548.64,602.00 549.22,602.00 549.80,602.00 550.38,602.00 550.96,602.00 551.55,332.00 552.13,332.00 552.71,332.00 553.29,332.00 553.87,332.00 554.46,332.00 555.04,332.00 555.62,332.00 556.20,332.00 556.78,197.00 557.37,197.00 557.95,197.00 558.53,197.00 559.11,197.00 559.69,197.00 560.28,197.00 560.86,197.00 561.44,332.00 562.02,332.00 562.60,332.00 563.18,332.00 563.77,332.00 564.35,332.00 564.93,332.00 565.51,332.00 566.09,197.00 566.68,197.00 567.26,197.00 567.84,197.00 568.42,197.00 569.00,197.00 569.59,197.00 570.17,197.00 570.75,197.00 571.33,197.00 571.91,197.00 572.50,197.00 573.08,197.00 573.66,197.00 574.24,197.00 574.82,197.00 575.41,197.00 575.99,197.00 576.57,197.00 577.15,197.00 577.73,197.00 578.32,197.00 578.90,197.00 579.48,197.00 580.06,197.00 580.64,197.00 581.22,197.00 581.81,197.00 582.39,197.00 582.97,197.00 583.55,197.00 584.13,197.00 584.72,197.00 585.30,197.00 585.88,197.00 586.46,197.00 587.04,197.00 587.63,197.00 588.21,197.00 588.79,197.00 589.37,197.00 589.95,197.00 590.54,197.00 591.12,197.00 591.70,197.00 592.28,197.00 592.86,197.00 593.45,197.00 594.03,197.00 594.61,197.00 595.19,197.00 595.77,197.00 596.36,197.00 596.94,197.00 597.52,332.00 598.10,332.00 598.68,332.00 599.26,332.00 599.85,332.00 600.43,332.00 601.01,332.00 601.59,332.00 602.17,332.00 602.76,332.00 603.34,332.00 603.92,467.00 604.50,467.00 605.08,467.00 605.67,467.00 606.25,467.00 606.83,467.00 607.41,467.00 607.99,467.00 608.58,332.00 609.16,332.00 609.74,332.00 610.32,332.00 610.90,332.00 611.49,332.00 612.07,332.00 612.65,332.00 613.23,197.00 613.81,197.00 614.39,197.00 614.98,197.00 615.56,197.00 616.14,197.00 616.72,197.00 617.30,197.00 617.89,197.00 618.47,197.00 619.05,197.00 619.63,197.00 620.21,197.00 620.80,197.00 621.38,197.00 621.96,197.00 622.54,197.00 623.12,197.00 623.71,197.00 624.29,197.00 624.87,197.00 625.45,332.00 626.03,332.00 626.62,332.00 627.20,332.00 627.78,332.00 628.36,332.00 628.94,332.00 629.53,332.00 630.11,332.00 630.69,332.00 631.27,332.00 631.85,332.00 632.43,332.00 633.02,197.00 633.60,197.00 634.18,197.00 634.76,197.00 635.34,197.00 635.93,197.00 636.51,197.00 637.09,197.00 637.67,197.00 638.25,197.00 638.84,197.00 639.42,197.00 640.00,197.00 640.58,197.00 641.16,197.00 641.75,197.00 642.33,332.00 642.91,332.00 643.49,332.00 644.07,332.00 644.66,332.00 645.24,332.00 645.82,332.00 646.40,332.00 646.98,332.00 647.57,332.00 648.15,332.00 648.73,332.00 649.31,332.00 649.89,332.00 650.47,332.00 651.06,332.00 651.64,332.00 652.22,332.00 652.80,332.00 653.38,332.00 653.97,332.00 654.55,332.00 655.13,332.00 655.71,332.00 656.29,332.00 656.88,332.00 657.46,332.00 658.04,332.00 658.62,602.00 659.20,602.00 659.79,602.00 660.37,602.00 660.95,602.00 661.53,602.00 662.11,602.00 662.70,602.00 663.28,602.00 663.86,602.00 664.44,602.00 665.02,602.00 665.61,602.00 666.19,602.00 666.77,602.00 667.35,602.00 667.93,602.00 668.51,602.00 669.10,602.00 669.68,602.00 670.26,602.00 670.84,602.00 671.42,602.00 672.01,602.00 672.59,602.00 673.17,602.00 673.75,602.00 674.33,602.00 674.92,602.00 675.50,197.00 676.08,197.00 676.66,197.00 677.24,197.00 677.83,197.00 678.41,197.00 678.99,197.00 679.57,197.00 680.15,197.00 680.74,197.00 681.32,197.00 681.90,197.00 682.48,197.00 683.06,332.00 683.64,332.00 684.23,332.00 684.81,332.00 685.39,332.00 685.97,332.00 686.55,332.00 687.14,332.00 687.72,467.00 688.30,467.00 688.88,467.00 689.46,467.00 690.05,467.00 690.63,467.00 691.21,467.00 691.79,467.00 692.37,602.00 692.96,602.00 693.54,602.00 694.12,602.00 694.70,602.00 695.28,602.00 695.87,602.00 696.45,602.00 697.03,602.00 697.61,602.00 698.19,602.00 698.78,467.00 699.36,467.00 699.94,467.00 700.52,467.00 701.10,467.00 701.68,467.00 702.27,467.00 702.85,467.00 703.43,467.00 704.01,467.00 704.59,467.00 705.18,467.00 705.76,467.00 706.34,467.00 706.92,467.00 707.50,467.00 708.09,467.00 708.67,332.00 709.25,332.00 709.83,332.00 710.41,332.00 711.00,332.00 711.58,332.00 712.16,332.00 712.74,332.00 713.32,197.00 713.91,197.00 714.49,197.00 715.07,197.00 715.65,197.00 716.23,197.00 716.82,197.00 717.40,197.00 717.98,197.00 718.56,197.00 719.14,197.00 719.72,197.00 720.31,197.00 720.89,197.00 721.47,197.00 722.05,197.00 722.63,197.00 723.22,197.00 723.80,197.00 724.38,197.00 724.96,197.00 725.54,197.00 726.13,332.00 726.71,332.00 727.29,332.00 727.87,332.00 728.45,332.00 729.04,332.00 729.62,332.00 730.20,332.00 730.78,467.00 731.36,467.00 731.95,467.00 732.53,467.00 733.11,467.00 733.69,197.00 734.27,197.00 734.86,197.00 735.44,197.00 736.02,197.00 736.60,197.00 737.18,197.00 737.76,197.00 738.35,197.00 738.93,197.00 739.51,197.00 740.09,197.00 740.67,197.00 741.26,197.00 741.84,197.00 742.42,197.00 743.00,197.00 743.58,197.00 744.17,197.00 744.75,197.00 745.33,197.00 745.91,197.00 746.49,197.00 747.08,197.00 747.66,197.00 748.24,197.00 748.82,197.00 749.40,332.00 749.99,332.00 750.57,332.00 751.15,332.00 751.73,332.00 752.31,332.00 752.89,332.00 753.48,332.00 754.06,332.00 754.64,332.00 755.22,332.00 755.80,332.00 756.39,332.00 756.97,332.00 757.55,332.00 758.13,332.00 758.71,332.00 759.30,332.00 759.88,332.00 760.46,332.00 761.04,332.00 761.62,332.00 762.21,332.00 762.79,332.00 763.37,332.00 763.95,332.00 764.53,332.00 765.12,332.00 765.70,332.00 766.28,332.00 766.86,332.00 767.44,332.00 768.03,332.00 768.61,332.00 769.19,332.00 769.77,332.00 770.35,332.00 770.93,332.00 771.52,332.00 772.10,332.00 772.68,332.00 773.26,332.00 773.84,332.00 774.43,332.00 775.01,332.00 775.59,332.00 776.17,332.00 776.75,332.00 777.34,332.00 777.92,332.00 778.50,332.00 779.08,332.00 779.66,467.00 780.25,467.00 780.83,467.00 781.41,467.00 781.99,467.00 782.57,467.00 783.16,467.00 783.74,467.00 784.32,602.00 784.90,602.00 785.48,602.00 786.07,602.00 786.65,602.00 787.23,602.00 787.81,602.00 788.39,602.00 788.97,602.00 789.56,602.00 790.14,602.00 790.72,602.00 791.30,602.00 791.88,602.00 792.47,602.00 793.05,602.00 793.63,602.00 794.21,602.00 794.79,602.00 795.38,602.00 795.96,602.00 796.54,602.00 797.12,602.00 797.70,602.00 798.29,602.00 798.87,467.00 799.45,467.00 800.03,467.00 800.61,467.00 801.20,467.00 801.78,467.00 802.36,467.00 802.94,467.00 803.52,467.00 804.11,467.00 804.69,197.00 805.27,197.00 805.85,197.00 806.43,197.00 807.01,197.00 807.60,197.00 808.18,197.00 808.76,197.00 809.34,197.00 809.92,332.00 810.51,332.00 811.09,332.00 811.67,332.00 812.25,332.00 812.83,332.00 813.42,332.00 814.00,332.00 814.58,332.00 815.16,332.00 815.74,332.00 816.33,332.00 816.91,332.00 817.49,467.00 818.07,467.00 818.65,467.00 819.24,467.00 819.82,467.00 820.40,467.00 820.98,467.00 821.56,602.00 822.14,602.00 822.73,602.00 823.31,602.00 823.89,602.00 824.47,602.00 825.05,602.00 825.64,602.00 826.22,602.00 826.80,602.00 827.38,602.00 827.96,602.00 828.55,602.00 829.13,602.00 829.71,602.00 830.29,602.00 830.87,602.00 831.46,602.00 832.04,602.00 832.62,467.00 833.20,467.00 833.78,467.00 834.37,467.00 834.95,467.00 835.53,467.00 836.11,467.00 836.69,467.00 837.28,467.00 837.86,467.00 838.44,467.00 839.02,467.00 839.60,467.00 840.18,467.00 840.77,467.00 841.35,467.00 841.93,467.00 842.51,467.00 843.09,467.00 843.68,467.00 844.26,467.00 844.84,467.00 845.42,467.00 846.00,467.00 846.59,467.00 847.17,467.00 847.75,602.00 848.33,602.00 848.91,602.00 849.50,602.00 850.08,602.00 850.66,602.00 851.24,602.00 851.82,602.00 852.41,467.00 852.99,467.00 853.57,467.00 854.15,467.00 854.73,467.00 855.32,467.00 855.90,467.00 856.48,467.00 857.06,602.00 857.64,602.00 858.22,602.00 858.81,602.00 859.39,602.00 859.97,602.00 860.55,602.00 861.13,602.00 861.72,467.00 862.30,467.00 862.88,467.00 863.46,467.00 864.04,467.00 864.63,467.00 865.21,467.00 865.79,467.00 866.37,602.00 866.95,602.00 867.54,602.00 868.12,602.00 868.70,602.00 869.28,602.00 869.86,602.00 870.45,602.00 871.03,467.00 871.61,467.00 872.19,467.00 872.77,467.00 873.36,467.00 873.94,467.00 874.52,467.00 875.10,197.00 875.68,197.00 876.26,197.00 876.85,197.00 877.43,197.00 878.01,197.00 878.59,197.00 879.17,197.00 879.76,197.00 880.34,197.00 880.92,332.00 881.50,332.00 882.08,332.00 882.67,332.00 883.25,332.00 883.83,332.00 884.41,332.00 884.99,332.00 885.58,467.00 886.16,467.00 886.74,467.00 887.32,467.00 887.90,467.00 888.49,467.00 889.07,467.00 889.65,467.00 890.23,602.00 890.81,602.00 891.39,602.00 891.98,602.00 892.56,602.00 893.14,602.00 893.72,602.00 894.30,602.00 894.89,332.00 895.47,332.00 896.05,332.00 896.63,332.00 897.21,332.00 897.80,332.00 898.38,332.00 898.96,332.00 899.54,332.00 900.12,332.00 900.71,332.00 901.29,332.00 901.87,332.00 902.45,332.00 903.03,332.00 903.62,332.00 904.20,332.00 904.78,332.00 905.36,332.00 905.94,332.00 906.53,332.00 907.11,332.00 907.69,332.00 908.27,332.00 908.85,332.00 909.43,332.00 910.02,332.00 910.60,332.00 911.18,332.00 911.76,332.00 912.34,332.00 912.93,332.00 913.51,197.00 914.09,197.00 914.67,197.00 915.25,197.00 915.84,197.00 916.42,197.00 917.00,197.00 917.58,197.00 918.16,197.00 918.75,197.00 919.33,197.00 919.91,197.00 920.49,197.00 921.07,197.00 921.66,197.00 922.24,197.00 922.82,197.00 923.40,197.00 923.98,332.00 924.57,332.00 925.15,332.00 925.73,332.00 926.31,332.00 926.89,332.00 927.47,332.00 928.06,332.00 928.64,197.00 929.22,197.00 929.80,197.00 930.38,197.00 930.97,197.00 931.55,197.00 932.13,197.00 932.71,197.00 933.29,197.00 933.88,197.00 934.46,197.00 935.04,197.00 935.62,197.00 936.20,197.00 936.79,197.00 937.37,197.00 937.95,197.00 938.53,197.00 939.11,197.00 939.70,197.00 940.28,197.00 940.86,197.00 941.44,197.00 942.02,197.00 942.61,197.00 943.19,197.00 943.77,197.00 944.35,197.00 944.93,197.00 945.51,197.00 946.10,197.00 946.68,197.00 947.26,197.00 947.84,197.00 948.42,197.00 949.01,197.00 949.59,197.00 950.17,197.00 950.75,197.00 951.33,197.00 951.92,197.00 952.50,197.00 953.08,197.00 953.66,197.00 954.24,197.00 954.83,197.00 955.41,197.00 955.99,197.00 956.57,197.00 957.15,197.00 957.74,197.00 958.32,197.00 958.90,197.00 959.48,332.00 960.06,332.00 960.64,332.00 961.23,332.00 961.81,332.00 962.39,332.00 962.97,332.00 963.55,332.00 964.14,197.00 964.72,197.00 965.30,197.00 965.88,197.00 966.46,197.00 967.05,197.00 967.63,197.00 968.21,197.00 968.79,332.00 969.37,332.00 969.96,332.00 970.54,332.00 971.12,332.00 971.70,332.00 972.28,332.00 972.87,332.00 973.45,197.00 974.03,197.00 974.61,197.00 975.19,197.00 975.78,197.00 976.36,197.00 976.94,197.00 977.52,197.00 978.10,197.00 978.68,332.00 979.27,332.00 979.85,332.00 980.43,332.00 981.01,332.00 981.59,332.00 982.18,332.00 982.76,332.00 983.34,332.00 983.92,332.00 984.50,467.00 985.09,467.00 985.67,467.00 986.25,467.00 986.83,467.00 987.41,467.00 988.00,467.00 988.58,467.00 989.16,332.00 989.74,332.00 990.32,332.00 990.91,332.00 991.49,332.00 992.07,332.00 992.65,332.00 993.23,332.00 993.82,467.00 994.40,467.00 994.98,467.00 995.56,467.00 996.14,467.00 996.72,467.00 997.31,467.00 997.89,467.00 998.47,332.00 999.05,332.00 999.63,332.00 1000.22,332.00 1000.80,332.00 1001.38,332.00 1001.96,332.00 1002.54,332.00 1003.13,197.00 1003.71,197.00 1004.29,197.00 1004.87,197.00 1005.45,197.00 1006.04,197.00 1006.62,197.00 1007.20,197.00 1007.78,197.00 1008.36,197.00 1008.95,197.00 1009.53,197.00 1010.11,197.00 1010.69,197.00 1011.27,197.00 1011.86,197.00 1012.44,197.00 1013.02,197.00 1013.60,197.00 1014.18,197.00 1014.76,197.00 1015.35,197.00 1015.93,197.00 1016.51,197.00 1017.09,197.00 1017.67,197.00 1018.26,197.00 1018.84,197.00 1019.42,197.00 1020.00,197.00 1020.58,197.00 1021.17,197.00 1021.75,197.00 1022.33,197.00 1022.91,197.00 1023.49,197.00 1024.08,197.00 1024.66,197.00 1025.24,197.00 1025.82,197.00 1026.40,197.00 1026.99,197.00 1027.57,197.00 1028.15,197.00 1028.73,197.00 1029.31,197.00 1029.89,197.00 1030.48,197.00 1031.06,197.00 1031.64,197.00 1032.22,197.00 1032.80,197.00 1033.39,197.00 1033.97,197.00 1034.55,197.00 1035.13,197.00 1035.71,197.00 1036.30,197.00 1036.88,197.00 1037.46,197.00 1038.04,197.00 1038.62,197.00 1039.21,197.00 1039.79,197.00 1040.37,332.00 1040.95,332.00 1041.53,332.00 1042.12,332.00 1042.70,332.00 1043.28,332.00 1043.86,332.00 1044.44,332.00 1045.03,197.00 1045.61,197.00 1046.19,197.00 1046.77,197.00 1047.35,197.00 1047.93,197.00 1048.52,197.00 1049.10,197.00 1049.68,197.00 1050.26,197.00 1050.84,197.00 1051.43,197.00 1052.01,197.00 1052.59,197.00 1053.17,197.00 1053.75,197.00 1054.34,197.00 1054.92,197.00 1055.50,197.00 1056.08,197.00 1056.66,197.00 1057.25,197.00 1057.83,197.00 1058.41,197.00 1058.99,197.00 1059.57,197.00 1060.16,197.00 1060.74,197.00 1061.32,197.00 1061.90,197.00 1062.48,197.00 1063.07,197.00 1063.65,197.00 1064.23,197.00 1064.81,197.00 1065.39,197.00 1065.97,197.00 1066.56,197.00 1067.14,197.00 1067.72,197.00 1068.30,197.00 1068.88,197.00 1069.47,197.00 1070.05,197.00 1070.63,332.00 1071.21,332.00 1071.79,332.00 1072.38,332.00 1072.96,332.00 1073.54,332.00 1074.12,332.00 1074.70,332.00 1075.29,197.00 1075.87,197.00 1076.45,197.00 1077.03,197.00 1077.61,197.00 1078.20,197.00 1078.78,197.00 1079.36,197.00 1079.94,197.00 1080.52,467.00 1081.11,467.00 1081.69,467.00 1082.27,467.00 1082.85,467.00 1083.43,467.00 1084.01,467.00 1084.60,467.00 1085.18,467.00 1085.76,467.00 1086.34,467.00 1086.92,467.00 1087.51,467.00 1088.09,467.00 1088.67,467.00 1089.25,467.00 1089.83,467.00 1090.42,467.00 1091.00,467.00 1091.58,467.00 1092.16,197.00 1092.74,467.00 1093.33,197.00 1093.91,197.00 1094.49,197.00 1095.07,197.00 1095.65,197.00 1096.24,197.00 1096.82,197.00 1097.40,197.00 1097.98,332.00 1098.56,197.00 1099.14,197.00 1099.73,197.00 1100.31,197.00 1100.89,197.00 1101.47,197.00 1102.05,197.00 1102.64,197.00 1103.22,197.00 1103.80,197.00 1104.38,197.00 1104.96,197.00 1105.55,197.00 1106.13,197.00 1106.71,197.00 1107.29,197.00 1107.87,197.00 1108.46,197.00 1109.04,197.00 1109.62,197.00 1110.20,197.00 1110.78,197.00 1111.37,197.00 1111.95,197.00 1112.53,197.00 1113.11,197.00 1113.69,197.00 1114.28,197.00 1114.86,197.00 1115.44,197.00 1116.02,197.00 1116.60,197.00 1117.18,197.00 1117.77,197.00 1118.35,197.00 1118.93,197.00 1119.51,197.00 1120.09,467.00 1120.68,467.00 1121.26,467.00 1121.84,467.00 1122.42,467.00 1123.00,467.00 1123.59,467.00 1124.17,467.00 1124.75,467.00 1125.33,467.00 1125.91,467.00 1126.50,467.00 1127.08,467.00 1127.66,467.00 1128.24,467.00 1128.82,467.00 1129.41,467.00 1129.99,467.00 1130.57,467.00 1131.15,467.00 1131.73,467.00 1132.32,467.00 1132.90,467.00 1133.48,467.00 1134.06,467.00 1134.64,467.00 1135.22,467.00 1135.81,467.00 1136.39,467.00 1136.97,467.00 1137.55,467.00 1138.13,467.00 1138.72,467.00 1139.30,467.00 1139.88,467.00 1140.46,467.00 1141.04,467.00 1141.63,467.00 1142.21,467.00 1142.79,467.00 1143.37,467.00 1143.95,467.00 1144.54,467.00 1145.12,467.00 1145.70,467.00 1146.28,467.00 1146.86,467.00 1147.45,467.00 1148.03,467.00 1148.61,467.00 1149.19,467.00 1149.77,467.00 1150.36,467.00 1150.94,467.00 1151.52,467.00 1152.10,467.00 1152.68,467.00 1153.26,467.00 1153.85,467.00 1154.43,467.00 1155.01,467.00 1155.59,467.00 1156.17,467.00 1156.76,467.00 1157.34,467.00 1157.92,467.00 1158.50,467.00 1159.08,467.00 1159.67,467.00 1160.25,467.00 1160.83,467.00 1161.41,467.00 1161.99,467.00 1162.58,467.00 1163.16,467.00 1163.74,467.00 1164.32,467.00 1164.90,467.00 1165.49,467.00 1166.07,467.00 1166.65,467.00 1167.23,467.00 1167.81,467.00 1168.39,467.00 1168.98,467.00 1169.56,467.00 1170.14,467.00 1170.72,467.00 1171.30,467.00 1171.89,467.00 1172.47,467.00 1173.05,467.00 1173.63,467.00 1174.21,467.00 1174.80,467.00 1175.38,467.00 1175.96,467.00 1176.54,467.00 1177.12,467.00 1177.71,467.00 1178.29,467.00 1178.87,467.00 1179.45,467.00 1180.03,467.00 1180.62,467.00 1181.20,467.00 1181.78,467.00 1182.36,467.00 1182.94,467.00 1183.53,467.00 1184.11,467.00 1184.69,332.00 1185.27,332.00 1185.85,332.00 1186.43,332.00 1187.02,332.00 1187.60,332.00 1188.18,332.00 1188.76,332.00 1189.34,467.00 1189.93,467.00 1190.51,467.00 1191.09,467.00 1191.67,332.00 1192.25,332.00 1192.84,332.00 1193.42,332.00 1194.00,332.00"/>
<line x1="104" y1="84" x2="138" y2="84" stroke="#073b3a" stroke-width="4"/>
<text class="small" x="148" y="89">Obligacje 30+: 50.0%; floating/gotowka: 50.0%</text>
</svg>