<?xml version="1.0" encoding="UTF-8"?>
<svg xmlns="http://www.w3.org/2000/svg" width="1280" height="680" viewBox="0 0 1280 680">
<rect width="100%" height="100%" fill="#fbfbf8"/>
<style>text{font-family:Segoe UI,Arial,sans-serif;fill:#222}.title{font-size:24px;font-weight:700}.small{font-size:13px}.tick{font-size:12px;fill:#555}.axis{font-size:14px;font-weight:600}</style>
<text class="title" x="86" y="32">Proporcja obligacje 30+ / zmiennoprocentowe</text>
<text class="small" x="86" y="56">Jedna linia pokazuje udzial obligacji 30+ w czesci defensywnej: 0% = floating/gotowka, 50% = pol na pol, 100% = calosc 30+</text>
<line x1="86" y1="602.00" x2="1194" y2="602.00" stroke="#deded8" stroke-width="1"/>
<text class="tick" x="76" y="606.00" text-anchor="end">0%</text>
<line x1="86" y1="548.00" x2="1194" y2="548.00" stroke="#deded8" stroke-width="1"/>
<text class="tick" x="76" y="552.00" text-anchor="end">10%</text>
<line x1="86" y1="494.00" x2="1194" y2="494.00" stroke="#deded8" stroke-width="1"/>
<text class="tick" x="76" y="498.00" text-anchor="end">20%</text>
<line x1="86" y1="440.00" x2="1194" y2="440.00" stroke="#deded8" stroke-width="1"/>
<text class="tick" x="76" y="444.00" text-anchor="end">30%</text>
<line x1="86" y1="386.00" x2="1194" y2="386.00" stroke="#deded8" stroke-width="1"/>
<text class="tick" x="76" y="390.00" text-anchor="end">40%</text>
<line x1="86" y1="332.00" x2="1194" y2="332.00" stroke="#deded8" stroke-width="1"/>
<text class="tick" x="76" y="336.00" text-anchor="end">50%</text>
<line x1="86" y1="278.00" x2="1194" y2="278.00" stroke="#deded8" stroke-width="1"/>
<text class="tick" x="76" y="282.00" text-anchor="end">60%</text>
<line x1="86" y1="224.00" x2="1194" y2="224.00" stroke="#deded8" stroke-width="1"/>
<text class="tick" x="76" y="228.00" text-anchor="end">70%</text>
<line x1="86" y1="170.00" x2="1194" y2="170.00" stroke="#deded8" stroke-width="1"/>
<text class="tick" x="76" y="174.00" text-anchor="end">80%</text>
<line x1="86" y1="116.00" x2="1194" y2="116.00" stroke="#deded8" stroke-width="1"/>
<text class="tick" x="76" y="120.00" text-anchor="end">90%</text>
<line x1="86" y1="62.00" x2="1194" y2="62.00" stroke="#deded8" stroke-width="1"/>
<text class="tick" x="76" y="66.00" text-anchor="end">100%</text>
<line x1="93.96" y1="62" x2="93.96" y2="602" stroke="#eeeeea" stroke-width="1"/>
<text class="tick" x="93.96" y="636" text-anchor="middle">1955</text>
<line x1="170.60" y1="62" x2="170.60" y2="602" stroke="#eeeeea" stroke-width="1"/>
<text class="tick" x="170.60" y="636" text-anchor="middle">1960</text>
<line x1="247.53" y1="62" x2="247.53" y2="602" stroke="#eeeeea" stroke-width="1"/>
<text class="tick" x="247.53" y="636" text-anchor="middle">1965</text>
<line x1="324.46" y1="62" x2="324.46" y2="602" stroke="#eeeeea" stroke-width="1"/>
<text class="tick" x="324.46" y="636" text-anchor="middle">1970</text>
<line x1="401.39" y1="62" x2="401.39" y2="602" stroke="#eeeeea" stroke-width="1"/>
<text class="tick" x="401.39" y="636" text-anchor="middle">1975</text>
<line x1="478.32" y1="62" x2="478.32" y2="602" stroke="#eeeeea" stroke-width="1"/>
<text class="tick" x="478.32" y="636" text-anchor="middle">1980</text>
<line x1="555.26" y1="62" x2="555.26" y2="602" stroke="#eeeeea" stroke-width="1"/>
<text class="tick" x="555.26" y="636" text-anchor="middle">1985</text>
<line x1="632.19" y1="62" x2="632.19" y2="602" stroke="#eeeeea" stroke-width="1"/>
<text class="tick" x="632.19" y="636" text-anchor="middle">1990</text>
<line x1="709.12" y1="62" x2="709.12" y2="602" stroke="#eeeeea" stroke-width="1"/>
<text class="tick" x="709.12" y="636" text-anchor="middle">1995</text>
<line x1="786.05" y1="62" x2="786.05" y2="602" stroke="#eeeeea" stroke-width="1"/>
<text class="tick" x="786.05" y="636" text-anchor="middle">2000</text>
<line x1="862.99" y1="62" x2="862.99" y2="602" stroke="#eeeeea" stroke-width="1"/>
<text class="tick" x="862.99" y="636" text-anchor="middle">2005</text>
<line x1="939.62" y1="62" x2="939.62" y2="602" stroke="#eeeeea" stroke-width="1"/>
<text class="tick" x="939.62" y="636" text-anchor="middle">2010</text>
<line x1="1016.55" y1="62" x2="1016.55" y2="602" stroke="#eeeeea" stroke-width="1"/>
<text class="tick" x="1016.55" y="636" text-anchor="middle">2015</text>
<line x1="1093.49" y1="62" x2="1093.49" y2="602" stroke="#eeeeea" stroke-width="1"/>
<text class="tick" x="1093.49" y="636" text-anchor="middle">2020</text>
<line x1="1170.42" y1="62" x2="1170.42" y2="602" stroke="#eeeeea" stroke-width="1"/>
<text class="tick" x="1170.42" y="636" text-anchor="middle">2025</text>
<line x1="86" y1="62" x2="86" y2="602" stroke="#333" stroke-width="1.2"/>
<line x1="86" y1="602" x2="1194" y2="602" stroke="#333" stroke-width="1.2"/>
<text class="axis" transform="translate(24 332.00) rotate(-90)" text-anchor="middle">Udzial obligacji 30+ w czesci defensywnej</text>
<text class="small" x="1202" y="606.00" fill="#555">Floating</text>
<text class="small" x="1202" y="336.00" fill="#555">50/50</text>
<text class="small" x="1202" y="66.00" fill="#555">30+</text>
<polyline fill="none" stroke="#073b3a" stroke-width="3.8" stroke-linejoin="round" stroke-linecap="round" points="86.00,602.00 86.29,602.00 86.59,602.00 86.88,602.00 87.18,602.00 87.47,602.00 87.77,602.00 88.06,602.00 88.36,602.00 88.65,602.00 88.95,602.00 89.24,602.00 89.54,602.00 89.83,602.00 90.13,602.00 90.42,602.00 90.72,602.00 91.01,602.00 91.31,602.00 91.60,602.00 91.90,602.00 92.19,602.00 92.48,602.00 92.78,602.00 93.07,602.00 93.37,602.00 93.66,602.00 93.96,602.00 94.25,602.00 94.55,602.00 94.84,602.00 95.14,602.00 95.43,602.00 95.73,602.00 96.02,602.00 96.32,602.00 96.61,602.00 96.91,602.00 97.20,602.00 97.50,602.00 97.79,602.00 98.09,602.00 98.38,602.00 98.67,602.00 98.97,602.00 99.26,602.00 99.56,602.00 99.85,602.00 100.15,602.00 100.44,602.00 100.74,602.00 101.03,602.00 101.33,602.00 101.62,602.00 101.92,602.00 102.21,602.00 102.51,602.00 102.80,602.00 103.10,602.00 103.39,602.00 103.69,602.00 103.98,602.00 104.28,602.00 104.57,602.00 104.86,602.00 105.16,602.00 105.45,602.00 105.75,602.00 106.04,602.00 106.34,602.00 106.63,602.00 106.93,602.00 107.22,602.00 107.52,602.00 107.81,602.00 108.11,602.00 108.40,602.00 108.70,602.00 108.99,602.00 109.29,602.00 109.58,602.00 109.88,602.00 110.17,602.00 110.47,332.00 110.76,332.00 111.05,332.00 111.35,332.00 111.64,332.00 111.94,332.00 112.23,332.00 112.53,332.00 112.82,332.00 113.12,332.00 113.41,332.00 113.71,332.00 114.00,332.00 114.30,332.00 114.59,332.00 114.89,332.00 115.18,332.00 115.48,602.00 115.77,602.00 116.07,602.00 116.36,602.00 116.65,602.00 116.95,602.00 117.24,602.00 117.54,602.00 117.83,602.00 118.13,602.00 118.42,602.00 118.72,602.00 119.01,602.00 119.31,602.00 119.60,602.00 119.90,602.00 120.19,602.00 120.49,602.00 120.78,602.00 121.08,602.00 121.37,602.00 121.67,602.00 121.96,602.00 122.26,602.00 122.55,602.00 122.84,602.00 123.14,602.00 123.43,602.00 123.73,602.00 124.02,602.00 124.32,602.00 124.61,602.00 124.91,602.00 125.20,602.00 125.50,602.00 125.79,602.00 126.09,602.00 126.38,602.00 126.68,602.00 126.97,602.00 127.27,602.00 127.56,602.00 127.86,602.00 128.15,602.00 128.45,602.00 128.74,602.00 129.03,602.00 129.33,602.00 129.62,602.00 129.92,602.00 130.21,602.00 130.51,602.00 130.80,602.00 131.10,602.00 131.39,602.00 131.69,602.00 131.98,602.00 132.28,602.00 132.57,602.00 132.87,602.00 133.16,602.00 133.46,602.00 133.75,602.00 134.05,602.00 134.34,602.00 134.64,602.00 134.93,602.00 135.22,602.00 135.52,602.00 135.81,602.00 136.11,602.00 136.40,602.00 136.70,602.00 136.99,602.00 137.29,602.00 137.58,602.00 137.88,602.00 138.17,602.00 138.47,602.00 138.76,602.00 139.06,602.00 139.35,602.00 139.65,602.00 139.94,602.00 140.24,602.00 140.53,602.00 140.83,602.00 141.12,602.00 141.41,602.00 141.71,602.00 142.00,602.00 142.30,602.00 142.59,602.00 142.89,602.00 143.18,602.00 143.48,602.00 143.77,602.00 144.07,602.00 144.36,602.00 144.66,602.00 144.95,602.00 145.25,602.00 145.54,602.00 145.84,602.00 146.13,602.00 146.43,602.00 146.72,602.00 147.02,602.00 147.31,602.00 147.60,602.00 147.90,602.00 148.19,602.00 148.49,602.00 148.78,602.00 149.08,602.00 149.37,602.00 149.67,602.00 149.96,602.00 150.26,602.00 150.55,602.00 150.85,602.00 151.14,602.00 151.44,602.00 151.73,602.00 152.03,602.00 152.32,602.00 152.62,602.00 152.91,602.00 153.21,602.00 153.50,602.00 153.79,602.00 154.09,602.00 154.38,602.00 154.68,602.00 154.97,602.00 155.27,602.00 155.56,602.00 155.86,602.00 156.15,602.00 156.45,602.00 156.74,602.00 157.04,602.00 157.33,602.00 157.63,602.00 157.92,602.00 158.22,602.00 158.51,602.00 158.81,602.00 159.10,602.00 159.40,602.00 159.69,602.00 159.98,602.00 160.28,197.00 160.57,197.00 160.87,197.00 161.16,197.00 161.46,197.00 161.75,197.00 162.05,197.00 162.34,197.00 162.64,197.00 162.93,197.00 163.23,197.00 163.52,197.00 163.82,197.00 164.11,197.00 164.41,197.00 164.70,197.00 165.00,197.00 165.29,197.00 165.58,197.00 165.88,197.00 166.17,197.00 166.47,197.00 166.76,197.00 167.06,197.00 167.35,197.00 167.65,197.00 167.94,197.00 168.24,197.00 168.53,197.00 168.83,197.00 169.12,197.00 169.42,197.00 169.71,197.00 170.01,197.00 170.30,197.00 170.60,197.00 170.89,197.00 171.19,197.00 171.48,197.00 171.77,197.00 172.07,197.00 172.36,197.00 172.66,197.00 172.95,197.00 173.25,197.00 173.54,197.00 173.84,197.00 174.13,197.00 174.43,197.00 174.72,197.00 175.02,197.00 175.31,197.00 175.61,197.00 175.90,197.00 176.20,197.00 176.49,197.00 176.79,197.00 177.08,197.00 177.38,197.00 177.67,197.00 177.96,197.00 178.26,197.00 178.55,197.00 178.85,197.00 179.14,197.00 179.44,197.00 179.73,197.00 180.03,197.00 180.32,197.00 180.62,197.00 180.91,197.00 181.21,197.00 181.50,197.00 181.80,197.00 182.09,197.00 182.39,197.00 182.68,197.00 182.98,197.00 183.27,197.00 183.57,197.00 183.86,197.00 184.15,197.00 184.45,197.00 184.74,197.00 185.04,197.00 185.33,197.00 185.63,197.00 185.92,197.00 186.22,197.00 186.51,197.00 186.81,197.00 187.10,197.00 187.40,197.00 187.69,197.00 187.99,197.00 188.28,197.00 188.58,197.00 188.87,197.00 189.17,197.00 189.46,197.00 189.76,197.00 190.05,197.00 190.34,197.00 190.64,197.00 190.93,197.00 191.23,197.00 191.52,197.00 191.82,197.00 192.11,197.00 192.41,197.00 192.70,197.00 193.00,197.00 193.29,197.00 193.59,197.00 193.88,197.00 194.18,197.00 194.47,197.00 194.77,197.00 195.06,197.00 195.36,197.00 195.65,197.00 195.95,197.00 196.24,197.00 196.53,197.00 196.83,197.00 197.12,197.00 197.42,197.00 197.71,467.00 198.01,467.00 198.30,467.00 198.60,467.00 198.89,467.00 199.19,467.00 199.48,467.00 199.78,467.00 200.07,332.00 200.37,332.00 200.66,332.00 200.96,332.00 201.25,332.00 201.55,332.00 201.84,332.00 202.14,332.00 202.43,332.00 202.72,332.00 203.02,332.00 203.31,332.00 203.61,332.00 203.90,332.00 204.20,332.00 204.49,332.00 204.79,332.00 205.08,332.00 205.38,332.00 205.67,332.00 205.97,332.00 206.26,332.00 206.56,332.00 206.85,332.00 207.15,332.00 207.44,332.00 207.74,332.00 208.03,332.00 208.33,332.00 208.62,332.00 208.91,332.00 209.21,332.00 209.50,332.00 209.80,332.00 210.09,332.00 210.39,332.00 210.68,332.00 210.98,332.00 211.27,332.00 211.57,332.00 211.86,332.00 212.16,332.00 212.45,332.00 212.75,332.00 213.04,332.00 213.34,332.00 213.63,332.00 213.93,332.00 214.22,332.00 214.52,332.00 214.81,332.00 215.10,332.00 215.40,332.00 215.69,332.00 215.99,332.00 216.28,332.00 216.58,332.00 216.87,332.00 217.17,332.00 217.46,332.00 217.76,332.00 218.05,332.00 218.35,332.00 218.64,332.00 218.94,332.00 219.23,332.00 219.53,332.00 219.82,332.00 220.12,332.00 220.41,332.00 220.70,332.00 221.00,332.00 221.29,332.00 221.59,332.00 221.88,332.00 222.18,332.00 222.47,332.00 222.77,332.00 223.06,332.00 223.36,332.00 223.65,332.00 223.95,332.00 224.24,332.00 224.54,332.00 224.83,332.00 225.13,332.00 225.42,332.00 225.72,332.00 226.01,332.00 226.31,332.00 226.60,332.00 226.89,332.00 227.19,332.00 227.48,332.00 227.78,332.00 228.07,332.00 228.37,332.00 228.66,332.00 228.96,332.00 229.25,332.00 229.55,332.00 229.84,332.00 230.14,332.00 230.43,332.00 230.73,332.00 231.02,332.00 231.32,332.00 231.61,332.00 231.91,332.00 232.20,332.00 232.50,332.00 232.79,332.00 233.08,332.00 233.38,332.00 233.67,332.00 233.97,332.00 234.26,332.00 234.56,332.00 234.85,332.00 235.15,332.00 235.44,332.00 235.74,332.00 236.03,332.00 236.33,332.00 236.62,332.00 236.92,332.00 237.21,332.00 237.51,332.00 237.80,332.00 238.10,332.00 238.39,332.00 238.69,332.00 238.98,332.00 239.27,332.00 239.57,332.00 239.86,332.00 240.16,332.00 240.45,332.00 240.75,332.00 241.04,332.00 241.34,332.00 241.63,332.00 241.93,332.00 242.22,332.00 242.52,332.00 242.81,332.00 243.11,332.00 243.40,332.00 243.70,332.00 243.99,332.00 244.29,332.00 244.58,332.00 244.88,332.00 245.17,332.00 245.46,332.00 245.76,332.00 246.05,332.00 246.35,332.00 246.64,332.00 246.94,332.00 247.23,332.00 247.53,332.00 247.82,332.00 248.12,332.00 248.41,332.00 248.71,332.00 249.00,332.00 249.30,332.00 249.59,332.00 249.89,332.00 250.18,332.00 250.48,332.00 250.77,332.00 251.07,332.00 251.36,332.00 251.65,332.00 251.95,332.00 252.24,332.00 252.54,332.00 252.83,332.00 253.13,332.00 253.42,332.00 253.72,332.00 254.01,332.00 254.31,332.00 254.60,332.00 254.90,332.00 255.19,332.00 255.49,332.00 255.78,332.00 256.08,332.00 256.37,332.00 256.67,332.00 256.96,332.00 257.26,332.00 257.55,332.00 257.84,332.00 258.14,332.00 258.43,332.00 258.73,332.00 259.02,332.00 259.32,332.00 259.61,332.00 259.91,332.00 260.20,332.00 260.50,332.00 260.79,332.00 261.09,332.00 261.38,332.00 261.68,332.00 261.97,332.00 262.27,332.00 262.56,332.00 262.86,332.00 263.15,332.00 263.45,332.00 263.74,332.00 264.03,332.00 264.33,332.00 264.62,332.00 264.92,332.00 265.21,332.00 265.51,332.00 265.80,332.00 266.10,332.00 266.39,332.00 266.69,332.00 266.98,332.00 267.28,332.00 267.57,332.00 267.87,332.00 268.16,332.00 268.46,332.00 268.75,332.00 269.05,332.00 269.34,332.00 269.64,332.00 269.93,332.00 270.22,332.00 270.52,332.00 270.81,332.00 271.11,332.00 271.40,332.00 271.70,332.00 271.99,332.00 272.29,332.00 272.58,332.00 272.88,602.00 273.17,602.00 273.47,602.00 273.76,602.00 274.06,602.00 274.35,602.00 274.65,602.00 274.94,602.00 275.24,602.00 275.53,602.00 275.82,602.00 276.12,602.00 276.41,602.00 276.71,602.00 277.00,197.00 277.30,197.00 277.59,197.00 277.89,197.00 278.18,197.00 278.48,197.00 278.77,197.00 279.07,197.00 279.36,197.00 279.66,197.00 279.95,197.00 280.25,197.00 280.54,197.00 280.84,197.00 281.13,197.00 281.43,197.00 281.72,197.00 282.01,197.00 282.31,197.00 282.60,197.00 282.90,197.00 283.19,197.00 283.49,197.00 283.78,197.00 284.08,197.00 284.37,197.00 284.67,197.00 284.96,197.00 285.26,197.00 285.55,197.00 285.85,197.00 286.14,197.00 286.44,197.00 286.73,197.00 287.03,197.00 287.32,197.00 287.62,197.00 287.91,197.00 288.20,197.00 288.50,197.00 288.79,197.00 289.09,197.00 289.38,197.00 289.68,197.00 289.97,197.00 290.27,197.00 290.56,197.00 290.86,197.00 291.15,197.00 291.45,197.00 291.74,197.00 292.04,197.00 292.33,197.00 292.63,197.00 292.92,197.00 293.22,197.00 293.51,467.00 293.81,467.00 294.10,467.00 294.39,467.00 294.69,467.00 294.98,467.00 295.28,467.00 295.57,467.00 295.87,602.00 296.16,602.00 296.46,602.00 296.75,602.00 297.05,602.00 297.34,602.00 297.64,602.00 297.93,602.00 298.23,602.00 298.52,602.00 298.82,602.00 299.11,602.00 299.41,602.00 299.70,602.00 300.00,602.00 300.29,602.00 300.58,602.00 300.88,602.00 301.17,602.00 301.47,602.00 301.76,602.00 302.06,602.00 302.35,602.00 302.65,602.00 302.94,602.00 303.24,602.00 303.53,602.00 303.83,197.00 304.12,197.00 304.42,197.00 304.71,197.00 305.01,197.00 305.30,197.00 305.60,197.00 305.89,197.00 306.19,197.00 306.48,197.00 306.77,197.00 307.07,197.00 307.36,197.00 307.66,197.00 307.95,197.00 308.25,197.00 308.54,197.00 308.84,197.00 309.13,197.00 309.43,197.00 309.72,197.00 310.02,197.00 310.31,197.00 310.61,197.00 310.90,197.00 311.20,197.00 311.49,197.00 311.79,332.00 312.08,332.00 312.38,332.00 312.67,332.00 312.96,332.00 313.26,332.00 313.55,332.00 313.85,332.00 314.14,332.00 314.44,332.00 314.73,332.00 315.03,332.00 315.32,602.00 315.62,602.00 315.91,602.00 316.21,602.00 316.50,602.00 316.80,467.00 317.09,467.00 317.39,467.00 317.68,467.00 317.98,467.00 318.27,467.00 318.57,467.00 318.86,467.00 319.15,602.00 319.45,602.00 319.74,602.00 320.04,602.00 320.33,602.00 320.63,602.00 320.92,602.00 321.22,602.00 321.51,602.00 321.81,332.00 322.10,332.00 322.40,332.00 322.69,332.00 322.99,332.00 323.28,332.00 323.58,332.00 323.87,332.00 324.17,332.00 324.46,197.00 324.75,197.00 325.05,197.00 325.34,197.00 325.64,197.00 325.93,197.00 326.23,197.00 326.52,197.00 326.82,332.00 327.11,332.00 327.41,332.00 327.70,332.00 328.00,332.00 328.29,332.00 328.59,332.00 328.88,332.00 329.18,197.00 329.47,197.00 329.77,197.00 330.06,197.00 330.36,197.00 330.65,197.00 330.94,197.00 331.24,197.00 331.53,197.00 331.83,197.00 332.12,197.00 332.42,197.00 332.71,197.00 333.01,197.00 333.30,197.00 333.60,197.00 333.89,197.00 334.19,197.00 334.48,197.00 334.78,197.00 335.07,197.00 335.37,197.00 335.66,197.00 335.96,197.00 336.25,197.00 336.55,197.00 336.84,197.00 337.13,197.00 337.43,197.00 337.72,197.00 338.02,197.00 338.31,197.00 338.61,197.00 338.90,197.00 339.20,197.00 339.49,197.00 339.79,197.00 340.08,197.00 340.38,197.00 340.67,197.00 340.97,197.00 341.26,197.00 341.56,197.00 341.85,197.00 342.15,197.00 342.44,197.00 342.74,197.00 343.03,197.00 343.32,197.00 343.62,197.00 343.91,197.00 344.21,197.00 344.50,197.00 344.80,197.00 345.09,332.00 345.39,332.00 345.68,332.00 345.98,332.00 346.27,332.00 346.57,332.00 346.86,332.00 347.16,332.00 347.45,332.00 347.75,332.00 348.04,332.00 348.34,467.00 348.63,467.00 348.93,467.00 349.22,467.00 349.51,467.00 349.81,467.00 350.10,467.00 350.40,467.00 350.69,332.00 350.99,332.00 351.28,332.00 351.58,332.00 351.87,332.00 352.17,332.00 352.46,332.00 352.76,332.00 353.05,197.00 353.35,197.00 353.64,197.00 353.94,197.00 354.23,197.00 354.53,197.00 354.82,197.00 355.12,197.00 355.41,197.00 355.70,197.00 356.00,197.00 356.29,197.00 356.59,197.00 356.88,197.00 357.18,197.00 357.47,197.00 357.77,197.00 358.06,197.00 358.36,197.00 358.65,197.00 358.95,197.00 359.24,332.00 359.54,332.00 359.83,332.00 360.13,332.00 360.42,332.00 360.72,332.00 361.01,332.00 361.31,332.00 361.60,332.00 361.89,332.00 362.19,332.00 362.48,332.00 362.78,332.00 363.07,197.00 363.37,197.00 363.66,197.00 363.96,197.00 364.25,197.00 364.55,197.00 364.84,197.00 365.14,197.00 365.43,197.00 365.73,197.00 366.02,197.00 366.32,197.00 366.61,197.00 366.91,197.00 367.20,197.00 367.50,197.00 367.79,332.00 368.08,332.00 368.38,332.00 368.67,332.00 368.97,332.00 369.26,332.00 369.56,332.00 369.85,332.00 370.15,332.00 370.44,332.00 370.74,332.00 371.03,332.00 371.33,332.00 371.62,332.00 371.92,332.00 372.21,332.00 372.51,332.00 372.80,332.00 373.10,332.00 373.39,332.00 373.69,332.00 373.98,332.00 374.27,332.00 374.57,332.00 374.86,332.00 375.16,332.00 375.45,332.00 375.75,332.00 376.04,602.00 376.34,602.00 376.63,602.00 376.93,602.00 377.22,602.00 377.52,602.00 377.81,602.00 378.11,602.00 378.40,602.00 378.70,602.00 378.99,602.00 379.29,602.00 379.58,602.00 379.87,602.00 380.17,602.00 380.46,602.00 380.76,602.00 381.05,602.00 381.35,602.00 381.64,602.00 381.94,602.00 382.23,602.00 382.53,602.00 382.82,602.00 383.12,602.00 383.41,602.00 383.71,602.00 384.00,602.00 384.30,602.00 384.59,197.00 384.89,197.00 385.18,197.00 385.48,197.00 385.77,197.00 386.06,197.00 386.36,197.00 386.65,197.00 386.95,197.00 387.24,197.00 387.54,197.00 387.83,197.00 388.13,197.00 388.42,332.00 388.72,332.00 389.01,332.00 389.31,332.00 389.60,332.00 389.90,332.00 390.19,332.00 390.49,332.00 390.78,467.00 391.08,467.00 391.37,467.00 391.67,467.00 391.96,467.00 392.25,467.00 392.55,467.00 392.84,467.00 393.14,602.00 393.43,602.00 393.73,602.00 394.02,602.00 394.32,602.00 394.61,602.00 394.91,602.00 395.20,602.00 395.50,602.00 395.79,602.00 396.09,602.00 396.38,467.00 396.68,467.00 396.97,467.00 397.27,467.00 397.56,467.00 397.86,467.00 398.15,467.00 398.44,467.00 398.74,467.00 399.03,467.00 399.33,467.00 399.62,467.00 399.92,467.00 400.21,467.00 400.51,467.00 400.80,467.00 401.10,467.00 401.39,332.00 401.69,332.00 401.98,332.00 402.28,332.00 402.57,332.00 402.87,332.00 403.16,332.00 403.46,332.00 403.75,197.00 404.05,197.00 404.34,197.00 404.63,197.00 404.93,197.00 405.22,197.00 405.52,197.00 405.81,197.00 406.11,197.00 406.40,197.00 406.70,197.00 406.99,197.00 407.29,197.00 407.58,197.00 407.88,197.00 408.17,197.00 408.47,197.00 408.76,197.00 409.06,197.00 409.35,197.00 409.65,197.00 409.94,197.00 410.24,332.00 410.53,332.00 410.82,332.00 411.12,332.00 411.41,332.00 411.71,332.00 412.00,332.00 412.30,332.00 412.59,467.00 412.89,467.00 413.18,467.00 413.48,467.00 413.77,467.00 414.07,197.00 414.36,197.00 414.66,197.00 414.95,197.00 415.25,197.00 415.54,197.00 415.84,197.00 416.13,197.00 416.43,197.00 416.72,197.00 417.01,197.00 417.31,197.00 417.60,197.00 417.90,197.00 418.19,197.00 418.49,197.00 418.78,197.00 419.08,197.00 419.37,197.00 419.67,197.00 419.96,197.00 420.26,197.00 420.55,197.00 420.85,197.00 421.14,197.00 421.44,197.00 421.73,197.00 422.03,332.00 422.32,332.00 422.62,332.00 422.91,332.00 423.20,332.00 423.50,332.00 423.79,332.00 424.09,332.00 424.38,332.00 424.68,332.00 424.97,332.00 425.27,332.00 425.56,332.00 425.86,332.00 426.15,332.00 426.45,332.00 426.74,332.00 427.04,332.00 427.33,332.00 427.63,332.00 427.92,332.00 428.22,332.00 428.51,332.00 428.81,332.00 429.10,332.00 429.39,332.00 429.69,332.00 429.98,332.00 430.28,332.00 430.57,332.00 430.87,332.00 431.16,332.00 431.46,332.00 431.75,332.00 432.05,332.00 432.34,332.00 432.64,332.00 432.93,332.00 433.23,332.00 433.52,332.00 433.82,332.00 434.11,332.00 434.41,332.00 434.70,332.00 434.99,332.00 435.29,332.00 435.58,332.00 435.88,332.00 436.17,332.00 436.47,332.00 436.76,332.00 437.06,332.00 437.35,467.00 437.65,467.00 437.94,467.00 438.24,467.00 438.53,467.00 438.83,467.00 439.12,467.00 439.42,467.00 439.71,602.00 440.01,602.00 440.30,602.00 440.60,602.00 440.89,602.00 441.18,602.00 441.48,602.00 441.77,602.00 442.07,602.00 442.36,602.00 442.66,602.00 442.95,602.00 443.25,602.00 443.54,602.00 443.84,602.00 444.13,602.00 444.43,602.00 444.72,602.00 445.02,602.00 445.31,602.00 445.61,602.00 445.90,602.00 446.20,602.00 446.49,602.00 446.79,602.00 447.08,467.00 447.37,467.00 447.67,467.00 447.96,467.00 448.26,467.00 448.55,467.00 448.85,467.00 449.14,467.00 449.44,467.00 449.73,467.00 450.03,197.00 450.32,197.00 450.62,197.00 450.91,197.00 451.21,197.00 451.50,197.00 451.80,197.00 452.09,197.00 452.39,197.00 452.68,332.00 452.98,332.00 453.27,332.00 453.56,332.00 453.86,332.00 454.15,332.00 454.45,332.00 454.74,332.00 455.04,332.00 455.33,332.00 455.63,332.00 455.92,332.00 456.22,332.00 456.51,467.00 456.81,467.00 457.10,467.00 457.40,467.00 457.69,467.00 457.99,467.00 458.28,467.00 458.58,602.00 458.87,602.00 459.17,602.00 459.46,602.00 459.75,602.00 460.05,602.00 460.34,602.00 460.64,602.00 460.93,602.00 461.23,602.00 461.52,602.00 461.82,602.00 462.11,602.00 462.41,602.00 462.70,602.00 463.00,602.00 463.29,602.00 463.59,602.00 463.88,602.00 464.18,467.00 464.47,467.00 464.77,467.00 465.06,467.00 465.36,467.00 465.65,467.00 465.94,467.00 466.24,467.00 466.53,467.00 466.83,467.00 467.12,467.00 467.42,467.00 467.71,467.00 468.01,467.00 468.30,467.00 468.60,467.00 468.89,467.00 469.19,467.00 469.48,467.00 469.78,467.00 470.07,467.00 470.37,467.00 470.66,467.00 470.96,467.00 471.25,467.00 471.55,467.00 471.84,602.00 472.13,602.00 472.43,602.00 472.72,602.00 473.02,602.00 473.31,602.00 473.61,602.00 473.90,602.00 474.20,467.00 474.49,467.00 474.79,467.00 475.08,467.00 475.38,467.00 475.67,467.00 475.97,467.00 476.26,467.00 476.56,602.00 476.85,602.00 477.15,602.00 477.44,602.00 477.74,602.00 478.03,602.00 478.32,602.00 478.62,602.00 478.91,467.00 479.21,467.00 479.50,467.00 479.80,467.00 480.09,467.00 480.39,467.00 480.68,467.00 480.98,467.00 481.27,602.00 481.57,602.00 481.86,602.00 482.16,602.00 482.45,602.00 482.75,602.00 483.04,602.00 483.34,602.00 483.63,467.00 483.92,467.00 484.22,467.00 484.51,467.00 484.81,467.00 485.10,467.00 485.40,467.00 485.69,197.00 485.99,197.00 486.28,197.00 486.58,197.00 486.87,197.00 487.17,197.00 487.46,197.00 487.76,197.00 488.05,197.00 488.35,197.00 488.64,332.00 488.94,332.00 489.23,332.00 489.53,332.00 489.82,332.00 490.11,332.00 490.41,332.00 490.70,332.00 491.00,467.00 491.29,467.00 491.59,467.00 491.88,467.00 492.18,467.00 492.47,467.00 492.77,467.00 493.06,467.00 493.36,602.00 493.65,602.00 493.95,602.00 494.24,602.00 494.54,602.00 494.83,602.00 495.13,602.00 495.42,602.00 495.72,332.00 496.01,332.00 496.30,332.00 496.60,332.00 496.89,332.00 497.19,332.00 497.48,332.00 497.78,332.00 498.07,332.00 498.37,332.00 498.66,332.00 498.96,332.00 499.25,332.00 499.55,332.00 499.84,332.00 500.14,332.00 500.43,332.00 500.73,332.00 501.02,332.00 501.32,332.00 501.61,332.00 501.91,332.00 502.20,332.00 502.49,332.00 502.79,332.00 503.08,332.00 503.38,332.00 503.67,332.00 503.97,332.00 504.26,332.00 504.56,332.00 504.85,332.00 505.15,197.00 505.44,197.00 505.74,197.00 506.03,197.00 506.33,197.00 506.62,197.00 506.92,197.00 507.21,197.00 507.51,197.00 507.80,197.00 508.10,197.00 508.39,197.00 508.68,197.00 508.98,197.00 509.27,197.00 509.57,197.00 509.86,197.00 510.16,197.00 510.45,332.00 510.75,332.00 511.04,332.00 511.34,332.00 511.63,332.00 511.93,332.00 512.22,332.00 512.52,332.00 512.81,197.00 513.11,197.00 513.40,197.00 513.70,197.00 513.99,197.00 514.29,197.00 514.58,197.00 514.87,197.00 515.17,197.00 515.46,197.00 515.76,197.00 516.05,197.00 516.35,197.00 516.64,197.00 516.94,197.00 517.23,197.00 517.53,197.00 517.82,197.00 518.12,197.00 518.41,197.00 518.71,197.00 519.00,197.00 519.30,197.00 519.59,197.00 519.89,197.00 520.18,197.00 520.48,197.00 520.77,197.00 521.06,197.00 521.36,197.00 521.65,197.00 521.95,197.00 522.24,197.00 522.54,197.00 522.83,197.00 523.13,197.00 523.42,197.00 523.72,197.00 524.01,197.00 524.31,197.00 524.60,197.00 524.90,197.00 525.19,197.00 525.49,197.00 525.78,197.00 526.08,197.00 526.37,197.00 526.67,197.00 526.96,197.00 527.25,197.00 527.55,197.00 527.84,197.00 528.14,197.00 528.43,332.00 528.73,332.00 529.02,332.00 529.32,332.00 529.61,332.00 529.91,332.00 530.20,332.00 530.50,332.00 530.79,197.00 531.09,197.00 531.38,197.00 531.68,197.00 531.97,197.00 532.27,197.00 532.56,197.00 532.86,197.00 533.15,332.00 533.44,332.00 533.74,332.00 534.03,332.00 534.33,332.00 534.62,332.00 534.92,332.00 535.21,332.00 535.51,197.00 535.80,197.00 536.10,197.00 536.39,197.00 536.69,197.00 536.98,197.00 537.28,197.00 537.57,197.00 537.87,197.00 538.16,332.00 538.46,332.00 538.75,332.00 539.04,332.00 539.34,332.00 539.63,332.00 539.93,332.00 540.22,332.00 540.52,332.00 540.81,332.00 541.11,467.00 541.40,467.00 541.70,467.00 541.99,467.00 542.29,467.00 542.58,467.00 542.88,467.00 543.17,467.00 543.47,332.00 543.76,332.00 544.06,332.00 544.35,332.00 544.65,332.00 544.94,332.00 545.23,332.00 545.53,332.00 545.82,467.00 546.12,467.00 546.41,467.00 546.71,467.00 547.00,467.00 547.30,467.00 547.59,467.00 547.89,467.00 548.18,332.00 548.48,332.00 548.77,332.00 549.07,332.00 549.36,332.00 549.66,332.00 549.95,332.00 550.25,332.00 550.54,197.00 550.84,197.00 551.13,197.00 551.42,197.00 551.72,197.00 552.01,197.00 552.31,197.00 552.60,197.00 552.90,197.00 553.19,197.00 553.49,197.00 553.78,197.00 554.08,197.00 554.37,197.00 554.67,197.00 554.96,197.00 555.26,197.00 555.55,197.00 555.85,197.00 556.14,197.00 556.44,197.00 556.73,197.00 557.03,197.00 557.32,197.00 557.61,197.00 557.91,197.00 558.20,197.00 558.50,197.00 558.79,197.00 559.09,197.00 559.38,197.00 559.68,197.00 559.97,197.00 560.27,197.00 560.56,197.00 560.86,197.00 561.15,197.00 561.45,197.00 561.74,197.00 562.04,197.00 562.33,197.00 562.63,197.00 562.92,197.00 563.22,197.00 563.51,197.00 563.80,197.00 564.10,197.00 564.39,197.00 564.69,197.00 564.98,197.00 565.28,197.00 565.57,197.00 565.87,197.00 566.16,197.00 566.46,197.00 566.75,197.00 567.05,197.00 567.34,197.00 567.64,197.00 567.93,197.00 568.23,197.00 568.52,197.00 568.82,197.00 569.11,197.00 569.41,332.00 569.70,332.00 569.99,332.00 570.29,332.00 570.58,332.00 570.88,332.00 571.17,332.00 571.47,332.00 571.76,197.00 572.06,197.00 572.35,197.00 572.65,197.00 572.94,197.00 573.24,197.00 573.53,197.00 573.83,197.00 574.12,197.00 574.42,197.00 574.71,197.00 575.01,197.00 575.30,197.00 575.60,197.00 575.89,197.00 576.18,197.00 576.48,197.00 576.77,197.00 577.07,197.00 577.36,197.00 577.66,197.00 577.95,197.00 578.25,197.00 578.54,197.00 578.84,197.00 579.13,197.00 579.43,197.00 579.72,197.00 580.02,197.00 580.31,197.00 580.61,197.00 580.90,197.00 581.20,197.00 581.49,197.00 581.79,197.00 582.08,197.00 582.37,197.00 582.67,197.00 582.96,197.00 583.26,197.00 583.55,197.00 583.85,197.00 584.14,197.00 584.44,197.00 584.73,332.00 585.03,332.00 585.32,332.00 585.62,332.00 585.91,332.00 586.21,332.00 586.50,332.00 586.80,332.00 587.09,197.00 587.39,197.00 587.68,197.00 587.97,197.00 588.27,197.00 588.56,197.00 588.86,197.00 589.15,197.00 589.45,197.00 589.74,467.00 590.04,467.00 590.33,467.00 590.63,467.00 590.92,467.00 591.22,467.00 591.51,467.00 591.81,467.00 592.10,467.00 592.40,467.00 592.69,467.00 592.99,467.00 593.28,467.00 593.58,467.00 593.87,467.00 594.16,467.00 594.46,467.00 594.75,467.00 595.05,467.00 595.34,467.00 595.64,197.00 595.93,467.00 596.23,197.00 596.52,197.00 596.82,197.00 597.11,197.00 597.41,197.00 597.70,197.00 598.00,197.00 598.29,197.00 598.59,332.00 598.88,197.00 599.18,197.00 599.47,197.00 599.77,197.00 600.06,197.00 600.35,197.00 600.65,197.00 600.94,197.00 601.24,197.00 601.53,197.00 601.83,197.00 602.12,197.00 602.42,197.00 602.71,197.00 603.01,197.00 603.30,197.00 603.60,197.00 603.89,197.00 604.19,197.00 604.48,197.00 604.78,197.00 605.07,197.00 605.37,197.00 605.66,197.00 605.96,197.00 606.25,197.00 606.54,197.00 606.84,197.00 607.13,197.00 607.43,197.00 607.72,197.00 608.02,197.00 608.31,197.00 608.61,197.00 608.90,197.00 609.20,197.00 609.49,197.00 609.79,467.00 610.08,467.00 610.38,467.00 610.67,467.00 610.97,467.00 611.26,467.00 611.56,467.00 611.85,467.00 612.15,467.00 612.44,467.00 612.73,467.00 613.03,467.00 613.32,467.00 613.62,467.00 613.91,467.00 614.21,467.00 614.50,467.00 614.80,467.00 615.09,467.00 615.39,467.00 615.68,467.00 615.98,467.00 616.27,467.00 616.57,467.00 616.86,467.00 617.16,467.00 617.45,467.00 617.75,467.00 618.04,467.00 618.34,467.00 618.63,467.00 618.92,467.00 619.22,467.00 619.51,467.00 619.81,467.00 620.10,467.00 620.40,467.00 620.69,467.00 620.99,467.00 621.28,467.00 621.58,467.00 621.87,467.00 622.17,467.00 622.46,467.00 622.76,467.00 623.05,467.00 623.35,467.00 623.64,467.00 623.94,467.00 624.23,467.00 624.53,467.00 624.82,467.00 625.11,467.00 625.41,467.00 625.70,467.00 626.00,467.00 626.29,467.00 626.59,467.00 626.88,467.00 627.18,467.00 627.47,467.00 627.77,467.00 628.06,467.00 628.36,467.00 628.65,467.00 628.95,467.00 629.24,467.00 629.54,467.00 629.83,467.00 630.13,467.00 630.42,467.00 630.72,467.00 631.01,467.00 631.30,467.00 631.60,467.00 631.89,467.00 632.19,467.00 632.48,467.00 632.78,467.00 633.07,467.00 633.37,467.00 633.66,467.00 633.96,467.00 634.25,467.00 634.55,467.00 634.84,467.00 635.14,467.00 635.43,467.00 635.73,467.00 636.02,467.00 636.32,467.00 636.61,467.00 636.91,467.00 637.20,467.00 637.49,467.00 637.79,467.00 638.08,467.00 638.38,467.00 638.67,467.00 638.97,467.00 639.26,467.00 639.56,467.00 639.85,467.00 640.15,467.00 640.44,467.00 640.74,467.00 641.03,467.00 641.33,467.00 641.62,467.00 641.92,467.00 642.21,467.00 642.51,332.00 642.80,332.00 643.09,332.00 643.39,332.00 643.68,332.00 643.98,332.00 644.27,332.00 644.57,332.00 644.86,467.00 645.16,467.00 645.45,467.00 645.75,467.00 646.04,332.00 646.34,332.00 646.63,332.00 646.93,332.00 647.22,332.00 647.52,197.00 647.81,197.00 648.11,197.00 648.40,197.00 648.70,197.00 648.99,197.00 649.28,197.00 649.58,197.00 649.87,197.00 650.17,197.00 650.46,197.00 650.76,197.00 651.05,197.00 651.35,197.00 651.64,197.00 651.94,197.00 652.23,197.00 652.53,197.00 652.82,197.00 653.12,197.00 653.41,197.00 653.71,197.00 654.00,197.00 654.30,197.00 654.59,197.00 654.89,197.00 655.18,197.00 655.47,197.00 655.77,197.00 656.06,197.00 656.36,197.00 656.65,197.00 656.95,197.00 657.24,197.00 657.54,197.00 657.83,197.00 658.13,197.00 658.42,197.00 658.72,197.00 659.01,197.00 659.31,197.00 659.60,197.00 659.90,197.00 660.19,197.00 660.49,197.00 660.78,197.00 661.08,197.00 661.37,197.00 661.66,197.00 661.96,197.00 662.25,197.00 662.55,197.00 662.84,197.00 663.14,197.00 663.43,197.00 663.73,197.00 664.02,197.00 664.32,197.00 664.61,197.00 664.91,197.00 665.20,197.00 665.50,197.00 665.79,197.00 666.09,197.00 666.38,197.00 666.68,332.00 666.97,332.00 667.27,332.00 667.56,332.00 667.85,332.00 668.15,332.00 668.44,332.00 668.74,332.00 669.03,332.00 669.33,197.00 669.62,197.00 669.92,197.00 670.21,197.00 670.51,197.00 670.80,197.00 671.10,197.00 671.39,197.00 671.69,197.00 671.98,197.00 672.28,197.00 672.57,197.00 672.87,197.00 673.16,197.00 673.46,197.00 673.75,197.00 674.04,197.00 674.34,197.00 674.63,197.00 674.93,197.00 675.22,332.00 675.52,332.00 675.81,332.00 676.11,332.00 676.40,332.00 676.70,332.00 676.99,332.00 677.29,332.00 677.58,197.00 677.88,197.00 678.17,197.00 678.47,197.00 678.76,197.00 679.06,197.00 679.35,332.00 679.65,332.00 679.94,332.00 680.23,332.00 680.53,197.00 680.82,197.00 681.12,197.00 681.41,197.00 681.71,197.00 682.00,197.00 682.30,197.00 682.59,197.00 682.89,197.00 683.18,197.00 683.48,197.00 683.77,197.00 684.07,197.00 684.36,197.00 684.66,197.00 684.95,197.00 685.25,197.00 685.54,197.00 685.84,197.00 686.13,197.00 686.42,197.00 686.72,197.00 687.01,197.00 687.31,197.00 687.60,197.00 687.90,197.00 688.19,197.00 688.49,197.00 688.78,197.00 689.08,197.00 689.37,197.00 689.67,197.00 689.96,197.00 690.26,197.00 690.55,197.00 690.85,197.00 691.14,197.00 691.44,197.00 691.73,197.00 692.03,197.00 692.32,197.00 692.61,197.00 692.91,197.00 693.20,197.00 693.50,197.00 693.79,197.00 694.09,197.00 694.38,197.00 694.68,197.00 694.97,197.00 695.27,197.00 695.56,197.00 695.86,197.00 696.15,197.00 696.45,197.00 696.74,197.00 697.04,197.00 697.33,332.00 697.63,332.00 697.92,332.00 698.21,332.00 698.51,332.00 698.80,332.00 699.10,332.00 699.39,332.00 699.69,332.00 699.98,332.00 700.28,332.00 700.57,332.00 700.87,332.00 701.16,332.00 701.46,332.00 701.75,332.00 702.05,332.00 702.34,332.00 702.64,332.00 702.93,332.00 703.23,332.00 703.52,332.00 703.82,332.00 704.11,332.00 704.40,332.00 704.70,332.00 704.99,332.00 705.29,332.00 705.58,332.00 705.88,332.00 706.17,332.00 706.47,332.00 706.76,332.00 707.06,332.00 707.35,332.00 707.65,332.00 707.94,332.00 708.24,332.00 708.53,332.00 708.83,332.00 709.12,332.00 709.42,332.00 709.71,332.00 710.01,332.00 710.30,332.00 710.59,332.00 710.89,332.00 711.18,332.00 711.48,332.00 711.77,332.00 712.07,332.00 712.36,332.00 712.66,332.00 712.95,332.00 713.25,332.00 713.54,332.00 713.84,332.00 714.13,332.00 714.43,332.00 714.72,332.00 715.02,332.00 715.31,332.00 715.61,332.00 715.90,332.00 716.20,332.00 716.49,332.00 716.78,332.00 717.08,332.00 717.37,332.00 717.67,332.00 717.96,332.00 718.26,332.00 718.55,332.00 718.85,332.00 719.14,332.00 719.44,332.00 719.73,332.00 720.03,332.00 720.32,332.00 720.62,332.00 720.91,332.00 721.21,332.00 721.50,332.00 721.80,332.00 722.09,332.00 722.39,332.00 722.68,332.00 722.97,332.00 723.27,332.00 723.56,332.00 723.86,332.00 724.15,332.00 724.45,332.00 724.74,332.00 725.04,332.00 725.33,332.00 725.63,332.00 725.92,332.00 726.22,332.00 726.51,332.00 726.81,332.00 727.10,332.00 727.40,332.00 727.69,332.00 727.99,332.00 728.28,332.00 728.58,332.00 728.87,332.00 729.16,332.00 729.46,332.00 729.75,332.00 730.05,332.00 730.34,332.00 730.64,332.00 730.93,332.00 731.23,332.00 731.52,332.00 731.82,332.00 732.11,332.00 732.41,332.00 732.70,332.00 733.00,332.00 733.29,332.00 733.59,332.00 733.88,332.00 734.18,332.00 734.47,332.00 734.77,332.00 735.06,332.00 735.35,332.00 735.65,332.00 735.94,332.00 736.24,332.00 736.53,332.00 736.83,332.00 737.12,332.00 737.42,332.00 737.71,332.00 738.01,332.00 738.30,332.00 738.60,332.00 738.89,332.00 739.19,332.00 739.48,332.00 739.78,332.00 740.07,332.00 740.37,332.00 740.66,332.00 740.96,332.00 741.25,332.00 741.54,332.00 741.84,332.00 742.13,332.00 742.43,332.00 742.72,332.00 743.02,332.00 743.31,332.00 743.61,332.00 743.90,332.00 744.20,332.00 744.49,332.00 744.79,332.00 745.08,332.00 745.38,332.00 745.67,332.00 745.97,332.00 746.26,332.00 746.56,332.00 746.85,332.00 747.14,332.00 747.44,332.00 747.73,332.00 748.03,332.00 748.32,332.00 748.62,332.00 748.91,332.00 749.21,332.00 749.50,332.00 749.80,332.00 750.09,332.00 750.39,332.00 750.68,332.00 750.98,332.00 751.27,332.00 751.57,332.00 751.86,332.00 752.16,332.00 752.45,332.00 752.75,332.00 753.04,332.00 753.33,332.00 753.63,332.00 753.92,332.00 754.22,332.00 754.51,332.00 754.81,332.00 755.10,332.00 755.40,332.00 755.69,332.00 755.99,332.00 756.28,332.00 756.58,332.00 756.87,332.00 757.17,332.00 757.46,332.00 757.76,332.00 758.05,332.00 758.35,332.00 758.64,332.00 758.94,332.00 759.23,332.00 759.52,332.00 759.82,332.00 760.11,332.00 760.41,332.00 760.70,332.00 761.00,332.00 761.29,332.00 761.59,332.00 761.88,332.00 762.18,332.00 762.47,332.00 762.77,332.00 763.06,332.00 763.36,332.00 763.65,332.00 763.95,332.00 764.24,332.00 764.54,332.00 764.83,332.00 765.13,332.00 765.42,197.00 765.71,197.00 766.01,197.00 766.30,197.00 766.60,197.00 766.89,197.00 767.19,197.00 767.48,197.00 767.78,197.00 768.07,197.00 768.37,197.00 768.66,197.00 768.96,197.00 769.25,197.00 769.55,197.00 769.84,197.00 770.14,197.00 770.43,197.00 770.73,197.00 771.02,197.00 771.32,197.00 771.61,197.00 771.90,197.00 772.20,197.00 772.49,197.00 772.79,197.00 773.08,197.00 773.38,197.00 773.67,197.00 773.97,197.00 774.26,197.00 774.56,197.00 774.85,197.00 775.15,197.00 775.44,197.00 775.74,197.00 776.03,197.00 776.33,197.00 776.62,197.00 776.92,197.00 777.21,197.00 777.51,197.00 777.80,197.00 778.09,197.00 778.39,197.00 778.68,197.00 778.98,197.00 779.27,197.00 779.57,197.00 779.86,197.00 780.16,197.00 780.45,197.00 780.75,197.00 781.04,197.00 781.34,197.00 781.63,197.00 781.93,197.00 782.22,197.00 782.52,197.00 782.81,197.00 783.11,197.00 783.40,197.00 783.70,197.00 783.99,197.00 784.28,197.00 784.58,197.00 784.87,197.00 785.17,197.00 785.46,197.00 785.76,197.00 786.05,197.00 786.35,197.00 786.64,197.00 786.94,197.00 787.23,197.00 787.53,197.00 787.82,197.00 788.12,197.00 788.41,197.00 788.71,197.00 789.00,197.00 789.30,197.00 789.59,197.00 789.89,197.00 790.18,197.00 790.47,197.00 790.77,197.00 791.06,197.00 791.36,197.00 791.65,197.00 791.95,197.00 792.24,467.00 792.54,467.00 792.83,467.00 793.13,467.00 793.42,467.00 793.72,467.00 794.01,467.00 794.31,467.00 794.60,467.00 794.90,467.00 795.19,467.00 795.49,467.00 795.78,467.00 796.08,332.00 796.37,332.00 796.66,332.00 796.96,332.00 797.25,332.00 797.55,332.00 797.84,332.00 798.14,332.00 798.43,197.00 798.73,197.00 799.02,197.00 799.32,197.00 799.61,197.00 799.91,197.00 800.20,197.00 800.50,197.00 800.79,197.00 801.09,197.00 801.38,197.00 801.68,197.00 801.97,467.00 802.26,467.00 802.56,467.00 802.85,467.00 803.15,467.00 803.44,467.00 803.74,197.00 804.03,197.00 804.33,197.00 804.62,197.00 804.92,197.00 805.21,197.00 805.51,197.00 805.80,197.00 806.10,197.00 806.39,197.00 806.69,197.00 806.98,197.00 807.28,197.00 807.57,197.00 807.87,197.00 808.16,197.00 808.45,197.00 808.75,197.00 809.04,197.00 809.34,197.00 809.63,197.00 809.93,197.00 810.22,197.00 810.52,197.00 810.81,197.00 811.11,197.00 811.40,197.00 811.70,197.00 811.99,197.00 812.29,197.00 812.58,197.00 812.88,197.00 813.17,197.00 813.47,197.00 813.76,197.00 814.06,197.00 814.35,197.00 814.64,197.00 814.94,197.00 815.23,197.00 815.53,197.00 815.82,197.00 816.12,197.00 816.41,197.00 816.71,197.00 817.00,197.00 817.30,197.00 817.59,197.00 817.89,197.00 818.18,197.00 818.48,197.00 818.77,197.00 819.07,197.00 819.36,197.00 819.66,197.00 819.95,197.00 820.25,197.00 820.54,197.00 820.83,197.00 821.13,197.00 821.42,197.00 821.72,197.00 822.01,197.00 822.31,197.00 822.60,197.00 822.90,197.00 823.19,197.00 823.49,197.00 823.78,197.00 824.08,197.00 824.37,197.00 824.67,197.00 824.96,197.00 825.26,197.00 825.55,197.00 825.85,197.00 826.14,197.00 826.44,197.00 826.73,332.00 827.02,332.00 827.32,332.00 827.61,332.00 827.91,197.00 828.20,197.00 828.50,197.00 828.79,197.00 829.09,197.00 829.38,197.00 829.68,197.00 829.97,197.00 830.27,332.00 830.56,332.00 830.86,332.00 831.15,332.00 831.45,332.00 831.74,332.00 832.04,332.00 832.33,332.00 832.63,467.00 832.92,467.00 833.21,467.00 833.51,467.00 833.80,467.00 834.10,467.00 834.39,467.00 834.69,467.00 834.98,602.00 835.28,602.00 835.57,602.00 835.87,602.00 836.16,467.00 836.46,467.00 836.75,467.00 837.05,467.00 837.34,332.00 837.64,332.00 837.93,332.00 838.23,332.00 838.52,332.00 838.82,332.00 839.11,332.00 839.40,197.00 839.70,197.00 839.99,197.00 840.29,197.00 840.58,197.00 840.88,197.00 841.17,197.00 841.47,197.00 841.76,197.00 842.06,197.00 842.35,197.00 842.65,197.00 842.94,332.00 843.24,332.00 843.53,332.00 843.83,332.00 844.12,197.00 844.42,197.00 844.71,197.00 845.01,197.00 845.30,197.00 845.59,197.00 845.89,197.00 846.18,197.00 846.48,197.00 846.77,332.00 847.07,332.00 847.36,332.00 847.66,332.00 847.95,197.00 848.25,197.00 848.54,197.00 848.84,197.00 849.13,197.00 849.43,197.00 849.72,197.00 850.02,197.00 850.31,197.00 850.61,197.00 850.90,197.00 851.19,197.00 851.49,197.00 851.78,197.00 852.08,197.00 852.37,197.00 852.67,197.00 852.96,197.00 853.26,197.00 853.55,197.00 853.85,197.00 854.14,197.00 854.44,197.00 854.73,197.00 855.03,197.00 855.32,197.00 855.62,332.00 855.91,332.00 856.21,332.00 856.50,332.00 856.80,332.00 857.09,332.00 857.38,332.00 857.68,332.00 857.97,197.00 858.27,197.00 858.56,197.00 858.86,197.00 859.15,197.00 859.45,197.00 859.74,197.00 860.04,197.00 860.33,467.00 860.63,467.00 860.92,467.00 861.22,467.00 861.51,467.00 861.81,467.00 862.10,467.00 862.40,467.00 862.69,467.00 862.99,467.00 863.28,467.00 863.57,467.00 863.87,467.00 864.16,467.00 864.46,467.00 864.75,467.00 865.05,467.00 865.34,467.00 865.64,467.00 865.93,467.00 866.23,467.00 866.52,467.00 866.82,467.00 867.11,467.00 867.41,467.00 867.70,467.00 868.00,467.00 868.29,467.00 868.59,467.00 868.88,467.00 869.18,467.00 869.47,467.00 869.76,467.00 870.06,467.00 870.35,467.00 870.65,467.00 870.94,467.00 871.24,467.00 871.53,467.00 871.83,467.00 872.12,467.00 872.42,467.00 872.71,467.00 873.01,467.00 873.30,467.00 873.60,467.00 873.89,467.00 874.19,467.00 874.48,467.00 874.78,467.00 875.07,467.00 875.37,467.00 875.66,467.00 875.95,467.00 876.25,467.00 876.54,467.00 876.84,467.00 877.13,467.00 877.43,467.00 877.72,467.00 878.02,467.00 878.31,467.00 878.61,467.00 878.90,467.00 879.20,467.00 879.49,467.00 879.79,467.00 880.08,467.00 880.38,467.00 880.67,467.00 880.97,467.00 881.26,467.00 881.56,467.00 881.85,467.00 882.14,467.00 882.44,467.00 882.73,467.00 883.03,467.00 883.32,467.00 883.62,467.00 883.91,467.00 884.21,467.00 884.50,467.00 884.80,467.00 885.09,467.00 885.39,467.00 885.68,467.00 885.98,467.00 886.27,467.00 886.57,467.00 886.86,467.00 887.16,467.00 887.45,467.00 887.75,467.00 888.04,467.00 888.33,602.00 888.63,602.00 888.92,602.00 889.22,602.00 889.51,602.00 889.81,602.00 890.10,602.00 890.40,602.00 890.69,602.00 890.99,602.00 891.28,602.00 891.58,602.00 891.87,602.00 892.17,602.00 892.46,602.00 892.76,602.00 893.05,602.00 893.35,602.00 893.64,197.00 893.94,197.00 894.23,197.00 894.52,197.00 894.82,197.00 895.11,197.00 895.41,197.00 895.70,197.00 896.00,197.00 896.29,197.00 896.59,197.00 896.88,197.00 897.18,197.00 897.47,197.00 897.77,197.00 898.06,197.00 898.36,197.00 898.65,197.00 898.95,197.00 899.24,197.00 899.54,197.00 899.83,197.00 900.13,197.00 900.42,197.00 900.71,197.00 901.01,197.00 901.30,197.00 901.60,197.00 901.89,197.00 902.19,197.00 902.48,197.00 902.78,197.00 903.07,197.00 903.37,197.00 903.66,197.00 903.96,197.00 904.25,197.00 904.55,197.00 904.84,197.00 905.14,467.00 905.43,467.00 905.73,467.00 906.02,467.00 906.31,467.00 906.61,467.00 906.90,467.00 907.20,467.00 907.49,467.00 907.79,467.00 908.08,467.00 908.38,467.00 908.67,467.00 908.97,467.00 909.26,467.00 909.56,467.00 909.85,467.00 910.15,467.00 910.44,467.00 910.74,467.00 911.03,467.00 911.33,467.00 911.62,467.00 911.92,467.00 912.21,467.00 912.50,467.00 912.80,467.00 913.09,467.00 913.39,467.00 913.68,467.00 913.98,467.00 914.27,467.00 914.57,467.00 914.86,467.00 915.16,467.00 915.45,467.00 915.75,602.00 916.04,602.00 916.34,602.00 916.63,602.00 916.93,602.00 917.22,602.00 917.52,602.00 917.81,602.00 918.11,602.00 918.40,602.00 918.69,602.00 918.99,602.00 919.28,467.00 919.58,467.00 919.87,467.00 920.17,467.00 920.46,332.00 920.76,332.00 921.05,332.00 921.35,332.00 921.64,332.00 921.94,197.00 922.23,197.00 922.53,197.00 922.82,197.00 923.12,197.00 923.41,197.00 923.71,197.00 924.00,197.00 924.30,332.00 924.59,332.00 924.88,332.00 925.18,332.00 925.47,332.00 925.77,197.00 926.06,197.00 926.36,197.00 926.65,197.00 926.95,197.00 927.24,197.00 927.54,197.00 927.83,197.00 928.13,332.00 928.42,332.00 928.72,332.00 929.01,332.00 929.31,332.00 929.60,332.00 929.90,332.00 930.19,332.00 930.49,332.00 930.78,332.00 931.07,332.00 931.37,332.00 931.66,332.00 931.96,332.00 932.25,332.00 932.55,332.00 932.84,332.00 933.14,332.00 933.43,332.00 933.73,332.00 934.02,332.00 934.32,332.00 934.61,332.00 934.91,332.00 935.20,332.00 935.50,332.00 935.79,332.00 936.09,332.00 936.38,332.00 936.68,332.00 936.97,332.00 937.26,332.00 937.56,332.00 937.85,332.00 938.15,332.00 938.44,332.00 938.74,332.00 939.03,332.00 939.33,332.00 939.62,467.00 939.92,467.00 940.21,467.00 940.51,467.00 940.80,467.00 941.10,467.00 941.39,467.00 941.69,467.00 941.98,332.00 942.28,332.00 942.57,332.00 942.87,332.00 943.16,332.00 943.45,332.00 943.75,332.00 944.04,332.00 944.34,332.00 944.63,332.00 944.93,332.00 945.22,332.00 945.52,332.00 945.81,332.00 946.11,332.00 946.40,332.00 946.70,332.00 946.99,332.00 947.29,332.00 947.58,332.00 947.88,332.00 948.17,332.00 948.47,332.00 948.76,332.00 949.06,332.00 949.35,332.00 949.64,332.00 949.94,332.00 950.23,332.00 950.53,332.00 950.82,332.00 951.12,332.00 951.41,332.00 951.71,332.00 952.00,332.00 952.30,332.00 952.59,467.00 952.89,467.00 953.18,467.00 953.48,467.00 953.77,467.00 954.07,467.00 954.36,467.00 954.66,467.00 954.95,602.00 955.25,602.00 955.54,602.00 955.83,602.00 956.13,602.00 956.42,602.00 956.72,602.00 957.01,602.00 957.31,602.00 957.60,602.00 957.90,602.00 958.19,602.00 958.49,602.00 958.78,602.00 959.08,602.00 959.37,602.00 959.67,602.00 959.96,602.00 960.26,602.00 960.55,602.00 960.85,602.00 961.14,602.00 961.43,602.00 961.73,602.00 962.02,602.00 962.32,602.00 962.61,602.00 962.91,602.00 963.20,602.00 963.50,602.00 963.79,602.00 964.09,602.00 964.38,602.00 964.68,602.00 964.97,602.00 965.27,602.00 965.56,602.00 965.86,602.00 966.15,602.00 966.45,602.00 966.74,602.00 967.04,602.00 967.33,602.00 967.62,602.00 967.92,602.00 968.21,602.00 968.51,602.00 968.80,602.00 969.10,602.00 969.39,602.00 969.69,602.00 969.98,602.00 970.28,602.00 970.57,602.00 970.87,602.00 971.16,602.00 971.46,602.00 971.75,602.00 972.05,602.00 972.34,602.00 972.64,602.00 972.93,602.00 973.23,602.00 973.52,602.00 973.81,602.00 974.11,602.00 974.40,602.00 974.70,602.00 974.99,602.00 975.29,602.00 975.58,602.00 975.88,602.00 976.17,602.00 976.47,602.00 976.76,602.00 977.06,602.00 977.35,602.00 977.65,602.00 977.94,602.00 978.24,602.00 978.53,602.00 978.83,602.00 979.12,602.00 979.42,602.00 979.71,602.00 980.00,602.00 980.30,602.00 980.59,602.00 980.89,602.00 981.18,602.00 981.48,602.00 981.77,602.00 982.07,602.00 982.36,602.00 982.66,602.00 982.95,602.00 983.25,602.00 983.54,602.00 983.84,602.00 984.13,602.00 984.43,602.00 984.72,602.00 985.02,602.00 985.31,602.00 985.61,602.00 985.90,602.00 986.19,602.00 986.49,602.00 986.78,602.00 987.08,602.00 987.37,602.00 987.67,602.00 987.96,602.00 988.26,602.00 988.55,602.00 988.85,602.00 989.14,602.00 989.44,602.00 989.73,602.00 990.03,602.00 990.32,602.00 990.62,602.00 990.91,602.00 991.21,602.00 991.50,602.00 991.80,602.00 992.09,602.00 992.38,602.00 992.68,602.00 992.97,602.00 993.27,602.00 993.56,602.00 993.86,602.00 994.15,602.00 994.45,602.00 994.74,602.00 995.04,602.00 995.33,602.00 995.63,602.00 995.92,602.00 996.22,602.00 996.51,602.00 996.81,602.00 997.10,602.00 997.40,602.00 997.69,602.00 997.99,602.00 998.28,602.00 998.57,602.00 998.87,602.00 999.16,602.00 999.46,602.00 999.75,602.00 1000.05,602.00 1000.34,602.00 1000.64,602.00 1000.93,602.00 1001.23,467.00 1001.52,467.00 1001.82,467.00 1002.11,467.00 1002.41,467.00 1002.70,467.00 1003.00,467.00 1003.29,467.00 1003.59,467.00 1003.88,467.00 1004.18,467.00 1004.47,467.00 1004.76,467.00 1005.06,602.00 1005.35,602.00 1005.65,602.00 1005.94,602.00 1006.24,602.00 1006.53,602.00 1006.83,602.00 1007.12,602.00 1007.42,602.00 1007.71,602.00 1008.01,602.00 1008.30,602.00 1008.60,602.00 1008.89,602.00 1009.19,602.00 1009.48,602.00 1009.78,602.00 1010.07,602.00 1010.36,602.00 1010.66,602.00 1010.95,602.00 1011.25,602.00 1011.54,602.00 1011.84,602.00 1012.13,602.00 1012.43,602.00 1012.72,602.00 1013.02,602.00 1013.31,602.00 1013.61,602.00 1013.90,602.00 1014.20,602.00 1014.49,602.00 1014.79,602.00 1015.08,602.00 1015.38,602.00 1015.67,602.00 1015.97,602.00 1016.26,602.00 1016.55,602.00 1016.85,602.00 1017.14,602.00 1017.44,602.00 1017.73,602.00 1018.03,602.00 1018.32,602.00 1018.62,602.00 1018.91,602.00 1019.21,602.00 1019.50,602.00 1019.80,602.00 1020.09,602.00 1020.39,602.00 1020.68,602.00 1020.98,602.00 1021.27,602.00 1021.57,602.00 1021.86,602.00 1022.16,602.00 1022.45,602.00 1022.74,602.00 1023.04,602.00 1023.33,602.00 1023.63,602.00 1023.92,602.00 1024.22,602.00 1024.51,602.00 1024.81,602.00 1025.10,602.00 1025.40,602.00 1025.69,602.00 1025.99,602.00 1026.28,602.00 1026.58,602.00 1026.87,602.00 1027.17,602.00 1027.46,602.00 1027.76,602.00 1028.05,602.00 1028.35,602.00 1028.64,602.00 1028.93,602.00 1029.23,602.00 1029.52,602.00 1029.82,602.00 1030.11,602.00 1030.41,602.00 1030.70,602.00 1031.00,602.00 1031.29,602.00 1031.59,602.00 1031.88,602.00 1032.18,602.00 1032.47,602.00 1032.77,602.00 1033.06,602.00 1033.36,602.00 1033.65,602.00 1033.95,602.00 1034.24,602.00 1034.54,602.00 1034.83,602.00 1035.12,602.00 1035.42,602.00 1035.71,602.00 1036.01,602.00 1036.30,602.00 1036.60,602.00 1036.89,602.00 1037.19,602.00 1037.48,602.00 1037.78,602.00 1038.07,602.00 1038.37,602.00 1038.66,602.00 1038.96,602.00 1039.25,602.00 1039.55,602.00 1039.84,602.00 1040.14,602.00 1040.43,602.00 1040.73,602.00 1041.02,602.00 1041.31,602.00 1041.61,602.00 1041.90,602.00 1042.20,602.00 1042.49,602.00 1042.79,602.00 1043.08,602.00 1043.38,602.00 1043.67,602.00 1043.97,602.00 1044.26,602.00 1044.56,602.00 1044.85,602.00 1045.15,602.00 1045.44,602.00 1045.74,602.00 1046.03,602.00 1046.33,602.00 1046.62,602.00 1046.92,602.00 1047.21,602.00 1047.50,602.00 1047.80,602.00 1048.09,602.00 1048.39,602.00 1048.68,602.00 1048.98,602.00 1049.27,602.00 1049.57,602.00 1049.86,602.00 1050.16,602.00 1050.45,602.00 1050.75,602.00 1051.04,602.00 1051.34,602.00 1051.63,602.00 1051.93,602.00 1052.22,602.00 1052.52,602.00 1052.81,602.00 1053.11,602.00 1053.40,602.00 1053.69,602.00 1053.99,602.00 1054.28,602.00 1054.58,602.00 1054.87,602.00 1055.17,602.00 1055.46,602.00 1055.76,602.00 1056.05,602.00 1056.35,602.00 1056.64,602.00 1056.94,602.00 1057.23,602.00 1057.53,602.00 1057.82,602.00 1058.12,602.00 1058.41,602.00 1058.71,602.00 1059.00,602.00 1059.30,602.00 1059.59,602.00 1059.88,602.00 1060.18,602.00 1060.47,602.00 1060.77,602.00 1061.06,602.00 1061.36,602.00 1061.65,602.00 1061.95,602.00 1062.24,602.00 1062.54,602.00 1062.83,602.00 1063.13,602.00 1063.42,602.00 1063.72,602.00 1064.01,602.00 1064.31,602.00 1064.60,602.00 1064.90,602.00 1065.19,602.00 1065.48,602.00 1065.78,602.00 1066.07,602.00 1066.37,602.00 1066.66,602.00 1066.96,602.00 1067.25,602.00 1067.55,602.00 1067.84,602.00 1068.14,602.00 1068.43,602.00 1068.73,602.00 1069.02,602.00 1069.32,602.00 1069.61,602.00 1069.91,602.00 1070.20,602.00 1070.50,602.00 1070.79,602.00 1071.09,602.00 1071.38,602.00 1071.67,602.00 1071.97,602.00 1072.26,602.00 1072.56,602.00 1072.85,602.00 1073.15,602.00 1073.44,602.00 1073.74,602.00 1074.03,602.00 1074.33,602.00 1074.62,602.00 1074.92,602.00 1075.21,602.00 1075.51,602.00 1075.80,602.00 1076.10,602.00 1076.39,602.00 1076.69,602.00 1076.98,467.00 1077.28,467.00 1077.57,467.00 1077.86,467.00 1078.16,467.00 1078.45,467.00 1078.75,467.00 1079.04,467.00 1079.34,467.00 1079.63,467.00 1079.93,467.00 1080.22,467.00 1080.52,467.00 1080.81,467.00 1081.11,467.00 1081.40,467.00 1081.70,467.00 1081.99,602.00 1082.29,602.00 1082.58,602.00 1082.88,602.00 1083.17,602.00 1083.47,602.00 1083.76,602.00 1084.05,602.00 1084.35,602.00 1084.64,602.00 1084.94,602.00 1085.23,602.00 1085.53,602.00 1085.82,602.00 1086.12,602.00 1086.41,602.00 1086.71,602.00 1087.00,602.00 1087.30,602.00 1087.59,602.00 1087.89,602.00 1088.18,602.00 1088.48,602.00 1088.77,602.00 1089.07,602.00 1089.36,602.00 1089.66,602.00 1089.95,602.00 1090.24,602.00 1090.54,602.00 1090.83,602.00 1091.13,602.00 1091.42,602.00 1091.72,602.00 1092.01,602.00 1092.31,602.00 1092.60,602.00 1092.90,602.00 1093.19,602.00 1093.49,467.00 1093.78,467.00 1094.08,467.00 1094.37,467.00 1094.67,467.00 1094.96,467.00 1095.26,467.00 1095.55,467.00 1095.85,467.00 1096.14,467.00 1096.43,467.00 1096.73,467.00 1097.02,467.00 1097.32,602.00 1097.61,602.00 1097.91,602.00 1098.20,602.00 1098.50,602.00 1098.79,602.00 1099.09,602.00 1099.38,602.00 1099.68,602.00 1099.97,602.00 1100.27,602.00 1100.56,602.00 1100.86,602.00 1101.15,602.00 1101.45,602.00 1101.74,602.00 1102.04,602.00 1102.33,602.00 1102.62,602.00 1102.92,602.00 1103.21,602.00 1103.51,602.00 1103.80,602.00 1104.10,602.00 1104.39,602.00 1104.69,602.00 1104.98,602.00 1105.28,602.00 1105.57,602.00 1105.87,602.00 1106.16,602.00 1106.46,602.00 1106.75,602.00 1107.05,602.00 1107.34,602.00 1107.64,602.00 1107.93,602.00 1108.23,602.00 1108.52,602.00 1108.81,602.00 1109.11,602.00 1109.40,602.00 1109.70,602.00 1109.99,602.00 1110.29,602.00 1110.58,602.00 1110.88,602.00 1111.17,602.00 1111.47,602.00 1111.76,602.00 1112.06,602.00 1112.35,602.00 1112.65,602.00 1112.94,602.00 1113.24,602.00 1113.53,602.00 1113.83,602.00 1114.12,602.00 1114.42,602.00 1114.71,602.00 1115.00,602.00 1115.30,602.00 1115.59,602.00 1115.89,602.00 1116.18,602.00 1116.48,602.00 1116.77,602.00 1117.07,602.00 1117.36,602.00 1117.66,602.00 1117.95,602.00 1118.25,602.00 1118.54,602.00 1118.84,602.00 1119.13,602.00 1119.43,602.00 1119.72,602.00 1120.02,602.00 1120.31,602.00 1120.60,602.00 1120.90,602.00 1121.19,602.00 1121.49,602.00 1121.78,602.00 1122.08,602.00 1122.37,602.00 1122.67,602.00 1122.96,602.00 1123.26,602.00 1123.55,602.00 1123.85,602.00 1124.14,602.00 1124.44,602.00 1124.73,602.00 1125.03,602.00 1125.32,602.00 1125.62,602.00 1125.91,602.00 1126.21,602.00 1126.50,602.00 1126.79,602.00 1127.09,602.00 1127.38,602.00 1127.68,602.00 1127.97,602.00 1128.27,602.00 1128.56,602.00 1128.86,602.00 1129.15,602.00 1129.45,602.00 1129.74,602.00 1130.04,602.00 1130.33,602.00 1130.63,602.00 1130.92,602.00 1131.22,602.00 1131.51,602.00 1131.81,602.00 1132.10,602.00 1132.40,602.00 1132.69,602.00 1132.98,602.00 1133.28,602.00 1133.57,602.00 1133.87,602.00 1134.16,602.00 1134.46,602.00 1134.75,602.00 1135.05,602.00 1135.34,602.00 1135.64,602.00 1135.93,602.00 1136.23,602.00 1136.52,602.00 1136.82,602.00 1137.11,602.00 1137.41,602.00 1137.70,602.00 1138.00,602.00 1138.29,602.00 1138.59,602.00 1138.88,602.00 1139.17,602.00 1139.47,602.00 1139.76,467.00 1140.06,467.00 1140.35,467.00 1140.65,467.00 1140.94,467.00 1141.24,467.00 1141.53,467.00 1141.83,467.00 1142.12,467.00 1142.42,467.00 1142.71,467.00 1143.01,467.00 1143.30,467.00 1143.60,467.00 1143.89,467.00 1144.19,467.00 1144.48,332.00 1144.78,332.00 1145.07,332.00 1145.36,332.00 1145.66,332.00 1145.95,332.00 1146.25,332.00 1146.54,332.00 1146.84,197.00 1147.13,197.00 1147.43,197.00 1147.72,197.00 1148.02,197.00 1148.31,197.00 1148.61,437.85 1148.90,437.85 1149.20,437.85 1149.49,197.00 1149.79,197.00 1150.08,437.85 1150.38,437.85 1150.67,437.85 1150.97,437.85 1151.26,197.00 1151.55,197.00 1151.85,197.00 1152.14,197.00 1152.44,197.00 1152.73,197.00 1153.03,197.00 1153.32,197.00 1153.62,197.00 1153.91,197.00 1154.21,197.00 1154.50,197.00 1154.80,197.00 1155.09,197.00 1155.39,197.00 1155.68,197.00 1155.98,197.00 1156.27,197.00 1156.57,197.00 1156.86,197.00 1157.16,197.00 1157.45,197.00 1157.74,197.00 1158.04,197.00 1158.33,197.00 1158.63,197.00 1158.92,602.00 1159.22,602.00 1159.51,602.00 1159.81,602.00 1160.10,197.00 1160.40,197.00 1160.69,197.00 1160.99,197.00 1161.28,197.00 1161.58,197.00 1161.87,197.00 1162.17,197.00 1162.46,197.00 1162.76,197.00 1163.05,197.00 1163.35,197.00 1163.64,197.00 1163.93,197.00 1164.23,197.00 1164.52,197.00 1164.82,197.00 1165.11,197.00 1165.41,197.00 1165.70,197.00 1166.00,197.00 1166.29,197.00 1166.59,197.00 1166.88,197.00 1167.18,197.00 1167.47,197.00 1167.77,197.00 1168.06,197.00 1168.36,197.00 1168.65,197.00 1168.95,197.00 1169.24,197.00 1169.53,197.00 1169.83,197.00 1170.12,197.00 1170.42,197.00 1170.71,197.00 1171.01,197.00 1171.30,197.00 1171.60,197.00 1171.89,197.00 1172.19,197.00 1172.48,197.00 1172.78,197.00 1173.07,197.00 1173.37,197.00 1173.66,197.00 1173.96,197.00 1174.25,197.00 1174.55,197.00 1174.84,197.00 1175.14,197.00 1175.43,197.00 1175.72,197.00 1176.02,197.00 1176.31,197.00 1176.61,197.00 1176.90,197.00 1177.20,197.00 1177.49,197.00 1177.79,197.00 1178.08,197.00 1178.38,197.00 1178.67,197.00 1178.97,197.00 1179.26,197.00 1179.56,197.00 1179.85,197.00 1180.15,197.00 1180.44,332.00 1180.74,332.00 1181.03,332.00 1181.33,332.00 1181.62,332.00 1181.91,332.00 1182.21,332.00 1182.50,332.00 1182.80,332.00 1183.09,332.00 1183.39,332.00 1183.68,332.00 1183.98,332.00 1184.27,332.00 1184.57,332.00 1184.86,197.00 1185.16,197.00 1185.45,197.00 1185.75,197.00 1186.04,197.00 1186.34,197.00 1186.63,197.00 1186.93,197.00 1187.22,332.00 1187.52,332.00 1187.81,332.00 1188.10,332.00 1188.40,332.00 1188.69,332.00 1188.99,332.00 1189.28,332.00 1189.58,467.00 1189.87,467.00 1190.17,467.00 1190.46,467.00 1190.76,467.00 1191.05,467.00 1191.35,467.00 1191.64,467.00 1191.94,467.00 1192.23,332.00 1192.53,332.00 1192.82,332.00 1193.12,332.00 1193.41,332.00 1193.71,332.00 1194.00,332.00"/>
<line x1="104" y1="84" x2="138" y2="84" stroke="#073b3a" stroke-width="4"/>
<text class="small" x="148" y="89">Obligacje 30+: 50.0%; floating/gotowka: 50.0%</text>
</svg>