<?xml version="1.0" encoding="UTF-8"?>
<svg xmlns="http://www.w3.org/2000/svg" width="1180" height="540" viewBox="0 0 1180 540">
<rect width="100%" height="100%" fill="#fbfbf8"/>
<style>text{font-family:Segoe UI,Arial,sans-serif;fill:#222}.title{font-size:24px;font-weight:700}.small{font-size:13px}.tick{font-size:12px;fill:#555}.axis{font-size:14px;font-weight:600}</style>
<text class="title" x="82" y="32">Udzial zlota w portfelu na tle ceny zlota</text>
<text class="small" x="82" y="56">Szara linia: indeks zlota od 100, skala log; zlota linia: udzial zlota w portfelu</text>
<line x1="82" y1="468.00" x2="1140" y2="468.00" stroke="#deded8" stroke-width="1"/>
<text class="tick" x="72" y="472.00" text-anchor="end">0%</text>
<line x1="82" y1="417.25" x2="1140" y2="417.25" stroke="#deded8" stroke-width="1"/>
<line x1="82" y1="366.50" x2="1140" y2="366.50" stroke="#deded8" stroke-width="1"/>
<text class="tick" x="72" y="370.50" text-anchor="end">5%</text>
<line x1="82" y1="315.75" x2="1140" y2="315.75" stroke="#deded8" stroke-width="1"/>
<line x1="82" y1="265.00" x2="1140" y2="265.00" stroke="#deded8" stroke-width="1"/>
<text class="tick" x="72" y="269.00" text-anchor="end">10%</text>
<line x1="82" y1="214.25" x2="1140" y2="214.25" stroke="#deded8" stroke-width="1"/>
<line x1="82" y1="163.50" x2="1140" y2="163.50" stroke="#deded8" stroke-width="1"/>
<text class="tick" x="72" y="167.50" text-anchor="end">15%</text>
<line x1="82" y1="112.75" x2="1140" y2="112.75" stroke="#deded8" stroke-width="1"/>
<line x1="82" y1="62.00" x2="1140" y2="62.00" stroke="#deded8" stroke-width="1"/>
<text class="tick" x="72" y="66.00" text-anchor="end">20%</text>
<line x1="97.00" y1="62" x2="97.00" y2="468" stroke="#eeeeea" stroke-width="1"/>
<text class="tick" x="97.00" y="500" text-anchor="middle">1955</text>
<line x1="241.48" y1="62" x2="241.48" y2="468" stroke="#eeeeea" stroke-width="1"/>
<text class="tick" x="241.48" y="500" text-anchor="middle">1960</text>
<line x1="386.51" y1="62" x2="386.51" y2="468" stroke="#eeeeea" stroke-width="1"/>
<text class="tick" x="386.51" y="500" text-anchor="middle">1965</text>
<line x1="531.54" y1="62" x2="531.54" y2="468" stroke="#eeeeea" stroke-width="1"/>
<text class="tick" x="531.54" y="500" text-anchor="middle">1970</text>
<line x1="676.57" y1="62" x2="676.57" y2="468" stroke="#eeeeea" stroke-width="1"/>
<text class="tick" x="676.57" y="500" text-anchor="middle">1975</text>
<line x1="821.60" y1="62" x2="821.60" y2="468" stroke="#eeeeea" stroke-width="1"/>
<text class="tick" x="821.60" y="500" text-anchor="middle">1980</text>
<line x1="966.63" y1="62" x2="966.63" y2="468" stroke="#eeeeea" stroke-width="1"/>
<text class="tick" x="966.63" y="500" text-anchor="middle">1985</text>
<line x1="1111.66" y1="62" x2="1111.66" y2="468" stroke="#eeeeea" stroke-width="1"/>
<text class="tick" x="1111.66" y="500" text-anchor="middle">1990</text>
<polyline fill="none" stroke="#8f8f88" stroke-width="2.2" opacity="0.45" stroke-linejoin="round" stroke-linecap="round" points="82.00,265.00 82.56,265.00 83.11,265.00 83.67,265.00 84.22,265.00 84.78,265.00 85.33,265.00 85.89,265.00 86.45,265.00 87.00,265.00 87.56,265.00 88.11,265.00 88.67,265.00 89.22,265.00 89.78,265.00 90.34,265.00 90.89,265.00 91.45,265.00 92.00,265.00 92.56,265.00 93.11,265.00 93.67,265.00 94.22,265.00 94.78,265.00 95.34,265.00 95.89,265.00 96.45,265.00 97.00,265.00 97.56,265.00 98.11,265.00 98.67,265.00 99.23,265.00 99.78,265.00 100.34,265.00 100.89,265.00 101.45,265.00 102.00,265.00 102.56,265.00 103.12,265.00 103.67,265.00 104.23,265.00 104.78,265.00 105.34,265.00 105.89,265.00 106.45,265.00 107.01,265.00 107.56,265.00 108.12,265.00 108.67,265.00 109.23,265.00 109.78,265.00 110.34,265.00 110.89,265.00 111.45,265.00 112.01,265.00 112.56,265.00 113.12,265.00 113.67,265.00 114.23,265.00 114.78,265.00 115.34,265.00 115.90,265.00 116.45,265.00 117.01,265.00 117.56,265.00 118.12,265.00 118.67,265.00 119.23,265.00 119.79,265.00 120.34,265.00 120.90,265.00 121.45,265.00 122.01,265.00 122.56,265.00 123.12,265.00 123.68,265.00 124.23,265.00 124.79,265.00 125.34,265.00 125.90,265.00 126.45,265.00 127.01,265.00 127.57,265.00 128.12,265.00 128.68,265.00 129.23,265.00 129.79,265.00 130.34,265.00 130.90,265.00 131.45,265.00 132.01,265.00 132.57,265.00 133.12,265.00 133.68,265.00 134.23,265.00 134.79,265.00 135.34,265.00 135.90,265.00 136.46,265.00 137.01,265.00 137.57,265.00 138.12,265.00 138.68,265.00 139.23,265.00 139.79,265.00 140.35,265.00 140.90,265.00 141.46,265.00 142.01,265.00 142.57,265.00 143.12,265.00 143.68,265.00 144.24,265.00 144.79,265.00 145.35,265.00 145.90,265.00 146.46,265.00 147.01,265.00 147.57,265.00 148.12,265.00 148.68,265.00 149.24,265.00 149.79,265.00 150.35,265.00 150.90,265.00 151.46,265.00 152.01,265.00 152.57,265.00 153.13,265.00 153.68,265.00 154.24,265.00 154.79,265.00 155.35,265.00 155.90,265.00 156.46,265.00 157.02,265.00 157.57,265.00 158.13,265.00 158.68,265.00 159.24,265.00 159.79,265.00 160.35,265.00 160.91,265.00 161.46,265.00 162.02,265.00 162.57,265.00 163.13,265.00 163.68,265.00 164.24,265.00 164.80,265.00 165.35,265.00 165.91,265.00 166.46,265.00 167.02,265.00 167.57,265.00 168.13,265.00 168.68,265.00 169.24,265.00 169.80,265.00 170.35,265.00 170.91,265.00 171.46,265.00 172.02,265.00 172.57,265.00 173.13,265.00 173.69,265.00 174.24,265.00 174.80,265.00 175.35,265.00 175.91,265.00 176.46,265.00 177.02,265.00 177.58,265.00 178.13,265.00 178.69,265.00 179.24,265.00 179.80,265.00 180.35,265.00 180.91,265.00 181.47,265.00 182.02,265.00 182.58,265.00 183.13,265.00 183.69,265.00 184.24,265.00 184.80,265.00 185.36,265.00 185.91,265.00 186.47,265.00 187.02,265.00 187.58,265.00 188.13,265.00 188.69,265.00 189.24,265.00 189.80,265.00 190.36,265.00 190.91,265.00 191.47,265.00 192.02,265.00 192.58,265.00 193.13,265.00 193.69,265.00 194.25,265.00 194.80,265.00 195.36,265.00 195.91,265.00 196.47,265.00 197.02,265.00 197.58,265.00 198.14,265.00 198.69,265.00 199.25,265.00 199.80,265.00 200.36,265.00 200.91,265.00 201.47,265.00 202.03,265.00 202.58,265.00 203.14,265.00 203.69,265.00 204.25,265.00 204.80,265.00 205.36,265.00 205.91,265.00 206.47,265.00 207.03,265.00 207.58,265.00 208.14,265.00 208.69,265.00 209.25,265.00 209.80,265.00 210.36,265.00 210.92,265.00 211.47,265.00 212.03,265.00 212.58,265.00 213.14,265.00 213.69,265.00 214.25,265.00 214.81,265.00 215.36,265.00 215.92,265.00 216.47,265.00 217.03,265.00 217.58,265.00 218.14,265.00 218.70,265.00 219.25,265.00 219.81,265.00 220.36,265.00 220.92,265.00 221.47,265.00 222.03,265.00 222.59,265.00 223.14,265.00 223.70,265.00 224.25,265.00 224.81,265.00 225.36,265.00 225.92,265.00 226.47,265.00 227.03,265.00 227.59,265.00 228.14,265.00 228.70,265.00 229.25,265.00 229.81,265.00 230.36,265.00 230.92,265.00 231.48,265.00 232.03,265.00 232.59,265.00 233.14,265.00 233.70,265.00 234.25,265.00 234.81,265.00 235.37,265.00 235.92,265.00 236.48,265.00 237.03,265.00 237.59,265.00 238.14,265.00 238.70,265.00 239.26,265.00 239.81,265.00 240.37,265.00 240.92,265.00 241.48,265.00 242.03,265.00 242.59,265.00 243.14,265.00 243.70,265.00 244.26,265.00 244.81,265.00 245.37,265.00 245.92,265.00 246.48,265.00 247.03,265.00 247.59,265.00 248.15,265.00 248.70,265.00 249.26,265.00 249.81,265.00 250.37,265.00 250.92,265.00 251.48,265.00 252.04,265.00 252.59,265.00 253.15,265.00 253.70,265.00 254.26,265.00 254.81,265.00 255.37,265.00 255.93,265.00 256.48,265.00 257.04,265.00 257.59,265.00 258.15,265.00 258.70,265.00 259.26,265.00 259.82,265.00 260.37,265.00 260.93,265.00 261.48,265.00 262.04,265.00 262.59,265.00 263.15,265.00 263.70,265.00 264.26,265.00 264.82,265.00 265.37,265.00 265.93,265.00 266.48,265.00 267.04,265.00 267.59,265.00 268.15,265.00 268.71,265.00 269.26,265.00 269.82,265.00 270.37,265.00 270.93,265.00 271.48,265.00 272.04,265.00 272.60,265.00 273.15,265.00 273.71,265.00 274.26,265.00 274.82,265.00 275.37,265.00 275.93,265.00 276.49,265.00 277.04,265.00 277.60,265.00 278.15,265.00 278.71,265.00 279.26,265.00 279.82,265.00 280.38,265.00 280.93,265.00 281.49,265.00 282.04,265.00 282.60,265.00 283.15,265.00 283.71,265.00 284.26,265.00 284.82,265.00 285.38,265.00 285.93,265.00 286.49,265.00 287.04,265.00 287.60,265.00 288.15,265.00 288.71,265.00 289.27,265.00 289.82,265.00 290.38,265.00 290.93,265.00 291.49,265.00 292.04,265.00 292.60,265.00 293.16,265.00 293.71,265.00 294.27,265.00 294.82,265.00 295.38,265.00 295.93,265.00 296.49,265.00 297.05,265.00 297.60,265.00 298.16,265.00 298.71,265.00 299.27,265.00 299.82,265.00 300.38,265.00 300.93,265.00 301.49,265.00 302.05,265.00 302.60,265.00 303.16,265.00 303.71,265.00 304.27,265.00 304.82,265.00 305.38,265.00 305.94,265.00 306.49,265.00 307.05,265.00 307.60,265.00 308.16,265.00 308.71,265.00 309.27,265.00 309.83,265.00 310.38,265.00 310.94,265.00 311.49,265.00 312.05,265.00 312.60,265.00 313.16,265.00 313.72,265.00 314.27,265.00 314.83,265.00 315.38,265.00 315.94,265.00 316.49,265.00 317.05,265.00 317.61,265.00 318.16,265.00 318.72,265.00 319.27,265.00 319.83,265.00 320.38,265.00 320.94,265.00 321.49,265.00 322.05,265.00 322.61,265.00 323.16,265.00 323.72,265.00 324.27,265.00 324.83,265.00 325.38,265.00 325.94,265.00 326.50,265.00 327.05,265.00 327.61,265.00 328.16,265.00 328.72,265.00 329.27,265.00 329.83,265.00 330.39,265.00 330.94,265.00 331.50,265.00 332.05,265.00 332.61,265.00 333.16,265.00 333.72,265.00 334.28,265.00 334.83,265.00 335.39,265.00 335.94,265.00 336.50,265.00 337.05,265.00 337.61,265.00 338.16,265.00 338.72,265.00 339.28,265.00 339.83,265.00 340.39,265.00 340.94,265.00 341.50,265.00 342.05,265.00 342.61,265.00 343.17,265.00 343.72,265.00 344.28,265.00 344.83,265.00 345.39,265.00 345.94,265.00 346.50,265.00 347.06,265.00 347.61,265.00 348.17,265.00 348.72,265.00 349.28,265.00 349.83,265.00 350.39,265.00 350.95,265.00 351.50,265.00 352.06,265.00 352.61,265.00 353.17,265.00 353.72,265.00 354.28,265.00 354.84,265.00 355.39,265.00 355.95,265.00 356.50,265.00 357.06,265.00 357.61,265.00 358.17,265.00 358.72,265.00 359.28,265.00 359.84,265.00 360.39,265.00 360.95,265.00 361.50,265.00 362.06,265.00 362.61,265.00 363.17,265.00 363.73,265.00 364.28,265.00 364.84,265.00 365.39,265.00 365.95,265.00 366.50,265.00 367.06,265.00 367.62,265.00 368.17,265.00 368.73,265.00 369.28,265.00 369.84,265.00 370.39,265.00 370.95,265.00 371.51,265.00 372.06,265.00 372.62,265.00 373.17,265.00 373.73,265.00 374.28,265.00 374.84,265.00 375.39,265.00 375.95,265.00 376.51,265.00 377.06,265.00 377.62,265.00 378.17,265.00 378.73,265.00 379.28,265.00 379.84,265.00 380.40,265.00 380.95,265.00 381.51,265.00 382.06,265.00 382.62,265.00 383.17,265.00 383.73,265.00 384.29,265.00 384.84,265.00 385.40,265.00 385.95,265.00 386.51,265.00 387.06,265.00 387.62,265.00 388.18,265.00 388.73,265.00 389.29,265.00 389.84,265.00 390.40,265.00 390.95,265.00 391.51,265.00 392.07,265.00 392.62,265.00 393.18,265.00 393.73,265.00 394.29,265.00 394.84,265.00 395.40,265.00 395.95,265.00 396.51,265.00 397.07,265.00 397.62,265.00 398.18,265.00 398.73,265.00 399.29,265.00 399.84,265.00 400.40,265.00 400.96,265.00 401.51,265.00 402.07,265.00 402.62,265.00 403.18,265.00 403.73,265.00 404.29,265.00 404.85,265.00 405.40,265.00 405.96,265.00 406.51,265.00 407.07,265.00 407.62,265.00 408.18,265.00 408.74,265.00 409.29,265.00 409.85,265.00 410.40,265.00 410.96,265.00 411.51,265.00 412.07,265.00 412.62,265.00 413.18,265.00 413.74,265.00 414.29,265.00 414.85,265.00 415.40,265.00 415.96,265.00 416.51,265.00 417.07,265.00 417.63,265.00 418.18,265.00 418.74,265.00 419.29,265.00 419.85,265.00 420.40,265.00 420.96,265.00 421.52,265.00 422.07,265.00 422.63,265.00 423.18,265.00 423.74,265.00 424.29,265.00 424.85,265.00 425.41,265.00 425.96,265.00 426.52,265.00 427.07,265.00 427.63,265.00 428.18,265.00 428.74,265.00 429.30,265.00 429.85,265.00 430.41,265.00 430.96,265.00 431.52,265.00 432.07,265.00 432.63,265.00 433.18,265.00 433.74,265.00 434.30,265.00 434.85,265.00 435.41,265.00 435.96,265.00 436.52,265.00 437.07,265.00 437.63,265.00 438.19,265.00 438.74,265.00 439.30,265.00 439.85,265.00 440.41,265.00 440.96,265.00 441.52,265.00 442.08,265.00 442.63,265.00 443.19,265.00 443.74,265.00 444.30,265.00 444.85,265.00 445.41,265.00 445.97,265.00 446.52,265.00 447.08,265.00 447.63,265.00 448.19,265.00 448.74,265.00 449.30,265.00 449.86,265.00 450.41,265.00 450.97,265.00 451.52,265.00 452.08,265.00 452.63,265.00 453.19,265.00 453.74,265.00 454.30,265.00 454.86,265.00 455.41,265.00 455.97,265.00 456.52,265.00 457.08,265.00 457.63,265.00 458.19,265.00 458.75,265.00 459.30,265.00 459.86,265.00 460.41,265.00 460.97,265.00 461.52,265.00 462.08,265.00 462.64,265.00 463.19,265.00 463.75,265.00 464.30,265.00 464.86,265.00 465.41,265.00 465.97,265.00 466.53,265.00 467.08,265.00 467.64,265.00 468.19,265.00 468.75,265.00 469.30,265.00 469.86,265.00 470.41,265.00 470.97,265.00 471.53,265.00 472.08,265.00 472.64,265.00 473.19,265.00 473.75,265.00 474.30,265.00 474.86,265.00 475.42,265.00 475.97,265.00 476.53,265.00 477.08,265.00 477.64,265.00 478.19,265.00 478.75,265.00 479.31,265.00 479.86,265.00 480.42,265.00 480.97,265.00 481.53,265.00 482.08,265.00 482.64,265.00 483.20,265.00 483.75,265.00 484.31,265.00 484.86,265.00 485.42,265.00 485.97,265.00 486.53,265.00 487.09,265.00 487.64,265.00 488.20,265.00 488.75,265.00 489.31,265.00 489.86,265.00 490.42,265.00 490.97,265.00 491.53,265.00 492.09,265.00 492.64,265.00 493.20,265.00 493.75,265.00 494.31,265.00 494.86,265.00 495.42,265.00 495.98,265.00 496.53,265.00 497.09,265.00 497.64,265.00 498.20,265.00 498.75,265.00 499.31,265.00 499.87,265.00 500.42,265.00 500.98,265.00 501.53,265.00 502.09,265.00 502.64,265.00 503.20,265.00 503.76,265.00 504.31,265.00 504.87,265.00 505.42,265.00 505.98,265.00 506.53,265.00 507.09,265.00 507.64,265.00 508.20,265.00 508.76,265.00 509.31,265.00 509.87,265.00 510.42,265.00 510.98,265.00 511.53,265.00 512.09,265.00 512.65,265.00 513.20,265.00 513.76,265.00 514.31,265.00 514.87,265.00 515.42,265.00 515.98,265.00 516.54,265.00 517.09,265.00 517.65,265.00 518.20,265.00 518.76,265.00 519.31,265.00 519.87,265.00 520.43,265.00 520.98,265.00 521.54,265.00 522.09,265.00 522.65,265.00 523.20,265.00 523.76,265.00 524.32,265.00 524.87,265.00 525.43,265.00 525.98,265.00 526.54,265.00 527.09,265.00 527.65,265.00 528.20,265.00 528.76,265.00 529.32,265.00 529.87,265.00 530.43,265.00 530.98,265.00 531.54,265.00 532.09,265.00 532.65,265.00 533.21,265.00 533.76,265.00 534.32,265.00 534.87,265.00 535.43,265.00 535.98,265.00 536.54,265.00 537.10,265.00 537.65,265.00 538.21,265.00 538.76,265.00 539.32,265.00 539.87,265.00 540.43,265.00 540.99,265.00 541.54,265.00 542.10,265.00 542.65,265.00 543.21,265.00 543.76,265.00 544.32,265.00 544.88,265.00 545.43,265.00 545.99,265.00 546.54,265.00 547.10,265.00 547.65,265.00 548.21,265.00 548.76,265.00 549.32,265.00 549.88,265.00 550.43,265.00 550.99,265.00 551.54,265.00 552.10,265.00 552.65,265.00 553.21,265.00 553.77,265.00 554.32,265.00 554.88,265.00 555.43,265.00 555.99,265.00 556.54,265.00 557.10,265.00 557.66,265.00 558.21,265.00 558.77,265.00 559.32,265.00 559.88,265.00 560.43,265.00 560.99,265.00 561.55,265.00 562.10,265.00 562.66,265.00 563.21,265.00 563.77,265.00 564.32,265.00 564.88,265.00 565.43,265.00 565.99,265.00 566.55,265.00 567.10,265.00 567.66,265.00 568.21,265.00 568.77,265.00 569.32,265.00 569.88,265.00 570.44,265.00 570.99,265.00 571.55,265.00 572.10,265.00 572.66,265.00 573.21,265.00 573.77,265.00 574.33,265.00 574.88,265.00 575.44,265.00 575.99,265.00 576.55,265.00 577.10,265.00 577.66,265.00 578.22,265.00 578.77,265.00 579.33,265.00 579.88,265.00 580.44,265.00 580.99,265.00 581.55,265.00 582.11,265.00 582.66,265.00 583.22,265.00 583.77,265.00 584.33,265.00 584.88,265.00 585.44,265.00 585.99,265.00 586.55,265.00 587.11,265.00 587.66,265.00 588.22,265.00 588.77,265.00 589.33,265.00 589.88,265.00 590.44,265.00 591.00,265.00 591.55,265.00 592.11,265.00 592.66,265.00 593.22,265.00 593.77,265.00 594.33,265.00 594.89,265.00 595.44,265.00 596.00,265.00 596.55,265.00 597.11,265.00 597.66,265.00 598.22,265.00 598.78,265.00 599.33,265.00 599.89,265.00 600.44,265.00 601.00,265.00 601.55,265.00 602.11,265.00 602.66,265.00 603.22,265.00 603.78,265.00 604.33,265.00 604.89,265.00 605.44,265.00 606.00,265.00 606.55,265.00 607.11,265.00 607.67,265.00 608.22,265.00 608.78,265.00 609.33,265.00 609.89,265.00 610.44,265.00 611.00,265.00 611.56,265.00 612.11,265.00 612.67,265.00 613.22,265.00 613.78,265.00 614.33,265.00 614.89,265.00 615.45,265.00 616.00,265.00 616.56,265.00 617.11,265.00 617.67,265.00 618.22,265.00 618.78,265.00 619.34,265.00 619.89,265.00 620.45,265.00 621.00,265.00 621.56,265.00 622.11,265.00 622.67,265.00 623.22,265.00 623.78,265.00 624.34,265.00 624.89,265.00 625.45,265.00 626.00,265.00 626.56,265.00 627.11,265.00 627.67,265.00 628.23,265.00 628.78,265.00 629.34,265.00 629.89,265.00 630.45,265.00 631.00,265.00 631.56,265.00 632.12,265.00 632.67,265.00 633.23,265.00 633.78,265.00 634.34,265.00 634.89,265.00 635.45,265.00 636.01,265.00 636.56,265.00 637.12,265.00 637.67,265.00 638.23,265.00 638.78,265.00 639.34,265.00 639.89,265.00 640.45,265.00 641.01,265.00 641.56,265.00 642.12,265.00 642.67,265.00 643.23,265.00 643.78,265.00 644.34,265.00 644.90,265.00 645.45,265.00 646.01,265.00 646.56,265.00 647.12,265.00 647.67,265.00 648.23,265.00 648.79,265.00 649.34,265.00 649.90,265.00 650.45,265.00 651.01,265.00 651.56,265.00 652.12,265.00 652.68,265.00 653.23,265.00 653.79,265.00 654.34,265.00 654.90,265.00 655.45,265.00 656.01,265.00 656.57,265.00 657.12,265.00 657.68,265.00 658.23,265.00 658.79,265.00 659.34,265.00 659.90,265.00 660.45,265.00 661.01,265.00 661.57,265.00 662.12,265.00 662.68,265.00 663.23,265.00 663.79,265.00 664.34,265.00 664.90,265.00 665.46,265.00 666.01,265.00 666.57,265.00 667.12,265.00 667.68,265.00 668.23,265.00 668.79,265.00 669.35,265.00 669.90,265.00 670.46,265.00 671.01,265.00 671.57,265.00 672.12,265.00 672.68,265.00 673.24,265.00 673.79,265.00 674.35,265.00 674.90,265.00 675.46,265.00 676.01,265.00 676.57,265.00 677.12,265.00 677.68,265.00 678.24,265.00 678.79,265.00 679.35,265.00 679.90,265.00 680.46,265.00 681.01,265.00 681.57,265.00 682.13,265.00 682.68,265.00 683.24,265.00 683.79,265.00 684.35,265.00 684.90,265.00 685.46,265.00 686.02,265.00 686.57,265.00 687.13,265.00 687.68,265.00 688.24,265.00 688.79,265.00 689.35,265.00 689.91,265.00 690.46,265.00 691.02,265.00 691.57,265.00 692.13,265.00 692.68,265.00 693.24,265.00 693.80,265.00 694.35,265.00 694.91,265.00 695.46,265.00 696.02,265.00 696.57,265.00 697.13,265.00 697.68,265.00 698.24,265.00 698.80,265.00 699.35,265.00 699.91,265.00 700.46,265.00 701.02,265.00 701.57,265.00 702.13,265.00 702.69,265.00 703.24,265.00 703.80,265.00 704.35,265.00 704.91,265.00 705.46,265.00 706.02,265.00 706.58,265.00 707.13,265.00 707.69,265.00 708.24,265.00 708.80,265.00 709.35,265.00 709.91,265.00 710.47,265.00 711.02,265.00 711.58,265.00 712.13,265.00 712.69,265.00 713.24,265.00 713.80,265.00 714.36,265.00 714.91,265.00 715.47,265.00 716.02,265.00 716.58,265.00 717.13,265.00 717.69,265.00 718.24,265.00 718.80,265.00 719.36,265.00 719.91,265.00 720.47,265.00 721.02,265.00 721.58,265.00 722.13,265.00 722.69,265.00 723.25,265.00 723.80,265.00 724.36,265.00 724.91,265.00 725.47,265.00 726.02,265.00 726.58,265.00 727.14,265.00 727.69,265.00 728.25,265.00 728.80,265.00 729.36,265.00 729.91,265.00 730.47,265.00 731.03,265.00 731.58,265.00 732.14,265.00 732.69,265.00 733.25,265.00 733.80,265.00 734.36,265.00 734.91,265.00 735.47,265.00 736.03,265.00 736.58,265.00 737.14,265.00 737.69,265.00 738.25,265.00 738.80,265.00 739.36,265.00 739.92,265.00 740.47,265.00 741.03,265.00 741.58,265.00 742.14,265.00 742.69,265.00 743.25,265.00 743.81,265.00 744.36,265.00 744.92,265.00 745.47,265.00 746.03,265.00 746.58,265.00 747.14,265.00 747.70,265.00 748.25,265.00 748.81,265.00 749.36,265.00 749.92,265.00 750.47,265.00 751.03,265.00 751.59,265.00 752.14,265.00 752.70,265.00 753.25,265.00 753.81,265.00 754.36,265.00 754.92,265.00 755.47,265.00 756.03,265.00 756.59,265.00 757.14,265.00 757.70,265.00 758.25,265.00 758.81,265.00 759.36,265.00 759.92,265.00 760.48,265.00 761.03,265.00 761.59,265.00 762.14,265.00 762.70,265.00 763.25,265.00 763.81,265.00 764.37,265.00 764.92,265.00 765.48,265.00 766.03,265.00 766.59,265.00 767.14,265.00 767.70,265.00 768.26,265.00 768.81,265.00 769.37,265.00 769.92,265.00 770.48,265.00 771.03,265.00 771.59,265.00 772.14,265.00 772.70,265.00 773.26,265.00 773.81,265.00 774.37,265.00 774.92,265.00 775.48,265.00 776.03,265.00 776.59,265.00 777.15,265.00 777.70,265.00 778.26,265.00 778.81,265.00 779.37,265.00 779.92,265.00 780.48,265.00 781.04,265.00 781.59,265.00 782.15,265.00 782.70,265.00 783.26,265.00 783.81,265.00 784.37,265.00 784.93,265.00 785.48,265.00 786.04,265.00 786.59,265.00 787.15,265.00 787.70,265.00 788.26,265.00 788.82,265.00 789.37,265.00 789.93,265.00 790.48,265.00 791.04,265.00 791.59,265.00 792.15,265.00 792.70,265.00 793.26,265.00 793.82,265.00 794.37,265.00 794.93,265.00 795.48,265.00 796.04,265.00 796.59,265.00 797.15,265.00 797.71,265.00 798.26,265.00 798.82,265.00 799.37,265.00 799.93,265.00 800.48,265.00 801.04,265.00 801.60,265.00 802.15,265.00 802.71,265.00 803.26,265.00 803.82,265.00 804.37,265.00 804.93,265.00 805.49,265.00 806.04,265.00 806.60,265.00 807.15,265.00 807.71,265.00 808.26,265.00 808.82,265.00 809.38,265.00 809.93,265.00 810.49,265.00 811.04,265.00 811.60,265.00 812.15,265.00 812.71,265.00 813.26,265.00 813.82,265.00 814.38,265.00 814.93,265.00 815.49,265.00 816.04,265.00 816.60,265.00 817.15,265.00 817.71,265.00 818.27,265.00 818.82,265.00 819.38,265.00 819.93,265.00 820.49,265.00 821.04,265.00 821.60,265.00 822.16,265.00 822.71,265.00 823.27,265.00 823.82,265.00 824.38,265.00 824.93,265.00 825.49,265.00 826.05,265.00 826.60,265.00 827.16,265.00 827.71,265.00 828.27,265.00 828.82,265.00 829.38,265.00 829.93,265.00 830.49,265.00 831.05,265.00 831.60,265.00 832.16,265.00 832.71,265.00 833.27,265.00 833.82,265.00 834.38,265.00 834.94,265.00 835.49,265.00 836.05,265.00 836.60,265.00 837.16,265.00 837.71,265.00 838.27,265.00 838.83,265.00 839.38,265.00 839.94,265.00 840.49,265.00 841.05,265.00 841.60,265.00 842.16,265.00 842.72,265.00 843.27,265.00 843.83,265.00 844.38,265.00 844.94,265.00 845.49,265.00 846.05,265.00 846.61,265.00 847.16,265.00 847.72,265.00 848.27,265.00 848.83,265.00 849.38,265.00 849.94,265.00 850.49,265.00 851.05,265.00 851.61,265.00 852.16,265.00 852.72,265.00 853.27,265.00 853.83,265.00 854.38,265.00 854.94,265.00 855.50,265.00 856.05,265.00 856.61,265.00 857.16,265.00 857.72,265.00 858.27,265.00 858.83,265.00 859.39,265.00 859.94,265.00 860.50,265.00 861.05,265.00 861.61,265.00 862.16,265.00 862.72,265.00 863.28,265.00 863.83,265.00 864.39,265.00 864.94,265.00 865.50,265.00 866.05,265.00 866.61,265.00 867.16,265.00 867.72,265.00 868.28,265.00 868.83,265.00 869.39,265.00 869.94,265.00 870.50,265.00 871.05,265.00 871.61,265.00 872.17,265.00 872.72,265.00 873.28,265.00 873.83,265.00 874.39,265.00 874.94,265.00 875.50,265.00 876.06,265.00 876.61,265.00 877.17,265.00 877.72,265.00 878.28,265.00 878.83,265.00 879.39,265.00 879.95,265.00 880.50,265.00 881.06,265.00 881.61,265.00 882.17,265.00 882.72,265.00 883.28,265.00 883.84,265.00 884.39,265.00 884.95,265.00 885.50,265.00 886.06,265.00 886.61,265.00 887.17,265.00 887.72,265.00 888.28,265.00 888.84,265.00 889.39,265.00 889.95,265.00 890.50,265.00 891.06,265.00 891.61,265.00 892.17,265.00 892.73,265.00 893.28,265.00 893.84,265.00 894.39,265.00 894.95,265.00 895.50,265.00 896.06,265.00 896.62,265.00 897.17,265.00 897.73,265.00 898.28,265.00 898.84,265.00 899.39,265.00 899.95,265.00 900.51,265.00 901.06,265.00 901.62,265.00 902.17,265.00 902.73,265.00 903.28,265.00 903.84,265.00 904.39,265.00 904.95,265.00 905.51,265.00 906.06,265.00 906.62,265.00 907.17,265.00 907.73,265.00 908.28,265.00 908.84,265.00 909.40,265.00 909.95,265.00 910.51,265.00 911.06,265.00 911.62,265.00 912.17,265.00 912.73,265.00 913.29,265.00 913.84,265.00 914.40,265.00 914.95,265.00 915.51,265.00 916.06,265.00 916.62,265.00 917.18,265.00 917.73,265.00 918.29,265.00 918.84,265.00 919.40,265.00 919.95,265.00 920.51,265.00 921.07,265.00 921.62,265.00 922.18,265.00 922.73,265.00 923.29,265.00 923.84,265.00 924.40,265.00 924.95,265.00 925.51,265.00 926.07,265.00 926.62,265.00 927.18,265.00 927.73,265.00 928.29,265.00 928.84,265.00 929.40,265.00 929.96,265.00 930.51,265.00 931.07,265.00 931.62,265.00 932.18,265.00 932.73,265.00 933.29,265.00 933.85,265.00 934.40,265.00 934.96,265.00 935.51,265.00 936.07,265.00 936.62,265.00 937.18,265.00 937.74,265.00 938.29,265.00 938.85,265.00 939.40,265.00 939.96,265.00 940.51,265.00 941.07,265.00 941.62,265.00 942.18,265.00 942.74,265.00 943.29,265.00 943.85,265.00 944.40,265.00 944.96,265.00 945.51,265.00 946.07,265.00 946.63,265.00 947.18,265.00 947.74,265.00 948.29,265.00 948.85,265.00 949.40,265.00 949.96,265.00 950.52,265.00 951.07,265.00 951.63,265.00 952.18,265.00 952.74,265.00 953.29,265.00 953.85,265.00 954.41,265.00 954.96,265.00 955.52,265.00 956.07,265.00 956.63,265.00 957.18,265.00 957.74,265.00 958.30,265.00 958.85,265.00 959.41,265.00 959.96,265.00 960.52,265.00 961.07,265.00 961.63,265.00 962.18,265.00 962.74,265.00 963.30,265.00 963.85,265.00 964.41,265.00 964.96,265.00 965.52,265.00 966.07,265.00 966.63,265.00 967.19,265.00 967.74,265.00 968.30,265.00 968.85,265.00 969.41,265.00 969.96,265.00 970.52,265.00 971.08,265.00 971.63,265.00 972.19,265.00 972.74,265.00 973.30,265.00 973.85,265.00 974.41,265.00 974.97,265.00 975.52,265.00 976.08,265.00 976.63,265.00 977.19,265.00 977.74,265.00 978.30,265.00 978.86,265.00 979.41,265.00 979.97,265.00 980.52,265.00 981.08,265.00 981.63,265.00 982.19,265.00 982.74,265.00 983.30,265.00 983.86,265.00 984.41,265.00 984.97,265.00 985.52,265.00 986.08,265.00 986.63,265.00 987.19,265.00 987.75,265.00 988.30,265.00 988.86,265.00 989.41,265.00 989.97,265.00 990.52,265.00 991.08,265.00 991.64,265.00 992.19,265.00 992.75,265.00 993.30,265.00 993.86,265.00 994.41,265.00 994.97,265.00 995.53,265.00 996.08,265.00 996.64,265.00 997.19,265.00 997.75,265.00 998.30,265.00 998.86,265.00 999.41,265.00 999.97,265.00 1000.53,265.00 1001.08,265.00 1001.64,265.00 1002.19,265.00 1002.75,265.00 1003.30,265.00 1003.86,265.00 1004.42,265.00 1004.97,265.00 1005.53,265.00 1006.08,265.00 1006.64,265.00 1007.19,265.00 1007.75,265.00 1008.31,265.00 1008.86,265.00 1009.42,265.00 1009.97,265.00 1010.53,265.00 1011.08,265.00 1011.64,265.00 1012.20,265.00 1012.75,265.00 1013.31,265.00 1013.86,265.00 1014.42,265.00 1014.97,265.00 1015.53,265.00 1016.09,265.00 1016.64,265.00 1017.20,265.00 1017.75,265.00 1018.31,265.00 1018.86,265.00 1019.42,265.00 1019.97,265.00 1020.53,265.00 1021.09,265.00 1021.64,265.00 1022.20,265.00 1022.75,265.00 1023.31,265.00 1023.86,265.00 1024.42,265.00 1024.98,265.00 1025.53,265.00 1026.09,265.00 1026.64,265.00 1027.20,265.00 1027.75,265.00 1028.31,265.00 1028.87,265.00 1029.42,265.00 1029.98,265.00 1030.53,265.00 1031.09,265.00 1031.64,265.00 1032.20,265.00 1032.76,265.00 1033.31,265.00 1033.87,265.00 1034.42,265.00 1034.98,265.00 1035.53,265.00 1036.09,265.00 1036.64,265.00 1037.20,265.00 1037.76,265.00 1038.31,265.00 1038.87,265.00 1039.42,265.00 1039.98,265.00 1040.53,265.00 1041.09,265.00 1041.65,265.00 1042.20,265.00 1042.76,265.00 1043.31,265.00 1043.87,265.00 1044.42,265.00 1044.98,265.00 1045.54,265.00 1046.09,265.00 1046.65,265.00 1047.20,265.00 1047.76,265.00 1048.31,265.00 1048.87,265.00 1049.43,265.00 1049.98,265.00 1050.54,265.00 1051.09,265.00 1051.65,265.00 1052.20,265.00 1052.76,265.00 1053.32,265.00 1053.87,265.00 1054.43,265.00 1054.98,265.00 1055.54,265.00 1056.09,265.00 1056.65,265.00 1057.20,265.00 1057.76,265.00 1058.32,265.00 1058.87,265.00 1059.43,265.00 1059.98,265.00 1060.54,265.00 1061.09,265.00 1061.65,265.00 1062.21,265.00 1062.76,265.00 1063.32,265.00 1063.87,265.00 1064.43,265.00 1064.98,265.00 1065.54,265.00 1066.10,265.00 1066.65,265.00 1067.21,265.00 1067.76,265.00 1068.32,265.00 1068.87,265.00 1069.43,265.00 1069.99,265.00 1070.54,265.00 1071.10,265.00 1071.65,265.00 1072.21,265.00 1072.76,265.00 1073.32,265.00 1073.88,265.00 1074.43,265.00 1074.99,265.00 1075.54,265.00 1076.10,265.00 1076.65,265.00 1077.21,265.00 1077.76,265.00 1078.32,265.00 1078.88,265.00 1079.43,265.00 1079.99,265.00 1080.54,265.00 1081.10,265.00 1081.65,265.00 1082.21,265.00 1082.77,265.00 1083.32,265.00 1083.88,265.00 1084.43,265.00 1084.99,265.00 1085.54,265.00 1086.10,265.00 1086.66,265.00 1087.21,265.00 1087.77,265.00 1088.32,265.00 1088.88,265.00 1089.43,265.00 1089.99,265.00 1090.55,265.00 1091.10,265.00 1091.66,265.00 1092.21,265.00 1092.77,265.00 1093.32,265.00 1093.88,265.00 1094.43,265.00 1094.99,265.00 1095.55,265.00 1096.10,265.00 1096.66,265.00 1097.21,265.00 1097.77,265.00 1098.32,265.00 1098.88,265.00 1099.44,265.00 1099.99,265.00 1100.55,265.00 1101.10,265.00 1101.66,265.00 1102.21,265.00 1102.77,265.00 1103.33,265.00 1103.88,265.00 1104.44,265.00 1104.99,265.00 1105.55,265.00 1106.10,265.00 1106.66,265.00 1107.22,265.00 1107.77,265.00 1108.33,265.00 1108.88,265.00 1109.44,265.00 1109.99,265.00 1110.55,265.00 1111.11,265.00 1111.66,265.00 1112.22,265.00 1112.77,265.00 1113.33,265.00 1113.88,265.00 1114.44,265.00 1114.99,265.00 1115.55,265.00 1116.11,265.00 1116.66,265.00 1117.22,265.00 1117.77,265.00 1118.33,265.00 1118.88,265.00 1119.44,265.00 1120.00,265.00 1120.55,265.00 1121.11,265.00 1121.66,265.00 1122.22,265.00 1122.77,265.00 1123.33,265.00 1123.89,265.00 1124.44,265.00 1125.00,265.00 1125.55,265.00 1126.11,265.00 1126.66,265.00 1127.22,265.00 1127.78,265.00 1128.33,265.00 1128.89,265.00 1129.44,265.00 1130.00,265.00 1130.55,265.00 1131.11,265.00 1131.66,265.00 1132.22,265.00 1132.78,265.00 1133.33,265.00 1133.89,265.00 1134.44,265.00 1135.00,265.00 1135.55,265.00 1136.11,265.00 1136.67,265.00 1137.22,265.00 1137.78,265.00 1138.33,265.00 1138.89,265.00 1139.44,265.00 1140.00,265.00"/>
<polyline fill="none" stroke="#b8860b" stroke-width="3" stroke-linejoin="round" stroke-linecap="round" points="82.00,468.00 82.56,468.00 83.11,468.00 83.67,468.00 84.22,468.00 84.78,468.00 85.33,468.00 85.89,468.00 86.45,468.00 87.00,468.00 87.56,468.00 88.11,468.00 88.67,468.00 89.22,468.00 89.78,468.00 90.34,468.00 90.89,468.00 91.45,468.00 92.00,468.00 92.56,468.00 93.11,468.00 93.67,468.00 94.22,468.00 94.78,468.00 95.34,468.00 95.89,468.00 96.45,468.00 97.00,468.00 97.56,468.00 98.11,468.00 98.67,468.00 99.23,468.00 99.78,468.00 100.34,468.00 100.89,468.00 101.45,468.00 102.00,468.00 102.56,468.00 103.12,468.00 103.67,468.00 104.23,468.00 104.78,468.00 105.34,468.00 105.89,468.00 106.45,468.00 107.01,468.00 107.56,468.00 108.12,468.00 108.67,468.00 109.23,468.00 109.78,468.00 110.34,468.00 110.89,468.00 111.45,468.00 112.01,468.00 112.56,468.00 113.12,468.00 113.67,468.00 114.23,468.00 114.78,468.00 115.34,468.00 115.90,468.00 116.45,468.00 117.01,468.00 117.56,468.00 118.12,468.00 118.67,468.00 119.23,468.00 119.79,468.00 120.34,468.00 120.90,468.00 121.45,468.00 122.01,468.00 122.56,468.00 123.12,468.00 123.68,468.00 124.23,468.00 124.79,468.00 125.34,468.00 125.90,468.00 126.45,468.00 127.01,468.00 127.57,468.00 128.12,468.00 128.68,468.00 129.23,468.00 129.79,468.00 130.34,468.00 130.90,468.00 131.45,468.00 132.01,468.00 132.57,468.00 133.12,468.00 133.68,468.00 134.23,468.00 134.79,468.00 135.34,468.00 135.90,468.00 136.46,468.00 137.01,468.00 137.57,468.00 138.12,468.00 138.68,468.00 139.23,468.00 139.79,468.00 140.35,468.00 140.90,468.00 141.46,468.00 142.01,468.00 142.57,468.00 143.12,468.00 143.68,468.00 144.24,468.00 144.79,468.00 145.35,468.00 145.90,468.00 146.46,468.00 147.01,468.00 147.57,468.00 148.12,468.00 148.68,468.00 149.24,468.00 149.79,468.00 150.35,468.00 150.90,468.00 151.46,468.00 152.01,468.00 152.57,468.00 153.13,468.00 153.68,468.00 154.24,468.00 154.79,468.00 155.35,468.00 155.90,468.00 156.46,468.00 157.02,468.00 157.57,468.00 158.13,468.00 158.68,468.00 159.24,468.00 159.79,468.00 160.35,468.00 160.91,468.00 161.46,468.00 162.02,468.00 162.57,468.00 163.13,468.00 163.68,468.00 164.24,468.00 164.80,468.00 165.35,468.00 165.91,468.00 166.46,468.00 167.02,468.00 167.57,468.00 168.13,468.00 168.68,468.00 169.24,468.00 169.80,468.00 170.35,468.00 170.91,468.00 171.46,468.00 172.02,468.00 172.57,468.00 173.13,468.00 173.69,468.00 174.24,468.00 174.80,468.00 175.35,468.00 175.91,468.00 176.46,468.00 177.02,468.00 177.58,468.00 178.13,468.00 178.69,468.00 179.24,468.00 179.80,468.00 180.35,468.00 180.91,468.00 181.47,468.00 182.02,468.00 182.58,468.00 183.13,468.00 183.69,468.00 184.24,468.00 184.80,468.00 185.36,468.00 185.91,468.00 186.47,468.00 187.02,468.00 187.58,468.00 188.13,468.00 188.69,468.00 189.24,468.00 189.80,468.00 190.36,468.00 190.91,468.00 191.47,468.00 192.02,468.00 192.58,468.00 193.13,468.00 193.69,468.00 194.25,468.00 194.80,468.00 195.36,468.00 195.91,468.00 196.47,468.00 197.02,468.00 197.58,468.00 198.14,468.00 198.69,468.00 199.25,468.00 199.80,468.00 200.36,468.00 200.91,468.00 201.47,468.00 202.03,468.00 202.58,468.00 203.14,468.00 203.69,468.00 204.25,468.00 204.80,468.00 205.36,468.00 205.91,468.00 206.47,468.00 207.03,468.00 207.58,468.00 208.14,468.00 208.69,468.00 209.25,468.00 209.80,468.00 210.36,468.00 210.92,468.00 211.47,468.00 212.03,468.00 212.58,468.00 213.14,468.00 213.69,468.00 214.25,468.00 214.81,468.00 215.36,468.00 215.92,468.00 216.47,468.00 217.03,468.00 217.58,468.00 218.14,468.00 218.70,468.00 219.25,468.00 219.81,468.00 220.36,468.00 220.92,468.00 221.47,468.00 222.03,468.00 222.59,468.00 223.14,468.00 223.70,468.00 224.25,468.00 224.81,468.00 225.36,468.00 225.92,468.00 226.47,468.00 227.03,468.00 227.59,468.00 228.14,468.00 228.70,468.00 229.25,468.00 229.81,468.00 230.36,468.00 230.92,468.00 231.48,468.00 232.03,468.00 232.59,468.00 233.14,468.00 233.70,468.00 234.25,468.00 234.81,468.00 235.37,468.00 235.92,468.00 236.48,468.00 237.03,468.00 237.59,468.00 238.14,468.00 238.70,468.00 239.26,468.00 239.81,468.00 240.37,468.00 240.92,468.00 241.48,468.00 242.03,468.00 242.59,468.00 243.14,468.00 243.70,468.00 244.26,468.00 244.81,468.00 245.37,468.00 245.92,468.00 246.48,468.00 247.03,468.00 247.59,468.00 248.15,468.00 248.70,468.00 249.26,468.00 249.81,468.00 250.37,468.00 250.92,468.00 251.48,468.00 252.04,468.00 252.59,468.00 253.15,468.00 253.70,468.00 254.26,468.00 254.81,468.00 255.37,468.00 255.93,468.00 256.48,468.00 257.04,468.00 257.59,468.00 258.15,468.00 258.70,468.00 259.26,468.00 259.82,468.00 260.37,468.00 260.93,468.00 261.48,468.00 262.04,468.00 262.59,468.00 263.15,468.00 263.70,468.00 264.26,468.00 264.82,468.00 265.37,468.00 265.93,468.00 266.48,468.00 267.04,468.00 267.59,468.00 268.15,468.00 268.71,468.00 269.26,468.00 269.82,468.00 270.37,468.00 270.93,468.00 271.48,468.00 272.04,468.00 272.60,468.00 273.15,468.00 273.71,468.00 274.26,468.00 274.82,468.00 275.37,468.00 275.93,468.00 276.49,468.00 277.04,468.00 277.60,468.00 278.15,468.00 278.71,468.00 279.26,468.00 279.82,468.00 280.38,468.00 280.93,468.00 281.49,468.00 282.04,468.00 282.60,468.00 283.15,468.00 283.71,468.00 284.26,468.00 284.82,468.00 285.38,468.00 285.93,468.00 286.49,468.00 287.04,468.00 287.60,468.00 288.15,468.00 288.71,468.00 289.27,468.00 289.82,468.00 290.38,468.00 290.93,468.00 291.49,468.00 292.04,468.00 292.60,468.00 293.16,468.00 293.71,468.00 294.27,468.00 294.82,468.00 295.38,468.00 295.93,468.00 296.49,468.00 297.05,468.00 297.60,468.00 298.16,468.00 298.71,468.00 299.27,468.00 299.82,468.00 300.38,468.00 300.93,468.00 301.49,468.00 302.05,468.00 302.60,468.00 303.16,468.00 303.71,468.00 304.27,468.00 304.82,468.00 305.38,468.00 305.94,468.00 306.49,468.00 307.05,468.00 307.60,468.00 308.16,468.00 308.71,468.00 309.27,468.00 309.83,468.00 310.38,468.00 310.94,468.00 311.49,468.00 312.05,468.00 312.60,468.00 313.16,468.00 313.72,468.00 314.27,468.00 314.83,468.00 315.38,468.00 315.94,468.00 316.49,468.00 317.05,468.00 317.61,468.00 318.16,468.00 318.72,468.00 319.27,468.00 319.83,468.00 320.38,468.00 320.94,468.00 321.49,468.00 322.05,468.00 322.61,468.00 323.16,468.00 323.72,468.00 324.27,468.00 324.83,468.00 325.38,468.00 325.94,468.00 326.50,468.00 327.05,468.00 327.61,468.00 328.16,468.00 328.72,468.00 329.27,468.00 329.83,468.00 330.39,468.00 330.94,468.00 331.50,468.00 332.05,468.00 332.61,468.00 333.16,468.00 333.72,468.00 334.28,468.00 334.83,468.00 335.39,468.00 335.94,468.00 336.50,468.00 337.05,468.00 337.61,468.00 338.16,468.00 338.72,468.00 339.28,468.00 339.83,468.00 340.39,468.00 340.94,468.00 341.50,468.00 342.05,468.00 342.61,468.00 343.17,468.00 343.72,468.00 344.28,468.00 344.83,468.00 345.39,468.00 345.94,468.00 346.50,468.00 347.06,468.00 347.61,468.00 348.17,468.00 348.72,468.00 349.28,468.00 349.83,468.00 350.39,468.00 350.95,468.00 351.50,468.00 352.06,468.00 352.61,468.00 353.17,468.00 353.72,468.00 354.28,468.00 354.84,468.00 355.39,468.00 355.95,468.00 356.50,468.00 357.06,468.00 357.61,468.00 358.17,468.00 358.72,468.00 359.28,468.00 359.84,468.00 360.39,468.00 360.95,468.00 361.50,468.00 362.06,468.00 362.61,468.00 363.17,468.00 363.73,468.00 364.28,468.00 364.84,468.00 365.39,468.00 365.95,468.00 366.50,468.00 367.06,468.00 367.62,468.00 368.17,468.00 368.73,468.00 369.28,468.00 369.84,468.00 370.39,468.00 370.95,468.00 371.51,468.00 372.06,468.00 372.62,468.00 373.17,468.00 373.73,468.00 374.28,468.00 374.84,468.00 375.39,468.00 375.95,468.00 376.51,468.00 377.06,468.00 377.62,468.00 378.17,468.00 378.73,468.00 379.28,468.00 379.84,468.00 380.40,468.00 380.95,468.00 381.51,468.00 382.06,468.00 382.62,468.00 383.17,468.00 383.73,468.00 384.29,468.00 384.84,468.00 385.40,468.00 385.95,468.00 386.51,468.00 387.06,468.00 387.62,468.00 388.18,468.00 388.73,468.00 389.29,468.00 389.84,468.00 390.40,468.00 390.95,468.00 391.51,468.00 392.07,468.00 392.62,468.00 393.18,468.00 393.73,468.00 394.29,468.00 394.84,468.00 395.40,468.00 395.95,468.00 396.51,468.00 397.07,468.00 397.62,468.00 398.18,468.00 398.73,468.00 399.29,468.00 399.84,468.00 400.40,468.00 400.96,468.00 401.51,468.00 402.07,468.00 402.62,468.00 403.18,468.00 403.73,468.00 404.29,468.00 404.85,468.00 405.40,468.00 405.96,468.00 406.51,468.00 407.07,468.00 407.62,468.00 408.18,468.00 408.74,468.00 409.29,468.00 409.85,468.00 410.40,468.00 410.96,468.00 411.51,468.00 412.07,468.00 412.62,468.00 413.18,468.00 413.74,468.00 414.29,468.00 414.85,468.00 415.40,468.00 415.96,468.00 416.51,468.00 417.07,468.00 417.63,468.00 418.18,468.00 418.74,468.00 419.29,468.00 419.85,468.00 420.40,468.00 420.96,468.00 421.52,468.00 422.07,468.00 422.63,468.00 423.18,468.00 423.74,468.00 424.29,468.00 424.85,468.00 425.41,468.00 425.96,468.00 426.52,468.00 427.07,468.00 427.63,468.00 428.18,468.00 428.74,468.00 429.30,468.00 429.85,468.00 430.41,468.00 430.96,468.00 431.52,468.00 432.07,468.00 432.63,468.00 433.18,468.00 433.74,468.00 434.30,468.00 434.85,468.00 435.41,468.00 435.96,468.00 436.52,468.00 437.07,468.00 437.63,468.00 438.19,468.00 438.74,468.00 439.30,468.00 439.85,468.00 440.41,468.00 440.96,468.00 441.52,468.00 442.08,468.00 442.63,468.00 443.19,468.00 443.74,468.00 444.30,468.00 444.85,468.00 445.41,468.00 445.97,468.00 446.52,468.00 447.08,468.00 447.63,468.00 448.19,468.00 448.74,468.00 449.30,468.00 449.86,468.00 450.41,468.00 450.97,468.00 451.52,468.00 452.08,468.00 452.63,468.00 453.19,468.00 453.74,468.00 454.30,468.00 454.86,468.00 455.41,468.00 455.97,468.00 456.52,468.00 457.08,468.00 457.63,468.00 458.19,468.00 458.75,468.00 459.30,468.00 459.86,468.00 460.41,468.00 460.97,468.00 461.52,468.00 462.08,468.00 462.64,468.00 463.19,468.00 463.75,468.00 464.30,468.00 464.86,468.00 465.41,468.00 465.97,468.00 466.53,468.00 467.08,468.00 467.64,468.00 468.19,468.00 468.75,468.00 469.30,468.00 469.86,468.00 470.41,468.00 470.97,468.00 471.53,468.00 472.08,468.00 472.64,468.00 473.19,468.00 473.75,468.00 474.30,468.00 474.86,468.00 475.42,468.00 475.97,468.00 476.53,468.00 477.08,468.00 477.64,468.00 478.19,468.00 478.75,468.00 479.31,468.00 479.86,468.00 480.42,468.00 480.97,468.00 481.53,468.00 482.08,468.00 482.64,468.00 483.20,468.00 483.75,468.00 484.31,468.00 484.86,468.00 485.42,468.00 485.97,468.00 486.53,468.00 487.09,468.00 487.64,468.00 488.20,468.00 488.75,468.00 489.31,468.00 489.86,468.00 490.42,468.00 490.97,468.00 491.53,468.00 492.09,468.00 492.64,468.00 493.20,468.00 493.75,468.00 494.31,468.00 494.86,468.00 495.42,468.00 495.98,468.00 496.53,468.00 497.09,468.00 497.64,468.00 498.20,468.00 498.75,468.00 499.31,468.00 499.87,468.00 500.42,468.00 500.98,468.00 501.53,468.00 502.09,468.00 502.64,468.00 503.20,468.00 503.76,468.00 504.31,468.00 504.87,468.00 505.42,468.00 505.98,468.00 506.53,468.00 507.09,468.00 507.64,468.00 508.20,468.00 508.76,468.00 509.31,468.00 509.87,468.00 510.42,468.00 510.98,468.00 511.53,468.00 512.09,468.00 512.65,468.00 513.20,468.00 513.76,468.00 514.31,468.00 514.87,468.00 515.42,468.00 515.98,468.00 516.54,468.00 517.09,468.00 517.65,468.00 518.20,468.00 518.76,468.00 519.31,468.00 519.87,468.00 520.43,468.00 520.98,468.00 521.54,468.00 522.09,468.00 522.65,468.00 523.20,468.00 523.76,468.00 524.32,468.00 524.87,468.00 525.43,468.00 525.98,468.00 526.54,468.00 527.09,468.00 527.65,468.00 528.20,468.00 528.76,468.00 529.32,468.00 529.87,468.00 530.43,468.00 530.98,468.00 531.54,468.00 532.09,468.00 532.65,468.00 533.21,468.00 533.76,468.00 534.32,468.00 534.87,468.00 535.43,468.00 535.98,468.00 536.54,468.00 537.10,468.00 537.65,468.00 538.21,468.00 538.76,468.00 539.32,468.00 539.87,468.00 540.43,468.00 540.99,468.00 541.54,468.00 542.10,468.00 542.65,468.00 543.21,468.00 543.76,468.00 544.32,468.00 544.88,468.00 545.43,468.00 545.99,468.00 546.54,468.00 547.10,468.00 547.65,468.00 548.21,468.00 548.76,468.00 549.32,468.00 549.88,468.00 550.43,468.00 550.99,468.00 551.54,468.00 552.10,468.00 552.65,468.00 553.21,468.00 553.77,468.00 554.32,468.00 554.88,468.00 555.43,468.00 555.99,468.00 556.54,468.00 557.10,468.00 557.66,468.00 558.21,468.00 558.77,468.00 559.32,468.00 559.88,468.00 560.43,468.00 560.99,468.00 561.55,468.00 562.10,468.00 562.66,468.00 563.21,468.00 563.77,468.00 564.32,468.00 564.88,468.00 565.43,468.00 565.99,468.00 566.55,468.00 567.10,468.00 567.66,468.00 568.21,468.00 568.77,468.00 569.32,468.00 569.88,468.00 570.44,468.00 570.99,468.00 571.55,468.00 572.10,468.00 572.66,468.00 573.21,468.00 573.77,468.00 574.33,468.00 574.88,468.00 575.44,468.00 575.99,468.00 576.55,468.00 577.10,468.00 577.66,468.00 578.22,468.00 578.77,468.00 579.33,468.00 579.88,468.00 580.44,468.00 580.99,468.00 581.55,468.00 582.11,468.00 582.66,468.00 583.22,468.00 583.77,468.00 584.33,468.00 584.88,468.00 585.44,468.00 585.99,468.00 586.55,468.00 587.11,468.00 587.66,468.00 588.22,468.00 588.77,468.00 589.33,468.00 589.88,468.00 590.44,468.00 591.00,468.00 591.55,468.00 592.11,468.00 592.66,468.00 593.22,468.00 593.77,468.00 594.33,468.00 594.89,468.00 595.44,468.00 596.00,468.00 596.55,468.00 597.11,468.00 597.66,468.00 598.22,468.00 598.78,468.00 599.33,468.00 599.89,468.00 600.44,468.00 601.00,468.00 601.55,468.00 602.11,468.00 602.66,468.00 603.22,468.00 603.78,468.00 604.33,468.00 604.89,468.00 605.44,468.00 606.00,468.00 606.55,468.00 607.11,468.00 607.67,468.00 608.22,468.00 608.78,468.00 609.33,468.00 609.89,468.00 610.44,468.00 611.00,468.00 611.56,468.00 612.11,468.00 612.67,468.00 613.22,468.00 613.78,468.00 614.33,468.00 614.89,468.00 615.45,468.00 616.00,468.00 616.56,468.00 617.11,468.00 617.67,468.00 618.22,468.00 618.78,468.00 619.34,468.00 619.89,468.00 620.45,468.00 621.00,468.00 621.56,468.00 622.11,468.00 622.67,468.00 623.22,468.00 623.78,468.00 624.34,468.00 624.89,468.00 625.45,468.00 626.00,468.00 626.56,468.00 627.11,468.00 627.67,468.00 628.23,468.00 628.78,468.00 629.34,468.00 629.89,468.00 630.45,468.00 631.00,468.00 631.56,468.00 632.12,468.00 632.67,468.00 633.23,468.00 633.78,468.00 634.34,468.00 634.89,468.00 635.45,468.00 636.01,468.00 636.56,468.00 637.12,468.00 637.67,468.00 638.23,468.00 638.78,468.00 639.34,468.00 639.89,468.00 640.45,468.00 641.01,468.00 641.56,468.00 642.12,468.00 642.67,468.00 643.23,468.00 643.78,468.00 644.34,468.00 644.90,468.00 645.45,468.00 646.01,468.00 646.56,468.00 647.12,468.00 647.67,468.00 648.23,468.00 648.79,468.00 649.34,468.00 649.90,468.00 650.45,468.00 651.01,468.00 651.56,468.00 652.12,468.00 652.68,468.00 653.23,468.00 653.79,468.00 654.34,468.00 654.90,468.00 655.45,468.00 656.01,468.00 656.57,468.00 657.12,468.00 657.68,468.00 658.23,468.00 658.79,468.00 659.34,468.00 659.90,468.00 660.45,468.00 661.01,468.00 661.57,468.00 662.12,468.00 662.68,468.00 663.23,468.00 663.79,468.00 664.34,468.00 664.90,468.00 665.46,468.00 666.01,468.00 666.57,468.00 667.12,468.00 667.68,468.00 668.23,468.00 668.79,468.00 669.35,468.00 669.90,468.00 670.46,468.00 671.01,468.00 671.57,468.00 672.12,468.00 672.68,468.00 673.24,468.00 673.79,468.00 674.35,468.00 674.90,468.00 675.46,468.00 676.01,468.00 676.57,468.00 677.12,468.00 677.68,468.00 678.24,468.00 678.79,468.00 679.35,468.00 679.90,468.00 680.46,468.00 681.01,468.00 681.57,468.00 682.13,468.00 682.68,468.00 683.24,468.00 683.79,468.00 684.35,468.00 684.90,468.00 685.46,468.00 686.02,468.00 686.57,468.00 687.13,468.00 687.68,468.00 688.24,468.00 688.79,468.00 689.35,468.00 689.91,468.00 690.46,468.00 691.02,468.00 691.57,468.00 692.13,468.00 692.68,468.00 693.24,468.00 693.80,468.00 694.35,468.00 694.91,468.00 695.46,468.00 696.02,468.00 696.57,468.00 697.13,468.00 697.68,468.00 698.24,468.00 698.80,468.00 699.35,468.00 699.91,468.00 700.46,468.00 701.02,468.00 701.57,468.00 702.13,468.00 702.69,468.00 703.24,468.00 703.80,468.00 704.35,468.00 704.91,468.00 705.46,468.00 706.02,468.00 706.58,468.00 707.13,468.00 707.69,468.00 708.24,468.00 708.80,468.00 709.35,468.00 709.91,468.00 710.47,468.00 711.02,468.00 711.58,468.00 712.13,468.00 712.69,468.00 713.24,468.00 713.80,468.00 714.36,468.00 714.91,468.00 715.47,468.00 716.02,468.00 716.58,468.00 717.13,468.00 717.69,468.00 718.24,468.00 718.80,468.00 719.36,468.00 719.91,468.00 720.47,468.00 721.02,468.00 721.58,468.00 722.13,468.00 722.69,468.00 723.25,468.00 723.80,468.00 724.36,468.00 724.91,468.00 725.47,468.00 726.02,468.00 726.58,468.00 727.14,468.00 727.69,468.00 728.25,468.00 728.80,468.00 729.36,468.00 729.91,468.00 730.47,468.00 731.03,468.00 731.58,468.00 732.14,468.00 732.69,468.00 733.25,468.00 733.80,468.00 734.36,468.00 734.91,468.00 735.47,468.00 736.03,468.00 736.58,468.00 737.14,468.00 737.69,468.00 738.25,468.00 738.80,468.00 739.36,468.00 739.92,468.00 740.47,468.00 741.03,468.00 741.58,468.00 742.14,468.00 742.69,468.00 743.25,468.00 743.81,468.00 744.36,468.00 744.92,468.00 745.47,468.00 746.03,468.00 746.58,468.00 747.14,468.00 747.70,468.00 748.25,468.00 748.81,468.00 749.36,468.00 749.92,468.00 750.47,468.00 751.03,468.00 751.59,468.00 752.14,468.00 752.70,468.00 753.25,468.00 753.81,468.00 754.36,468.00 754.92,468.00 755.47,468.00 756.03,468.00 756.59,468.00 757.14,468.00 757.70,468.00 758.25,468.00 758.81,468.00 759.36,468.00 759.92,468.00 760.48,468.00 761.03,468.00 761.59,468.00 762.14,468.00 762.70,468.00 763.25,468.00 763.81,468.00 764.37,468.00 764.92,468.00 765.48,468.00 766.03,468.00 766.59,468.00 767.14,468.00 767.70,468.00 768.26,468.00 768.81,468.00 769.37,468.00 769.92,468.00 770.48,468.00 771.03,468.00 771.59,468.00 772.14,468.00 772.70,468.00 773.26,468.00 773.81,468.00 774.37,468.00 774.92,468.00 775.48,468.00 776.03,468.00 776.59,468.00 777.15,468.00 777.70,468.00 778.26,468.00 778.81,468.00 779.37,468.00 779.92,468.00 780.48,468.00 781.04,468.00 781.59,468.00 782.15,468.00 782.70,468.00 783.26,468.00 783.81,468.00 784.37,468.00 784.93,468.00 785.48,468.00 786.04,468.00 786.59,468.00 787.15,468.00 787.70,468.00 788.26,468.00 788.82,468.00 789.37,468.00 789.93,468.00 790.48,468.00 791.04,468.00 791.59,468.00 792.15,468.00 792.70,468.00 793.26,468.00 793.82,468.00 794.37,468.00 794.93,468.00 795.48,468.00 796.04,468.00 796.59,468.00 797.15,468.00 797.71,468.00 798.26,468.00 798.82,468.00 799.37,468.00 799.93,468.00 800.48,468.00 801.04,468.00 801.60,468.00 802.15,468.00 802.71,468.00 803.26,468.00 803.82,468.00 804.37,468.00 804.93,468.00 805.49,468.00 806.04,468.00 806.60,468.00 807.15,468.00 807.71,468.00 808.26,468.00 808.82,468.00 809.38,468.00 809.93,468.00 810.49,468.00 811.04,468.00 811.60,468.00 812.15,468.00 812.71,468.00 813.26,468.00 813.82,468.00 814.38,468.00 814.93,468.00 815.49,468.00 816.04,468.00 816.60,468.00 817.15,468.00 817.71,468.00 818.27,468.00 818.82,468.00 819.38,468.00 819.93,468.00 820.49,468.00 821.04,468.00 821.60,468.00 822.16,468.00 822.71,468.00 823.27,468.00 823.82,468.00 824.38,468.00 824.93,468.00 825.49,468.00 826.05,468.00 826.60,468.00 827.16,468.00 827.71,468.00 828.27,468.00 828.82,468.00 829.38,468.00 829.93,468.00 830.49,468.00 831.05,468.00 831.60,468.00 832.16,468.00 832.71,468.00 833.27,468.00 833.82,468.00 834.38,468.00 834.94,468.00 835.49,468.00 836.05,468.00 836.60,468.00 837.16,468.00 837.71,468.00 838.27,468.00 838.83,468.00 839.38,468.00 839.94,468.00 840.49,468.00 841.05,468.00 841.60,468.00 842.16,468.00 842.72,468.00 843.27,468.00 843.83,468.00 844.38,468.00 844.94,468.00 845.49,468.00 846.05,468.00 846.61,468.00 847.16,468.00 847.72,468.00 848.27,468.00 848.83,468.00 849.38,468.00 849.94,468.00 850.49,468.00 851.05,468.00 851.61,468.00 852.16,468.00 852.72,468.00 853.27,468.00 853.83,468.00 854.38,468.00 854.94,468.00 855.50,468.00 856.05,468.00 856.61,468.00 857.16,468.00 857.72,468.00 858.27,468.00 858.83,468.00 859.39,468.00 859.94,468.00 860.50,468.00 861.05,468.00 861.61,468.00 862.16,468.00 862.72,468.00 863.28,468.00 863.83,468.00 864.39,468.00 864.94,468.00 865.50,468.00 866.05,468.00 866.61,468.00 867.16,468.00 867.72,468.00 868.28,468.00 868.83,468.00 869.39,468.00 869.94,468.00 870.50,468.00 871.05,468.00 871.61,468.00 872.17,468.00 872.72,468.00 873.28,468.00 873.83,468.00 874.39,468.00 874.94,468.00 875.50,468.00 876.06,468.00 876.61,468.00 877.17,468.00 877.72,468.00 878.28,468.00 878.83,468.00 879.39,468.00 879.95,468.00 880.50,468.00 881.06,468.00 881.61,468.00 882.17,468.00 882.72,468.00 883.28,468.00 883.84,468.00 884.39,468.00 884.95,468.00 885.50,468.00 886.06,468.00 886.61,468.00 887.17,468.00 887.72,468.00 888.28,468.00 888.84,468.00 889.39,468.00 889.95,468.00 890.50,468.00 891.06,468.00 891.61,468.00 892.17,468.00 892.73,468.00 893.28,468.00 893.84,468.00 894.39,468.00 894.95,468.00 895.50,468.00 896.06,468.00 896.62,468.00 897.17,468.00 897.73,468.00 898.28,468.00 898.84,468.00 899.39,468.00 899.95,468.00 900.51,468.00 901.06,468.00 901.62,468.00 902.17,468.00 902.73,468.00 903.28,468.00 903.84,468.00 904.39,468.00 904.95,468.00 905.51,468.00 906.06,468.00 906.62,468.00 907.17,468.00 907.73,468.00 908.28,468.00 908.84,468.00 909.40,468.00 909.95,468.00 910.51,468.00 911.06,468.00 911.62,468.00 912.17,468.00 912.73,468.00 913.29,468.00 913.84,468.00 914.40,468.00 914.95,468.00 915.51,468.00 916.06,468.00 916.62,468.00 917.18,468.00 917.73,468.00 918.29,468.00 918.84,468.00 919.40,468.00 919.95,468.00 920.51,468.00 921.07,468.00 921.62,468.00 922.18,468.00 922.73,468.00 923.29,468.00 923.84,468.00 924.40,468.00 924.95,468.00 925.51,468.00 926.07,468.00 926.62,468.00 927.18,468.00 927.73,468.00 928.29,468.00 928.84,468.00 929.40,468.00 929.96,468.00 930.51,468.00 931.07,468.00 931.62,468.00 932.18,468.00 932.73,468.00 933.29,468.00 933.85,468.00 934.40,468.00 934.96,468.00 935.51,468.00 936.07,468.00 936.62,468.00 937.18,468.00 937.74,468.00 938.29,468.00 938.85,468.00 939.40,468.00 939.96,468.00 940.51,468.00 941.07,468.00 941.62,468.00 942.18,468.00 942.74,468.00 943.29,468.00 943.85,468.00 944.40,468.00 944.96,468.00 945.51,468.00 946.07,468.00 946.63,468.00 947.18,468.00 947.74,468.00 948.29,468.00 948.85,468.00 949.40,468.00 949.96,468.00 950.52,468.00 951.07,468.00 951.63,468.00 952.18,468.00 952.74,468.00 953.29,468.00 953.85,468.00 954.41,468.00 954.96,468.00 955.52,468.00 956.07,468.00 956.63,468.00 957.18,468.00 957.74,468.00 958.30,468.00 958.85,468.00 959.41,468.00 959.96,468.00 960.52,468.00 961.07,468.00 961.63,468.00 962.18,468.00 962.74,468.00 963.30,468.00 963.85,468.00 964.41,468.00 964.96,468.00 965.52,468.00 966.07,468.00 966.63,468.00 967.19,468.00 967.74,468.00 968.30,468.00 968.85,468.00 969.41,468.00 969.96,468.00 970.52,468.00 971.08,468.00 971.63,468.00 972.19,468.00 972.74,468.00 973.30,468.00 973.85,468.00 974.41,468.00 974.97,468.00 975.52,468.00 976.08,468.00 976.63,468.00 977.19,468.00 977.74,468.00 978.30,468.00 978.86,468.00 979.41,468.00 979.97,468.00 980.52,468.00 981.08,468.00 981.63,468.00 982.19,468.00 982.74,468.00 983.30,468.00 983.86,468.00 984.41,468.00 984.97,468.00 985.52,468.00 986.08,468.00 986.63,468.00 987.19,468.00 987.75,468.00 988.30,468.00 988.86,468.00 989.41,468.00 989.97,468.00 990.52,468.00 991.08,468.00 991.64,468.00 992.19,468.00 992.75,468.00 993.30,468.00 993.86,468.00 994.41,468.00 994.97,468.00 995.53,468.00 996.08,468.00 996.64,468.00 997.19,468.00 997.75,468.00 998.30,468.00 998.86,468.00 999.41,468.00 999.97,468.00 1000.53,468.00 1001.08,468.00 1001.64,468.00 1002.19,468.00 1002.75,468.00 1003.30,468.00 1003.86,468.00 1004.42,468.00 1004.97,468.00 1005.53,468.00 1006.08,468.00 1006.64,468.00 1007.19,468.00 1007.75,468.00 1008.31,468.00 1008.86,468.00 1009.42,468.00 1009.97,468.00 1010.53,468.00 1011.08,468.00 1011.64,468.00 1012.20,468.00 1012.75,468.00 1013.31,468.00 1013.86,468.00 1014.42,468.00 1014.97,468.00 1015.53,468.00 1016.09,468.00 1016.64,468.00 1017.20,468.00 1017.75,468.00 1018.31,468.00 1018.86,468.00 1019.42,468.00 1019.97,468.00 1020.53,468.00 1021.09,468.00 1021.64,468.00 1022.20,468.00 1022.75,468.00 1023.31,468.00 1023.86,468.00 1024.42,468.00 1024.98,468.00 1025.53,468.00 1026.09,468.00 1026.64,468.00 1027.20,468.00 1027.75,468.00 1028.31,468.00 1028.87,468.00 1029.42,468.00 1029.98,468.00 1030.53,468.00 1031.09,468.00 1031.64,468.00 1032.20,468.00 1032.76,468.00 1033.31,468.00 1033.87,468.00 1034.42,468.00 1034.98,468.00 1035.53,468.00 1036.09,468.00 1036.64,468.00 1037.20,468.00 1037.76,468.00 1038.31,468.00 1038.87,468.00 1039.42,468.00 1039.98,468.00 1040.53,468.00 1041.09,468.00 1041.65,468.00 1042.20,468.00 1042.76,468.00 1043.31,468.00 1043.87,468.00 1044.42,468.00 1044.98,468.00 1045.54,468.00 1046.09,468.00 1046.65,468.00 1047.20,468.00 1047.76,468.00 1048.31,468.00 1048.87,468.00 1049.43,468.00 1049.98,468.00 1050.54,468.00 1051.09,468.00 1051.65,468.00 1052.20,468.00 1052.76,468.00 1053.32,468.00 1053.87,468.00 1054.43,468.00 1054.98,468.00 1055.54,468.00 1056.09,468.00 1056.65,468.00 1057.20,468.00 1057.76,468.00 1058.32,468.00 1058.87,468.00 1059.43,468.00 1059.98,468.00 1060.54,468.00 1061.09,468.00 1061.65,468.00 1062.21,468.00 1062.76,468.00 1063.32,468.00 1063.87,468.00 1064.43,468.00 1064.98,468.00 1065.54,468.00 1066.10,468.00 1066.65,468.00 1067.21,468.00 1067.76,468.00 1068.32,468.00 1068.87,468.00 1069.43,468.00 1069.99,468.00 1070.54,468.00 1071.10,468.00 1071.65,468.00 1072.21,468.00 1072.76,468.00 1073.32,468.00 1073.88,468.00 1074.43,468.00 1074.99,468.00 1075.54,468.00 1076.10,468.00 1076.65,468.00 1077.21,468.00 1077.76,468.00 1078.32,468.00 1078.88,468.00 1079.43,468.00 1079.99,468.00 1080.54,468.00 1081.10,468.00 1081.65,468.00 1082.21,468.00 1082.77,468.00 1083.32,468.00 1083.88,468.00 1084.43,468.00 1084.99,468.00 1085.54,468.00 1086.10,468.00 1086.66,468.00 1087.21,468.00 1087.77,468.00 1088.32,468.00 1088.88,468.00 1089.43,468.00 1089.99,468.00 1090.55,468.00 1091.10,468.00 1091.66,468.00 1092.21,468.00 1092.77,468.00 1093.32,468.00 1093.88,468.00 1094.43,468.00 1094.99,468.00 1095.55,468.00 1096.10,468.00 1096.66,468.00 1097.21,468.00 1097.77,468.00 1098.32,468.00 1098.88,468.00 1099.44,468.00 1099.99,468.00 1100.55,468.00 1101.10,468.00 1101.66,468.00 1102.21,468.00 1102.77,468.00 1103.33,468.00 1103.88,468.00 1104.44,468.00 1104.99,468.00 1105.55,468.00 1106.10,468.00 1106.66,468.00 1107.22,468.00 1107.77,468.00 1108.33,468.00 1108.88,468.00 1109.44,468.00 1109.99,468.00 1110.55,468.00 1111.11,468.00 1111.66,468.00 1112.22,468.00 1112.77,468.00 1113.33,468.00 1113.88,468.00 1114.44,468.00 1114.99,468.00 1115.55,468.00 1116.11,468.00 1116.66,468.00 1117.22,468.00 1117.77,468.00 1118.33,468.00 1118.88,468.00 1119.44,468.00 1120.00,468.00 1120.55,468.00 1121.11,468.00 1121.66,468.00 1122.22,468.00 1122.77,468.00 1123.33,468.00 1123.89,468.00 1124.44,468.00 1125.00,468.00 1125.55,468.00 1126.11,468.00 1126.66,468.00 1127.22,468.00 1127.78,468.00 1128.33,468.00 1128.89,468.00 1129.44,468.00 1130.00,468.00 1130.55,468.00 1131.11,468.00 1131.66,468.00 1132.22,468.00 1132.78,468.00 1133.33,468.00 1133.89,468.00 1134.44,468.00 1135.00,468.00 1135.55,468.00 1136.11,468.00 1136.67,468.00 1137.22,468.00 1137.78,468.00 1138.33,468.00 1138.89,468.00 1139.44,468.00 1140.00,468.00"/>
<line x1="82" y1="62" x2="82" y2="468" stroke="#333" stroke-width="1.2"/>
<line x1="82" y1="468" x2="1140" y2="468" stroke="#333" stroke-width="1.2"/>
<text class="axis" transform="translate(24 265.00) rotate(-90)" text-anchor="middle">Zloto w portfelu</text>
<line x1="100" y1="86" x2="134" y2="86" stroke="#b8860b" stroke-width="4"/>
<text class="small" x="144" y="91">Zloto: brak aktywnej pozycji; teraz 0%</text>
<line x1="100" y1="111" x2="134" y2="111" stroke="#8f8f88" stroke-width="4" opacity="0.55"/>
<text class="small" x="144" y="116">Indeks ceny zlota: 100</text>
</svg>