<?xml version="1.0" encoding="UTF-8"?>
<svg xmlns="http://www.w3.org/2000/svg" width="1280" height="560" viewBox="0 0 1280 560">
<rect width="100%" height="100%" fill="#fbfbf8"/>
<style>text{font-family:Segoe UI,Arial,sans-serif;fill:#222}.title{font-size:24px;font-weight:700}.small{font-size:13px}.tick{font-size:12px;fill:#555}.axis{font-size:14px;font-weight:600}</style>
<text class="title" x="82" y="32">Sygnał ropy na tle ceny WTI</text>
<text class="small" x="82" y="56">Ropa nie jest aktywem w portfelu; oil_regime ogranicza agresywne wejscie w obligacje 30+</text>
<line x1="82" y1="490.00" x2="1198" y2="490.00" stroke="#deded8" stroke-width="1"/>
<text class="tick" x="72" y="494.00" text-anchor="end">0%</text>
<line x1="82" y1="383.00" x2="1198" y2="383.00" stroke="#deded8" stroke-width="1"/>
<text class="tick" x="72" y="387.00" text-anchor="end">25%</text>
<line x1="82" y1="276.00" x2="1198" y2="276.00" stroke="#deded8" stroke-width="1"/>
<text class="tick" x="72" y="280.00" text-anchor="end">50%</text>
<line x1="82" y1="169.00" x2="1198" y2="169.00" stroke="#deded8" stroke-width="1"/>
<text class="tick" x="72" y="173.00" text-anchor="end">75%</text>
<line x1="82" y1="62.00" x2="1198" y2="62.00" stroke="#deded8" stroke-width="1"/>
<text class="tick" x="72" y="66.00" text-anchor="end">100%</text>
<line x1="97.83" y1="62" x2="97.83" y2="490" stroke="#eeeeea" stroke-width="1"/>
<text class="tick" x="97.83" y="522" text-anchor="middle">1955</text>
<line x1="250.22" y1="62" x2="250.22" y2="490" stroke="#eeeeea" stroke-width="1"/>
<text class="tick" x="250.22" y="522" text-anchor="middle">1960</text>
<line x1="403.20" y1="62" x2="403.20" y2="490" stroke="#eeeeea" stroke-width="1"/>
<text class="tick" x="403.20" y="522" text-anchor="middle">1965</text>
<line x1="556.18" y1="62" x2="556.18" y2="490" stroke="#eeeeea" stroke-width="1"/>
<text class="tick" x="556.18" y="522" text-anchor="middle">1970</text>
<line x1="709.16" y1="62" x2="709.16" y2="490" stroke="#eeeeea" stroke-width="1"/>
<text class="tick" x="709.16" y="522" text-anchor="middle">1975</text>
<line x1="862.14" y1="62" x2="862.14" y2="490" stroke="#eeeeea" stroke-width="1"/>
<text class="tick" x="862.14" y="522" text-anchor="middle">1980</text>
<line x1="1015.13" y1="62" x2="1015.13" y2="490" stroke="#eeeeea" stroke-width="1"/>
<text class="tick" x="1015.13" y="522" text-anchor="middle">1985</text>
<line x1="1168.11" y1="62" x2="1168.11" y2="490" stroke="#eeeeea" stroke-width="1"/>
<text class="tick" x="1168.11" y="522" text-anchor="middle">1990</text>
<rect x="1083.70" y="62" width="11.14" height="428" fill="#d97706" opacity="0.08"/>
<rect x="1096.01" y="62" width="1.00" height="428" fill="#d97706" opacity="0.08"/>
<rect x="1137.04" y="62" width="1.76" height="428" fill="#d97706" opacity="0.08"/>
<rect x="1139.97" y="62" width="13.48" height="428" fill="#d97706" opacity="0.08"/>
<rect x="1168.11" y="62" width="4.69" height="428" fill="#d97706" opacity="0.08"/>
<rect x="1186.28" y="62" width="1.76" height="428" fill="#d97706" opacity="0.08"/>
<rect x="1190.97" y="62" width="1.76" height="428" fill="#d97706" opacity="0.08"/>
<line x1="82" y1="62" x2="82" y2="490" stroke="#333" stroke-width="1.2"/>
<line x1="82" y1="490" x2="1198" y2="490" stroke="#333" stroke-width="1.2"/>
<text class="axis" transform="translate(24 276.00) rotate(-90)" text-anchor="middle">Oil regime</text>
<polyline fill="none" stroke="#9ca3af" stroke-width="2.2" opacity="0.50" stroke-linejoin="round" stroke-linecap="round" points="82.00,276.00 82.59,276.00 83.17,276.00 83.76,276.00 84.34,276.00 84.93,276.00 85.52,276.00 86.10,276.00 86.69,276.00 87.28,276.00 87.86,276.00 88.45,276.00 89.03,276.00 89.62,276.00 90.21,276.00 90.79,276.00 91.38,276.00 91.96,276.00 92.55,276.00 93.14,276.00 93.72,276.00 94.31,276.00 94.89,276.00 95.48,276.00 96.07,276.00 96.65,276.00 97.24,276.00 97.83,276.00 98.41,276.00 99.00,276.00 99.58,276.00 100.17,276.00 100.76,276.00 101.34,276.00 101.93,276.00 102.51,276.00 103.10,276.00 103.69,276.00 104.27,276.00 104.86,276.00 105.45,276.00 106.03,276.00 106.62,276.00 107.20,276.00 107.79,276.00 108.38,276.00 108.96,276.00 109.55,276.00 110.13,276.00 110.72,276.00 111.31,276.00 111.89,276.00 112.48,276.00 113.07,276.00 113.65,276.00 114.24,276.00 114.82,276.00 115.41,276.00 116.00,276.00 116.58,276.00 117.17,276.00 117.75,276.00 118.34,276.00 118.93,276.00 119.51,276.00 120.10,276.00 120.68,276.00 121.27,276.00 121.86,276.00 122.44,276.00 123.03,276.00 123.62,276.00 124.20,276.00 124.79,276.00 125.37,276.00 125.96,276.00 126.55,276.00 127.13,276.00 127.72,276.00 128.30,276.00 128.89,276.00 129.48,276.00 130.06,276.00 130.65,276.00 131.24,276.00 131.82,276.00 132.41,276.00 132.99,276.00 133.58,276.00 134.17,276.00 134.75,276.00 135.34,276.00 135.92,276.00 136.51,276.00 137.10,276.00 137.68,276.00 138.27,276.00 138.86,276.00 139.44,276.00 140.03,276.00 140.61,276.00 141.20,276.00 141.79,276.00 142.37,276.00 142.96,276.00 143.54,276.00 144.13,276.00 144.72,276.00 145.30,276.00 145.89,276.00 146.47,276.00 147.06,276.00 147.65,276.00 148.23,276.00 148.82,276.00 149.41,276.00 149.99,276.00 150.58,276.00 151.16,276.00 151.75,276.00 152.34,276.00 152.92,276.00 153.51,276.00 154.09,276.00 154.68,276.00 155.27,276.00 155.85,276.00 156.44,276.00 157.03,276.00 157.61,276.00 158.20,276.00 158.78,276.00 159.37,276.00 159.96,276.00 160.54,276.00 161.13,276.00 161.71,276.00 162.30,276.00 162.89,276.00 163.47,276.00 164.06,276.00 164.64,276.00 165.23,276.00 165.82,276.00 166.40,276.00 166.99,276.00 167.58,276.00 168.16,276.00 168.75,276.00 169.33,276.00 169.92,276.00 170.51,276.00 171.09,276.00 171.68,276.00 172.26,276.00 172.85,276.00 173.44,276.00 174.02,276.00 174.61,276.00 175.20,276.00 175.78,276.00 176.37,276.00 176.95,276.00 177.54,276.00 178.13,276.00 178.71,276.00 179.30,276.00 179.88,276.00 180.47,276.00 181.06,276.00 181.64,276.00 182.23,276.00 182.82,276.00 183.40,276.00 183.99,276.00 184.57,276.00 185.16,276.00 185.75,276.00 186.33,276.00 186.92,276.00 187.50,276.00 188.09,276.00 188.68,276.00 189.26,276.00 189.85,276.00 190.43,276.00 191.02,276.00 191.61,276.00 192.19,276.00 192.78,276.00 193.37,276.00 193.95,276.00 194.54,276.00 195.12,276.00 195.71,276.00 196.30,276.00 196.88,276.00 197.47,276.00 198.05,276.00 198.64,276.00 199.23,276.00 199.81,276.00 200.40,276.00 200.99,276.00 201.57,276.00 202.16,276.00 202.74,276.00 203.33,276.00 203.92,276.00 204.50,276.00 205.09,276.00 205.67,276.00 206.26,276.00 206.85,276.00 207.43,276.00 208.02,276.00 208.61,276.00 209.19,276.00 209.78,276.00 210.36,276.00 210.95,276.00 211.54,276.00 212.12,276.00 212.71,276.00 213.29,276.00 213.88,276.00 214.47,276.00 215.05,276.00 215.64,276.00 216.22,276.00 216.81,276.00 217.40,276.00 217.98,276.00 218.57,276.00 219.16,276.00 219.74,276.00 220.33,276.00 220.91,276.00 221.50,276.00 222.09,276.00 222.67,276.00 223.26,276.00 223.84,276.00 224.43,276.00 225.02,276.00 225.60,276.00 226.19,276.00 226.78,276.00 227.36,276.00 227.95,276.00 228.53,276.00 229.12,276.00 229.71,276.00 230.29,276.00 230.88,276.00 231.46,276.00 232.05,276.00 232.64,276.00 233.22,276.00 233.81,276.00 234.39,276.00 234.98,276.00 235.57,276.00 236.15,276.00 236.74,276.00 237.33,276.00 237.91,276.00 238.50,276.00 239.08,276.00 239.67,276.00 240.26,276.00 240.84,276.00 241.43,276.00 242.01,276.00 242.60,276.00 243.19,276.00 243.77,276.00 244.36,276.00 244.95,276.00 245.53,276.00 246.12,276.00 246.70,276.00 247.29,276.00 247.88,276.00 248.46,276.00 249.05,276.00 249.63,276.00 250.22,276.00 250.81,276.00 251.39,276.00 251.98,276.00 252.57,276.00 253.15,276.00 253.74,276.00 254.32,276.00 254.91,276.00 255.50,276.00 256.08,276.00 256.67,276.00 257.25,276.00 257.84,276.00 258.43,276.00 259.01,276.00 259.60,276.00 260.18,276.00 260.77,276.00 261.36,276.00 261.94,276.00 262.53,276.00 263.12,276.00 263.70,276.00 264.29,276.00 264.87,276.00 265.46,276.00 266.05,276.00 266.63,276.00 267.22,276.00 267.80,276.00 268.39,276.00 268.98,276.00 269.56,276.00 270.15,276.00 270.74,276.00 271.32,276.00 271.91,276.00 272.49,276.00 273.08,276.00 273.67,276.00 274.25,276.00 274.84,276.00 275.42,276.00 276.01,276.00 276.60,276.00 277.18,276.00 277.77,276.00 278.36,276.00 278.94,276.00 279.53,276.00 280.11,276.00 280.70,276.00 281.29,276.00 281.87,276.00 282.46,276.00 283.04,276.00 283.63,276.00 284.22,276.00 284.80,276.00 285.39,276.00 285.97,276.00 286.56,276.00 287.15,276.00 287.73,276.00 288.32,276.00 288.91,276.00 289.49,276.00 290.08,276.00 290.66,276.00 291.25,276.00 291.84,276.00 292.42,276.00 293.01,276.00 293.59,276.00 294.18,276.00 294.77,276.00 295.35,276.00 295.94,276.00 296.53,276.00 297.11,276.00 297.70,276.00 298.28,276.00 298.87,276.00 299.46,276.00 300.04,276.00 300.63,276.00 301.21,276.00 301.80,276.00 302.39,276.00 302.97,276.00 303.56,276.00 304.14,276.00 304.73,276.00 305.32,276.00 305.90,276.00 306.49,276.00 307.08,276.00 307.66,276.00 308.25,276.00 308.83,276.00 309.42,276.00 310.01,276.00 310.59,276.00 311.18,276.00 311.76,276.00 312.35,276.00 312.94,276.00 313.52,276.00 314.11,276.00 314.70,276.00 315.28,276.00 315.87,276.00 316.45,276.00 317.04,276.00 317.63,276.00 318.21,276.00 318.80,276.00 319.38,276.00 319.97,276.00 320.56,276.00 321.14,276.00 321.73,276.00 322.32,276.00 322.90,276.00 323.49,276.00 324.07,276.00 324.66,276.00 325.25,276.00 325.83,276.00 326.42,276.00 327.00,276.00 327.59,276.00 328.18,276.00 328.76,276.00 329.35,276.00 329.93,276.00 330.52,276.00 331.11,276.00 331.69,276.00 332.28,276.00 332.87,276.00 333.45,276.00 334.04,276.00 334.62,276.00 335.21,276.00 335.80,276.00 336.38,276.00 336.97,276.00 337.55,276.00 338.14,276.00 338.73,276.00 339.31,276.00 339.90,276.00 340.49,276.00 341.07,276.00 341.66,276.00 342.24,276.00 342.83,276.00 343.42,276.00 344.00,276.00 344.59,276.00 345.17,276.00 345.76,276.00 346.35,276.00 346.93,276.00 347.52,276.00 348.11,276.00 348.69,276.00 349.28,276.00 349.86,276.00 350.45,276.00 351.04,276.00 351.62,276.00 352.21,276.00 352.79,276.00 353.38,276.00 353.97,276.00 354.55,276.00 355.14,276.00 355.72,276.00 356.31,276.00 356.90,276.00 357.48,276.00 358.07,276.00 358.66,276.00 359.24,276.00 359.83,276.00 360.41,276.00 361.00,276.00 361.59,276.00 362.17,276.00 362.76,276.00 363.34,276.00 363.93,276.00 364.52,276.00 365.10,276.00 365.69,276.00 366.28,276.00 366.86,276.00 367.45,276.00 368.03,276.00 368.62,276.00 369.21,276.00 369.79,276.00 370.38,276.00 370.96,276.00 371.55,276.00 372.14,276.00 372.72,276.00 373.31,276.00 373.89,276.00 374.48,276.00 375.07,276.00 375.65,276.00 376.24,276.00 376.83,276.00 377.41,276.00 378.00,276.00 378.58,276.00 379.17,276.00 379.76,276.00 380.34,276.00 380.93,276.00 381.51,276.00 382.10,276.00 382.69,276.00 383.27,276.00 383.86,276.00 384.45,276.00 385.03,276.00 385.62,276.00 386.20,276.00 386.79,276.00 387.38,276.00 387.96,276.00 388.55,276.00 389.13,276.00 389.72,276.00 390.31,276.00 390.89,276.00 391.48,276.00 392.07,276.00 392.65,276.00 393.24,276.00 393.82,276.00 394.41,276.00 395.00,276.00 395.58,276.00 396.17,276.00 396.75,276.00 397.34,276.00 397.93,276.00 398.51,276.00 399.10,276.00 399.68,276.00 400.27,276.00 400.86,276.00 401.44,276.00 402.03,276.00 402.62,276.00 403.20,276.00 403.79,276.00 404.37,276.00 404.96,276.00 405.55,276.00 406.13,276.00 406.72,276.00 407.30,276.00 407.89,276.00 408.48,276.00 409.06,276.00 409.65,276.00 410.24,276.00 410.82,276.00 411.41,276.00 411.99,276.00 412.58,276.00 413.17,276.00 413.75,276.00 414.34,276.00 414.92,276.00 415.51,276.00 416.10,276.00 416.68,276.00 417.27,276.00 417.86,276.00 418.44,276.00 419.03,276.00 419.61,276.00 420.20,276.00 420.79,276.00 421.37,276.00 421.96,276.00 422.54,276.00 423.13,276.00 423.72,276.00 424.30,276.00 424.89,276.00 425.47,276.00 426.06,276.00 426.65,276.00 427.23,276.00 427.82,276.00 428.41,276.00 428.99,276.00 429.58,276.00 430.16,276.00 430.75,276.00 431.34,276.00 431.92,276.00 432.51,276.00 433.09,276.00 433.68,276.00 434.27,276.00 434.85,276.00 435.44,276.00 436.03,276.00 436.61,276.00 437.20,276.00 437.78,276.00 438.37,276.00 438.96,276.00 439.54,276.00 440.13,276.00 440.71,276.00 441.30,276.00 441.89,276.00 442.47,276.00 443.06,276.00 443.64,276.00 444.23,276.00 444.82,276.00 445.40,276.00 445.99,276.00 446.58,276.00 447.16,276.00 447.75,276.00 448.33,276.00 448.92,276.00 449.51,276.00 450.09,276.00 450.68,276.00 451.26,276.00 451.85,276.00 452.44,276.00 453.02,276.00 453.61,276.00 454.20,276.00 454.78,276.00 455.37,276.00 455.95,276.00 456.54,276.00 457.13,276.00 457.71,276.00 458.30,276.00 458.88,276.00 459.47,276.00 460.06,276.00 460.64,276.00 461.23,276.00 461.82,276.00 462.40,276.00 462.99,276.00 463.57,276.00 464.16,276.00 464.75,276.00 465.33,276.00 465.92,276.00 466.50,276.00 467.09,276.00 467.68,276.00 468.26,276.00 468.85,276.00 469.43,276.00 470.02,276.00 470.61,276.00 471.19,276.00 471.78,276.00 472.37,276.00 472.95,276.00 473.54,276.00 474.12,276.00 474.71,276.00 475.30,276.00 475.88,276.00 476.47,276.00 477.05,276.00 477.64,276.00 478.23,276.00 478.81,276.00 479.40,276.00 479.99,276.00 480.57,276.00 481.16,276.00 481.74,276.00 482.33,276.00 482.92,276.00 483.50,276.00 484.09,276.00 484.67,276.00 485.26,276.00 485.85,276.00 486.43,276.00 487.02,276.00 487.61,276.00 488.19,276.00 488.78,276.00 489.36,276.00 489.95,276.00 490.54,276.00 491.12,276.00 491.71,276.00 492.29,276.00 492.88,276.00 493.47,276.00 494.05,276.00 494.64,276.00 495.22,276.00 495.81,276.00 496.40,276.00 496.98,276.00 497.57,276.00 498.16,276.00 498.74,276.00 499.33,276.00 499.91,276.00 500.50,276.00 501.09,276.00 501.67,276.00 502.26,276.00 502.84,276.00 503.43,276.00 504.02,276.00 504.60,276.00 505.19,276.00 505.78,276.00 506.36,276.00 506.95,276.00 507.53,276.00 508.12,276.00 508.71,276.00 509.29,276.00 509.88,276.00 510.46,276.00 511.05,276.00 511.64,276.00 512.22,276.00 512.81,276.00 513.39,276.00 513.98,276.00 514.57,276.00 515.15,276.00 515.74,276.00 516.33,276.00 516.91,276.00 517.50,276.00 518.08,276.00 518.67,276.00 519.26,276.00 519.84,276.00 520.43,276.00 521.01,276.00 521.60,276.00 522.19,276.00 522.77,276.00 523.36,276.00 523.95,276.00 524.53,276.00 525.12,276.00 525.70,276.00 526.29,276.00 526.88,276.00 527.46,276.00 528.05,276.00 528.63,276.00 529.22,276.00 529.81,276.00 530.39,276.00 530.98,276.00 531.57,276.00 532.15,276.00 532.74,276.00 533.32,276.00 533.91,276.00 534.50,276.00 535.08,276.00 535.67,276.00 536.25,276.00 536.84,276.00 537.43,276.00 538.01,276.00 538.60,276.00 539.18,276.00 539.77,276.00 540.36,276.00 540.94,276.00 541.53,276.00 542.12,276.00 542.70,276.00 543.29,276.00 543.87,276.00 544.46,276.00 545.05,276.00 545.63,276.00 546.22,276.00 546.80,276.00 547.39,276.00 547.98,276.00 548.56,276.00 549.15,276.00 549.74,276.00 550.32,276.00 550.91,276.00 551.49,276.00 552.08,276.00 552.67,276.00 553.25,276.00 553.84,276.00 554.42,276.00 555.01,276.00 555.60,276.00 556.18,276.00 556.77,276.00 557.36,276.00 557.94,276.00 558.53,276.00 559.11,276.00 559.70,276.00 560.29,276.00 560.87,276.00 561.46,276.00 562.04,276.00 562.63,276.00 563.22,276.00 563.80,276.00 564.39,276.00 564.97,276.00 565.56,276.00 566.15,276.00 566.73,276.00 567.32,276.00 567.91,276.00 568.49,276.00 569.08,276.00 569.66,276.00 570.25,276.00 570.84,276.00 571.42,276.00 572.01,276.00 572.59,276.00 573.18,276.00 573.77,276.00 574.35,276.00 574.94,276.00 575.53,276.00 576.11,276.00 576.70,276.00 577.28,276.00 577.87,276.00 578.46,276.00 579.04,276.00 579.63,276.00 580.21,276.00 580.80,276.00 581.39,276.00 581.97,276.00 582.56,276.00 583.14,276.00 583.73,276.00 584.32,276.00 584.90,276.00 585.49,276.00 586.08,276.00 586.66,276.00 587.25,276.00 587.83,276.00 588.42,276.00 589.01,276.00 589.59,276.00 590.18,276.00 590.76,276.00 591.35,276.00 591.94,276.00 592.52,276.00 593.11,276.00 593.70,276.00 594.28,276.00 594.87,276.00 595.45,276.00 596.04,276.00 596.63,276.00 597.21,276.00 597.80,276.00 598.38,276.00 598.97,276.00 599.56,276.00 600.14,276.00 600.73,276.00 601.32,276.00 601.90,276.00 602.49,276.00 603.07,276.00 603.66,276.00 604.25,276.00 604.83,276.00 605.42,276.00 606.00,276.00 606.59,276.00 607.18,276.00 607.76,276.00 608.35,276.00 608.93,276.00 609.52,276.00 610.11,276.00 610.69,276.00 611.28,276.00 611.87,276.00 612.45,276.00 613.04,276.00 613.62,276.00 614.21,276.00 614.80,276.00 615.38,276.00 615.97,276.00 616.55,276.00 617.14,276.00 617.73,276.00 618.31,276.00 618.90,276.00 619.49,276.00 620.07,276.00 620.66,276.00 621.24,276.00 621.83,276.00 622.42,276.00 623.00,276.00 623.59,276.00 624.17,276.00 624.76,276.00 625.35,276.00 625.93,276.00 626.52,276.00 627.11,276.00 627.69,276.00 628.28,276.00 628.86,276.00 629.45,276.00 630.04,276.00 630.62,276.00 631.21,276.00 631.79,276.00 632.38,276.00 632.97,276.00 633.55,276.00 634.14,276.00 634.72,276.00 635.31,276.00 635.90,276.00 636.48,276.00 637.07,276.00 637.66,276.00 638.24,276.00 638.83,276.00 639.41,276.00 640.00,276.00 640.59,276.00 641.17,276.00 641.76,276.00 642.34,276.00 642.93,276.00 643.52,276.00 644.10,276.00 644.69,276.00 645.28,276.00 645.86,276.00 646.45,276.00 647.03,276.00 647.62,276.00 648.21,276.00 648.79,276.00 649.38,276.00 649.96,276.00 650.55,276.00 651.14,276.00 651.72,276.00 652.31,276.00 652.89,276.00 653.48,276.00 654.07,276.00 654.65,276.00 655.24,276.00 655.83,276.00 656.41,276.00 657.00,276.00 657.58,276.00 658.17,276.00 658.76,276.00 659.34,276.00 659.93,276.00 660.51,276.00 661.10,276.00 661.69,276.00 662.27,276.00 662.86,276.00 663.45,276.00 664.03,276.00 664.62,276.00 665.20,276.00 665.79,276.00 666.38,276.00 666.96,276.00 667.55,276.00 668.13,276.00 668.72,276.00 669.31,276.00 669.89,276.00 670.48,276.00 671.07,276.00 671.65,276.00 672.24,276.00 672.82,276.00 673.41,276.00 674.00,276.00 674.58,276.00 675.17,276.00 675.75,276.00 676.34,276.00 676.93,276.00 677.51,276.00 678.10,276.00 678.68,276.00 679.27,276.00 679.86,276.00 680.44,276.00 681.03,276.00 681.62,276.00 682.20,276.00 682.79,276.00 683.37,276.00 683.96,276.00 684.55,276.00 685.13,276.00 685.72,276.00 686.30,276.00 686.89,276.00 687.48,276.00 688.06,276.00 688.65,276.00 689.24,276.00 689.82,276.00 690.41,276.00 690.99,276.00 691.58,276.00 692.17,276.00 692.75,276.00 693.34,276.00 693.92,276.00 694.51,276.00 695.10,276.00 695.68,276.00 696.27,276.00 696.86,276.00 697.44,276.00 698.03,276.00 698.61,276.00 699.20,276.00 699.79,276.00 700.37,276.00 700.96,276.00 701.54,276.00 702.13,276.00 702.72,276.00 703.30,276.00 703.89,276.00 704.47,276.00 705.06,276.00 705.65,276.00 706.23,276.00 706.82,276.00 707.41,276.00 707.99,276.00 708.58,276.00 709.16,276.00 709.75,276.00 710.34,276.00 710.92,276.00 711.51,276.00 712.09,276.00 712.68,276.00 713.27,276.00 713.85,276.00 714.44,276.00 715.03,276.00 715.61,276.00 716.20,276.00 716.78,276.00 717.37,276.00 717.96,276.00 718.54,276.00 719.13,276.00 719.71,276.00 720.30,276.00 720.89,276.00 721.47,276.00 722.06,276.00 722.64,276.00 723.23,276.00 723.82,276.00 724.40,276.00 724.99,276.00 725.58,276.00 726.16,276.00 726.75,276.00 727.33,276.00 727.92,276.00 728.51,276.00 729.09,276.00 729.68,276.00 730.26,276.00 730.85,276.00 731.44,276.00 732.02,276.00 732.61,276.00 733.20,276.00 733.78,276.00 734.37,276.00 734.95,276.00 735.54,276.00 736.13,276.00 736.71,276.00 737.30,276.00 737.88,276.00 738.47,276.00 739.06,276.00 739.64,276.00 740.23,276.00 740.82,276.00 741.40,276.00 741.99,276.00 742.57,276.00 743.16,276.00 743.75,276.00 744.33,276.00 744.92,276.00 745.50,276.00 746.09,276.00 746.68,276.00 747.26,276.00 747.85,276.00 748.43,276.00 749.02,276.00 749.61,276.00 750.19,276.00 750.78,276.00 751.37,276.00 751.95,276.00 752.54,276.00 753.12,276.00 753.71,276.00 754.30,276.00 754.88,276.00 755.47,276.00 756.05,276.00 756.64,276.00 757.23,276.00 757.81,276.00 758.40,276.00 758.99,276.00 759.57,276.00 760.16,276.00 760.74,276.00 761.33,276.00 761.92,276.00 762.50,276.00 763.09,276.00 763.67,276.00 764.26,276.00 764.85,276.00 765.43,276.00 766.02,276.00 766.61,276.00 767.19,276.00 767.78,276.00 768.36,276.00 768.95,276.00 769.54,276.00 770.12,276.00 770.71,276.00 771.29,276.00 771.88,276.00 772.47,276.00 773.05,276.00 773.64,276.00 774.22,276.00 774.81,276.00 775.40,276.00 775.98,276.00 776.57,276.00 777.16,276.00 777.74,276.00 778.33,276.00 778.91,276.00 779.50,276.00 780.09,276.00 780.67,276.00 781.26,276.00 781.84,276.00 782.43,276.00 783.02,276.00 783.60,276.00 784.19,276.00 784.78,276.00 785.36,276.00 785.95,276.00 786.53,276.00 787.12,276.00 787.71,276.00 788.29,276.00 788.88,276.00 789.46,276.00 790.05,276.00 790.64,276.00 791.22,276.00 791.81,276.00 792.39,276.00 792.98,276.00 793.57,276.00 794.15,276.00 794.74,276.00 795.33,276.00 795.91,276.00 796.50,276.00 797.08,276.00 797.67,276.00 798.26,276.00 798.84,276.00 799.43,276.00 800.01,276.00 800.60,276.00 801.19,276.00 801.77,276.00 802.36,276.00 802.95,276.00 803.53,276.00 804.12,276.00 804.70,276.00 805.29,276.00 805.88,276.00 806.46,276.00 807.05,276.00 807.63,276.00 808.22,276.00 808.81,276.00 809.39,276.00 809.98,276.00 810.57,276.00 811.15,276.00 811.74,276.00 812.32,276.00 812.91,276.00 813.50,276.00 814.08,276.00 814.67,276.00 815.25,276.00 815.84,276.00 816.43,276.00 817.01,276.00 817.60,276.00 818.18,276.00 818.77,276.00 819.36,276.00 819.94,276.00 820.53,276.00 821.12,276.00 821.70,276.00 822.29,276.00 822.87,276.00 823.46,276.00 824.05,276.00 824.63,276.00 825.22,276.00 825.80,276.00 826.39,276.00 826.98,276.00 827.56,276.00 828.15,276.00 828.74,276.00 829.32,276.00 829.91,276.00 830.49,276.00 831.08,276.00 831.67,276.00 832.25,276.00 832.84,276.00 833.42,276.00 834.01,276.00 834.60,276.00 835.18,276.00 835.77,276.00 836.36,276.00 836.94,276.00 837.53,276.00 838.11,276.00 838.70,276.00 839.29,276.00 839.87,276.00 840.46,276.00 841.04,276.00 841.63,276.00 842.22,276.00 842.80,276.00 843.39,276.00 843.97,276.00 844.56,276.00 845.15,276.00 845.73,276.00 846.32,276.00 846.91,276.00 847.49,276.00 848.08,276.00 848.66,276.00 849.25,276.00 849.84,276.00 850.42,276.00 851.01,276.00 851.59,276.00 852.18,276.00 852.77,276.00 853.35,276.00 853.94,276.00 854.53,276.00 855.11,276.00 855.70,276.00 856.28,276.00 856.87,276.00 857.46,276.00 858.04,276.00 858.63,276.00 859.21,276.00 859.80,276.00 860.39,276.00 860.97,276.00 861.56,276.00 862.14,276.00 862.73,276.00 863.32,276.00 863.90,276.00 864.49,276.00 865.08,276.00 865.66,276.00 866.25,276.00 866.83,276.00 867.42,276.00 868.01,276.00 868.59,276.00 869.18,276.00 869.76,276.00 870.35,276.00 870.94,276.00 871.52,276.00 872.11,276.00 872.70,276.00 873.28,276.00 873.87,276.00 874.45,276.00 875.04,276.00 875.63,276.00 876.21,276.00 876.80,276.00 877.38,276.00 877.97,276.00 878.56,276.00 879.14,276.00 879.73,276.00 880.32,276.00 880.90,276.00 881.49,276.00 882.07,276.00 882.66,276.00 883.25,276.00 883.83,276.00 884.42,276.00 885.00,276.00 885.59,276.00 886.18,276.00 886.76,276.00 887.35,276.00 887.93,276.00 888.52,276.00 889.11,276.00 889.69,276.00 890.28,276.00 890.87,276.00 891.45,276.00 892.04,276.00 892.62,276.00 893.21,276.00 893.80,276.00 894.38,276.00 894.97,276.00 895.55,276.00 896.14,276.00 896.73,276.00 897.31,276.00 897.90,276.00 898.49,276.00 899.07,276.00 899.66,276.00 900.24,276.00 900.83,276.00 901.42,276.00 902.00,276.00 902.59,276.00 903.17,276.00 903.76,276.00 904.35,276.00 904.93,276.00 905.52,276.00 906.11,276.00 906.69,276.00 907.28,276.00 907.86,276.00 908.45,276.00 909.04,276.00 909.62,276.00 910.21,276.00 910.79,276.00 911.38,276.00 911.97,276.00 912.55,276.00 913.14,276.00 913.72,276.00 914.31,276.00 914.90,276.00 915.48,276.00 916.07,276.00 916.66,276.00 917.24,276.00 917.83,276.00 918.41,276.00 919.00,276.00 919.59,276.00 920.17,276.00 920.76,276.00 921.34,276.00 921.93,276.00 922.52,276.00 923.10,276.00 923.69,276.00 924.28,276.00 924.86,276.00 925.45,276.00 926.03,276.00 926.62,276.00 927.21,276.00 927.79,276.00 928.38,276.00 928.96,276.00 929.55,276.00 930.14,276.00 930.72,276.00 931.31,276.00 931.89,276.00 932.48,276.00 933.07,276.00 933.65,276.00 934.24,276.00 934.83,276.00 935.41,276.00 936.00,276.00 936.58,276.00 937.17,276.00 937.76,276.00 938.34,276.00 938.93,276.00 939.51,276.00 940.10,276.00 940.69,276.00 941.27,276.00 941.86,276.00 942.45,276.00 943.03,276.00 943.62,276.00 944.20,276.00 944.79,276.00 945.38,276.00 945.96,276.00 946.55,276.00 947.13,276.00 947.72,276.00 948.31,276.00 948.89,276.00 949.48,276.00 950.07,276.00 950.65,276.00 951.24,276.00 951.82,276.00 952.41,276.00 953.00,276.00 953.58,276.00 954.17,276.00 954.75,276.00 955.34,276.00 955.93,276.00 956.51,276.00 957.10,276.00 957.68,276.00 958.27,276.00 958.86,276.00 959.44,276.00 960.03,276.00 960.62,276.00 961.20,276.00 961.79,276.00 962.37,276.00 962.96,276.00 963.55,276.00 964.13,276.00 964.72,276.00 965.30,276.00 965.89,276.00 966.48,276.00 967.06,276.00 967.65,276.00 968.24,276.00 968.82,276.00 969.41,276.00 969.99,276.00 970.58,276.00 971.17,276.00 971.75,276.00 972.34,276.00 972.92,276.00 973.51,276.00 974.10,276.00 974.68,276.00 975.27,276.00 975.86,276.00 976.44,276.00 977.03,276.00 977.61,276.00 978.20,276.00 978.79,276.00 979.37,276.00 979.96,276.00 980.54,276.00 981.13,276.00 981.72,276.00 982.30,276.00 982.89,276.00 983.47,276.00 984.06,276.00 984.65,276.00 985.23,276.00 985.82,276.00 986.41,276.00 986.99,276.00 987.58,276.00 988.16,276.00 988.75,276.00 989.34,276.00 989.92,276.00 990.51,276.00 991.09,276.00 991.68,276.00 992.27,276.00 992.85,276.00 993.44,276.00 994.03,276.00 994.61,276.00 995.20,276.00 995.78,276.00 996.37,276.00 996.96,276.00 997.54,276.00 998.13,276.00 998.71,276.00 999.30,276.00 999.89,276.00 1000.47,276.00 1001.06,276.00 1001.64,276.00 1002.23,276.00 1002.82,276.00 1003.40,276.00 1003.99,276.00 1004.58,276.00 1005.16,276.00 1005.75,276.00 1006.33,276.00 1006.92,276.00 1007.51,276.00 1008.09,276.00 1008.68,276.00 1009.26,276.00 1009.85,276.00 1010.44,276.00 1011.02,276.00 1011.61,276.00 1012.20,276.00 1012.78,276.00 1013.37,276.00 1013.95,276.00 1014.54,276.00 1015.13,276.00 1015.71,276.00 1016.30,276.00 1016.88,276.00 1017.47,276.00 1018.06,276.00 1018.64,276.00 1019.23,276.00 1019.82,276.00 1020.40,276.00 1020.99,276.00 1021.57,276.00 1022.16,276.00 1022.75,276.00 1023.33,276.00 1023.92,276.00 1024.50,276.00 1025.09,276.00 1025.68,276.00 1026.26,276.00 1026.85,276.00 1027.43,276.00 1028.02,276.00 1028.61,276.00 1029.19,276.00 1029.78,276.00 1030.37,276.00 1030.95,276.00 1031.54,276.00 1032.12,276.00 1032.71,276.00 1033.30,276.00 1033.88,276.00 1034.47,276.00 1035.05,276.00 1035.64,276.00 1036.23,276.00 1036.81,276.00 1037.40,276.00 1037.99,276.00 1038.57,276.00 1039.16,276.00 1039.74,276.00 1040.33,276.00 1040.92,276.00 1041.50,276.00 1042.09,276.00 1042.67,276.00 1043.26,276.00 1043.85,276.00 1044.43,276.00 1045.02,276.00 1045.61,200.50 1046.19,204.98 1046.78,232.09 1047.36,296.44 1047.95,305.05 1048.54,327.61 1049.12,360.37 1049.71,413.98 1050.29,423.83 1050.88,449.54 1051.47,441.27 1052.05,406.31 1052.64,474.50 1053.22,436.05 1053.81,413.98 1054.40,459.41 1054.98,399.74 1055.57,390.13 1056.16,364.52 1056.74,359.34 1057.33,341.92 1057.91,398.12 1058.50,436.57 1059.09,409.17 1059.67,394.90 1060.26,420.10 1060.84,464.46 1061.43,480.97 1062.02,434.75 1062.60,490.00 1063.19,468.44 1063.78,386.09 1064.36,364.52 1064.95,371.91 1065.53,362.44 1066.12,368.72 1066.71,381.00 1067.29,394.22 1067.88,395.13 1068.46,385.42 1069.05,382.76 1069.64,385.65 1070.22,383.87 1070.81,376.86 1071.39,379.03 1071.98,367.67 1072.57,379.47 1073.15,382.32 1073.74,379.25 1074.33,358.31 1074.91,349.82 1075.50,335.93 1076.08,319.68 1076.67,308.03 1077.26,301.93 1077.84,311.39 1078.43,308.91 1079.01,314.07 1079.60,325.19 1080.19,325.19 1080.77,351.82 1081.36,319.68 1081.95,314.97 1082.53,309.44 1083.12,310.33 1083.70,309.80 1084.29,317.31 1084.88,311.57 1085.46,304.01 1086.05,306.98 1086.63,299.35 1087.22,289.88 1087.81,292.56 1088.39,297.98 1088.98,290.71 1089.57,288.38 1090.15,276.65 1090.74,281.65 1091.32,277.29 1091.91,265.79 1092.50,249.17 1093.08,277.78 1093.67,264.40 1094.25,270.94 1094.84,278.58 1095.43,300.72 1096.01,296.61 1096.60,298.32 1097.18,296.95 1097.77,294.24 1098.36,296.10 1098.94,289.21 1099.53,292.73 1100.12,283.45 1100.70,284.26 1101.29,287.89 1101.87,308.91 1102.46,306.10 1103.05,306.45 1103.63,310.68 1104.22,309.80 1104.80,316.41 1105.39,370.00 1105.98,350.02 1106.56,346.04 1107.15,334.59 1107.74,342.51 1108.32,341.14 1108.91,341.53 1109.49,334.40 1110.08,344.07 1110.67,346.24 1111.25,365.78 1111.84,368.72 1112.42,356.88 1113.01,348.62 1113.60,339.59 1114.18,339.20 1114.77,343.49 1115.36,316.23 1115.94,319.68 1116.53,320.22 1117.11,328.92 1117.70,330.80 1118.29,333.07 1118.87,332.31 1119.46,331.18 1120.04,346.83 1120.63,352.22 1121.22,360.37 1121.80,384.09 1122.39,373.20 1122.97,385.65 1123.56,355.46 1124.15,353.43 1124.73,375.56 1125.32,370.63 1125.91,365.78 1126.49,374.70 1127.08,386.98 1127.66,401.84 1128.25,393.53 1128.84,399.05 1129.42,421.34 1130.01,429.88 1130.59,384.54 1131.18,399.98 1131.77,410.13 1132.35,404.19 1132.94,405.37 1133.53,417.89 1134.11,372.98 1134.70,367.46 1135.28,363.06 1135.87,344.66 1136.46,348.22 1137.04,338.62 1137.63,330.24 1138.21,313.18 1138.80,306.80 1139.39,326.86 1139.97,331.18 1140.56,338.82 1141.14,311.21 1141.73,320.95 1142.32,309.97 1142.90,312.46 1143.49,281.65 1144.08,284.59 1144.66,282.79 1145.25,286.73 1145.83,276.17 1146.42,235.61 1147.01,281.00 1147.59,285.91 1148.18,285.25 1148.76,277.78 1149.35,294.75 1149.94,284.26 1150.52,289.38 1151.11,287.56 1151.70,292.05 1152.28,282.47 1152.87,274.58 1153.45,281.33 1154.04,289.55 1154.63,322.79 1155.21,321.14 1155.80,313.71 1156.38,307.33 1156.97,312.46 1157.56,306.28 1158.14,291.05 1158.73,287.89 1159.32,300.55 1159.90,284.76 1160.49,289.05 1161.07,272.52 1161.66,286.56 1162.25,290.71 1162.83,283.45 1163.42,289.88 1164.00,288.38 1164.59,289.88 1165.18,282.96 1165.76,280.52 1166.35,269.06 1166.93,266.25 1167.52,258.13 1168.11,240.02 1168.69,238.59 1169.28,231.11 1169.87,247.41 1170.45,240.45 1171.04,258.43 1171.62,248.88 1172.21,269.06 1172.80,265.48 1173.38,280.36 1173.97,285.74 1174.55,282.63 1175.14,281.65 1175.73,301.58 1176.31,326.49 1176.90,323.90 1177.49,311.75 1178.07,322.42 1178.66,304.88 1179.24,308.03 1179.83,358.52 1180.42,331.18 1181.00,345.25 1181.59,348.02 1182.17,350.82 1182.76,339.98 1183.35,351.02 1183.93,315.33 1184.52,293.74 1185.11,286.07 1185.69,229.86 1186.28,195.70 1186.86,168.41 1187.45,141.29 1188.04,182.56 1188.62,152.20 1189.21,134.03 1189.79,91.00 1190.38,62.00 1190.97,76.18 1191.55,62.92 1192.14,113.57 1192.72,121.38 1193.31,112.30 1193.90,112.69 1194.48,154.18 1195.07,128.26 1195.66,163.49 1196.24,192.83 1196.83,192.95 1197.41,187.04 1198.00,180.99"/>
<polyline fill="none" stroke="#111827" stroke-width="3.2" stroke-linejoin="round" stroke-linecap="round" points="82.00,490.00 82.59,490.00 83.17,490.00 83.76,490.00 84.34,490.00 84.93,490.00 85.52,490.00 86.10,490.00 86.69,490.00 87.28,490.00 87.86,490.00 88.45,490.00 89.03,490.00 89.62,490.00 90.21,490.00 90.79,490.00 91.38,490.00 91.96,490.00 92.55,490.00 93.14,490.00 93.72,490.00 94.31,490.00 94.89,490.00 95.48,490.00 96.07,490.00 96.65,490.00 97.24,490.00 97.83,490.00 98.41,490.00 99.00,490.00 99.58,490.00 100.17,490.00 100.76,490.00 101.34,490.00 101.93,490.00 102.51,490.00 103.10,490.00 103.69,490.00 104.27,490.00 104.86,490.00 105.45,490.00 106.03,490.00 106.62,490.00 107.20,490.00 107.79,490.00 108.38,490.00 108.96,490.00 109.55,490.00 110.13,490.00 110.72,490.00 111.31,490.00 111.89,490.00 112.48,490.00 113.07,490.00 113.65,490.00 114.24,490.00 114.82,490.00 115.41,490.00 116.00,490.00 116.58,490.00 117.17,490.00 117.75,490.00 118.34,490.00 118.93,490.00 119.51,490.00 120.10,490.00 120.68,490.00 121.27,490.00 121.86,490.00 122.44,490.00 123.03,490.00 123.62,490.00 124.20,490.00 124.79,490.00 125.37,490.00 125.96,490.00 126.55,490.00 127.13,490.00 127.72,490.00 128.30,490.00 128.89,490.00 129.48,490.00 130.06,490.00 130.65,490.00 131.24,490.00 131.82,490.00 132.41,490.00 132.99,490.00 133.58,490.00 134.17,490.00 134.75,490.00 135.34,490.00 135.92,490.00 136.51,490.00 137.10,490.00 137.68,490.00 138.27,490.00 138.86,490.00 139.44,490.00 140.03,490.00 140.61,490.00 141.20,490.00 141.79,490.00 142.37,490.00 142.96,490.00 143.54,490.00 144.13,490.00 144.72,490.00 145.30,490.00 145.89,490.00 146.47,490.00 147.06,490.00 147.65,490.00 148.23,490.00 148.82,490.00 149.41,490.00 149.99,490.00 150.58,490.00 151.16,490.00 151.75,490.00 152.34,490.00 152.92,490.00 153.51,490.00 154.09,490.00 154.68,490.00 155.27,490.00 155.85,490.00 156.44,490.00 157.03,490.00 157.61,490.00 158.20,490.00 158.78,490.00 159.37,490.00 159.96,490.00 160.54,490.00 161.13,490.00 161.71,490.00 162.30,490.00 162.89,490.00 163.47,490.00 164.06,490.00 164.64,490.00 165.23,490.00 165.82,490.00 166.40,490.00 166.99,490.00 167.58,490.00 168.16,490.00 168.75,490.00 169.33,490.00 169.92,490.00 170.51,490.00 171.09,490.00 171.68,490.00 172.26,490.00 172.85,490.00 173.44,490.00 174.02,490.00 174.61,490.00 175.20,490.00 175.78,490.00 176.37,490.00 176.95,490.00 177.54,490.00 178.13,490.00 178.71,490.00 179.30,490.00 179.88,490.00 180.47,490.00 181.06,490.00 181.64,490.00 182.23,490.00 182.82,490.00 183.40,490.00 183.99,490.00 184.57,490.00 185.16,490.00 185.75,490.00 186.33,490.00 186.92,490.00 187.50,490.00 188.09,490.00 188.68,490.00 189.26,490.00 189.85,490.00 190.43,490.00 191.02,490.00 191.61,490.00 192.19,490.00 192.78,490.00 193.37,490.00 193.95,490.00 194.54,490.00 195.12,490.00 195.71,490.00 196.30,490.00 196.88,490.00 197.47,490.00 198.05,490.00 198.64,490.00 199.23,490.00 199.81,490.00 200.40,490.00 200.99,490.00 201.57,490.00 202.16,490.00 202.74,490.00 203.33,490.00 203.92,490.00 204.50,490.00 205.09,490.00 205.67,490.00 206.26,490.00 206.85,490.00 207.43,490.00 208.02,490.00 208.61,490.00 209.19,490.00 209.78,490.00 210.36,490.00 210.95,490.00 211.54,490.00 212.12,490.00 212.71,490.00 213.29,490.00 213.88,490.00 214.47,490.00 215.05,490.00 215.64,490.00 216.22,490.00 216.81,490.00 217.40,490.00 217.98,490.00 218.57,490.00 219.16,490.00 219.74,490.00 220.33,490.00 220.91,490.00 221.50,490.00 222.09,490.00 222.67,490.00 223.26,490.00 223.84,490.00 224.43,490.00 225.02,490.00 225.60,490.00 226.19,490.00 226.78,490.00 227.36,490.00 227.95,490.00 228.53,490.00 229.12,490.00 229.71,490.00 230.29,490.00 230.88,490.00 231.46,490.00 232.05,490.00 232.64,490.00 233.22,490.00 233.81,490.00 234.39,490.00 234.98,490.00 235.57,490.00 236.15,490.00 236.74,490.00 237.33,490.00 237.91,490.00 238.50,490.00 239.08,490.00 239.67,490.00 240.26,490.00 240.84,490.00 241.43,490.00 242.01,490.00 242.60,490.00 243.19,490.00 243.77,490.00 244.36,490.00 244.95,490.00 245.53,490.00 246.12,490.00 246.70,490.00 247.29,490.00 247.88,490.00 248.46,490.00 249.05,490.00 249.63,490.00 250.22,490.00 250.81,490.00 251.39,490.00 251.98,490.00 252.57,490.00 253.15,490.00 253.74,490.00 254.32,490.00 254.91,490.00 255.50,490.00 256.08,490.00 256.67,490.00 257.25,490.00 257.84,490.00 258.43,490.00 259.01,490.00 259.60,490.00 260.18,490.00 260.77,490.00 261.36,490.00 261.94,490.00 262.53,490.00 263.12,490.00 263.70,490.00 264.29,490.00 264.87,490.00 265.46,490.00 266.05,490.00 266.63,490.00 267.22,490.00 267.80,490.00 268.39,490.00 268.98,490.00 269.56,490.00 270.15,490.00 270.74,490.00 271.32,490.00 271.91,490.00 272.49,490.00 273.08,490.00 273.67,490.00 274.25,490.00 274.84,490.00 275.42,490.00 276.01,490.00 276.60,490.00 277.18,490.00 277.77,490.00 278.36,490.00 278.94,490.00 279.53,490.00 280.11,490.00 280.70,490.00 281.29,490.00 281.87,490.00 282.46,490.00 283.04,490.00 283.63,490.00 284.22,490.00 284.80,490.00 285.39,490.00 285.97,490.00 286.56,490.00 287.15,490.00 287.73,490.00 288.32,490.00 288.91,490.00 289.49,490.00 290.08,490.00 290.66,490.00 291.25,490.00 291.84,490.00 292.42,490.00 293.01,490.00 293.59,490.00 294.18,490.00 294.77,490.00 295.35,490.00 295.94,490.00 296.53,490.00 297.11,490.00 297.70,490.00 298.28,490.00 298.87,490.00 299.46,490.00 300.04,490.00 300.63,490.00 301.21,490.00 301.80,490.00 302.39,490.00 302.97,490.00 303.56,490.00 304.14,490.00 304.73,490.00 305.32,490.00 305.90,490.00 306.49,490.00 307.08,490.00 307.66,490.00 308.25,490.00 308.83,490.00 309.42,490.00 310.01,490.00 310.59,490.00 311.18,490.00 311.76,490.00 312.35,490.00 312.94,490.00 313.52,490.00 314.11,490.00 314.70,490.00 315.28,490.00 315.87,490.00 316.45,490.00 317.04,490.00 317.63,490.00 318.21,490.00 318.80,490.00 319.38,490.00 319.97,490.00 320.56,490.00 321.14,490.00 321.73,490.00 322.32,490.00 322.90,490.00 323.49,490.00 324.07,490.00 324.66,490.00 325.25,490.00 325.83,490.00 326.42,490.00 327.00,490.00 327.59,490.00 328.18,490.00 328.76,490.00 329.35,490.00 329.93,490.00 330.52,490.00 331.11,490.00 331.69,490.00 332.28,490.00 332.87,490.00 333.45,490.00 334.04,490.00 334.62,490.00 335.21,490.00 335.80,490.00 336.38,490.00 336.97,490.00 337.55,490.00 338.14,490.00 338.73,490.00 339.31,490.00 339.90,490.00 340.49,490.00 341.07,490.00 341.66,490.00 342.24,490.00 342.83,490.00 343.42,490.00 344.00,490.00 344.59,490.00 345.17,490.00 345.76,490.00 346.35,490.00 346.93,490.00 347.52,490.00 348.11,490.00 348.69,490.00 349.28,490.00 349.86,490.00 350.45,490.00 351.04,490.00 351.62,490.00 352.21,490.00 352.79,490.00 353.38,490.00 353.97,490.00 354.55,490.00 355.14,490.00 355.72,490.00 356.31,490.00 356.90,490.00 357.48,490.00 358.07,490.00 358.66,490.00 359.24,490.00 359.83,490.00 360.41,490.00 361.00,490.00 361.59,490.00 362.17,490.00 362.76,490.00 363.34,490.00 363.93,490.00 364.52,490.00 365.10,490.00 365.69,490.00 366.28,490.00 366.86,490.00 367.45,490.00 368.03,490.00 368.62,490.00 369.21,490.00 369.79,490.00 370.38,490.00 370.96,490.00 371.55,490.00 372.14,490.00 372.72,490.00 373.31,490.00 373.89,490.00 374.48,490.00 375.07,490.00 375.65,490.00 376.24,490.00 376.83,490.00 377.41,490.00 378.00,490.00 378.58,490.00 379.17,490.00 379.76,490.00 380.34,490.00 380.93,490.00 381.51,490.00 382.10,490.00 382.69,490.00 383.27,490.00 383.86,490.00 384.45,490.00 385.03,490.00 385.62,490.00 386.20,490.00 386.79,490.00 387.38,490.00 387.96,490.00 388.55,490.00 389.13,490.00 389.72,490.00 390.31,490.00 390.89,490.00 391.48,490.00 392.07,490.00 392.65,490.00 393.24,490.00 393.82,490.00 394.41,490.00 395.00,490.00 395.58,490.00 396.17,490.00 396.75,490.00 397.34,490.00 397.93,490.00 398.51,490.00 399.10,490.00 399.68,490.00 400.27,490.00 400.86,490.00 401.44,490.00 402.03,490.00 402.62,490.00 403.20,490.00 403.79,490.00 404.37,490.00 404.96,490.00 405.55,490.00 406.13,490.00 406.72,490.00 407.30,490.00 407.89,490.00 408.48,490.00 409.06,490.00 409.65,490.00 410.24,490.00 410.82,490.00 411.41,490.00 411.99,490.00 412.58,490.00 413.17,490.00 413.75,490.00 414.34,490.00 414.92,490.00 415.51,490.00 416.10,490.00 416.68,490.00 417.27,490.00 417.86,490.00 418.44,490.00 419.03,490.00 419.61,490.00 420.20,490.00 420.79,490.00 421.37,490.00 421.96,490.00 422.54,490.00 423.13,490.00 423.72,490.00 424.30,490.00 424.89,490.00 425.47,490.00 426.06,490.00 426.65,490.00 427.23,490.00 427.82,490.00 428.41,490.00 428.99,490.00 429.58,490.00 430.16,490.00 430.75,490.00 431.34,490.00 431.92,490.00 432.51,490.00 433.09,490.00 433.68,490.00 434.27,490.00 434.85,490.00 435.44,490.00 436.03,490.00 436.61,490.00 437.20,490.00 437.78,490.00 438.37,490.00 438.96,490.00 439.54,490.00 440.13,490.00 440.71,490.00 441.30,490.00 441.89,490.00 442.47,490.00 443.06,490.00 443.64,490.00 444.23,490.00 444.82,490.00 445.40,490.00 445.99,490.00 446.58,490.00 447.16,490.00 447.75,490.00 448.33,490.00 448.92,490.00 449.51,490.00 450.09,490.00 450.68,490.00 451.26,490.00 451.85,490.00 452.44,490.00 453.02,490.00 453.61,490.00 454.20,490.00 454.78,490.00 455.37,490.00 455.95,490.00 456.54,490.00 457.13,490.00 457.71,490.00 458.30,490.00 458.88,490.00 459.47,490.00 460.06,490.00 460.64,490.00 461.23,490.00 461.82,490.00 462.40,490.00 462.99,490.00 463.57,490.00 464.16,490.00 464.75,490.00 465.33,490.00 465.92,490.00 466.50,490.00 467.09,490.00 467.68,490.00 468.26,490.00 468.85,490.00 469.43,490.00 470.02,490.00 470.61,490.00 471.19,490.00 471.78,490.00 472.37,490.00 472.95,490.00 473.54,490.00 474.12,490.00 474.71,490.00 475.30,490.00 475.88,490.00 476.47,490.00 477.05,490.00 477.64,490.00 478.23,490.00 478.81,490.00 479.40,490.00 479.99,490.00 480.57,490.00 481.16,490.00 481.74,490.00 482.33,490.00 482.92,490.00 483.50,490.00 484.09,490.00 484.67,490.00 485.26,490.00 485.85,490.00 486.43,490.00 487.02,490.00 487.61,490.00 488.19,490.00 488.78,490.00 489.36,490.00 489.95,490.00 490.54,490.00 491.12,490.00 491.71,490.00 492.29,490.00 492.88,490.00 493.47,490.00 494.05,490.00 494.64,490.00 495.22,490.00 495.81,490.00 496.40,490.00 496.98,490.00 497.57,490.00 498.16,490.00 498.74,490.00 499.33,490.00 499.91,490.00 500.50,490.00 501.09,490.00 501.67,490.00 502.26,490.00 502.84,490.00 503.43,490.00 504.02,490.00 504.60,490.00 505.19,490.00 505.78,490.00 506.36,490.00 506.95,490.00 507.53,490.00 508.12,490.00 508.71,490.00 509.29,490.00 509.88,490.00 510.46,490.00 511.05,490.00 511.64,490.00 512.22,490.00 512.81,490.00 513.39,490.00 513.98,490.00 514.57,490.00 515.15,490.00 515.74,490.00 516.33,490.00 516.91,490.00 517.50,490.00 518.08,490.00 518.67,490.00 519.26,490.00 519.84,490.00 520.43,490.00 521.01,490.00 521.60,490.00 522.19,490.00 522.77,490.00 523.36,490.00 523.95,490.00 524.53,490.00 525.12,490.00 525.70,490.00 526.29,490.00 526.88,490.00 527.46,490.00 528.05,490.00 528.63,490.00 529.22,490.00 529.81,490.00 530.39,490.00 530.98,490.00 531.57,490.00 532.15,490.00 532.74,490.00 533.32,490.00 533.91,490.00 534.50,490.00 535.08,490.00 535.67,490.00 536.25,490.00 536.84,490.00 537.43,490.00 538.01,490.00 538.60,490.00 539.18,490.00 539.77,490.00 540.36,490.00 540.94,490.00 541.53,490.00 542.12,490.00 542.70,490.00 543.29,490.00 543.87,490.00 544.46,490.00 545.05,490.00 545.63,490.00 546.22,490.00 546.80,490.00 547.39,490.00 547.98,490.00 548.56,490.00 549.15,490.00 549.74,490.00 550.32,490.00 550.91,490.00 551.49,490.00 552.08,490.00 552.67,490.00 553.25,490.00 553.84,490.00 554.42,490.00 555.01,490.00 555.60,490.00 556.18,490.00 556.77,490.00 557.36,490.00 557.94,490.00 558.53,490.00 559.11,490.00 559.70,490.00 560.29,490.00 560.87,490.00 561.46,490.00 562.04,490.00 562.63,490.00 563.22,490.00 563.80,490.00 564.39,490.00 564.97,490.00 565.56,490.00 566.15,490.00 566.73,490.00 567.32,490.00 567.91,490.00 568.49,490.00 569.08,490.00 569.66,490.00 570.25,490.00 570.84,490.00 571.42,490.00 572.01,490.00 572.59,490.00 573.18,490.00 573.77,490.00 574.35,490.00 574.94,490.00 575.53,490.00 576.11,490.00 576.70,490.00 577.28,490.00 577.87,490.00 578.46,490.00 579.04,490.00 579.63,490.00 580.21,490.00 580.80,490.00 581.39,490.00 581.97,490.00 582.56,490.00 583.14,490.00 583.73,490.00 584.32,490.00 584.90,490.00 585.49,490.00 586.08,490.00 586.66,490.00 587.25,490.00 587.83,490.00 588.42,490.00 589.01,490.00 589.59,490.00 590.18,490.00 590.76,490.00 591.35,490.00 591.94,490.00 592.52,490.00 593.11,490.00 593.70,490.00 594.28,490.00 594.87,490.00 595.45,490.00 596.04,490.00 596.63,490.00 597.21,490.00 597.80,490.00 598.38,490.00 598.97,490.00 599.56,490.00 600.14,490.00 600.73,490.00 601.32,490.00 601.90,490.00 602.49,490.00 603.07,490.00 603.66,490.00 604.25,490.00 604.83,490.00 605.42,490.00 606.00,490.00 606.59,490.00 607.18,490.00 607.76,490.00 608.35,490.00 608.93,490.00 609.52,490.00 610.11,490.00 610.69,490.00 611.28,490.00 611.87,490.00 612.45,490.00 613.04,490.00 613.62,490.00 614.21,490.00 614.80,490.00 615.38,490.00 615.97,490.00 616.55,490.00 617.14,490.00 617.73,490.00 618.31,490.00 618.90,490.00 619.49,490.00 620.07,490.00 620.66,490.00 621.24,490.00 621.83,490.00 622.42,490.00 623.00,490.00 623.59,490.00 624.17,490.00 624.76,490.00 625.35,490.00 625.93,490.00 626.52,490.00 627.11,490.00 627.69,490.00 628.28,490.00 628.86,490.00 629.45,490.00 630.04,490.00 630.62,490.00 631.21,490.00 631.79,490.00 632.38,490.00 632.97,490.00 633.55,490.00 634.14,490.00 634.72,490.00 635.31,490.00 635.90,490.00 636.48,490.00 637.07,490.00 637.66,490.00 638.24,490.00 638.83,490.00 639.41,490.00 640.00,490.00 640.59,490.00 641.17,490.00 641.76,490.00 642.34,490.00 642.93,490.00 643.52,490.00 644.10,490.00 644.69,490.00 645.28,490.00 645.86,490.00 646.45,490.00 647.03,490.00 647.62,490.00 648.21,490.00 648.79,490.00 649.38,490.00 649.96,490.00 650.55,490.00 651.14,490.00 651.72,490.00 652.31,490.00 652.89,490.00 653.48,490.00 654.07,490.00 654.65,490.00 655.24,490.00 655.83,490.00 656.41,490.00 657.00,490.00 657.58,490.00 658.17,490.00 658.76,490.00 659.34,490.00 659.93,490.00 660.51,490.00 661.10,490.00 661.69,490.00 662.27,490.00 662.86,490.00 663.45,490.00 664.03,490.00 664.62,490.00 665.20,490.00 665.79,490.00 666.38,490.00 666.96,490.00 667.55,490.00 668.13,490.00 668.72,490.00 669.31,490.00 669.89,490.00 670.48,490.00 671.07,490.00 671.65,490.00 672.24,490.00 672.82,490.00 673.41,490.00 674.00,490.00 674.58,490.00 675.17,490.00 675.75,490.00 676.34,490.00 676.93,490.00 677.51,490.00 678.10,490.00 678.68,490.00 679.27,490.00 679.86,490.00 680.44,490.00 681.03,490.00 681.62,490.00 682.20,490.00 682.79,490.00 683.37,490.00 683.96,490.00 684.55,490.00 685.13,490.00 685.72,490.00 686.30,490.00 686.89,490.00 687.48,490.00 688.06,490.00 688.65,490.00 689.24,490.00 689.82,490.00 690.41,490.00 690.99,490.00 691.58,490.00 692.17,490.00 692.75,490.00 693.34,490.00 693.92,490.00 694.51,490.00 695.10,490.00 695.68,490.00 696.27,490.00 696.86,490.00 697.44,490.00 698.03,490.00 698.61,490.00 699.20,490.00 699.79,490.00 700.37,490.00 700.96,490.00 701.54,490.00 702.13,490.00 702.72,490.00 703.30,490.00 703.89,490.00 704.47,490.00 705.06,490.00 705.65,490.00 706.23,490.00 706.82,490.00 707.41,490.00 707.99,490.00 708.58,490.00 709.16,490.00 709.75,490.00 710.34,490.00 710.92,490.00 711.51,490.00 712.09,490.00 712.68,490.00 713.27,490.00 713.85,490.00 714.44,490.00 715.03,490.00 715.61,490.00 716.20,490.00 716.78,490.00 717.37,490.00 717.96,490.00 718.54,490.00 719.13,490.00 719.71,490.00 720.30,490.00 720.89,490.00 721.47,490.00 722.06,490.00 722.64,490.00 723.23,490.00 723.82,490.00 724.40,490.00 724.99,490.00 725.58,490.00 726.16,490.00 726.75,490.00 727.33,490.00 727.92,490.00 728.51,490.00 729.09,490.00 729.68,490.00 730.26,490.00 730.85,490.00 731.44,490.00 732.02,490.00 732.61,490.00 733.20,490.00 733.78,490.00 734.37,490.00 734.95,490.00 735.54,490.00 736.13,490.00 736.71,490.00 737.30,490.00 737.88,490.00 738.47,490.00 739.06,490.00 739.64,490.00 740.23,490.00 740.82,490.00 741.40,490.00 741.99,490.00 742.57,490.00 743.16,490.00 743.75,490.00 744.33,490.00 744.92,490.00 745.50,490.00 746.09,490.00 746.68,490.00 747.26,490.00 747.85,490.00 748.43,490.00 749.02,490.00 749.61,490.00 750.19,490.00 750.78,490.00 751.37,490.00 751.95,490.00 752.54,490.00 753.12,490.00 753.71,490.00 754.30,490.00 754.88,490.00 755.47,490.00 756.05,490.00 756.64,490.00 757.23,490.00 757.81,490.00 758.40,490.00 758.99,490.00 759.57,490.00 760.16,490.00 760.74,490.00 761.33,490.00 761.92,490.00 762.50,490.00 763.09,490.00 763.67,490.00 764.26,490.00 764.85,490.00 765.43,490.00 766.02,490.00 766.61,490.00 767.19,490.00 767.78,490.00 768.36,490.00 768.95,490.00 769.54,490.00 770.12,490.00 770.71,490.00 771.29,490.00 771.88,490.00 772.47,490.00 773.05,490.00 773.64,490.00 774.22,490.00 774.81,490.00 775.40,490.00 775.98,490.00 776.57,490.00 777.16,490.00 777.74,490.00 778.33,490.00 778.91,490.00 779.50,490.00 780.09,490.00 780.67,490.00 781.26,490.00 781.84,490.00 782.43,490.00 783.02,490.00 783.60,490.00 784.19,490.00 784.78,490.00 785.36,490.00 785.95,490.00 786.53,490.00 787.12,490.00 787.71,490.00 788.29,490.00 788.88,490.00 789.46,490.00 790.05,490.00 790.64,490.00 791.22,490.00 791.81,490.00 792.39,490.00 792.98,490.00 793.57,490.00 794.15,490.00 794.74,490.00 795.33,490.00 795.91,490.00 796.50,490.00 797.08,490.00 797.67,490.00 798.26,490.00 798.84,490.00 799.43,490.00 800.01,490.00 800.60,490.00 801.19,490.00 801.77,490.00 802.36,490.00 802.95,490.00 803.53,490.00 804.12,490.00 804.70,490.00 805.29,490.00 805.88,490.00 806.46,490.00 807.05,490.00 807.63,490.00 808.22,490.00 808.81,490.00 809.39,490.00 809.98,490.00 810.57,490.00 811.15,490.00 811.74,490.00 812.32,490.00 812.91,490.00 813.50,490.00 814.08,490.00 814.67,490.00 815.25,490.00 815.84,490.00 816.43,490.00 817.01,490.00 817.60,490.00 818.18,490.00 818.77,490.00 819.36,490.00 819.94,490.00 820.53,490.00 821.12,490.00 821.70,490.00 822.29,490.00 822.87,490.00 823.46,490.00 824.05,490.00 824.63,490.00 825.22,490.00 825.80,490.00 826.39,490.00 826.98,490.00 827.56,490.00 828.15,490.00 828.74,490.00 829.32,490.00 829.91,490.00 830.49,490.00 831.08,490.00 831.67,490.00 832.25,490.00 832.84,490.00 833.42,490.00 834.01,490.00 834.60,490.00 835.18,490.00 835.77,490.00 836.36,490.00 836.94,490.00 837.53,490.00 838.11,490.00 838.70,490.00 839.29,490.00 839.87,490.00 840.46,490.00 841.04,490.00 841.63,490.00 842.22,490.00 842.80,490.00 843.39,490.00 843.97,490.00 844.56,490.00 845.15,490.00 845.73,490.00 846.32,490.00 846.91,490.00 847.49,490.00 848.08,490.00 848.66,490.00 849.25,490.00 849.84,490.00 850.42,490.00 851.01,490.00 851.59,490.00 852.18,490.00 852.77,490.00 853.35,490.00 853.94,490.00 854.53,490.00 855.11,490.00 855.70,490.00 856.28,490.00 856.87,490.00 857.46,490.00 858.04,490.00 858.63,490.00 859.21,490.00 859.80,490.00 860.39,490.00 860.97,490.00 861.56,490.00 862.14,490.00 862.73,490.00 863.32,490.00 863.90,490.00 864.49,490.00 865.08,490.00 865.66,490.00 866.25,490.00 866.83,490.00 867.42,490.00 868.01,490.00 868.59,490.00 869.18,490.00 869.76,490.00 870.35,490.00 870.94,490.00 871.52,490.00 872.11,490.00 872.70,490.00 873.28,490.00 873.87,490.00 874.45,490.00 875.04,490.00 875.63,490.00 876.21,490.00 876.80,490.00 877.38,490.00 877.97,490.00 878.56,490.00 879.14,490.00 879.73,490.00 880.32,490.00 880.90,490.00 881.49,490.00 882.07,490.00 882.66,490.00 883.25,490.00 883.83,490.00 884.42,490.00 885.00,490.00 885.59,490.00 886.18,490.00 886.76,490.00 887.35,490.00 887.93,490.00 888.52,490.00 889.11,490.00 889.69,490.00 890.28,490.00 890.87,490.00 891.45,490.00 892.04,490.00 892.62,490.00 893.21,490.00 893.80,490.00 894.38,490.00 894.97,490.00 895.55,490.00 896.14,490.00 896.73,490.00 897.31,490.00 897.90,490.00 898.49,490.00 899.07,490.00 899.66,490.00 900.24,490.00 900.83,490.00 901.42,490.00 902.00,490.00 902.59,490.00 903.17,490.00 903.76,490.00 904.35,490.00 904.93,490.00 905.52,490.00 906.11,490.00 906.69,490.00 907.28,490.00 907.86,490.00 908.45,490.00 909.04,490.00 909.62,490.00 910.21,490.00 910.79,490.00 911.38,490.00 911.97,490.00 912.55,490.00 913.14,490.00 913.72,490.00 914.31,490.00 914.90,490.00 915.48,490.00 916.07,490.00 916.66,490.00 917.24,490.00 917.83,490.00 918.41,490.00 919.00,490.00 919.59,490.00 920.17,490.00 920.76,490.00 921.34,490.00 921.93,490.00 922.52,490.00 923.10,490.00 923.69,490.00 924.28,490.00 924.86,490.00 925.45,490.00 926.03,490.00 926.62,490.00 927.21,490.00 927.79,490.00 928.38,490.00 928.96,490.00 929.55,490.00 930.14,490.00 930.72,490.00 931.31,490.00 931.89,490.00 932.48,490.00 933.07,490.00 933.65,490.00 934.24,490.00 934.83,490.00 935.41,490.00 936.00,490.00 936.58,490.00 937.17,490.00 937.76,490.00 938.34,490.00 938.93,490.00 939.51,490.00 940.10,490.00 940.69,490.00 941.27,490.00 941.86,490.00 942.45,490.00 943.03,490.00 943.62,490.00 944.20,490.00 944.79,490.00 945.38,490.00 945.96,490.00 946.55,490.00 947.13,490.00 947.72,490.00 948.31,490.00 948.89,490.00 949.48,490.00 950.07,490.00 950.65,490.00 951.24,490.00 951.82,490.00 952.41,490.00 953.00,490.00 953.58,490.00 954.17,490.00 954.75,490.00 955.34,490.00 955.93,490.00 956.51,490.00 957.10,490.00 957.68,490.00 958.27,490.00 958.86,490.00 959.44,490.00 960.03,490.00 960.62,490.00 961.20,490.00 961.79,490.00 962.37,490.00 962.96,490.00 963.55,490.00 964.13,490.00 964.72,490.00 965.30,490.00 965.89,490.00 966.48,490.00 967.06,490.00 967.65,490.00 968.24,490.00 968.82,490.00 969.41,490.00 969.99,490.00 970.58,490.00 971.17,490.00 971.75,490.00 972.34,490.00 972.92,490.00 973.51,490.00 974.10,490.00 974.68,490.00 975.27,490.00 975.86,490.00 976.44,490.00 977.03,490.00 977.61,490.00 978.20,490.00 978.79,490.00 979.37,490.00 979.96,490.00 980.54,490.00 981.13,490.00 981.72,490.00 982.30,490.00 982.89,490.00 983.47,490.00 984.06,490.00 984.65,490.00 985.23,490.00 985.82,490.00 986.41,490.00 986.99,490.00 987.58,490.00 988.16,490.00 988.75,490.00 989.34,490.00 989.92,490.00 990.51,490.00 991.09,490.00 991.68,490.00 992.27,490.00 992.85,490.00 993.44,490.00 994.03,490.00 994.61,490.00 995.20,490.00 995.78,490.00 996.37,490.00 996.96,490.00 997.54,490.00 998.13,490.00 998.71,490.00 999.30,490.00 999.89,490.00 1000.47,490.00 1001.06,490.00 1001.64,490.00 1002.23,490.00 1002.82,490.00 1003.40,490.00 1003.99,490.00 1004.58,490.00 1005.16,490.00 1005.75,490.00 1006.33,490.00 1006.92,490.00 1007.51,490.00 1008.09,490.00 1008.68,490.00 1009.26,490.00 1009.85,490.00 1010.44,490.00 1011.02,490.00 1011.61,490.00 1012.20,490.00 1012.78,490.00 1013.37,490.00 1013.95,490.00 1014.54,490.00 1015.13,490.00 1015.71,490.00 1016.30,490.00 1016.88,490.00 1017.47,490.00 1018.06,490.00 1018.64,490.00 1019.23,490.00 1019.82,490.00 1020.40,490.00 1020.99,490.00 1021.57,490.00 1022.16,490.00 1022.75,490.00 1023.33,490.00 1023.92,490.00 1024.50,490.00 1025.09,490.00 1025.68,490.00 1026.26,490.00 1026.85,490.00 1027.43,490.00 1028.02,490.00 1028.61,490.00 1029.19,490.00 1029.78,490.00 1030.37,490.00 1030.95,490.00 1031.54,490.00 1032.12,490.00 1032.71,490.00 1033.30,490.00 1033.88,490.00 1034.47,490.00 1035.05,490.00 1035.64,490.00 1036.23,490.00 1036.81,490.00 1037.40,490.00 1037.99,490.00 1038.57,490.00 1039.16,490.00 1039.74,490.00 1040.33,490.00 1040.92,490.00 1041.50,490.00 1042.09,490.00 1042.67,490.00 1043.26,490.00 1043.85,490.00 1044.43,490.00 1045.02,490.00 1045.61,490.00 1046.19,490.00 1046.78,490.00 1047.36,490.00 1047.95,490.00 1048.54,490.00 1049.12,490.00 1049.71,490.00 1050.29,490.00 1050.88,490.00 1051.47,490.00 1052.05,490.00 1052.64,490.00 1053.22,490.00 1053.81,490.00 1054.40,490.00 1054.98,490.00 1055.57,490.00 1056.16,490.00 1056.74,490.00 1057.33,490.00 1057.91,490.00 1058.50,490.00 1059.09,490.00 1059.67,490.00 1060.26,490.00 1060.84,490.00 1061.43,490.00 1062.02,490.00 1062.60,490.00 1063.19,490.00 1063.78,490.00 1064.36,490.00 1064.95,490.00 1065.53,490.00 1066.12,490.00 1066.71,490.00 1067.29,490.00 1067.88,490.00 1068.46,490.00 1069.05,490.00 1069.64,490.00 1070.22,490.00 1070.81,490.00 1071.39,490.00 1071.98,490.00 1072.57,490.00 1073.15,490.00 1073.74,490.00 1074.33,490.00 1074.91,490.00 1075.50,490.00 1076.08,490.00 1076.67,490.00 1077.26,490.00 1077.84,490.00 1078.43,490.00 1079.01,490.00 1079.60,490.00 1080.19,490.00 1080.77,490.00 1081.36,490.00 1081.95,490.00 1082.53,490.00 1083.12,490.00 1083.70,62.00 1084.29,62.00 1084.88,62.00 1085.46,62.00 1086.05,62.00 1086.63,62.00 1087.22,62.00 1087.81,62.00 1088.39,62.00 1088.98,62.00 1089.57,62.00 1090.15,62.00 1090.74,62.00 1091.32,62.00 1091.91,62.00 1092.50,62.00 1093.08,62.00 1093.67,62.00 1094.25,62.00 1094.84,62.00 1095.43,490.00 1096.01,62.00 1096.60,490.00 1097.18,490.00 1097.77,490.00 1098.36,490.00 1098.94,490.00 1099.53,490.00 1100.12,490.00 1100.70,490.00 1101.29,490.00 1101.87,490.00 1102.46,490.00 1103.05,490.00 1103.63,490.00 1104.22,490.00 1104.80,490.00 1105.39,490.00 1105.98,490.00 1106.56,490.00 1107.15,490.00 1107.74,490.00 1108.32,490.00 1108.91,490.00 1109.49,490.00 1110.08,490.00 1110.67,490.00 1111.25,490.00 1111.84,490.00 1112.42,490.00 1113.01,490.00 1113.60,490.00 1114.18,490.00 1114.77,490.00 1115.36,490.00 1115.94,490.00 1116.53,490.00 1117.11,490.00 1117.70,490.00 1118.29,490.00 1118.87,490.00 1119.46,490.00 1120.04,490.00 1120.63,490.00 1121.22,490.00 1121.80,490.00 1122.39,490.00 1122.97,490.00 1123.56,490.00 1124.15,490.00 1124.73,490.00 1125.32,490.00 1125.91,490.00 1126.49,490.00 1127.08,490.00 1127.66,490.00 1128.25,490.00 1128.84,490.00 1129.42,490.00 1130.01,490.00 1130.59,490.00 1131.18,490.00 1131.77,490.00 1132.35,490.00 1132.94,490.00 1133.53,490.00 1134.11,490.00 1134.70,490.00 1135.28,490.00 1135.87,490.00 1136.46,490.00 1137.04,62.00 1137.63,62.00 1138.21,62.00 1138.80,62.00 1139.39,490.00 1139.97,62.00 1140.56,62.00 1141.14,62.00 1141.73,62.00 1142.32,62.00 1142.90,62.00 1143.49,62.00 1144.08,62.00 1144.66,62.00 1145.25,62.00 1145.83,62.00 1146.42,62.00 1147.01,62.00 1147.59,62.00 1148.18,62.00 1148.76,62.00 1149.35,62.00 1149.94,62.00 1150.52,62.00 1151.11,62.00 1151.70,62.00 1152.28,62.00 1152.87,62.00 1153.45,62.00 1154.04,490.00 1154.63,490.00 1155.21,490.00 1155.80,490.00 1156.38,490.00 1156.97,490.00 1157.56,490.00 1158.14,490.00 1158.73,490.00 1159.32,490.00 1159.90,490.00 1160.49,490.00 1161.07,490.00 1161.66,490.00 1162.25,490.00 1162.83,490.00 1163.42,490.00 1164.00,490.00 1164.59,490.00 1165.18,490.00 1165.76,490.00 1166.35,490.00 1166.93,490.00 1167.52,490.00 1168.11,62.00 1168.69,62.00 1169.28,62.00 1169.87,62.00 1170.45,62.00 1171.04,62.00 1171.62,62.00 1172.21,62.00 1172.80,62.00 1173.38,490.00 1173.97,490.00 1174.55,490.00 1175.14,490.00 1175.73,490.00 1176.31,490.00 1176.90,490.00 1177.49,490.00 1178.07,490.00 1178.66,490.00 1179.24,490.00 1179.83,490.00 1180.42,490.00 1181.00,490.00 1181.59,490.00 1182.17,490.00 1182.76,490.00 1183.35,490.00 1183.93,490.00 1184.52,490.00 1185.11,490.00 1185.69,490.00 1186.28,62.00 1186.86,62.00 1187.45,62.00 1188.04,62.00 1188.62,490.00 1189.21,490.00 1189.79,490.00 1190.38,490.00 1190.97,62.00 1191.55,62.00 1192.14,62.00 1192.72,62.00 1193.31,490.00 1193.90,490.00 1194.48,490.00 1195.07,490.00 1195.66,490.00 1196.24,490.00 1196.83,490.00 1197.41,490.00 1198.00,490.00"/>
<line x1="100" y1="86" x2="134" y2="86" stroke="#111827" stroke-width="4"/>
<text class="small" x="144" y="91">Oil regime: nieaktywny</text>
<line x1="100" y1="112" x2="134" y2="112" stroke="#9ca3af" stroke-width="4" opacity="0.55"/>
<text class="small" x="144" y="117">Cena ropy / USO w tle</text>
</svg>