<?xml version="1.0" encoding="UTF-8"?>
<svg xmlns="http://www.w3.org/2000/svg" width="1280" height="720" viewBox="0 0 1280 720">
<rect width="100%" height="100%" fill="#fbfbf8"/>
<style>text{font-family:Segoe UI,Arial,sans-serif;fill:#222}.title{font-size:24px;font-weight:700}.small{font-size:13px}.tick{font-size:12px;fill:#555}.axis{font-size:14px;font-weight:600}</style>
<text class="title" x="82" y="32">Fed Funds vs bezrobocie USA na tle S&amp;P 500</text>
<text class="small" x="82" y="56">Szare tlo liniowe: SPX w skali log, znormalizowany; czerwone tlo: modul cyklu defensywny 0% akcji</text>
<rect x="599.89" y="62" width="51.00" height="580" fill="#f2b8a8" opacity="0.22"/>
<rect x="731.64" y="62" width="32.79" height="580" fill="#f2b8a8" opacity="0.22"/>
<rect x="976.93" y="62" width="98.96" height="580" fill="#f2b8a8" opacity="0.22"/>
<rect x="1088.04" y="62" width="52.21" height="580" fill="#f2b8a8" opacity="0.22"/>
<line x1="82" y1="642.00" x2="1238" y2="642.00" stroke="#d8d8d1" stroke-width="1"/>
<text class="tick" x="72" y="646.00" text-anchor="end">0%</text>
<line x1="82" y1="613.00" x2="1238" y2="613.00" stroke="#eeeeea" stroke-width="1"/>
<line x1="82" y1="584.00" x2="1238" y2="584.00" stroke="#d8d8d1" stroke-width="1"/>
<text class="tick" x="72" y="588.00" text-anchor="end">2%</text>
<line x1="82" y1="555.00" x2="1238" y2="555.00" stroke="#eeeeea" stroke-width="1"/>
<line x1="82" y1="526.00" x2="1238" y2="526.00" stroke="#d8d8d1" stroke-width="1"/>
<text class="tick" x="72" y="530.00" text-anchor="end">4%</text>
<line x1="82" y1="497.00" x2="1238" y2="497.00" stroke="#eeeeea" stroke-width="1"/>
<line x1="82" y1="468.00" x2="1238" y2="468.00" stroke="#d8d8d1" stroke-width="1"/>
<text class="tick" x="72" y="472.00" text-anchor="end">6%</text>
<line x1="82" y1="439.00" x2="1238" y2="439.00" stroke="#eeeeea" stroke-width="1"/>
<line x1="82" y1="410.00" x2="1238" y2="410.00" stroke="#d8d8d1" stroke-width="1"/>
<text class="tick" x="72" y="414.00" text-anchor="end">8%</text>
<line x1="82" y1="381.00" x2="1238" y2="381.00" stroke="#eeeeea" stroke-width="1"/>
<line x1="82" y1="352.00" x2="1238" y2="352.00" stroke="#d8d8d1" stroke-width="1"/>
<text class="tick" x="72" y="356.00" text-anchor="end">10%</text>
<line x1="82" y1="323.00" x2="1238" y2="323.00" stroke="#eeeeea" stroke-width="1"/>
<line x1="82" y1="294.00" x2="1238" y2="294.00" stroke="#d8d8d1" stroke-width="1"/>
<text class="tick" x="72" y="298.00" text-anchor="end">12%</text>
<line x1="82" y1="265.00" x2="1238" y2="265.00" stroke="#eeeeea" stroke-width="1"/>
<line x1="82" y1="236.00" x2="1238" y2="236.00" stroke="#d8d8d1" stroke-width="1"/>
<text class="tick" x="72" y="240.00" text-anchor="end">14%</text>
<line x1="82" y1="207.00" x2="1238" y2="207.00" stroke="#eeeeea" stroke-width="1"/>
<line x1="82" y1="178.00" x2="1238" y2="178.00" stroke="#d8d8d1" stroke-width="1"/>
<text class="tick" x="72" y="182.00" text-anchor="end">16%</text>
<line x1="82" y1="149.00" x2="1238" y2="149.00" stroke="#eeeeea" stroke-width="1"/>
<line x1="82" y1="120.00" x2="1238" y2="120.00" stroke="#d8d8d1" stroke-width="1"/>
<text class="tick" x="72" y="124.00" text-anchor="end">18%</text>
<line x1="82" y1="91.00" x2="1238" y2="91.00" stroke="#eeeeea" stroke-width="1"/>
<line x1="82" y1="62.00" x2="1238" y2="62.00" stroke="#d8d8d1" stroke-width="1"/>
<text class="tick" x="72" y="66.00" text-anchor="end">20%</text>
<line x1="98.39" y1="62" x2="98.39" y2="642" stroke="#eeeeea" stroke-width="1"/>
<text class="tick" x="98.39" y="676" text-anchor="middle">1955</text>
<line x1="256.25" y1="62" x2="256.25" y2="642" stroke="#eeeeea" stroke-width="1"/>
<text class="tick" x="256.25" y="676" text-anchor="middle">1960</text>
<line x1="414.71" y1="62" x2="414.71" y2="642" stroke="#eeeeea" stroke-width="1"/>
<text class="tick" x="414.71" y="676" text-anchor="middle">1965</text>
<line x1="573.18" y1="62" x2="573.18" y2="642" stroke="#eeeeea" stroke-width="1"/>
<text class="tick" x="573.18" y="676" text-anchor="middle">1970</text>
<line x1="731.64" y1="62" x2="731.64" y2="642" stroke="#eeeeea" stroke-width="1"/>
<text class="tick" x="731.64" y="676" text-anchor="middle">1975</text>
<line x1="890.11" y1="62" x2="890.11" y2="642" stroke="#eeeeea" stroke-width="1"/>
<text class="tick" x="890.11" y="676" text-anchor="middle">1980</text>
<line x1="1048.57" y1="62" x2="1048.57" y2="642" stroke="#eeeeea" stroke-width="1"/>
<text class="tick" x="1048.57" y="676" text-anchor="middle">1985</text>
<line x1="1207.04" y1="62" x2="1207.04" y2="642" stroke="#eeeeea" stroke-width="1"/>
<text class="tick" x="1207.04" y="676" text-anchor="middle">1990</text>
<line x1="599.89" y1="62" x2="599.89" y2="642" stroke="#7f1d1d" stroke-width="1.4" opacity="0.55"/>
<line x1="731.64" y1="62" x2="731.64" y2="642" stroke="#7f1d1d" stroke-width="1.4" opacity="0.55"/>
<line x1="976.93" y1="62" x2="976.93" y2="642" stroke="#7f1d1d" stroke-width="1.4" opacity="0.55"/>
<line x1="1088.04" y1="62" x2="1088.04" y2="642" stroke="#7f1d1d" stroke-width="1.4" opacity="0.55"/>
<polyline fill="none" stroke="#8f8f88" stroke-width="2.2" opacity="0.42" stroke-linejoin="round" stroke-linecap="round" points="82.00,642.00 82.61,642.00 83.21,642.00 83.82,642.00 84.43,642.00 85.04,637.39 85.64,637.39 86.25,637.39 86.86,637.39 87.46,631.98 88.07,631.98 88.68,631.98 89.29,631.98 89.89,626.62 90.50,626.62 91.11,626.62 91.71,626.62 92.32,626.62 92.93,617.64 93.54,617.64 94.14,617.64 94.75,617.64 95.36,607.18 95.96,607.18 96.57,607.18 97.18,607.18 97.79,607.18 98.39,603.01 99.00,603.01 99.61,603.01 100.21,603.01 100.82,595.33 101.43,595.33 102.04,595.33 102.64,595.33 103.25,597.18 103.86,597.18 104.46,597.18 105.07,597.18 105.68,589.24 106.29,589.24 106.89,589.24 107.50,589.24 108.11,589.24 108.71,590.24 109.32,590.24 109.93,590.24 110.54,590.24 111.14,577.06 111.75,577.06 112.36,577.06 112.96,577.06 113.57,560.56 114.18,560.56 114.79,560.56 115.39,560.56 116.00,560.56 116.61,561.99 117.21,561.99 117.82,561.99 118.43,561.99 119.04,551.70 119.64,551.70 120.25,551.70 120.86,551.70 121.46,551.70 122.07,563.76 122.68,563.76 123.29,563.76 123.89,563.76 124.50,548.51 125.11,548.51 125.71,548.51 126.32,548.51 126.93,546.33 127.54,546.33 128.14,546.33 128.75,546.33 129.36,546.33 129.96,552.70 130.57,552.70 131.18,552.70 131.79,552.70 132.39,551.23 133.00,551.23 133.61,551.23 134.21,551.23 134.82,535.66 135.43,535.66 136.04,535.66 136.64,535.66 137.25,535.66 137.86,532.92 138.46,532.92 139.07,532.92 139.68,532.92 140.29,540.38 140.89,540.38 141.50,540.38 142.11,540.38 142.71,541.74 143.32,541.74 143.93,541.74 144.54,541.74 145.14,541.74 145.75,529.40 146.36,529.40 146.96,529.40 147.57,529.40 148.18,530.79 148.79,530.79 149.39,530.79 150.00,530.79 150.61,530.79 151.21,538.88 151.82,538.88 152.43,538.88 153.04,538.88 153.64,541.89 154.25,541.89 154.86,541.89 155.46,541.89 156.07,544.33 156.68,544.33 157.29,544.33 157.89,544.33 158.50,544.33 159.11,540.89 159.71,540.89 160.32,540.89 160.93,540.89 161.54,546.03 162.14,546.03 162.75,546.03 163.36,546.03 163.96,556.33 164.57,556.33 165.18,556.33 165.79,556.33 166.39,553.34 167.00,553.34 167.61,553.34 168.21,553.34 168.82,553.34 169.43,547.99 170.04,547.99 170.64,547.99 171.25,547.99 171.86,539.18 172.46,539.18 173.07,539.18 173.68,539.18 174.29,539.18 174.89,535.37 175.50,535.37 176.11,535.37 176.71,535.37 177.32,530.69 177.93,530.69 178.54,530.69 179.14,530.69 179.75,543.93 180.36,543.93 180.96,543.93 181.57,543.93 182.18,543.93 182.79,553.61 183.39,553.61 184.00,553.61 184.61,553.61 185.21,568.64 185.82,568.64 186.43,568.64 187.04,568.64 187.64,573.74 188.25,573.74 188.86,573.74 189.46,573.74 190.07,573.74 190.68,573.86 191.29,573.86 191.89,573.86 192.50,573.86 193.11,569.32 193.71,569.32 194.32,569.32 194.93,569.32 195.54,569.32 196.14,568.53 196.75,568.53 197.36,568.53 197.96,568.53 198.57,563.76 199.18,563.76 199.79,563.76 200.39,563.76 201.00,562.49 201.61,562.49 202.21,562.49 202.82,562.49 203.43,555.10 204.04,555.10 204.64,555.10 205.25,555.10 205.86,555.10 206.46,549.55 207.07,549.55 207.68,549.55 208.29,549.55 208.89,543.21 209.50,543.21 210.11,543.21 210.71,543.21 211.32,534.63 211.93,534.63 212.54,534.63 213.14,534.63 213.75,534.63 214.36,528.54 214.96,528.54 215.57,528.54 216.18,528.54 216.79,519.22 217.39,519.22 218.00,519.22 218.61,519.22 219.21,519.22 219.82,512.22 220.43,512.22 221.04,512.22 221.64,512.22 222.25,507.85 222.86,507.85 223.46,507.85 224.07,507.85 224.68,498.73 225.29,498.73 225.89,498.73 226.50,498.73 227.11,498.73 227.71,502.33 228.32,502.33 228.93,502.33 229.54,502.33 230.14,496.47 230.75,496.47 231.36,496.47 231.96,496.47 232.57,492.59 233.18,492.59 233.79,492.59 234.39,492.59 235.00,489.10 235.61,489.10 236.21,489.10 236.82,489.10 237.43,489.10 238.04,491.12 238.64,491.12 239.25,491.12 239.86,491.12 240.46,482.03 241.07,482.03 241.68,482.03 242.29,482.03 242.89,482.03 243.50,483.36 244.11,483.36 244.71,483.36 245.32,483.36 245.93,492.80 246.54,492.80 247.14,492.80 247.75,492.80 248.36,493.00 248.96,493.00 249.57,493.00 250.18,493.00 250.79,493.00 251.39,492.06 252.00,492.06 252.61,492.06 253.21,492.06 253.82,484.70 254.43,484.70 255.04,484.70 255.64,484.70 256.25,488.81 256.86,488.81 257.46,488.81 258.07,488.81 258.68,488.81 259.29,498.06 259.89,498.06 260.50,498.06 261.11,498.06 261.71,501.26 262.32,501.26 262.93,501.26 263.54,501.26 264.14,498.27 264.75,498.27 265.36,498.27 265.96,498.27 266.57,498.27 267.18,500.42 267.79,500.42 268.39,500.42 269.00,500.42 269.61,491.94 270.21,491.94 270.82,491.94 271.43,491.94 272.04,497.81 272.64,497.81 273.25,497.81 273.86,497.81 274.46,497.81 275.07,495.02 275.68,495.02 276.29,495.02 276.89,495.02 277.50,502.16 278.11,502.16 278.71,502.16 279.32,502.16 279.93,502.16 280.54,506.81 281.14,506.81 281.75,506.81 282.36,506.81 282.96,499.36 283.57,499.36 284.18,499.36 284.79,499.36 285.39,493.82 286.00,493.82 286.61,493.82 287.21,493.82 287.82,493.82 288.43,482.11 289.04,482.11 289.64,482.11 290.25,482.11 290.86,472.71 291.46,472.71 292.07,472.71 292.68,472.71 293.29,465.49 293.89,465.49 294.50,465.49 295.11,465.49 295.71,465.49 296.32,459.34 296.93,459.34 297.54,459.34 298.14,459.34 298.75,456.97 299.36,456.97 299.96,456.97 300.57,456.97 301.18,460.09 301.79,460.09 302.39,460.09 303.00,460.09 303.61,460.09 304.21,460.73 304.82,460.73 305.43,460.73 306.04,460.73 306.64,452.48 307.25,452.48 307.86,452.48 308.46,452.48 309.07,454.32 309.68,454.32 310.29,454.32 310.89,454.32 311.50,454.32 312.11,451.76 312.71,451.76 313.32,451.76 313.93,451.76 314.54,441.41 315.14,441.41 315.75,441.41 316.36,441.41 316.96,439.25 317.57,439.25 318.18,439.25 318.79,439.25 319.39,439.25 320.00,448.11 320.61,448.11 321.21,448.11 321.82,448.11 322.43,444.25 323.04,444.25 323.64,444.25 324.25,444.25 324.86,444.02 325.46,444.02 326.07,444.02 326.68,444.02 327.29,444.02 327.89,451.59 328.50,451.59 329.11,451.59 329.71,451.59 330.32,469.65 330.93,469.65 331.54,469.65 332.14,469.65 332.75,498.69 333.36,498.69 333.96,498.69 334.57,498.69 335.18,498.69 335.79,493.12 336.39,493.12 337.00,493.12 337.61,493.12 338.21,486.85 338.82,486.85 339.43,486.85 340.04,486.85 340.64,486.85 341.25,488.94 341.86,488.94 342.46,488.94 343.07,488.94 343.68,496.43 344.29,496.43 344.89,496.43 345.50,496.43 346.11,480.86 346.71,480.86 347.32,480.86 347.93,480.86 348.54,480.86 349.14,470.95 349.75,470.95 350.36,470.95 350.96,470.95 351.57,462.09 352.18,462.09 352.79,462.09 353.39,462.09 354.00,459.02 354.61,459.02 355.21,459.02 355.82,459.02 356.43,459.91 357.04,459.91 357.64,459.91 358.25,459.91 358.86,459.91 359.46,449.16 360.07,449.16 360.68,449.16 361.29,449.16 361.89,444.52 362.50,444.52 363.11,444.52 363.71,444.52 364.32,444.52 364.93,444.62 365.54,444.62 366.14,444.62 366.75,444.62 367.36,448.11 367.96,448.11 368.57,448.11 369.18,448.11 369.79,441.74 370.39,441.74 371.00,441.74 371.61,441.74 372.21,441.74 372.82,435.66 373.43,435.66 374.04,435.66 374.64,435.66 375.25,435.08 375.86,435.08 376.46,435.08 377.07,435.08 377.68,436.40 378.29,436.40 378.89,436.40 379.50,436.40 380.11,436.40 380.71,431.46 381.32,431.46 381.93,431.46 382.54,431.46 383.14,424.39 383.75,424.39 384.36,424.39 384.96,424.39 385.57,424.39 386.18,421.53 386.79,421.53 387.39,421.53 388.00,421.53 388.61,417.31 389.21,417.31 389.82,417.31 390.43,417.31 391.04,413.95 391.64,413.95 392.25,413.95 392.86,413.95 393.46,411.68 394.07,411.68 394.68,411.68 395.29,411.68 395.89,411.68 396.50,413.08 397.11,413.08 397.71,413.08 398.32,413.08 398.93,404.55 399.54,404.55 400.14,404.55 400.75,404.55 401.36,404.55 401.96,408.01 402.57,408.01 403.18,408.01 403.79,408.01 404.39,404.02 405.00,404.02 405.61,404.02 406.21,404.02 406.82,400.02 407.43,400.02 408.04,400.02 408.64,400.02 409.25,400.02 409.86,398.40 410.46,398.40 411.07,398.40 411.68,398.40 412.29,402.49 412.89,402.49 413.50,402.49 414.11,402.49 414.71,396.55 415.32,396.55 415.93,396.55 416.54,396.55 417.14,396.55 417.75,394.85 418.36,394.85 418.96,394.85 419.57,394.85 420.18,394.63 420.79,394.63 421.39,394.63 422.00,394.63 422.61,391.58 423.21,391.58 423.82,391.58 424.43,391.58 425.04,391.58 425.64,388.13 426.25,388.13 426.86,388.13 427.46,388.13 428.07,399.50 428.68,399.50 429.29,399.50 429.89,399.50 430.50,399.86 431.11,399.86 431.71,399.86 432.32,399.86 432.93,399.86 433.54,395.55 434.14,395.55 434.75,395.55 435.36,395.55 435.96,387.87 436.57,387.87 437.18,387.87 437.79,387.87 438.39,382.67 439.00,382.67 439.61,382.67 440.21,382.67 440.82,382.67 441.43,380.73 442.04,380.73 442.64,380.73 443.25,380.73 443.86,381.80 444.46,381.80 445.07,381.80 445.68,381.80 446.29,381.80 446.89,377.78 447.50,377.78 448.11,377.78 448.71,377.78 449.32,379.37 449.93,379.37 450.54,379.37 451.14,379.37 451.75,389.18 452.36,389.18 452.96,389.18 453.57,389.18 454.18,382.13 454.79,382.13 455.39,382.13 456.00,382.13 456.61,382.13 457.21,394.76 457.82,394.76 458.43,394.76 459.04,394.76 459.64,396.71 460.25,396.71 460.86,396.71 461.46,396.71 462.07,397.31 462.68,397.31 463.29,397.31 463.89,397.31 464.50,397.31 465.11,411.89 465.71,411.89 466.32,411.89 466.93,411.89 467.54,420.26 468.14,420.26 468.75,420.26 469.36,420.26 469.96,420.26 470.57,422.32 471.18,422.32 471.79,422.32 472.39,422.32 473.00,410.90 473.61,410.90 474.21,410.90 474.82,410.90 475.43,409.92 476.04,409.92 476.64,409.92 477.25,409.92 477.86,409.92 478.46,401.13 479.07,401.13 479.68,401.13 480.29,401.13 480.89,393.21 481.50,393.21 482.11,393.21 482.71,393.21 483.32,387.76 483.93,387.76 484.54,387.76 485.14,387.76 485.75,387.76 486.36,383.77 486.96,383.77 487.57,383.77 488.18,383.77 488.79,379.62 489.39,379.62 490.00,379.62 490.61,379.62 491.21,382.57 491.82,382.57 492.43,382.57 493.04,382.57 493.64,382.57 494.25,378.56 494.86,378.56 495.46,378.56 496.07,378.56 496.68,374.87 497.29,374.87 497.89,374.87 498.50,374.87 499.11,371.63 499.71,371.63 500.32,371.63 500.93,371.63 501.54,371.63 502.14,372.00 502.75,372.00 503.36,372.00 503.96,372.00 504.57,379.44 505.18,379.44 505.79,379.44 506.39,379.44 507.00,372.88 507.61,372.88 508.21,372.88 508.82,372.88 509.43,372.88 510.04,373.51 510.64,373.51 511.25,373.51 511.86,373.51 512.46,384.31 513.07,384.31 513.68,384.31 514.29,384.31 514.89,388.62 515.50,388.62 516.11,388.62 516.71,388.62 517.32,388.62 517.93,371.97 518.54,371.97 519.14,371.97 519.75,371.97 520.36,366.66 520.96,366.66 521.57,366.66 522.18,366.66 522.79,366.66 523.39,360.46 524.00,360.46 524.61,360.46 525.21,360.46 525.82,360.93 526.43,360.93 527.04,360.93 527.64,360.93 528.25,366.08 528.86,366.08 529.46,366.08 530.07,366.08 530.68,366.08 531.29,358.61 531.89,358.61 532.50,358.61 533.11,358.61 533.71,352.91 534.32,352.91 534.93,352.91 535.54,352.91 536.14,349.33 536.75,349.33 537.36,349.33 537.96,349.33 538.57,349.33 539.18,346.91 539.79,346.91 540.39,346.91 541.00,346.91 541.61,357.00 542.21,357.00 542.82,357.00 543.43,357.00 544.04,357.00 544.64,358.15 545.25,358.15 545.86,358.15 546.46,358.15 547.07,363.27 547.68,363.27 548.29,363.27 548.89,363.27 549.50,358.61 550.11,358.61 550.71,358.61 551.32,358.61 551.93,351.11 552.54,351.11 553.14,351.11 553.75,351.11 554.36,351.11 554.96,363.64 555.57,363.64 556.18,363.64 556.79,363.64 557.39,374.33 558.00,374.33 558.61,374.33 559.21,374.33 559.82,375.64 560.43,375.64 561.04,375.64 561.64,375.64 562.25,375.64 562.86,374.82 563.46,374.82 564.07,374.82 564.68,374.82 565.29,372.34 565.89,372.34 566.50,372.34 567.11,372.34 567.71,372.34 568.32,370.66 568.93,370.66 569.54,370.66 570.14,370.66 570.75,383.38 571.36,383.38 571.96,383.38 572.57,383.38 573.18,385.45 573.79,385.45 574.39,385.45 575.00,385.45 575.61,385.45 576.21,393.74 576.82,393.74 577.43,393.74 578.04,393.74 578.64,389.78 579.25,389.78 579.86,389.78 580.46,389.78 581.07,397.01 581.68,397.01 582.29,397.01 582.89,397.01 583.50,425.58 584.11,425.58 584.71,425.58 585.32,425.58 585.93,425.58 586.54,427.03 587.14,427.03 587.75,427.03 588.36,427.03 588.96,426.63 589.57,426.63 590.18,426.63 590.79,426.63 591.39,426.63 592.00,419.93 592.61,419.93 593.21,419.93 593.82,419.93 594.43,406.36 595.04,406.36 595.64,406.36 596.25,406.36 596.86,401.35 597.46,401.35 598.07,401.35 598.68,401.35 599.29,401.35 599.89,401.60 600.50,401.60 601.11,401.60 601.71,401.60 602.32,386.12 602.93,386.12 603.54,386.12 604.14,386.12 604.75,377.36 605.36,377.36 605.96,377.36 606.57,377.36 607.18,377.36 607.79,368.48 608.39,368.48 609.00,368.48 609.61,368.48 610.21,362.56 610.82,362.56 611.43,362.56 612.04,362.56 612.64,354.72 613.25,354.72 613.86,354.72 614.46,354.72 615.07,354.72 615.68,357.92 616.29,357.92 616.89,357.92 617.50,357.92 618.11,362.28 618.71,362.28 619.32,362.28 619.93,362.28 620.54,363.97 621.14,363.97 621.75,363.97 622.36,363.97 622.96,363.97 623.57,368.17 624.18,368.17 624.79,368.17 625.39,368.17 626.00,363.03 626.61,363.03 627.21,363.03 627.82,363.03 628.43,368.05 629.04,368.05 629.64,368.05 630.25,368.05 630.86,368.05 631.46,379.14 632.07,379.14 632.68,379.14 633.29,379.14 633.89,363.57 634.50,363.57 635.11,363.57 635.71,363.57 636.32,363.57 636.93,354.04 637.54,354.04 638.14,354.04 638.75,354.04 639.36,349.78 639.96,349.78 640.57,349.78 641.18,349.78 641.79,344.29 642.39,344.29 643.00,344.29 643.61,344.29 644.21,344.29 644.82,341.91 645.43,341.91 646.04,341.91 646.64,341.91 647.25,344.29 647.86,344.29 648.46,344.29 649.07,344.29 649.68,343.64 650.29,343.64 650.89,343.64 651.50,343.64 652.11,343.64 652.71,345.38 653.32,345.38 653.93,345.38 654.54,345.38 655.14,337.23 655.75,337.23 656.36,337.23 656.96,337.23 657.57,340.63 658.18,340.63 658.79,340.63 659.39,340.63 660.00,340.63 660.61,340.20 661.21,340.20 661.82,340.20 662.43,340.20 663.04,328.76 663.64,328.76 664.25,328.76 664.86,328.76 665.46,323.93 666.07,323.93 666.68,323.93 667.29,323.93 667.89,323.93 668.50,322.15 669.11,322.15 669.71,322.15 670.32,322.15 670.93,330.59 671.54,330.59 672.14,330.59 672.75,330.59 673.36,334.31 673.96,334.31 674.57,334.31 675.18,334.31 675.79,334.31 676.39,338.71 677.00,338.71 677.61,338.71 678.21,338.71 678.82,345.38 679.43,345.38 680.04,345.38 680.64,345.38 681.25,350.67 681.86,350.67 682.46,350.67 683.07,350.67 683.68,350.67 684.29,348.45 684.89,348.45 685.50,348.45 686.11,348.45 686.71,352.91 687.32,352.91 687.93,352.91 688.54,352.91 689.14,352.91 689.75,348.89 690.36,348.89 690.96,348.89 691.57,348.89 692.18,339.78 692.79,339.78 693.39,339.78 694.00,339.78 694.61,357.00 695.21,357.00 695.82,357.00 696.43,357.00 697.04,357.00 697.64,374.16 698.25,374.16 698.86,374.16 699.46,374.16 700.07,370.90 700.68,370.90 701.29,370.90 701.89,370.90 702.50,377.46 703.11,377.46 703.71,377.46 704.32,377.46 704.93,367.69 705.54,367.69 706.14,367.69 706.75,367.69 707.36,367.69 707.96,379.95 708.57,379.95 709.18,379.95 709.79,379.95 710.39,387.11 711.00,387.11 711.61,387.11 712.21,387.11 712.82,387.11 713.43,386.80 714.04,386.80 714.64,386.80 715.25,386.80 715.86,415.80 716.46,415.80 717.07,415.80 717.68,415.80 718.29,425.67 718.89,425.67 719.50,425.67 720.11,425.67 720.71,425.67 721.32,451.35 721.93,451.35 722.54,451.35 723.14,451.35 723.75,446.86 724.36,446.86 724.96,446.86 725.57,446.86 726.18,439.25 726.79,439.25 727.39,439.25 728.00,439.25 728.61,439.25 729.21,454.98 729.82,454.98 730.43,454.98 731.04,454.98 731.64,436.59 732.25,436.59 732.86,436.59 733.46,436.59 734.07,436.59 734.68,413.49 735.29,413.49 735.89,413.49 736.50,413.49 737.11,402.99 737.71,402.99 738.32,402.99 738.93,402.99 739.54,400.38 740.14,400.38 740.75,400.38 741.36,400.38 741.96,385.99 742.57,385.99 743.18,385.99 743.79,385.99 744.39,385.99 745.00,380.10 745.61,380.10 746.21,380.10 746.82,380.10 747.43,379.87 748.04,379.87 748.64,379.87 749.25,379.87 749.86,397.66 750.46,397.66 751.07,397.66 751.68,397.66 752.29,397.66 752.89,400.52 753.50,400.52 754.11,400.52 754.71,400.52 755.32,389.99 755.93,389.99 756.54,389.99 757.14,389.99 757.75,389.99 758.36,386.07 758.96,386.07 759.57,386.07 760.18,386.07 760.79,389.65 761.39,389.65 762.00,389.65 762.61,389.65 763.21,369.08 763.82,369.08 764.43,369.08 765.04,369.08 765.64,369.08 766.25,360.23 766.86,360.23 767.46,360.23 768.07,360.23 768.68,359.07 769.29,359.07 769.89,359.07 770.50,359.07 771.11,357.23 771.71,357.23 772.32,357.23 772.93,357.23 773.54,357.23 774.14,358.84 774.75,358.84 775.36,358.84 775.96,358.84 776.57,357.46 777.18,357.46 777.79,357.46 778.39,357.46 779.00,352.01 779.61,352.01 780.21,352.01 780.82,352.01 781.43,352.01 782.04,354.04 782.64,354.04 783.25,354.04 783.86,354.04 784.46,349.11 785.07,349.11 785.68,349.11 786.29,349.11 786.89,357.23 787.50,357.23 788.11,357.23 788.71,357.23 789.32,357.23 789.93,358.84 790.54,358.84 791.14,358.84 791.75,358.84 792.36,350.89 792.96,350.89 793.57,350.89 794.18,350.89 794.79,350.89 795.39,352.91 796.00,352.91 796.61,352.91 797.21,352.91 797.82,359.30 798.43,359.30 799.04,359.30 799.64,359.30 800.25,360.23 800.86,360.23 801.46,360.23 802.07,360.23 802.68,363.86 803.29,363.86 803.89,363.86 804.50,363.86 805.11,363.86 805.71,364.54 806.32,364.54 806.93,364.54 807.54,364.54 808.14,363.29 808.75,363.29 809.36,363.29 809.96,363.29 810.57,361.16 811.18,361.16 811.79,361.16 812.39,361.16 813.00,361.16 813.61,366.94 814.21,366.94 814.82,366.94 815.43,366.94 816.04,370.61 816.64,370.61 817.25,370.61 817.86,370.61 818.46,370.61 819.07,376.73 819.68,376.73 820.29,376.73 820.89,376.73 821.50,375.39 822.11,375.39 822.71,375.39 823.32,375.39 823.93,376.53 824.54,376.53 825.14,376.53 825.75,376.53 826.36,376.53 826.96,385.60 827.57,385.60 828.18,385.60 828.79,385.60 829.39,388.91 830.00,388.91 830.61,388.91 831.21,388.91 831.82,389.33 832.43,389.33 833.04,389.33 833.64,389.33 834.25,389.33 834.86,379.32 835.46,379.32 836.07,379.32 836.68,379.32 837.29,367.76 837.89,367.76 838.50,367.76 839.11,367.76 839.71,367.16 840.32,367.16 840.93,367.16 841.54,367.16 842.14,367.16 842.75,368.29 843.36,368.29 843.96,368.29 844.57,368.29 845.18,352.68 845.79,352.68 846.39,352.68 847.00,352.68 847.61,352.68 848.21,352.68 848.82,352.68 849.43,352.68 850.04,352.68 850.64,360.23 851.25,360.23 851.86,360.23 852.46,360.23 853.07,374.33 853.68,374.33 854.29,374.33 854.89,374.33 855.50,370.90 856.11,370.90 856.71,370.90 857.32,370.90 857.93,370.90 858.54,362.30 859.14,362.30 859.75,362.30 860.36,362.30 860.96,365.80 861.57,365.80 862.18,365.80 862.79,365.80 863.39,361.39 864.00,361.39 864.61,361.39 865.21,361.39 865.82,361.39 866.43,356.77 867.04,356.77 867.64,356.77 868.25,356.77 868.86,362.26 869.46,362.26 870.07,362.26 870.68,362.26 871.29,357.69 871.89,357.69 872.50,357.69 873.11,357.69 873.71,357.69 874.32,355.40 874.93,355.40 875.54,355.40 876.14,355.40 876.75,344.94 877.36,344.94 877.96,344.94 878.57,344.94 879.18,344.94 879.79,342.34 880.39,342.34 881.00,342.34 881.61,342.34 882.21,351.34 882.82,351.34 883.43,351.34 884.04,351.34 884.64,353.13 885.25,353.13 885.86,353.13 886.46,353.13 887.07,353.13 887.68,344.07 888.29,344.07 888.89,344.07 889.50,344.07 890.11,337.45 890.71,337.45 891.32,337.45 891.93,337.45 892.54,328.35 893.14,328.35 893.75,328.35 894.36,328.35 894.96,328.35 895.57,350.89 896.18,350.89 896.79,350.89 897.39,350.89 898.00,354.72 898.61,354.72 899.21,354.72 899.82,354.72 900.43,344.29 901.04,344.29 901.64,344.29 902.25,344.29 902.86,344.29 903.46,329.78 904.07,329.78 904.68,329.78 905.29,329.78 905.89,319.40 906.50,319.40 907.11,319.40 907.71,319.40 908.32,312.30 908.93,312.30 909.54,312.30 910.14,312.30 910.75,312.30 911.36,306.69 911.96,306.69 912.57,306.69 913.18,306.69 913.79,299.95 914.39,299.95 915.00,299.95 915.61,299.95 916.21,299.95 916.82,290.28 917.43,290.28 918.04,290.28 918.64,290.28 919.25,294.10 919.86,294.10 920.46,294.10 921.07,294.10 921.68,294.97 922.29,294.97 922.89,294.97 923.50,294.97 924.11,294.97 924.71,303.20 925.32,303.20 925.93,303.20 926.54,303.20 927.14,294.62 927.75,294.62 928.36,294.62 928.96,294.62 929.57,292.53 930.18,292.53 930.79,292.53 931.39,292.53 932.00,297.27 932.61,297.27 933.21,297.27 933.82,297.27 934.43,297.27 935.04,296.21 935.64,296.21 936.25,296.21 936.86,296.21 937.46,301.93 938.07,301.93 938.68,301.93 939.29,301.93 939.89,301.93 940.50,301.03 941.11,301.03 941.71,301.03 942.32,301.03 942.93,322.35 943.54,322.35 944.14,322.35 944.75,322.35 945.36,319.40 945.96,319.40 946.57,319.40 947.18,319.40 947.79,319.40 948.39,313.43 949.00,313.43 949.61,313.43 950.21,313.43 950.82,311.73 951.43,311.73 952.04,311.73 952.64,311.73 953.25,324.33 953.86,324.33 954.46,324.33 955.07,324.33 955.68,324.33 956.29,329.98 956.89,329.98 957.50,329.98 958.11,329.98 958.71,337.66 959.32,337.66 959.93,337.66 960.54,337.66 961.14,326.33 961.75,326.33 962.36,326.33 962.96,326.33 963.57,326.33 964.18,326.13 964.79,326.13 965.39,326.13 966.00,326.13 966.61,339.99 967.21,339.99 967.82,339.99 968.43,339.99 969.04,340.63 969.64,340.63 970.25,340.63 970.86,340.63 971.46,340.63 972.07,339.99 972.68,339.99 973.29,339.99 973.89,339.99 974.50,314.39 975.11,314.39 975.71,314.39 976.32,314.39 976.93,295.50 977.54,295.50 978.14,295.50 978.75,295.50 979.36,295.50 979.96,286.18 980.57,286.18 981.18,286.18 981.79,286.18 982.39,283.99 983.00,283.99 983.61,283.99 984.21,283.99 984.82,283.99 985.43,275.92 986.04,275.92 986.64,275.92 987.25,275.92 987.86,271.90 988.46,271.90 989.07,271.90 989.68,271.90 990.29,263.92 990.89,263.92 991.50,263.92 992.11,263.92 992.71,255.16 993.32,255.16 993.93,255.16 994.54,255.16 995.14,255.16 995.75,245.87 996.36,245.87 996.96,245.87 997.57,245.87 998.18,242.61 998.79,242.61 999.39,242.61 1000.00,242.61 1000.61,241.77 1001.21,241.77 1001.82,241.77 1002.43,241.77 1003.04,241.77 1003.64,248.30 1004.25,248.30 1004.86,248.30 1005.46,248.30 1006.07,241.49 1006.68,241.49 1007.29,241.49 1007.89,241.49 1008.50,241.49 1009.11,240.79 1009.71,240.79 1010.32,240.79 1010.93,240.79 1011.54,244.30 1012.14,244.30 1012.75,244.30 1013.36,244.30 1013.96,245.44 1014.57,245.44 1015.18,245.44 1015.79,245.44 1016.39,245.44 1017.00,242.61 1017.61,242.61 1018.21,242.61 1018.82,242.61 1019.43,255.76 1020.04,255.76 1020.64,255.76 1021.25,255.76 1021.86,255.61 1022.46,255.61 1023.07,255.61 1023.68,255.61 1024.29,255.61 1024.89,255.31 1025.50,255.31 1026.11,255.31 1026.71,255.31 1027.32,256.80 1027.93,256.80 1028.54,256.80 1029.14,256.80 1029.75,262.08 1030.36,262.08 1030.96,262.08 1031.57,262.08 1032.18,262.08 1032.79,265.15 1033.39,265.15 1034.00,265.15 1034.61,265.15 1035.21,245.44 1035.82,245.44 1036.43,245.44 1037.04,245.44 1037.64,245.44 1038.25,243.03 1038.86,243.03 1039.46,243.03 1040.07,243.03 1040.68,244.87 1041.29,244.87 1041.89,244.87 1042.50,244.87 1043.11,242.75 1043.71,242.75 1044.32,242.75 1044.93,242.75 1045.54,242.75 1046.14,245.30 1046.75,245.30 1047.36,245.30 1047.96,245.30 1048.57,235.42 1049.18,235.42 1049.79,235.42 1050.39,235.42 1051.00,223.09 1051.61,223.09 1052.21,223.09 1052.82,223.09 1053.43,225.03 1054.04,225.03 1054.64,225.03 1055.25,225.03 1055.86,225.03 1056.46,223.47 1057.07,223.47 1057.68,223.47 1058.29,223.47 1058.89,217.97 1059.50,217.97 1060.11,217.97 1060.71,217.97 1061.32,217.97 1061.93,212.97 1062.54,212.97 1063.14,212.97 1063.75,212.97 1064.36,208.56 1064.96,208.56 1065.57,208.56 1066.18,208.56 1066.79,213.72 1067.39,213.72 1068.00,213.72 1068.61,213.72 1069.21,213.72 1069.82,218.99 1070.43,218.99 1071.04,218.99 1071.64,218.99 1072.25,216.34 1072.86,216.34 1073.46,216.34 1074.07,216.34 1074.68,202.57 1075.29,202.57 1075.89,202.57 1076.50,202.57 1077.11,202.57 1077.71,191.25 1078.32,191.25 1078.93,191.25 1079.54,191.25 1080.14,190.24 1080.75,190.24 1081.36,190.24 1081.96,190.24 1082.57,190.24 1083.18,177.99 1083.79,177.99 1084.39,177.99 1085.00,177.99 1085.61,164.64 1086.21,164.64 1086.82,164.64 1087.43,164.64 1088.04,158.97 1088.64,158.97 1089.25,158.97 1089.86,158.97 1090.46,158.48 1091.07,158.48 1091.68,158.48 1092.29,158.48 1092.89,158.48 1093.50,151.91 1094.11,151.91 1094.71,151.91 1095.32,151.91 1095.93,156.82 1096.54,156.82 1097.14,156.82 1097.75,156.82 1098.36,152.20 1098.96,152.20 1099.57,152.20 1100.18,152.20 1100.79,152.20 1101.39,158.68 1102.00,158.68 1102.61,158.68 1103.21,158.68 1103.82,159.56 1104.43,159.56 1105.04,159.56 1105.64,159.56 1106.25,159.56 1106.86,152.10 1107.46,152.10 1108.07,152.10 1108.68,152.10 1109.29,148.79 1109.89,148.79 1110.50,148.79 1111.11,148.79 1111.71,134.30 1112.32,134.30 1112.93,134.30 1113.54,134.30 1114.14,134.30 1114.75,120.24 1115.36,120.24 1115.96,120.24 1116.57,120.24 1117.18,110.78 1117.79,110.78 1118.39,110.78 1119.00,110.78 1119.61,113.35 1120.21,113.35 1120.82,113.35 1121.43,113.35 1122.04,113.51 1122.64,113.51 1123.25,113.51 1123.86,113.51 1124.46,113.51 1125.07,103.78 1125.68,103.78 1126.29,103.78 1126.89,103.78 1127.50,97.13 1128.11,97.13 1128.71,97.13 1129.32,97.13 1129.93,97.13 1130.54,83.01 1131.14,83.01 1131.75,83.01 1132.36,83.01 1132.96,90.73 1133.57,90.73 1134.18,90.73 1134.79,90.73 1135.39,120.82 1136.00,120.82 1136.61,120.82 1137.21,120.82 1137.82,120.82 1138.43,152.20 1139.04,152.20 1139.64,152.20 1140.25,152.20 1140.86,156.04 1141.46,156.04 1142.07,156.04 1142.68,156.04 1143.29,147.01 1143.89,147.01 1144.50,147.01 1145.11,147.01 1145.71,147.01 1146.32,140.02 1146.93,140.02 1147.54,140.02 1148.14,140.02 1148.75,133.24 1149.36,133.24 1149.96,133.24 1150.57,133.24 1151.18,135.98 1151.79,135.98 1152.39,135.98 1153.00,135.98 1153.61,135.98 1154.21,141.84 1154.82,141.84 1155.43,141.84 1156.04,141.84 1156.64,128.88 1157.25,128.88 1157.86,128.88 1158.46,128.88 1159.07,130.27 1159.68,130.27 1160.29,130.27 1160.89,130.27 1161.50,130.27 1162.11,135.01 1162.71,135.01 1163.32,135.01 1163.93,135.01 1164.54,131.23 1165.14,131.23 1165.75,131.23 1166.36,131.23 1166.96,131.23 1167.57,123.17 1168.18,123.17 1168.79,123.17 1169.39,123.17 1170.00,128.62 1170.61,128.62 1171.21,128.62 1171.82,128.62 1172.43,123.93 1173.04,123.93 1173.64,123.93 1174.25,123.93 1174.86,123.93 1175.46,116.52 1176.07,116.52 1176.68,116.52 1177.29,116.52 1177.89,109.59 1178.50,109.59 1179.11,109.59 1179.71,109.59 1180.32,110.62 1180.93,110.62 1181.54,110.62 1182.14,110.62 1182.75,110.62 1183.36,103.08 1183.96,103.08 1184.57,103.08 1185.18,103.08 1185.79,94.28 1186.39,94.28 1187.00,94.28 1187.61,94.28 1188.21,87.09 1188.82,87.09 1189.43,87.09 1190.04,87.09 1190.64,87.09 1191.25,81.25 1191.86,81.25 1192.46,81.25 1193.07,81.25 1193.68,71.12 1194.29,71.12 1194.89,71.12 1195.50,71.12 1196.11,70.65 1196.71,70.65 1197.32,70.65 1197.93,70.65 1198.54,70.65 1199.14,70.58 1199.75,70.58 1200.36,70.58 1200.96,70.58 1201.57,75.47 1202.18,75.47 1202.79,75.47 1203.39,75.47 1204.00,69.77 1204.61,69.77 1205.21,69.77 1205.82,69.77 1206.43,69.77 1207.04,75.63 1207.64,75.63 1208.25,75.63 1208.86,75.63 1209.46,82.27 1210.07,82.27 1210.68,82.27 1211.29,82.27 1211.89,76.67 1212.50,76.67 1213.11,76.67 1213.71,76.67 1214.32,76.67 1214.93,76.87 1215.54,76.87 1216.14,76.87 1216.75,76.87 1217.36,68.67 1217.96,68.67 1218.57,68.67 1219.18,68.67 1219.79,62.00 1220.39,62.00 1221.00,62.00 1221.61,62.00 1222.21,62.00 1222.82,62.23 1223.43,62.23 1224.04,62.23 1224.64,62.23 1225.25,82.06 1225.86,82.06 1226.46,82.06 1227.07,82.06 1227.68,82.06 1228.29,93.16 1228.89,93.16 1229.50,93.16 1230.11,93.16 1230.71,99.38 1231.32,99.38 1231.93,99.38 1232.54,99.38 1233.14,93.25 1233.75,93.25 1234.36,93.25 1234.96,93.25 1235.57,93.25 1236.18,83.48 1236.79,83.48 1237.39,83.48 1238.00,83.48"/>
<polyline fill="none" stroke="#c1121f" stroke-width="3" stroke-linejoin="round" stroke-linecap="round" points="82.00,618.80 82.61,618.80 83.21,618.80 83.82,618.80 84.43,618.80 85.04,606.62 85.64,606.62 86.25,606.62 86.86,606.62 87.46,610.97 88.07,610.97 88.68,610.97 89.29,610.97 89.89,617.35 90.50,617.35 91.11,617.35 91.71,617.35 92.32,617.35 92.93,617.93 93.54,617.93 94.14,617.93 94.75,617.93 95.36,604.88 95.96,604.88 96.57,604.88 97.18,604.88 97.79,604.88 98.39,601.69 99.00,601.69 99.61,601.69 100.21,601.69 100.82,604.59 101.43,604.59 102.04,604.59 102.64,604.59 103.25,602.85 103.86,602.85 104.46,602.85 105.07,602.85 105.68,600.53 106.29,600.53 106.89,600.53 107.50,600.53 108.11,600.53 108.71,600.53 109.32,600.53 109.93,600.53 110.54,600.53 111.14,594.44 111.75,594.44 112.36,594.44 112.96,594.44 113.57,593.28 114.18,593.28 114.79,593.28 115.39,593.28 116.00,593.28 116.61,585.16 117.21,585.16 117.82,585.16 118.43,585.16 119.04,578.78 119.64,578.78 120.25,578.78 120.86,578.78 121.46,578.78 122.07,577.04 122.68,577.04 123.29,577.04 123.89,577.04 124.50,573.85 125.11,573.85 125.71,573.85 126.32,573.85 126.93,570.08 127.54,570.08 128.14,570.08 128.75,570.08 129.36,570.08 129.96,570.95 130.57,570.95 131.18,570.95 131.79,570.95 132.39,569.50 133.00,569.50 133.61,569.50 134.21,569.50 134.82,569.50 135.43,569.50 136.04,569.50 136.64,569.50 137.25,569.50 137.86,566.02 138.46,566.02 139.07,566.02 139.68,566.02 140.29,562.25 140.89,562.25 141.50,562.25 142.11,562.25 142.71,563.41 143.32,563.41 143.93,563.41 144.54,563.41 145.14,563.41 145.75,562.25 146.36,562.25 146.96,562.25 147.57,562.25 148.18,562.83 148.79,562.83 149.39,562.83 150.00,562.83 150.61,562.83 151.21,556.45 151.82,556.45 152.43,556.45 153.04,556.45 153.64,556.16 154.25,556.16 154.86,556.16 155.46,556.16 156.07,558.48 156.68,558.48 157.29,558.48 157.89,558.48 158.50,558.48 159.11,556.74 159.71,556.74 160.32,556.74 160.93,556.74 161.54,559.64 162.14,559.64 162.75,559.64 163.36,559.64 163.96,555.00 164.57,555.00 165.18,555.00 165.79,555.00 166.39,556.16 167.00,556.16 167.61,556.16 168.21,556.16 168.82,556.16 169.43,555.00 170.04,555.00 170.64,555.00 171.25,555.00 171.86,555.00 172.46,555.00 173.07,555.00 173.68,555.00 174.29,555.00 174.89,555.00 175.50,555.00 176.11,555.00 176.71,555.00 177.32,555.29 177.93,555.29 178.54,555.29 179.14,555.29 179.75,548.04 180.36,548.04 180.96,548.04 181.57,548.04 182.18,548.04 182.79,541.37 183.39,541.37 184.00,541.37 184.61,541.37 185.21,540.50 185.82,540.50 186.43,540.50 187.04,540.50 187.64,546.88 188.25,546.88 188.86,546.88 189.46,546.88 190.07,546.88 190.68,555.58 191.29,555.58 191.89,555.58 192.50,555.58 193.11,563.12 193.71,563.12 194.32,563.12 194.93,563.12 195.54,563.12 196.14,593.57 196.75,593.57 197.36,593.57 197.96,593.57 198.57,607.20 199.18,607.20 199.79,607.20 200.39,607.20 201.00,605.46 201.61,605.46 202.21,605.46 202.82,605.46 203.43,623.73 204.04,623.73 204.64,623.73 205.25,623.73 205.86,623.73 206.46,615.03 207.07,615.03 207.68,615.03 208.29,615.03 208.89,622.28 209.50,622.28 210.11,622.28 210.71,622.28 211.32,597.63 211.93,597.63 212.54,597.63 213.14,597.63 213.75,597.63 214.36,590.96 214.96,590.96 215.57,590.96 216.18,590.96 216.79,589.80 217.39,589.80 218.00,589.80 218.61,589.80 219.21,589.80 219.82,576.17 220.43,576.17 221.04,576.17 221.64,576.17 222.25,571.82 222.86,571.82 223.46,571.82 224.07,571.82 224.68,570.08 225.29,570.08 225.89,570.08 226.50,570.08 227.11,570.08 227.71,571.53 228.32,571.53 228.93,571.53 229.54,571.53 230.14,560.80 230.75,560.80 231.36,560.80 231.96,560.80 232.57,556.16 233.18,556.16 233.79,556.16 234.39,556.16 235.00,557.90 235.61,557.90 236.21,557.90 236.82,557.90 237.43,557.90 238.04,543.69 238.64,543.69 239.25,543.69 239.86,543.69 240.46,541.37 241.07,541.37 241.68,541.37 242.29,541.37 242.89,541.37 243.50,540.50 244.11,540.50 244.71,540.50 245.32,540.50 245.93,532.96 246.54,532.96 247.14,532.96 247.75,532.96 248.36,526.58 248.96,526.58 249.57,526.58 250.18,526.58 250.79,526.58 251.39,526.00 252.00,526.00 252.61,526.00 253.21,526.00 253.82,526.29 254.43,526.29 255.04,526.29 255.64,526.29 256.25,526.29 256.86,526.29 257.46,526.29 258.07,526.29 258.68,526.29 259.29,526.87 259.89,526.87 260.50,526.87 261.11,526.87 261.71,530.64 262.32,530.64 262.93,530.64 263.54,530.64 264.14,528.32 264.75,528.32 265.36,528.32 265.96,528.32 266.57,528.32 267.18,530.35 267.79,530.35 268.39,530.35 269.00,530.35 269.61,545.72 270.21,545.72 270.82,545.72 271.43,545.72 272.04,548.33 272.64,548.33 273.25,548.33 273.86,548.33 274.46,548.33 275.07,555.58 275.68,555.58 276.29,555.58 276.89,555.58 277.50,566.60 278.11,566.60 278.71,566.60 279.32,566.60 279.93,566.60 280.54,570.37 281.14,570.37 281.75,570.37 282.36,570.37 282.96,571.24 283.57,571.24 284.18,571.24 284.79,571.24 285.39,584.58 286.00,584.58 286.61,584.58 287.21,584.58 287.82,584.58 288.43,599.95 289.04,599.95 289.64,599.95 290.25,599.95 290.86,568.34 291.46,568.34 292.07,568.34 292.68,568.34 293.29,583.42 293.89,583.42 294.50,583.42 295.11,583.42 295.71,583.42 296.32,598.79 296.93,598.79 297.54,598.79 298.14,598.79 298.75,584.58 299.36,584.58 299.96,584.58 300.57,584.58 301.18,591.83 301.79,591.83 302.39,591.83 303.00,591.83 303.61,591.83 304.21,608.07 304.82,608.07 305.43,608.07 306.04,608.07 306.64,584.00 307.25,584.00 307.86,584.00 308.46,584.00 309.07,587.48 309.68,587.48 310.29,587.48 310.89,587.48 311.50,587.48 312.11,576.46 312.71,576.46 313.32,576.46 313.93,576.46 314.54,566.31 315.14,566.31 315.75,566.31 316.36,566.31 316.96,574.43 317.57,574.43 318.18,574.43 318.79,574.43 319.39,574.43 320.00,579.65 320.61,579.65 321.21,579.65 321.82,579.65 322.43,573.27 323.04,573.27 323.64,573.27 324.25,573.27 324.86,559.35 325.46,559.35 326.07,559.35 326.68,559.35 327.29,559.35 327.89,561.38 328.50,561.38 329.11,561.38 329.71,561.38 330.32,573.56 330.93,573.56 331.54,573.56 332.14,573.56 332.75,564.28 333.36,564.28 333.96,564.28 334.57,564.28 335.18,564.28 335.79,563.41 336.39,563.41 337.00,563.41 337.61,563.41 338.21,557.03 338.82,557.03 339.43,557.03 340.04,557.03 340.64,557.03 341.25,557.90 341.86,557.90 342.46,557.90 343.07,557.90 343.68,557.90 344.29,557.90 344.89,557.90 345.50,557.90 346.11,556.74 346.71,556.74 347.32,556.74 347.93,556.74 348.54,556.74 349.14,557.03 349.75,557.03 350.36,557.03 350.96,557.03 351.57,557.32 352.18,557.32 352.79,557.32 353.39,557.32 354.00,555.00 354.61,555.00 355.21,555.00 355.82,555.00 356.43,555.58 357.04,555.58 357.64,555.58 358.25,555.58 358.86,555.58 359.46,557.90 360.07,557.90 360.68,557.90 361.29,557.90 361.89,555.00 362.50,555.00 363.11,555.00 363.71,555.00 364.32,555.00 364.93,555.29 365.54,555.29 366.14,555.29 366.75,555.29 367.36,554.42 367.96,554.42 368.57,554.42 369.18,554.42 369.79,540.79 370.39,540.79 371.00,540.79 371.61,540.79 372.21,540.79 372.82,541.08 373.43,541.08 374.04,541.08 374.64,541.08 375.25,540.50 375.86,540.50 376.46,540.50 377.07,540.50 377.68,541.08 378.29,541.08 378.89,541.08 379.50,541.08 380.11,541.08 380.71,543.98 381.32,543.98 381.93,543.98 382.54,543.98 383.14,541.08 383.75,541.08 384.36,541.08 384.96,541.08 385.57,541.08 386.18,541.08 386.79,541.08 387.39,541.08 388.00,541.08 388.61,542.53 389.21,542.53 389.82,542.53 390.43,542.53 391.04,541.37 391.64,541.37 392.25,541.37 392.86,541.37 393.46,540.50 394.07,540.50 394.68,540.50 395.29,540.50 395.89,540.50 396.50,540.50 397.11,540.50 397.71,540.50 398.32,540.50 398.93,542.82 399.54,542.82 400.14,542.82 400.75,542.82 401.36,542.82 401.96,540.50 402.57,540.50 403.18,540.50 403.79,540.50 404.39,541.95 405.00,541.95 405.61,541.95 406.21,541.95 406.82,544.56 407.43,544.56 408.04,544.56 408.64,544.56 409.25,544.56 409.86,539.92 410.46,539.92 411.07,539.92 411.68,539.92 412.29,530.35 412.89,530.35 413.50,530.35 414.11,530.35 414.71,528.90 415.32,528.90 415.93,528.90 416.54,528.90 417.14,528.90 417.75,526.58 418.36,526.58 418.96,526.58 419.57,526.58 420.18,524.55 420.79,524.55 421.39,524.55 422.00,524.55 422.61,523.39 423.21,523.39 423.82,523.39 424.43,523.39 425.04,523.39 425.64,523.10 426.25,523.10 426.86,523.10 427.46,523.10 428.07,524.55 428.68,524.55 429.29,524.55 429.89,524.55 430.50,523.39 431.11,523.39 431.71,523.39 432.32,523.39 432.93,523.39 433.54,522.52 434.14,522.52 434.75,522.52 435.36,522.52 435.96,525.42 436.57,525.42 437.18,525.42 437.79,525.42 438.39,523.68 439.00,523.68 439.61,523.68 440.21,523.68 440.82,523.68 441.43,523.10 442.04,523.10 442.64,523.10 443.25,523.10 443.86,516.72 444.46,516.72 445.07,516.72 445.68,516.72 446.29,516.72 446.89,513.82 447.50,513.82 448.11,513.82 448.71,513.82 449.32,508.60 449.93,508.60 450.54,508.60 451.14,508.60 451.75,506.86 452.36,506.86 452.96,506.86 453.57,506.86 454.18,506.57 454.79,506.57 455.39,506.57 456.00,506.57 456.61,506.57 457.21,499.90 457.82,499.90 458.43,499.90 459.04,499.90 459.64,492.07 460.25,492.07 460.86,492.07 461.46,492.07 462.07,488.30 462.68,488.30 463.29,488.30 463.89,488.30 464.50,488.30 465.11,481.63 465.71,481.63 466.32,481.63 466.93,481.63 467.54,485.40 468.14,485.40 468.75,485.40 469.36,485.40 469.96,485.40 470.57,481.63 471.18,481.63 471.79,481.63 472.39,481.63 473.00,474.96 473.61,474.96 474.21,474.96 474.82,474.96 475.43,485.40 476.04,485.40 476.64,485.40 477.25,485.40 477.86,485.40 478.46,498.74 479.07,498.74 479.68,498.74 480.29,498.74 480.89,497.00 481.50,497.00 482.11,497.00 482.71,497.00 483.32,510.63 483.93,510.63 484.54,510.63 485.14,510.63 485.75,510.63 486.36,524.55 486.96,524.55 487.57,524.55 488.18,524.55 488.79,527.74 489.39,527.74 490.00,527.74 490.61,527.74 491.21,526.58 491.82,526.58 492.43,526.58 493.04,526.58 493.64,526.58 494.25,532.09 494.86,532.09 495.46,532.09 496.07,532.09 496.68,528.90 497.29,528.90 497.89,528.90 498.50,528.90 499.11,526.29 499.71,526.29 500.32,526.29 500.93,526.29 501.54,526.29 502.14,529.48 502.75,529.48 503.36,529.48 503.96,529.48 504.57,522.23 505.18,522.23 505.79,522.23 506.39,522.23 507.00,511.21 507.61,511.21 508.21,511.21 508.82,511.21 509.43,511.21 510.04,508.31 510.64,508.31 511.25,508.31 511.86,508.31 512.46,505.41 513.07,505.41 513.68,505.41 514.29,505.41 514.89,495.55 515.50,495.55 516.11,495.55 516.71,495.55 517.32,495.55 517.93,474.96 518.54,474.96 519.14,474.96 519.75,474.96 520.36,464.52 520.96,464.52 521.57,464.52 522.18,464.52 522.79,464.52 523.39,465.97 524.00,465.97 524.61,465.97 525.21,465.97 525.82,467.13 526.43,467.13 527.04,467.13 527.64,467.13 528.25,467.13 528.86,467.13 529.46,467.13 530.07,467.13 530.68,467.13 531.29,474.38 531.89,474.38 532.50,474.38 533.11,474.38 533.71,470.61 534.32,470.61 534.93,470.61 535.54,470.61 536.14,473.22 536.75,473.22 537.36,473.22 537.96,473.22 538.57,473.22 539.18,467.42 539.79,467.42 540.39,467.42 541.00,467.42 541.61,459.30 542.21,459.30 542.82,459.30 543.43,459.30 544.04,459.30 544.64,450.31 545.25,450.31 545.86,450.31 546.46,450.31 547.07,445.09 547.68,445.09 548.29,445.09 548.89,445.09 549.50,427.11 550.11,427.11 550.71,427.11 551.32,427.11 551.93,390.57 552.54,390.57 553.14,390.57 553.75,390.57 554.36,390.57 554.96,383.90 555.57,383.90 556.18,383.90 556.79,383.90 557.39,392.31 558.00,392.31 558.61,392.31 559.21,392.31 559.82,375.49 560.43,375.49 561.04,375.49 561.64,375.49 562.25,375.49 562.86,376.65 563.46,376.65 564.07,376.65 564.68,376.65 565.29,381.00 565.89,381.00 566.50,381.00 567.11,381.00 567.71,381.00 568.32,385.35 568.93,385.35 569.54,385.35 570.14,385.35 570.75,381.87 571.36,381.87 571.96,381.87 572.57,381.87 573.18,381.58 573.79,381.58 574.39,381.58 575.00,381.58 575.61,381.58 576.21,381.58 576.82,381.58 577.43,381.58 578.04,381.58 578.64,416.96 579.25,416.96 579.86,416.96 580.46,416.96 581.07,407.10 581.68,407.10 582.29,407.10 582.89,407.10 583.50,411.45 584.11,411.45 584.71,411.45 585.32,411.45 585.93,411.45 586.54,421.31 587.14,421.31 587.75,421.31 588.36,421.31 588.96,432.91 589.57,432.91 590.18,432.91 590.79,432.91 591.39,432.91 592.00,450.02 592.61,450.02 593.21,450.02 593.82,450.02 594.43,459.59 595.04,459.59 595.64,459.59 596.25,459.59 596.86,462.20 597.46,462.20 598.07,462.20 598.68,462.20 599.29,462.20 599.89,479.60 600.50,479.60 601.11,479.60 601.71,479.60 602.32,499.90 602.93,499.90 603.54,499.90 604.14,499.90 604.75,521.94 605.36,521.94 605.96,521.94 606.57,521.94 607.18,521.94 607.79,534.12 608.39,534.12 609.00,534.12 609.61,534.12 610.21,534.41 610.82,534.41 611.43,534.41 612.04,534.41 612.64,521.36 613.25,521.36 613.86,521.36 614.46,521.36 615.07,521.36 615.68,507.73 616.29,507.73 616.89,507.73 617.50,507.73 618.11,499.61 618.71,499.61 619.32,499.61 619.93,499.61 620.54,488.01 621.14,488.01 621.75,488.01 622.36,488.01 622.96,488.01 623.57,480.47 624.18,480.47 624.79,480.47 625.39,480.47 626.00,481.05 626.61,481.05 627.21,481.05 627.82,481.05 628.43,491.20 629.04,491.20 629.64,491.20 630.25,491.20 630.86,491.20 631.46,499.61 632.07,499.61 632.68,499.61 633.29,499.61 633.89,521.94 634.50,521.94 635.11,521.94 635.71,521.94 636.32,521.94 636.93,540.21 637.54,540.21 638.14,540.21 638.75,540.21 639.36,546.30 639.96,546.30 640.57,546.30 641.18,546.30 641.79,530.93 642.39,530.93 643.00,530.93 643.61,530.93 644.21,530.93 644.82,521.07 645.43,521.07 646.04,521.07 646.64,521.07 647.25,518.17 647.86,518.17 648.46,518.17 649.07,518.17 649.68,512.66 650.29,512.66 650.89,512.66 651.50,512.66 652.11,512.66 652.71,510.05 653.32,510.05 653.93,510.05 654.54,510.05 655.14,502.51 655.75,502.51 656.36,502.51 656.96,502.51 657.57,500.77 658.18,500.77 658.79,500.77 659.39,500.77 660.00,500.77 660.61,495.55 661.21,495.55 661.82,495.55 662.43,495.55 663.04,495.26 663.64,495.26 664.25,495.26 664.86,495.26 665.46,487.43 666.07,487.43 666.68,487.43 667.29,487.43 667.89,487.43 668.50,469.74 669.11,469.74 669.71,469.74 670.32,469.74 670.93,451.18 671.54,451.18 672.14,451.18 672.75,451.18 673.36,436.39 673.96,436.39 674.57,436.39 675.18,436.39 675.79,436.39 676.39,435.52 677.00,435.52 677.61,435.52 678.21,435.52 678.82,414.64 679.43,414.64 680.04,414.64 680.64,414.64 681.25,395.79 681.86,395.79 682.46,395.79 683.07,395.79 683.68,395.79 684.29,340.40 684.89,340.40 685.50,340.40 686.11,340.40 686.71,337.50 687.32,337.50 687.93,337.50 688.54,337.50 689.14,337.50 689.75,329.38 690.36,329.38 690.96,329.38 691.57,329.38 692.18,351.71 692.79,351.71 693.39,351.71 694.00,351.71 694.61,351.13 695.21,351.13 695.82,351.13 696.43,351.13 697.04,351.13 697.64,353.45 698.25,353.45 698.86,353.45 699.46,353.45 700.07,362.15 700.68,362.15 701.29,362.15 701.89,362.15 702.50,381.87 703.11,381.87 703.71,381.87 704.32,381.87 704.93,370.85 705.54,370.85 706.14,370.85 706.75,370.85 707.36,370.85 707.96,337.21 708.57,337.21 709.18,337.21 709.79,337.21 710.39,314.01 711.00,314.01 711.61,314.01 712.21,314.01 712.82,314.01 713.43,296.03 714.04,296.03 714.64,296.03 715.25,296.03 715.86,267.32 716.46,267.32 717.07,267.32 717.68,267.32 718.29,293.71 718.89,293.71 719.50,293.71 720.11,293.71 720.71,293.71 721.32,313.14 721.93,313.14 722.54,313.14 723.14,313.14 723.75,350.26 724.36,350.26 724.96,350.26 725.57,350.26 726.18,367.95 726.79,367.95 727.39,367.95 728.00,367.95 728.61,367.95 729.21,394.63 729.82,394.63 730.43,394.63 731.04,394.63 731.64,435.23 732.25,435.23 732.86,435.23 733.46,435.23 734.07,435.23 734.68,461.04 735.29,461.04 735.89,461.04 736.50,461.04 737.11,481.34 737.71,481.34 738.32,481.34 738.93,481.34 739.54,482.79 740.14,482.79 740.75,482.79 741.36,482.79 741.96,490.62 742.57,490.62 743.18,490.62 743.79,490.62 744.39,490.62 745.00,481.05 745.61,481.05 746.21,481.05 746.82,481.05 747.43,465.10 748.04,465.10 748.64,465.10 749.25,465.10 749.86,463.94 750.46,463.94 751.07,463.94 751.68,463.94 752.29,463.94 752.89,461.04 753.50,461.04 754.11,461.04 754.71,461.04 755.32,473.22 755.93,473.22 756.54,473.22 757.14,473.22 757.75,473.22 758.36,490.62 758.96,490.62 759.57,490.62 760.18,490.62 760.79,491.20 761.39,491.20 762.00,491.20 762.61,491.20 763.21,500.77 763.82,500.77 764.43,500.77 765.04,500.77 765.64,500.77 766.25,503.67 766.86,503.67 767.46,503.67 768.07,503.67 768.68,501.64 769.29,501.64 769.89,501.64 770.50,501.64 771.11,502.22 771.71,502.22 772.32,502.22 772.93,502.22 773.54,502.22 774.14,488.59 774.75,488.59 775.36,488.59 775.96,488.59 776.57,483.08 777.18,483.08 777.79,483.08 778.39,483.08 779.00,488.01 779.61,488.01 780.21,488.01 780.82,488.01 781.43,488.01 782.04,488.59 782.64,488.59 783.25,488.59 783.86,488.59 784.46,489.75 785.07,489.75 785.68,489.75 786.29,489.75 786.89,496.42 787.50,496.42 788.11,496.42 788.71,496.42 789.32,496.42 789.93,498.45 790.54,498.45 791.14,498.45 791.75,498.45 792.36,507.15 792.96,507.15 793.57,507.15 794.18,507.15 794.79,507.15 795.39,508.31 796.00,508.31 796.61,508.31 797.21,508.31 797.82,506.28 798.43,506.28 799.04,506.28 799.64,506.28 800.25,505.99 800.86,505.99 801.46,505.99 802.07,505.99 802.68,504.83 803.29,504.83 803.89,504.83 804.50,504.83 805.11,504.83 805.71,486.85 806.32,486.85 806.93,486.85 807.54,486.85 808.14,485.69 808.75,485.69 809.36,485.69 809.96,485.69 810.57,484.82 811.18,484.82 811.79,484.82 812.39,484.82 813.00,484.82 813.61,470.90 814.21,470.90 814.82,470.90 815.43,470.90 816.04,463.94 816.64,463.94 817.25,463.94 817.86,463.94 818.46,463.94 819.07,454.37 819.68,454.37 820.29,454.37 820.89,454.37 821.50,453.21 822.11,453.21 822.71,453.21 823.32,453.21 823.93,451.76 824.54,451.76 825.14,451.76 825.75,451.76 826.36,451.76 826.96,447.70 827.57,447.70 828.18,447.70 828.79,447.70 829.39,445.38 830.00,445.38 830.61,445.38 831.21,445.38 831.82,445.09 832.43,445.09 833.04,445.09 833.64,445.09 834.25,445.09 834.86,442.19 835.46,442.19 836.07,442.19 836.68,442.19 837.29,428.56 837.89,428.56 838.50,428.56 839.11,428.56 839.71,421.60 840.32,421.60 840.93,421.60 841.54,421.60 842.14,421.60 842.75,415.51 843.36,415.51 843.96,415.51 844.57,415.51 845.18,408.84 845.79,408.84 846.39,408.84 847.00,408.84 847.61,396.95 848.21,396.95 848.82,396.95 849.43,396.95 850.04,396.95 850.64,382.16 851.25,382.16 851.86,382.16 852.46,382.16 853.07,358.96 853.68,358.96 854.29,358.96 854.89,358.96 855.50,351.13 856.11,351.13 856.71,351.13 857.32,351.13 857.93,351.13 858.54,349.97 859.14,349.97 859.75,349.97 860.36,349.97 860.96,350.26 861.57,350.26 862.18,350.26 862.79,350.26 863.39,349.39 864.00,349.39 864.61,349.39 865.21,349.39 865.82,349.39 866.43,351.71 867.04,351.71 867.64,351.71 868.25,351.71 868.86,345.04 869.46,345.04 870.07,345.04 870.68,345.04 871.29,343.59 871.89,343.59 872.50,343.59 873.11,343.59 873.71,343.59 874.32,338.37 874.93,338.37 875.54,338.37 876.14,338.37 876.75,324.74 877.36,324.74 877.96,324.74 878.57,324.74 879.18,324.74 879.79,310.53 880.39,310.53 881.00,310.53 881.61,310.53 882.21,242.67 882.82,242.67 883.43,242.67 884.04,242.67 884.64,259.78 885.25,259.78 885.86,259.78 886.46,259.78 887.07,259.78 887.68,242.38 888.29,242.38 888.89,242.38 889.50,242.38 890.11,241.22 890.71,241.22 891.32,241.22 891.93,241.22 892.54,232.23 893.14,232.23 893.75,232.23 894.36,232.23 894.96,232.23 895.57,143.49 896.18,143.49 896.79,143.49 897.39,143.49 898.00,131.31 898.61,131.31 899.21,131.31 899.82,131.31 900.43,323.58 901.04,323.58 901.64,323.58 902.25,323.58 902.86,323.58 903.46,367.37 904.07,367.37 904.68,367.37 905.29,367.37 905.89,380.13 906.50,380.13 907.11,380.13 907.71,380.13 908.32,363.31 908.93,363.31 909.54,363.31 910.14,363.31 910.75,363.31 911.36,326.77 911.96,326.77 912.57,326.77 913.18,326.77 913.79,270.51 914.39,270.51 915.00,270.51 915.61,270.51 916.21,270.51 916.82,182.35 917.43,182.35 918.04,182.35 918.64,182.35 919.25,93.90 919.86,93.90 920.46,93.90 921.07,93.90 921.68,88.68 922.29,88.68 922.89,88.68 923.50,88.68 924.11,88.68 924.71,180.03 925.32,180.03 925.93,180.03 926.54,180.03 927.14,215.70 927.75,215.70 928.36,215.70 928.96,215.70 929.57,186.12 930.18,186.12 930.79,186.12 931.39,186.12 932.00,104.92 932.61,104.92 933.21,104.92 933.82,104.92 934.43,104.92 935.04,88.10 935.64,88.10 936.25,88.10 936.86,88.10 937.46,89.84 938.07,89.84 938.68,89.84 939.29,89.84 939.89,89.84 940.50,125.22 941.11,125.22 941.71,125.22 942.32,125.22 942.93,181.77 943.54,181.77 944.14,181.77 944.75,181.77 945.36,204.68 945.96,204.68 946.57,204.68 947.18,204.68 947.79,204.68 948.39,256.01 949.00,256.01 949.61,256.01 950.21,256.01 950.82,283.27 951.43,283.27 952.04,283.27 952.64,283.27 953.25,258.62 953.86,258.62 954.46,258.62 955.07,258.62 955.68,258.62 956.29,213.38 956.89,213.38 957.50,213.38 958.11,213.38 958.71,216.28 959.32,216.28 959.93,216.28 960.54,216.28 961.14,208.74 961.75,208.74 962.36,208.74 962.96,208.74 963.57,208.74 964.18,222.95 964.79,222.95 965.39,222.95 966.00,222.95 966.61,231.65 967.21,231.65 967.82,231.65 968.43,231.65 969.04,276.89 969.64,276.89 970.25,276.89 970.86,276.89 971.46,276.89 972.07,348.52 972.68,348.52 973.29,348.52 973.89,348.52 974.50,343.01 975.11,343.01 975.71,343.01 976.32,343.01 976.93,360.41 977.54,360.41 978.14,360.41 978.75,360.41 979.36,360.41 979.96,375.20 980.57,375.20 981.18,375.20 981.79,375.20 982.39,382.45 983.00,382.45 983.61,382.45 984.21,382.45 984.82,382.45 985.43,390.28 986.04,390.28 986.64,390.28 987.25,390.28 987.86,395.21 988.46,395.21 989.07,395.21 989.68,395.21 990.29,387.67 990.89,387.67 991.50,387.67 992.11,387.67 992.71,386.80 993.32,386.80 993.93,386.80 994.54,386.80 995.14,386.80 995.75,391.73 996.36,391.73 996.96,391.73 997.57,391.73 998.18,381.58 998.79,381.58 999.39,381.58 1000.00,381.58 1000.61,370.27 1001.21,370.27 1001.82,370.27 1002.43,370.27 1003.04,370.27 1003.64,364.76 1004.25,364.76 1004.86,364.76 1005.46,364.76 1006.07,367.95 1006.68,367.95 1007.29,367.95 1007.89,367.95 1008.50,367.95 1009.11,367.08 1009.71,367.08 1010.32,367.08 1010.93,367.08 1011.54,371.14 1012.14,371.14 1012.75,371.14 1013.36,371.14 1013.96,367.37 1014.57,367.37 1015.18,367.37 1015.79,367.37 1016.39,367.37 1017.00,364.76 1017.61,364.76 1018.21,364.76 1018.82,364.76 1019.43,363.89 1020.04,363.89 1020.64,363.89 1021.25,363.89 1021.86,354.61 1022.46,354.61 1023.07,354.61 1023.68,354.61 1024.29,354.61 1024.89,343.59 1025.50,343.59 1026.11,343.59 1026.71,343.59 1027.32,342.72 1027.93,342.72 1028.54,342.72 1029.14,342.72 1029.75,321.26 1030.36,321.26 1030.96,321.26 1031.57,321.26 1032.18,321.26 1032.79,316.33 1033.39,316.33 1034.00,316.33 1034.61,316.33 1035.21,304.44 1035.82,304.44 1036.43,304.44 1037.04,304.44 1037.64,304.44 1038.25,314.30 1038.86,314.30 1039.46,314.30 1040.07,314.30 1040.68,352.29 1041.29,352.29 1041.89,352.29 1042.50,352.29 1043.11,368.53 1043.71,368.53 1044.32,368.53 1044.93,368.53 1045.54,368.53 1046.14,398.98 1046.75,398.98 1047.36,398.98 1047.96,398.98 1048.57,399.85 1049.18,399.85 1049.79,399.85 1050.39,399.85 1051.00,395.50 1051.61,395.50 1052.21,395.50 1052.82,395.50 1053.43,393.18 1054.04,393.18 1054.64,393.18 1055.25,393.18 1055.86,393.18 1056.46,402.17 1057.07,402.17 1057.68,402.17 1058.29,402.17 1058.89,410.87 1059.50,410.87 1060.11,410.87 1060.71,410.87 1061.32,410.87 1061.93,423.63 1062.54,423.63 1063.14,423.63 1063.75,423.63 1064.36,413.48 1064.96,413.48 1065.57,413.48 1066.18,413.48 1066.79,412.90 1067.39,412.90 1068.00,412.90 1068.61,412.90 1069.21,412.90 1069.82,412.32 1070.43,412.32 1071.04,412.32 1071.64,412.32 1072.25,410.29 1072.86,410.29 1073.46,410.29 1074.07,410.29 1074.68,408.55 1075.29,408.55 1075.89,408.55 1076.50,408.55 1077.11,408.55 1077.71,402.17 1078.32,402.17 1078.93,402.17 1079.54,402.17 1080.14,405.94 1080.75,405.94 1081.36,405.94 1081.96,405.94 1082.57,405.94 1083.18,414.06 1083.79,414.06 1084.39,414.06 1085.00,414.06 1085.61,425.08 1086.21,425.08 1086.82,425.08 1087.43,425.08 1088.04,439.29 1088.64,439.29 1089.25,439.29 1089.86,439.29 1090.46,443.35 1091.07,443.35 1091.68,443.35 1092.29,443.35 1092.89,443.35 1093.50,441.32 1094.11,441.32 1094.71,441.32 1095.32,441.32 1095.93,451.76 1096.54,451.76 1097.14,451.76 1097.75,451.76 1098.36,463.07 1098.96,463.07 1099.57,463.07 1100.18,463.07 1100.79,463.07 1101.39,471.19 1102.00,471.19 1102.61,471.19 1103.21,471.19 1103.82,472.35 1104.43,472.35 1105.04,472.35 1105.64,472.35 1106.25,472.35 1106.86,466.84 1107.46,466.84 1108.07,466.84 1108.68,466.84 1109.29,441.61 1109.89,441.61 1110.50,441.61 1111.11,441.61 1111.71,455.53 1112.32,455.53 1112.93,455.53 1113.54,455.53 1114.14,455.53 1114.75,465.10 1115.36,465.10 1115.96,465.10 1116.57,465.10 1117.18,464.23 1117.79,464.23 1118.39,464.23 1119.00,464.23 1119.61,457.27 1120.21,457.27 1120.82,457.27 1121.43,457.27 1122.04,443.35 1122.64,443.35 1123.25,443.35 1123.86,443.35 1124.46,443.35 1125.07,446.83 1125.68,446.83 1126.29,446.83 1126.89,446.83 1127.50,451.18 1128.11,451.18 1128.71,451.18 1129.32,451.18 1129.93,451.18 1130.54,446.83 1131.14,446.83 1131.75,446.83 1132.36,446.83 1132.96,432.62 1133.57,432.62 1134.18,432.62 1134.79,432.62 1135.39,430.59 1136.00,430.59 1136.61,430.59 1137.21,430.59 1137.82,430.59 1138.43,447.99 1139.04,447.99 1139.64,447.99 1140.25,447.99 1140.86,445.67 1141.46,445.67 1142.07,445.67 1142.68,445.67 1143.29,443.93 1143.89,443.93 1144.50,443.93 1145.11,443.93 1145.71,443.93 1146.32,451.18 1146.93,451.18 1147.54,451.18 1148.14,451.18 1148.75,451.18 1149.36,451.18 1149.96,451.18 1150.57,451.18 1151.18,442.77 1151.79,442.77 1152.39,442.77 1153.00,442.77 1153.61,442.77 1154.21,436.39 1154.82,436.39 1155.43,436.39 1156.04,436.39 1156.64,424.21 1157.25,424.21 1157.86,424.21 1158.46,424.21 1159.07,417.25 1159.68,417.25 1160.29,417.25 1160.89,417.25 1161.50,417.25 1162.11,409.71 1162.71,409.71 1163.32,409.71 1163.93,409.71 1164.54,404.49 1165.14,404.49 1165.75,404.49 1166.36,404.49 1166.96,404.49 1167.57,401.30 1168.18,401.30 1168.79,401.30 1169.39,401.30 1170.00,399.85 1170.61,399.85 1171.21,399.85 1171.82,399.85 1172.43,387.96 1173.04,387.96 1173.64,387.96 1174.25,387.96 1174.86,387.96 1175.46,377.52 1176.07,377.52 1176.68,377.52 1177.29,377.52 1177.89,370.56 1178.50,370.56 1179.11,370.56 1179.71,370.56 1180.32,356.35 1180.93,356.35 1181.54,356.35 1182.14,356.35 1182.75,356.35 1183.36,356.64 1183.96,356.64 1184.57,356.64 1185.18,356.64 1185.79,357.51 1186.39,357.51 1187.00,357.51 1187.61,357.51 1188.21,365.63 1188.82,365.63 1189.43,365.63 1190.04,365.63 1190.64,365.63 1191.25,374.04 1191.86,374.04 1192.46,374.04 1193.07,374.04 1193.68,381.29 1194.29,381.29 1194.89,381.29 1195.50,381.29 1196.11,380.42 1196.71,380.42 1197.32,380.42 1197.93,380.42 1198.54,380.42 1199.14,385.64 1199.75,385.64 1200.36,385.64 1200.96,385.64 1201.57,394.05 1202.18,394.05 1202.79,394.05 1203.39,394.05 1204.00,396.95 1204.61,396.95 1205.21,396.95 1205.82,396.95 1206.43,396.95 1207.04,403.33 1207.64,403.33 1208.25,403.33 1208.86,403.33 1209.46,403.04 1210.07,403.04 1210.68,403.04 1211.29,403.04 1211.89,401.88 1212.50,401.88 1213.11,401.88 1213.71,401.88 1214.32,401.88 1214.93,402.46 1215.54,402.46 1216.14,402.46 1216.75,402.46 1217.36,404.78 1217.96,404.78 1218.57,404.78 1219.18,404.78 1219.79,401.59 1220.39,401.59 1221.00,401.59 1221.61,401.59 1222.21,401.59 1222.82,405.65 1223.43,405.65 1224.04,405.65 1224.64,405.65 1225.25,406.23 1225.86,406.23 1226.46,406.23 1227.07,406.23 1227.68,406.23 1228.29,404.20 1228.89,404.20 1229.50,404.20 1230.11,404.20 1230.71,406.81 1231.32,406.81 1231.93,406.81 1232.54,406.81 1233.14,415.51 1233.75,415.51 1234.36,415.51 1234.96,415.51 1235.57,415.51 1236.18,430.01 1236.79,430.01 1237.39,430.01 1238.00,430.01"/>
<polyline fill="none" stroke="#15616d" stroke-width="3" stroke-linejoin="round" stroke-linecap="round" points="82.00,473.80 82.61,473.80 83.21,473.80 83.82,473.80 84.43,473.80 85.04,468.00 85.64,468.00 86.25,468.00 86.86,468.00 87.46,465.10 88.07,465.10 88.68,465.10 89.29,465.10 89.89,476.70 90.50,476.70 91.11,476.70 91.71,476.70 92.32,476.70 92.93,488.30 93.54,488.30 94.14,488.30 94.75,488.30 95.36,497.00 95.96,497.00 96.57,497.00 97.18,497.00 97.79,497.00 98.39,499.90 99.00,499.90 99.61,499.90 100.21,499.90 100.82,505.70 101.43,505.70 102.04,505.70 102.64,505.70 103.25,508.60 103.86,508.60 104.46,508.60 105.07,508.60 105.68,505.70 106.29,505.70 106.89,505.70 107.50,505.70 108.11,505.70 108.71,517.30 109.32,517.30 109.93,517.30 110.54,517.30 111.14,520.20 111.75,520.20 112.36,520.20 112.96,520.20 113.57,526.00 114.18,526.00 114.79,526.00 115.39,526.00 116.00,526.00 116.61,520.20 117.21,520.20 117.82,520.20 118.43,520.20 119.04,523.10 119.64,523.10 120.25,523.10 120.86,523.10 121.46,523.10 122.07,517.30 122.68,517.30 123.29,517.30 123.89,517.30 124.50,520.20 125.11,520.20 125.71,520.20 126.32,520.20 126.93,520.20 127.54,520.20 128.14,520.20 128.75,520.20 129.36,520.20 129.96,526.00 130.57,526.00 131.18,526.00 131.79,526.00 132.39,528.90 133.00,528.90 133.61,528.90 134.21,528.90 134.82,520.20 135.43,520.20 136.04,520.20 136.64,520.20 137.25,520.20 137.86,526.00 138.46,526.00 139.07,526.00 139.68,526.00 140.29,517.30 140.89,517.30 141.50,517.30 142.11,517.30 142.71,517.30 143.32,517.30 143.93,517.30 144.54,517.30 145.14,517.30 145.75,514.40 146.36,514.40 146.96,514.40 147.57,514.40 148.18,523.10 148.79,523.10 149.39,523.10 150.00,523.10 150.61,523.10 151.21,528.90 151.82,528.90 152.43,528.90 153.04,528.90 153.64,528.90 154.25,528.90 154.86,528.90 155.46,528.90 156.07,517.30 156.68,517.30 157.29,517.30 157.89,517.30 158.50,517.30 159.11,520.20 159.71,520.20 160.32,520.20 160.93,520.20 161.54,520.20 162.14,520.20 162.75,520.20 163.36,520.20 163.96,528.90 164.57,528.90 165.18,528.90 165.79,528.90 166.39,534.70 167.00,534.70 167.61,534.70 168.21,534.70 168.82,534.70 169.43,528.90 170.04,528.90 170.64,528.90 171.25,528.90 171.86,523.10 172.46,523.10 173.07,523.10 173.68,523.10 174.29,523.10 174.89,517.30 175.50,517.30 176.11,517.30 176.71,517.30 177.32,520.20 177.93,520.20 178.54,520.20 179.14,520.20 179.75,523.10 180.36,523.10 180.96,523.10 181.57,523.10 182.18,523.10 182.79,514.40 183.39,514.40 184.00,514.40 184.61,514.40 185.21,511.50 185.82,511.50 186.43,511.50 187.04,511.50 187.64,494.10 188.25,494.10 188.86,494.10 189.46,494.10 190.07,494.10 190.68,491.20 191.29,491.20 191.89,491.20 192.50,491.20 193.11,473.80 193.71,473.80 194.32,473.80 194.93,473.80 195.54,473.80 196.14,456.40 196.75,456.40 197.36,456.40 197.96,456.40 198.57,447.70 199.18,447.70 199.79,447.70 200.39,447.70 201.00,427.40 201.61,427.40 202.21,427.40 202.82,427.40 203.43,427.40 204.04,427.40 204.64,427.40 205.25,427.40 205.86,427.40 206.46,430.30 207.07,430.30 207.68,430.30 208.29,430.30 208.89,424.50 209.50,424.50 210.11,424.50 210.71,424.50 211.32,427.40 211.93,427.40 212.54,427.40 213.14,427.40 213.75,427.40 214.36,436.10 214.96,436.10 215.57,436.10 216.18,436.10 216.79,447.70 217.39,447.70 218.00,447.70 218.61,447.70 219.21,447.70 219.82,462.20 220.43,462.20 221.04,462.20 221.64,462.20 222.25,462.20 222.86,462.20 223.46,462.20 224.07,462.20 224.68,468.00 225.29,468.00 225.89,468.00 226.50,468.00 227.11,468.00 227.71,470.90 228.32,470.90 228.93,470.90 229.54,470.90 230.14,479.60 230.75,479.60 231.36,479.60 231.96,479.60 232.57,491.20 233.18,491.20 233.79,491.20 234.39,491.20 235.00,494.10 235.61,494.10 236.21,494.10 236.82,494.10 237.43,494.10 238.04,497.00 238.64,497.00 239.25,497.00 239.86,497.00 240.46,494.10 241.07,494.10 241.68,494.10 242.29,494.10 242.89,494.10 243.50,491.20 244.11,491.20 244.71,491.20 245.32,491.20 245.93,482.50 246.54,482.50 247.14,482.50 247.75,482.50 248.36,476.70 248.96,476.70 249.57,476.70 250.18,476.70 250.79,476.70 251.39,473.80 252.00,473.80 252.61,473.80 253.21,473.80 253.82,488.30 254.43,488.30 255.04,488.30 255.64,488.30 256.25,491.20 256.86,491.20 257.46,491.20 258.07,491.20 258.68,491.20 259.29,502.80 259.89,502.80 260.50,502.80 261.11,502.80 261.71,485.40 262.32,485.40 262.93,485.40 263.54,485.40 264.14,491.20 264.75,491.20 265.36,491.20 265.96,491.20 266.57,491.20 267.18,494.10 267.79,494.10 268.39,494.10 269.00,494.10 269.61,485.40 270.21,485.40 270.82,485.40 271.43,485.40 272.04,482.50 272.64,482.50 273.25,482.50 273.86,482.50 274.46,482.50 275.07,479.60 275.68,479.60 276.29,479.60 276.89,479.60 277.50,482.50 278.11,482.50 278.71,482.50 279.32,482.50 279.93,482.50 280.54,465.10 281.14,465.10 281.75,465.10 282.36,465.10 282.96,465.10 283.57,465.10 284.18,465.10 284.79,465.10 285.39,450.60 286.00,450.60 286.61,450.60 287.21,450.60 287.82,450.60 288.43,450.60 289.04,450.60 289.64,450.60 290.25,450.60 290.86,441.90 291.46,441.90 292.07,441.90 292.68,441.90 293.29,441.90 293.89,441.90 294.50,441.90 295.11,441.90 295.71,441.90 296.32,439.00 296.93,439.00 297.54,439.00 298.14,439.00 298.75,436.10 299.36,436.10 299.96,436.10 300.57,436.10 301.18,441.90 301.79,441.90 302.39,441.90 303.00,441.90 303.61,441.90 304.21,439.00 304.82,439.00 305.43,439.00 306.04,439.00 306.64,450.60 307.25,450.60 307.86,450.60 308.46,450.60 309.07,447.70 309.68,447.70 310.29,447.70 310.89,447.70 311.50,447.70 312.11,453.50 312.71,453.50 313.32,453.50 313.93,453.50 314.54,465.10 315.14,465.10 315.75,465.10 316.36,465.10 316.96,468.00 317.57,468.00 318.18,468.00 318.79,468.00 319.39,468.00 320.00,473.80 320.61,473.80 321.21,473.80 321.82,473.80 322.43,482.50 323.04,482.50 323.64,482.50 324.25,482.50 324.86,479.60 325.46,479.60 326.07,479.60 326.68,479.60 327.29,479.60 327.89,479.60 328.50,479.60 329.11,479.60 329.71,479.60 330.32,482.50 330.93,482.50 331.54,482.50 332.14,482.50 332.75,482.50 333.36,482.50 333.96,482.50 334.57,482.50 335.18,482.50 335.79,485.40 336.39,485.40 337.00,485.40 337.61,485.40 338.21,476.70 338.82,476.70 339.43,476.70 340.04,476.70 340.64,476.70 341.25,479.60 341.86,479.60 342.46,479.60 343.07,479.60 343.68,485.40 344.29,485.40 344.89,485.40 345.50,485.40 346.11,476.70 346.71,476.70 347.32,476.70 347.93,476.70 348.54,476.70 349.14,482.50 349.75,482.50 350.36,482.50 350.96,482.50 351.57,476.70 352.18,476.70 352.79,476.70 353.39,476.70 354.00,470.90 354.61,470.90 355.21,470.90 355.82,470.90 356.43,476.70 357.04,476.70 357.64,476.70 358.25,476.70 358.86,476.70 359.46,476.70 360.07,476.70 360.68,476.70 361.29,476.70 361.89,470.90 362.50,470.90 363.11,470.90 363.71,470.90 364.32,470.90 364.93,479.60 365.54,479.60 366.14,479.60 366.75,479.60 367.36,479.60 367.96,479.60 368.57,479.60 369.18,479.60 369.79,485.40 370.39,485.40 371.00,485.40 371.61,485.40 372.21,485.40 372.82,482.50 373.43,482.50 374.04,482.50 374.64,482.50 375.25,482.50 375.86,482.50 376.46,482.50 377.07,482.50 377.68,476.70 378.29,476.70 378.89,476.70 379.50,476.70 380.11,476.70 380.71,482.50 381.32,482.50 381.93,482.50 382.54,482.50 383.14,479.60 383.75,479.60 384.36,479.60 384.96,479.60 385.57,479.60 386.18,485.40 386.79,485.40 387.39,485.40 388.00,485.40 388.61,485.40 389.21,485.40 389.82,485.40 390.43,485.40 391.04,488.30 391.64,488.30 392.25,488.30 392.86,488.30 393.46,494.10 394.07,494.10 394.68,494.10 395.29,494.10 395.89,494.10 396.50,491.20 397.11,491.20 397.71,491.20 398.32,491.20 398.93,499.90 399.54,499.90 400.14,499.90 400.75,499.90 401.36,499.90 401.96,497.00 402.57,497.00 403.18,497.00 403.79,497.00 404.39,494.10 405.00,494.10 405.61,494.10 406.21,494.10 406.82,494.10 407.43,494.10 408.04,494.10 408.64,494.10 409.25,494.10 409.86,502.80 410.46,502.80 411.07,502.80 411.68,502.80 412.29,497.00 412.89,497.00 413.50,497.00 414.11,497.00 414.71,499.90 415.32,499.90 415.93,499.90 416.54,499.90 417.14,499.90 417.75,494.10 418.36,494.10 418.96,494.10 419.57,494.10 420.18,505.70 420.79,505.70 421.39,505.70 422.00,505.70 422.61,502.80 423.21,502.80 423.82,502.80 424.43,502.80 425.04,502.80 425.64,508.60 426.25,508.60 426.86,508.60 427.46,508.60 428.07,508.60 428.68,508.60 429.29,508.60 429.89,508.60 430.50,514.40 431.11,514.40 431.71,514.40 432.32,514.40 432.93,514.40 433.54,514.40 434.14,514.40 434.75,514.40 435.36,514.40 435.96,517.30 436.57,517.30 437.18,517.30 437.79,517.30 438.39,520.20 439.00,520.20 439.61,520.20 440.21,520.20 440.82,520.20 441.43,523.10 442.04,523.10 442.64,523.10 443.25,523.10 443.86,526.00 444.46,526.00 445.07,526.00 445.68,526.00 446.29,526.00 446.89,526.00 447.50,526.00 448.11,526.00 448.71,526.00 449.32,531.80 449.93,531.80 450.54,531.80 451.14,531.80 451.75,531.80 452.36,531.80 452.96,531.80 453.57,531.80 454.18,531.80 454.79,531.80 455.39,531.80 456.00,531.80 456.61,531.80 457.21,528.90 457.82,528.90 458.43,528.90 459.04,528.90 459.64,531.80 460.25,531.80 460.86,531.80 461.46,531.80 462.07,531.80 462.68,531.80 463.29,531.80 463.89,531.80 464.50,531.80 465.11,531.80 465.71,531.80 466.32,531.80 466.93,531.80 467.54,534.70 468.14,534.70 468.75,534.70 469.36,534.70 469.96,534.70 470.57,534.70 471.18,534.70 471.79,534.70 472.39,534.70 473.00,537.60 473.61,537.60 474.21,537.60 474.82,537.60 475.43,531.80 476.04,531.80 476.64,531.80 477.25,531.80 477.86,531.80 478.46,528.90 479.07,528.90 479.68,528.90 480.29,528.90 480.89,531.80 481.50,531.80 482.11,531.80 482.71,531.80 483.32,531.80 483.93,531.80 484.54,531.80 485.14,531.80 485.75,531.80 486.36,531.80 486.96,531.80 487.57,531.80 488.18,531.80 488.79,531.80 489.39,531.80 490.00,531.80 490.61,531.80 491.21,528.90 491.82,528.90 492.43,528.90 493.04,528.90 493.64,528.90 494.25,531.80 494.86,531.80 495.46,531.80 496.07,531.80 496.68,531.80 497.29,531.80 497.89,531.80 498.50,531.80 499.11,531.80 499.71,531.80 500.32,531.80 500.93,531.80 501.54,531.80 502.14,526.00 502.75,526.00 503.36,526.00 503.96,526.00 504.57,528.90 505.18,528.90 505.79,528.90 506.39,528.90 507.00,531.80 507.61,531.80 508.21,531.80 508.82,531.80 509.43,531.80 510.04,534.70 510.64,534.70 511.25,534.70 511.86,534.70 512.46,531.80 513.07,531.80 513.68,531.80 514.29,531.80 514.89,534.70 515.50,534.70 516.11,534.70 516.71,534.70 517.32,534.70 517.93,540.50 518.54,540.50 519.14,540.50 519.75,540.50 520.36,540.50 520.96,540.50 521.57,540.50 522.18,540.50 522.79,540.50 523.39,534.70 524.00,534.70 524.61,534.70 525.21,534.70 525.82,534.70 526.43,534.70 527.04,534.70 527.64,534.70 528.25,540.50 528.86,540.50 529.46,540.50 530.07,540.50 530.68,540.50 531.29,543.40 531.89,543.40 532.50,543.40 533.11,543.40 533.71,543.40 534.32,543.40 534.93,543.40 535.54,543.40 536.14,543.40 536.75,543.40 537.36,543.40 537.96,543.40 538.57,543.40 539.18,543.40 539.79,543.40 540.39,543.40 541.00,543.40 541.61,543.40 542.21,543.40 542.82,543.40 543.43,543.40 544.04,543.40 544.64,543.40 545.25,543.40 545.86,543.40 546.46,543.40 547.07,543.40 547.68,543.40 548.29,543.40 548.89,543.40 549.50,543.40 550.11,543.40 550.71,543.40 551.32,543.40 551.93,543.40 552.54,543.40 553.14,543.40 553.75,543.40 554.36,543.40 554.96,540.50 555.57,540.50 556.18,540.50 556.79,540.50 557.39,540.50 558.00,540.50 558.61,540.50 559.21,540.50 559.82,540.50 560.43,540.50 561.04,540.50 561.64,540.50 562.25,540.50 562.86,534.70 563.46,534.70 564.07,534.70 564.68,534.70 565.29,534.70 565.89,534.70 566.50,534.70 567.11,534.70 567.71,534.70 568.32,540.50 568.93,540.50 569.54,540.50 570.14,540.50 570.75,540.50 571.36,540.50 571.96,540.50 572.57,540.50 573.18,528.90 573.79,528.90 574.39,528.90 575.00,528.90 575.61,528.90 576.21,520.20 576.82,520.20 577.43,520.20 578.04,520.20 578.64,514.40 579.25,514.40 579.86,514.40 580.46,514.40 581.07,508.60 581.68,508.60 582.29,508.60 582.89,508.60 583.50,502.80 584.11,502.80 584.71,502.80 585.32,502.80 585.93,502.80 586.54,499.90 587.14,499.90 587.75,499.90 588.36,499.90 588.96,497.00 589.57,497.00 590.18,497.00 590.79,497.00 591.39,497.00 592.00,494.10 592.61,494.10 593.21,494.10 593.82,494.10 594.43,485.40 595.04,485.40 595.64,485.40 596.25,485.40 596.86,482.50 597.46,482.50 598.07,482.50 598.68,482.50 599.29,482.50 599.89,470.90 600.50,470.90 601.11,470.90 601.71,470.90 602.32,465.10 602.93,465.10 603.54,465.10 604.14,465.10 604.75,470.90 605.36,470.90 605.96,470.90 606.57,470.90 607.18,470.90 607.79,470.90 608.39,470.90 609.00,470.90 609.61,470.90 610.21,468.00 610.82,468.00 611.43,468.00 612.04,468.00 612.64,470.90 613.25,470.90 613.86,470.90 614.46,470.90 615.07,470.90 615.68,470.90 616.29,470.90 616.89,470.90 617.50,470.90 618.11,470.90 618.71,470.90 619.32,470.90 619.93,470.90 620.54,468.00 621.14,468.00 621.75,468.00 622.36,468.00 622.96,468.00 623.57,465.10 624.18,465.10 624.79,465.10 625.39,465.10 626.00,468.00 626.61,468.00 627.21,468.00 627.82,468.00 628.43,473.80 629.04,473.80 629.64,473.80 630.25,473.80 630.86,473.80 631.46,468.00 632.07,468.00 632.68,468.00 633.29,468.00 633.89,468.00 634.50,468.00 635.11,468.00 635.71,468.00 636.32,468.00 636.93,473.80 637.54,473.80 638.14,473.80 638.75,473.80 639.36,476.70 639.96,476.70 640.57,476.70 641.18,476.70 641.79,473.80 642.39,473.80 643.00,473.80 643.61,473.80 644.21,473.80 644.82,476.70 645.43,476.70 646.04,476.70 646.64,476.70 647.25,476.70 647.86,476.70 648.46,476.70 649.07,476.70 649.68,476.70 650.29,476.70 650.89,476.70 651.50,476.70 652.11,476.70 652.71,479.60 653.32,479.60 653.93,479.60 654.54,479.60 655.14,479.60 655.75,479.60 656.36,479.60 656.96,479.60 657.57,482.50 658.18,482.50 658.79,482.50 659.39,482.50 660.00,482.50 660.61,479.60 661.21,479.60 661.82,479.60 662.43,479.60 663.04,488.30 663.64,488.30 664.25,488.30 664.86,488.30 665.46,491.20 666.07,491.20 666.68,491.20 667.29,491.20 667.89,491.20 668.50,499.90 669.11,499.90 669.71,499.90 670.32,499.90 670.93,497.00 671.54,497.00 672.14,497.00 672.75,497.00 673.36,499.90 673.96,499.90 674.57,499.90 675.18,499.90 675.79,499.90 676.39,497.00 677.00,497.00 677.61,497.00 678.21,497.00 678.82,499.90 679.43,499.90 680.04,499.90 680.64,499.90 681.25,499.90 681.86,499.90 682.46,499.90 683.07,499.90 683.68,499.90 684.29,502.80 684.89,502.80 685.50,502.80 686.11,502.80 686.71,502.80 687.32,502.80 687.93,502.80 688.54,502.80 689.14,502.80 689.75,502.80 690.36,502.80 690.96,502.80 691.57,502.80 692.18,508.60 692.79,508.60 693.39,508.60 694.00,508.60 694.61,502.80 695.21,502.80 695.82,502.80 696.43,502.80 697.04,502.80 697.64,499.90 698.25,499.90 698.86,499.90 699.46,499.90 700.07,494.10 700.68,494.10 701.29,494.10 701.89,494.10 702.50,491.20 703.11,491.20 703.71,491.20 704.32,491.20 704.93,494.10 705.54,494.10 706.14,494.10 706.75,494.10 707.36,494.10 707.96,494.10 708.57,494.10 709.18,494.10 709.79,494.10 710.39,494.10 711.00,494.10 711.61,494.10 712.21,494.10 712.82,494.10 713.43,485.40 714.04,485.40 714.64,485.40 715.25,485.40 715.86,482.50 716.46,482.50 717.07,482.50 717.68,482.50 718.29,482.50 718.89,482.50 719.50,482.50 720.11,482.50 720.71,482.50 721.32,470.90 721.93,470.90 722.54,470.90 723.14,470.90 723.75,468.00 724.36,468.00 724.96,468.00 725.57,468.00 726.18,450.60 726.79,450.60 727.39,450.60 728.00,450.60 728.61,450.60 729.21,433.20 729.82,433.20 730.43,433.20 731.04,433.20 731.64,407.10 732.25,407.10 732.86,407.10 733.46,407.10 734.07,407.10 734.68,407.10 735.29,407.10 735.89,407.10 736.50,407.10 737.11,392.60 737.71,392.60 738.32,392.60 738.93,392.60 739.54,386.80 740.14,386.80 740.75,386.80 741.36,386.80 741.96,381.00 742.57,381.00 743.18,381.00 743.79,381.00 744.39,381.00 745.00,386.80 745.61,386.80 746.21,386.80 746.82,386.80 747.43,392.60 748.04,392.60 748.64,392.60 749.25,392.60 749.86,398.40 750.46,398.40 751.07,398.40 751.68,398.40 752.29,398.40 752.89,398.40 753.50,398.40 754.11,398.40 754.71,398.40 755.32,398.40 755.93,398.40 756.54,398.40 757.14,398.40 757.75,398.40 758.36,401.30 758.96,401.30 759.57,401.30 760.18,401.30 760.79,404.20 761.39,404.20 762.00,404.20 762.61,404.20 763.21,412.90 763.82,412.90 764.43,412.90 765.04,412.90 765.64,412.90 766.25,418.70 766.86,418.70 767.46,418.70 768.07,418.70 768.68,421.60 769.29,421.60 769.89,421.60 770.50,421.60 771.11,418.70 771.71,418.70 772.32,418.70 772.93,418.70 773.54,418.70 774.14,427.40 774.75,427.40 775.36,427.40 775.96,427.40 776.57,421.60 777.18,421.60 777.79,421.60 778.39,421.60 779.00,415.80 779.61,415.80 780.21,415.80 780.82,415.80 781.43,415.80 782.04,415.80 782.64,415.80 783.25,415.80 783.86,415.80 784.46,421.60 785.07,421.60 785.68,421.60 786.29,421.60 786.89,418.70 787.50,418.70 788.11,418.70 788.71,418.70 789.32,418.70 789.93,415.80 790.54,415.80 791.14,415.80 791.75,415.80 792.36,415.80 792.96,415.80 793.57,415.80 794.18,415.80 794.79,415.80 795.39,424.50 796.00,424.50 796.61,424.50 797.21,424.50 797.82,421.60 798.43,421.60 799.04,421.60 799.64,421.60 800.25,427.40 800.86,427.40 801.46,427.40 802.07,427.40 802.68,433.20 803.29,433.20 803.89,433.20 804.50,433.20 805.11,433.20 805.71,439.00 806.32,439.00 806.93,439.00 807.54,439.00 808.14,433.20 808.75,433.20 809.36,433.20 809.96,433.20 810.57,441.90 811.18,441.90 811.79,441.90 812.39,441.90 813.00,441.90 813.61,439.00 814.21,439.00 814.82,439.00 815.43,439.00 816.04,444.80 816.64,444.80 817.25,444.80 817.86,444.80 818.46,444.80 819.07,444.80 819.68,444.80 820.29,444.80 820.89,444.80 821.50,444.80 822.11,444.80 822.71,444.80 823.32,444.80 823.93,456.40 824.54,456.40 825.14,456.40 825.75,456.40 826.36,456.40 826.96,456.40 827.57,456.40 828.18,456.40 828.79,456.40 829.39,459.30 830.00,459.30 830.61,459.30 831.21,459.30 831.82,459.30 832.43,459.30 833.04,459.30 833.64,459.30 834.25,459.30 834.86,465.10 835.46,465.10 836.07,465.10 836.68,465.10 837.29,468.00 837.89,468.00 838.50,468.00 839.11,468.00 839.71,470.90 840.32,470.90 840.93,470.90 841.54,470.90 842.14,470.90 842.75,462.20 843.36,462.20 843.96,462.20 844.57,462.20 845.18,470.90 845.79,470.90 846.39,470.90 847.00,470.90 847.61,468.00 848.21,468.00 848.82,468.00 849.43,468.00 850.04,468.00 850.64,473.80 851.25,473.80 851.86,473.80 852.46,473.80 853.07,470.90 853.68,470.90 854.29,470.90 854.89,470.90 855.50,468.00 856.11,468.00 856.71,468.00 857.32,468.00 857.93,468.00 858.54,470.90 859.14,470.90 859.75,470.90 860.36,470.90 860.96,470.90 861.57,470.90 862.18,470.90 862.79,470.90 863.39,473.80 864.00,473.80 864.61,473.80 865.21,473.80 865.82,473.80 866.43,473.80 867.04,473.80 867.64,473.80 868.25,473.80 868.86,479.60 869.46,479.60 870.07,479.60 870.68,479.60 871.29,476.70 871.89,476.70 872.50,476.70 873.11,476.70 873.71,476.70 874.32,476.70 874.93,476.70 875.54,476.70 876.14,476.70 876.75,468.00 877.36,468.00 877.96,468.00 878.57,468.00 879.18,468.00 879.79,470.90 880.39,470.90 881.00,470.90 881.61,470.90 882.21,468.00 882.82,468.00 883.43,468.00 884.04,468.00 884.64,470.90 885.25,470.90 885.86,470.90 886.46,470.90 887.07,470.90 887.68,468.00 888.29,468.00 888.89,468.00 889.50,468.00 890.11,459.30 890.71,459.30 891.32,459.30 891.93,459.30 892.54,459.30 893.14,459.30 893.75,459.30 894.36,459.30 894.96,459.30 895.57,459.30 896.18,459.30 896.79,459.30 897.39,459.30 898.00,441.90 898.61,441.90 899.21,441.90 899.82,441.90 900.43,424.50 901.04,424.50 901.64,424.50 902.25,424.50 902.86,424.50 903.46,421.60 904.07,421.60 904.68,421.60 905.29,421.60 905.89,415.80 906.50,415.80 907.11,415.80 907.71,415.80 908.32,418.70 908.93,418.70 909.54,418.70 910.14,418.70 910.75,418.70 911.36,424.50 911.96,424.50 912.57,424.50 913.18,424.50 913.79,424.50 914.39,424.50 915.00,424.50 915.61,424.50 916.21,424.50 916.82,424.50 917.43,424.50 918.04,424.50 918.64,424.50 919.25,433.20 919.86,433.20 920.46,433.20 921.07,433.20 921.68,424.50 922.29,424.50 922.89,424.50 923.50,424.50 924.11,424.50 924.71,427.40 925.32,427.40 925.93,427.40 926.54,427.40 927.14,427.40 927.75,427.40 928.36,427.40 928.96,427.40 929.57,433.20 930.18,433.20 930.79,433.20 931.39,433.20 932.00,424.50 932.61,424.50 933.21,424.50 933.82,424.50 934.43,424.50 935.04,424.50 935.64,424.50 936.25,424.50 936.86,424.50 937.46,433.20 938.07,433.20 938.68,433.20 939.29,433.20 939.89,433.20 940.50,427.40 941.11,427.40 941.71,427.40 942.32,427.40 942.93,421.60 943.54,421.60 944.14,421.60 944.75,421.60 945.36,412.90 945.96,412.90 946.57,412.90 947.18,412.90 947.79,412.90 948.39,401.30 949.00,401.30 949.61,401.30 950.21,401.30 950.82,395.50 951.43,395.50 952.04,395.50 952.64,395.50 953.25,392.60 953.86,392.60 954.46,392.60 955.07,392.60 955.68,392.60 956.29,383.90 956.89,383.90 957.50,383.90 958.11,383.90 958.71,381.00 959.32,381.00 959.93,381.00 960.54,381.00 961.14,372.30 961.75,372.30 962.36,372.30 962.96,372.30 963.57,372.30 964.18,369.40 964.79,369.40 965.39,369.40 966.00,369.40 966.61,363.60 967.21,363.60 967.82,363.60 968.43,363.60 969.04,357.80 969.64,357.80 970.25,357.80 970.86,357.80 971.46,357.80 972.07,357.80 972.68,357.80 973.29,357.80 973.89,357.80 974.50,349.10 975.11,349.10 975.71,349.10 976.32,349.10 976.93,340.40 977.54,340.40 978.14,340.40 978.75,340.40 979.36,340.40 979.96,328.80 980.57,328.80 981.18,328.80 981.79,328.80 982.39,328.80 983.00,328.80 983.61,328.80 984.21,328.80 984.82,328.80 985.43,340.40 986.04,340.40 986.64,340.40 987.25,340.40 987.86,340.40 988.46,340.40 989.07,340.40 989.68,340.40 990.29,343.30 990.89,343.30 991.50,343.30 992.11,343.30 992.71,346.20 993.32,346.20 993.93,346.20 994.54,346.20 995.14,346.20 995.75,349.10 996.36,349.10 996.96,349.10 997.57,349.10 998.18,349.10 998.79,349.10 999.39,349.10 1000.00,349.10 1000.61,369.40 1001.21,369.40 1001.82,369.40 1002.43,369.40 1003.04,369.40 1003.64,366.50 1004.25,366.50 1004.86,366.50 1005.46,366.50 1006.07,375.20 1006.68,375.20 1007.29,375.20 1007.89,375.20 1008.50,375.20 1009.11,386.80 1009.71,386.80 1010.32,386.80 1010.93,386.80 1011.54,395.50 1012.14,395.50 1012.75,395.50 1013.36,395.50 1013.96,401.30 1014.57,401.30 1015.18,401.30 1015.79,401.30 1016.39,401.30 1017.00,410.00 1017.61,410.00 1018.21,410.00 1018.82,410.00 1019.43,415.80 1020.04,415.80 1020.64,415.80 1021.25,415.80 1021.86,415.80 1022.46,415.80 1023.07,415.80 1023.68,415.80 1024.29,415.80 1024.89,418.70 1025.50,418.70 1026.11,418.70 1026.71,418.70 1027.32,427.40 1027.93,427.40 1028.54,427.40 1029.14,427.40 1029.75,433.20 1030.36,433.20 1030.96,433.20 1031.57,433.20 1032.18,433.20 1032.79,424.50 1033.39,424.50 1034.00,424.50 1034.61,424.50 1035.21,424.50 1035.82,424.50 1036.43,424.50 1037.04,424.50 1037.64,424.50 1038.25,430.30 1038.86,430.30 1039.46,430.30 1040.07,430.30 1040.68,427.40 1041.29,427.40 1041.89,427.40 1042.50,427.40 1043.11,433.20 1043.71,433.20 1044.32,433.20 1044.93,433.20 1045.54,433.20 1046.14,430.30 1046.75,430.30 1047.36,430.30 1047.96,430.30 1048.57,430.30 1049.18,430.30 1049.79,430.30 1050.39,430.30 1051.00,433.20 1051.61,433.20 1052.21,433.20 1052.82,433.20 1053.43,433.20 1054.04,433.20 1054.64,433.20 1055.25,433.20 1055.86,433.20 1056.46,430.30 1057.07,430.30 1057.68,430.30 1058.29,430.30 1058.89,433.20 1059.50,433.20 1060.11,433.20 1060.71,433.20 1061.32,433.20 1061.93,427.40 1062.54,427.40 1063.14,427.40 1063.75,427.40 1064.36,427.40 1064.96,427.40 1065.57,427.40 1066.18,427.40 1066.79,436.10 1067.39,436.10 1068.00,436.10 1068.61,436.10 1069.21,436.10 1069.82,436.10 1070.43,436.10 1071.04,436.10 1071.64,436.10 1072.25,436.10 1072.86,436.10 1073.46,436.10 1074.07,436.10 1074.68,439.00 1075.29,439.00 1075.89,439.00 1076.50,439.00 1077.11,439.00 1077.71,439.00 1078.32,439.00 1078.93,439.00 1079.54,439.00 1080.14,447.70 1080.75,447.70 1081.36,447.70 1081.96,447.70 1082.57,447.70 1083.18,433.20 1083.79,433.20 1084.39,433.20 1085.00,433.20 1085.61,433.20 1086.21,433.20 1086.82,433.20 1087.43,433.20 1088.04,436.10 1088.64,436.10 1089.25,436.10 1089.86,436.10 1090.46,433.20 1091.07,433.20 1091.68,433.20 1092.29,433.20 1092.89,433.20 1093.50,433.20 1094.11,433.20 1094.71,433.20 1095.32,433.20 1095.93,439.00 1096.54,439.00 1097.14,439.00 1097.75,439.00 1098.36,441.90 1098.96,441.90 1099.57,441.90 1100.18,441.90 1100.79,441.90 1101.39,439.00 1102.00,439.00 1102.61,439.00 1103.21,439.00 1103.82,439.00 1104.43,439.00 1105.04,439.00 1105.64,439.00 1106.25,439.00 1106.86,441.90 1107.46,441.90 1108.07,441.90 1108.68,441.90 1109.29,450.60 1109.89,450.60 1110.50,450.60 1111.11,450.60 1111.71,450.60 1112.32,450.60 1112.93,450.60 1113.54,450.60 1114.14,450.60 1114.75,450.60 1115.36,450.60 1115.96,450.60 1116.57,450.60 1117.18,450.60 1117.79,450.60 1118.39,450.60 1119.00,450.60 1119.61,459.30 1120.21,459.30 1120.82,459.30 1121.43,459.30 1122.04,459.30 1122.64,459.30 1123.25,459.30 1123.86,459.30 1124.46,459.30 1125.07,462.20 1125.68,462.20 1126.29,462.20 1126.89,462.20 1127.50,465.10 1128.11,465.10 1128.71,465.10 1129.32,465.10 1129.93,465.10 1130.54,468.00 1131.14,468.00 1131.75,468.00 1132.36,468.00 1132.96,470.90 1133.57,470.90 1134.18,470.90 1134.79,470.90 1135.39,468.00 1136.00,468.00 1136.61,468.00 1137.21,468.00 1137.82,468.00 1138.43,473.80 1139.04,473.80 1139.64,473.80 1140.25,473.80 1140.86,476.70 1141.46,476.70 1142.07,476.70 1142.68,476.70 1143.29,476.70 1143.89,476.70 1144.50,476.70 1145.11,476.70 1145.71,476.70 1146.32,476.70 1146.93,476.70 1147.54,476.70 1148.14,476.70 1148.75,476.70 1149.36,476.70 1149.96,476.70 1150.57,476.70 1151.18,485.40 1151.79,485.40 1152.39,485.40 1153.00,485.40 1153.61,485.40 1154.21,479.60 1154.82,479.60 1155.43,479.60 1156.04,479.60 1156.64,485.40 1157.25,485.40 1157.86,485.40 1158.46,485.40 1159.07,485.40 1159.68,485.40 1160.29,485.40 1160.89,485.40 1161.50,485.40 1162.11,479.60 1162.71,479.60 1163.32,479.60 1163.93,479.60 1164.54,485.40 1165.14,485.40 1165.75,485.40 1166.36,485.40 1166.96,485.40 1167.57,485.40 1168.18,485.40 1168.79,485.40 1169.39,485.40 1170.00,488.30 1170.61,488.30 1171.21,488.30 1171.82,488.30 1172.43,488.30 1173.04,488.30 1173.64,488.30 1174.25,488.30 1174.86,488.30 1175.46,485.40 1176.07,485.40 1176.68,485.40 1177.29,485.40 1177.89,491.20 1178.50,491.20 1179.11,491.20 1179.71,491.20 1180.32,497.00 1180.93,497.00 1181.54,497.00 1182.14,497.00 1182.75,497.00 1183.36,491.20 1183.96,491.20 1184.57,491.20 1185.18,491.20 1185.79,491.20 1186.39,491.20 1187.00,491.20 1187.61,491.20 1188.21,488.30 1188.82,488.30 1189.43,488.30 1190.04,488.30 1190.64,488.30 1191.25,491.20 1191.86,491.20 1192.46,491.20 1193.07,491.20 1193.68,491.20 1194.29,491.20 1194.89,491.20 1195.50,491.20 1196.11,488.30 1196.71,488.30 1197.32,488.30 1197.93,488.30 1198.54,488.30 1199.14,488.30 1199.75,488.30 1200.36,488.30 1200.96,488.30 1201.57,485.40 1202.18,485.40 1202.79,485.40 1203.39,485.40 1204.00,485.40 1204.61,485.40 1205.21,485.40 1205.82,485.40 1206.43,485.40 1207.04,485.40 1207.64,485.40 1208.25,485.40 1208.86,485.40 1209.46,488.30 1210.07,488.30 1210.68,488.30 1211.29,488.30 1211.89,491.20 1212.50,491.20 1213.11,491.20 1213.71,491.20 1214.32,491.20 1214.93,485.40 1215.54,485.40 1216.14,485.40 1216.75,485.40 1217.36,485.40 1217.96,485.40 1218.57,485.40 1219.18,485.40 1219.79,491.20 1220.39,491.20 1221.00,491.20 1221.61,491.20 1222.21,491.20 1222.82,482.50 1223.43,482.50 1224.04,482.50 1224.64,482.50 1225.25,476.70 1225.86,476.70 1226.46,476.70 1227.07,476.70 1227.68,476.70 1228.29,470.90 1228.89,470.90 1229.50,470.90 1230.11,470.90 1230.71,470.90 1231.32,470.90 1231.93,470.90 1232.54,470.90 1233.14,462.20 1233.75,462.20 1234.36,462.20 1234.96,462.20 1235.57,462.20 1236.18,459.30 1236.79,459.30 1237.39,459.30 1238.00,459.30"/>
<line x1="82" y1="62" x2="82" y2="642" stroke="#333" stroke-width="1.2"/>
<line x1="82" y1="642" x2="1238" y2="642" stroke="#333" stroke-width="1.2"/>
<text class="axis" transform="translate(24 352.00) rotate(-90)" text-anchor="middle">Poziom, %</text>
<line x1="100" y1="86" x2="134" y2="86" stroke="#c1121f" stroke-width="4" opacity="0.85"/>
<text class="small" x="144" y="91">Fed Funds</text>
<line x1="100" y1="111" x2="134" y2="111" stroke="#15616d" stroke-width="4" opacity="0.85"/>
<text class="small" x="144" y="116">Bezrobocie</text>
<line x1="100" y1="136" x2="134" y2="136" stroke="#7f1d1d" stroke-width="4" opacity="0.85"/>
<text class="small" x="144" y="141">Przeciecie od gory</text>
<line x1="100" y1="161" x2="134" y2="161" stroke="#8f8f88" stroke-width="4" opacity="0.85"/>
<text class="small" x="144" y="166">S&amp;P 500, log</text>
<text class="small" x="978" y="86">Ostatnio: Fed 7.31%, bezrobocie 6.30%, cykl 80% akcji</text>
</svg>