<?xml version="1.0" encoding="UTF-8"?>
<svg xmlns="http://www.w3.org/2000/svg" width="1280" height="620" viewBox="0 0 1280 620">
<rect width="100%" height="100%" fill="#fbfbf8"/>
<style>text{font-family:Segoe UI,Arial,sans-serif;fill:#222}.title{font-size:24px;font-weight:700}.small{font-size:13px}.tick{font-size:12px;fill:#555}.axis{font-size:14px;font-weight:600}</style>
<text class="title" x="82" y="32">Proporcja SPX / NDX w czesci akcyjnej</text>
<text class="small" x="82" y="56">Jedna linia pokazuje udzial NDX w czesci akcyjnej: 0% = calosc SPX, 50% = 50/50, 100% = calosc NDX</text>
<line x1="82" y1="544.00" x2="1238" y2="544.00" stroke="#deded8" stroke-width="1"/>
<text class="tick" x="72" y="548.00" text-anchor="end">0%</text>
<line x1="82" y1="495.80" x2="1238" y2="495.80" stroke="#deded8" stroke-width="1"/>
<text class="tick" x="72" y="499.80" text-anchor="end">10%</text>
<line x1="82" y1="447.60" x2="1238" y2="447.60" stroke="#deded8" stroke-width="1"/>
<text class="tick" x="72" y="451.60" text-anchor="end">20%</text>
<line x1="82" y1="399.40" x2="1238" y2="399.40" stroke="#deded8" stroke-width="1"/>
<text class="tick" x="72" y="403.40" text-anchor="end">30%</text>
<line x1="82" y1="351.20" x2="1238" y2="351.20" stroke="#deded8" stroke-width="1"/>
<text class="tick" x="72" y="355.20" text-anchor="end">40%</text>
<line x1="82" y1="303.00" x2="1238" y2="303.00" stroke="#deded8" stroke-width="1"/>
<text class="tick" x="72" y="307.00" text-anchor="end">50%</text>
<line x1="82" y1="254.80" x2="1238" y2="254.80" stroke="#deded8" stroke-width="1"/>
<text class="tick" x="72" y="258.80" text-anchor="end">60%</text>
<line x1="82" y1="206.60" x2="1238" y2="206.60" stroke="#deded8" stroke-width="1"/>
<text class="tick" x="72" y="210.60" text-anchor="end">70%</text>
<line x1="82" y1="158.40" x2="1238" y2="158.40" stroke="#deded8" stroke-width="1"/>
<text class="tick" x="72" y="162.40" text-anchor="end">80%</text>
<line x1="82" y1="110.20" x2="1238" y2="110.20" stroke="#deded8" stroke-width="1"/>
<text class="tick" x="72" y="114.20" text-anchor="end">90%</text>
<line x1="82" y1="62.00" x2="1238" y2="62.00" stroke="#deded8" stroke-width="1"/>
<text class="tick" x="72" y="66.00" text-anchor="end">100%</text>
<line x1="98.39" y1="62" x2="98.39" y2="544" stroke="#eeeeea" stroke-width="1"/>
<text class="tick" x="98.39" y="578" text-anchor="middle">1955</text>
<line x1="256.25" y1="62" x2="256.25" y2="544" stroke="#eeeeea" stroke-width="1"/>
<text class="tick" x="256.25" y="578" text-anchor="middle">1960</text>
<line x1="414.71" y1="62" x2="414.71" y2="544" stroke="#eeeeea" stroke-width="1"/>
<text class="tick" x="414.71" y="578" text-anchor="middle">1965</text>
<line x1="573.18" y1="62" x2="573.18" y2="544" stroke="#eeeeea" stroke-width="1"/>
<text class="tick" x="573.18" y="578" text-anchor="middle">1970</text>
<line x1="731.64" y1="62" x2="731.64" y2="544" stroke="#eeeeea" stroke-width="1"/>
<text class="tick" x="731.64" y="578" text-anchor="middle">1975</text>
<line x1="890.11" y1="62" x2="890.11" y2="544" stroke="#eeeeea" stroke-width="1"/>
<text class="tick" x="890.11" y="578" text-anchor="middle">1980</text>
<line x1="1048.57" y1="62" x2="1048.57" y2="544" stroke="#eeeeea" stroke-width="1"/>
<text class="tick" x="1048.57" y="578" text-anchor="middle">1985</text>
<line x1="1207.04" y1="62" x2="1207.04" y2="544" stroke="#eeeeea" stroke-width="1"/>
<text class="tick" x="1207.04" y="578" text-anchor="middle">1990</text>
<line x1="82" y1="62" x2="82" y2="544" stroke="#333" stroke-width="1.2"/>
<line x1="82" y1="544" x2="1238" y2="544" stroke="#333" stroke-width="1.2"/>
<text class="axis" transform="translate(24 303.00) rotate(-90)" text-anchor="middle">Udzial NDX w czesci akcyjnej</text>
<text class="small" x="1246" y="548.00" fill="#555">SPX</text>
<text class="small" x="1246" y="307.00" fill="#555">50/50</text>
<text class="small" x="1246" y="66.00" fill="#555">NDX</text>
<polyline fill="none" stroke="#073b3a" stroke-width="3.8" stroke-linejoin="round" stroke-linecap="round" points="82.00,544.00 82.61,544.00 83.21,544.00 83.82,544.00 84.43,544.00 85.04,544.00 85.64,544.00 86.25,544.00 86.86,544.00 87.46,544.00 88.07,544.00 88.68,544.00 89.29,544.00 89.89,544.00 90.50,544.00 91.11,544.00 91.71,544.00 92.32,544.00 92.93,544.00 93.54,544.00 94.14,544.00 94.75,544.00 95.36,544.00 95.96,544.00 96.57,544.00 97.18,544.00 97.79,544.00 98.39,544.00 99.00,544.00 99.61,544.00 100.21,544.00 100.82,544.00 101.43,544.00 102.04,544.00 102.64,544.00 103.25,544.00 103.86,544.00 104.46,544.00 105.07,544.00 105.68,544.00 106.29,544.00 106.89,544.00 107.50,544.00 108.11,544.00 108.71,544.00 109.32,544.00 109.93,544.00 110.54,544.00 111.14,544.00 111.75,544.00 112.36,544.00 112.96,544.00 113.57,544.00 114.18,544.00 114.79,544.00 115.39,544.00 116.00,544.00 116.61,544.00 117.21,544.00 117.82,544.00 118.43,544.00 119.04,544.00 119.64,544.00 120.25,544.00 120.86,544.00 121.46,544.00 122.07,544.00 122.68,544.00 123.29,544.00 123.89,544.00 124.50,544.00 125.11,544.00 125.71,544.00 126.32,544.00 126.93,544.00 127.54,544.00 128.14,544.00 128.75,544.00 129.36,544.00 129.96,544.00 130.57,544.00 131.18,544.00 131.79,544.00 132.39,544.00 133.00,544.00 133.61,544.00 134.21,544.00 134.82,544.00 135.43,544.00 136.04,544.00 136.64,544.00 137.25,544.00 137.86,544.00 138.46,544.00 139.07,544.00 139.68,544.00 140.29,544.00 140.89,544.00 141.50,544.00 142.11,544.00 142.71,544.00 143.32,544.00 143.93,544.00 144.54,544.00 145.14,544.00 145.75,544.00 146.36,544.00 146.96,544.00 147.57,544.00 148.18,544.00 148.79,544.00 149.39,544.00 150.00,544.00 150.61,544.00 151.21,544.00 151.82,544.00 152.43,544.00 153.04,544.00 153.64,544.00 154.25,544.00 154.86,544.00 155.46,544.00 156.07,544.00 156.68,544.00 157.29,544.00 157.89,544.00 158.50,544.00 159.11,544.00 159.71,544.00 160.32,544.00 160.93,544.00 161.54,544.00 162.14,544.00 162.75,544.00 163.36,544.00 163.96,544.00 164.57,544.00 165.18,544.00 165.79,544.00 166.39,544.00 167.00,544.00 167.61,544.00 168.21,544.00 168.82,544.00 169.43,544.00 170.04,544.00 170.64,544.00 171.25,544.00 171.86,544.00 172.46,544.00 173.07,544.00 173.68,544.00 174.29,544.00 174.89,544.00 175.50,544.00 176.11,544.00 176.71,544.00 177.32,544.00 177.93,544.00 178.54,544.00 179.14,544.00 179.75,544.00 180.36,544.00 180.96,544.00 181.57,544.00 182.18,544.00 182.79,544.00 183.39,544.00 184.00,544.00 184.61,544.00 185.21,544.00 185.82,544.00 186.43,544.00 187.04,544.00 187.64,544.00 188.25,544.00 188.86,544.00 189.46,544.00 190.07,544.00 190.68,544.00 191.29,544.00 191.89,544.00 192.50,544.00 193.11,544.00 193.71,544.00 194.32,544.00 194.93,544.00 195.54,544.00 196.14,544.00 196.75,544.00 197.36,544.00 197.96,544.00 198.57,544.00 199.18,544.00 199.79,544.00 200.39,544.00 201.00,544.00 201.61,544.00 202.21,544.00 202.82,544.00 203.43,544.00 204.04,544.00 204.64,544.00 205.25,544.00 205.86,544.00 206.46,544.00 207.07,544.00 207.68,544.00 208.29,544.00 208.89,544.00 209.50,544.00 210.11,544.00 210.71,544.00 211.32,544.00 211.93,544.00 212.54,544.00 213.14,544.00 213.75,544.00 214.36,544.00 214.96,544.00 215.57,544.00 216.18,544.00 216.79,544.00 217.39,544.00 218.00,544.00 218.61,544.00 219.21,544.00 219.82,544.00 220.43,544.00 221.04,544.00 221.64,544.00 222.25,544.00 222.86,544.00 223.46,544.00 224.07,544.00 224.68,544.00 225.29,544.00 225.89,544.00 226.50,544.00 227.11,544.00 227.71,544.00 228.32,544.00 228.93,544.00 229.54,544.00 230.14,544.00 230.75,544.00 231.36,544.00 231.96,544.00 232.57,544.00 233.18,544.00 233.79,544.00 234.39,544.00 235.00,544.00 235.61,544.00 236.21,544.00 236.82,544.00 237.43,544.00 238.04,544.00 238.64,544.00 239.25,544.00 239.86,544.00 240.46,544.00 241.07,544.00 241.68,544.00 242.29,544.00 242.89,544.00 243.50,544.00 244.11,544.00 244.71,544.00 245.32,544.00 245.93,544.00 246.54,544.00 247.14,544.00 247.75,544.00 248.36,544.00 248.96,544.00 249.57,544.00 250.18,544.00 250.79,544.00 251.39,544.00 252.00,544.00 252.61,544.00 253.21,544.00 253.82,544.00 254.43,544.00 255.04,544.00 255.64,544.00 256.25,544.00 256.86,544.00 257.46,544.00 258.07,544.00 258.68,544.00 259.29,544.00 259.89,544.00 260.50,544.00 261.11,544.00 261.71,544.00 262.32,544.00 262.93,544.00 263.54,544.00 264.14,544.00 264.75,544.00 265.36,544.00 265.96,544.00 266.57,544.00 267.18,544.00 267.79,544.00 268.39,544.00 269.00,544.00 269.61,544.00 270.21,544.00 270.82,544.00 271.43,544.00 272.04,544.00 272.64,544.00 273.25,544.00 273.86,544.00 274.46,544.00 275.07,544.00 275.68,544.00 276.29,544.00 276.89,544.00 277.50,544.00 278.11,544.00 278.71,544.00 279.32,544.00 279.93,544.00 280.54,544.00 281.14,544.00 281.75,544.00 282.36,544.00 282.96,544.00 283.57,544.00 284.18,544.00 284.79,544.00 285.39,544.00 286.00,544.00 286.61,544.00 287.21,544.00 287.82,544.00 288.43,544.00 289.04,544.00 289.64,544.00 290.25,544.00 290.86,544.00 291.46,544.00 292.07,544.00 292.68,544.00 293.29,544.00 293.89,544.00 294.50,544.00 295.11,544.00 295.71,544.00 296.32,544.00 296.93,544.00 297.54,544.00 298.14,544.00 298.75,544.00 299.36,544.00 299.96,544.00 300.57,544.00 301.18,544.00 301.79,544.00 302.39,544.00 303.00,544.00 303.61,544.00 304.21,544.00 304.82,544.00 305.43,544.00 306.04,544.00 306.64,544.00 307.25,544.00 307.86,544.00 308.46,544.00 309.07,544.00 309.68,544.00 310.29,544.00 310.89,544.00 311.50,544.00 312.11,544.00 312.71,544.00 313.32,544.00 313.93,544.00 314.54,544.00 315.14,544.00 315.75,544.00 316.36,544.00 316.96,544.00 317.57,544.00 318.18,544.00 318.79,544.00 319.39,544.00 320.00,544.00 320.61,544.00 321.21,544.00 321.82,544.00 322.43,544.00 323.04,544.00 323.64,544.00 324.25,544.00 324.86,544.00 325.46,544.00 326.07,544.00 326.68,544.00 327.29,544.00 327.89,544.00 328.50,544.00 329.11,544.00 329.71,544.00 330.32,544.00 330.93,544.00 331.54,544.00 332.14,544.00 332.75,544.00 333.36,544.00 333.96,544.00 334.57,544.00 335.18,544.00 335.79,544.00 336.39,544.00 337.00,544.00 337.61,544.00 338.21,544.00 338.82,544.00 339.43,544.00 340.04,544.00 340.64,544.00 341.25,544.00 341.86,544.00 342.46,544.00 343.07,544.00 343.68,544.00 344.29,544.00 344.89,544.00 345.50,544.00 346.11,544.00 346.71,544.00 347.32,544.00 347.93,544.00 348.54,544.00 349.14,544.00 349.75,544.00 350.36,544.00 350.96,544.00 351.57,544.00 352.18,544.00 352.79,544.00 353.39,544.00 354.00,544.00 354.61,544.00 355.21,544.00 355.82,544.00 356.43,544.00 357.04,544.00 357.64,544.00 358.25,544.00 358.86,544.00 359.46,544.00 360.07,544.00 360.68,544.00 361.29,544.00 361.89,544.00 362.50,544.00 363.11,544.00 363.71,544.00 364.32,544.00 364.93,544.00 365.54,544.00 366.14,544.00 366.75,544.00 367.36,544.00 367.96,544.00 368.57,544.00 369.18,544.00 369.79,544.00 370.39,544.00 371.00,544.00 371.61,544.00 372.21,544.00 372.82,544.00 373.43,544.00 374.04,544.00 374.64,544.00 375.25,544.00 375.86,544.00 376.46,544.00 377.07,544.00 377.68,544.00 378.29,544.00 378.89,544.00 379.50,544.00 380.11,544.00 380.71,544.00 381.32,544.00 381.93,544.00 382.54,544.00 383.14,544.00 383.75,544.00 384.36,544.00 384.96,544.00 385.57,544.00 386.18,544.00 386.79,544.00 387.39,544.00 388.00,544.00 388.61,544.00 389.21,544.00 389.82,544.00 390.43,544.00 391.04,544.00 391.64,544.00 392.25,544.00 392.86,544.00 393.46,544.00 394.07,544.00 394.68,544.00 395.29,544.00 395.89,544.00 396.50,544.00 397.11,544.00 397.71,544.00 398.32,544.00 398.93,544.00 399.54,544.00 400.14,544.00 400.75,544.00 401.36,544.00 401.96,544.00 402.57,544.00 403.18,544.00 403.79,544.00 404.39,544.00 405.00,544.00 405.61,544.00 406.21,544.00 406.82,544.00 407.43,544.00 408.04,544.00 408.64,544.00 409.25,544.00 409.86,544.00 410.46,544.00 411.07,544.00 411.68,544.00 412.29,544.00 412.89,544.00 413.50,544.00 414.11,544.00 414.71,544.00 415.32,544.00 415.93,544.00 416.54,544.00 417.14,544.00 417.75,544.00 418.36,544.00 418.96,544.00 419.57,544.00 420.18,544.00 420.79,544.00 421.39,544.00 422.00,544.00 422.61,544.00 423.21,544.00 423.82,544.00 424.43,544.00 425.04,544.00 425.64,544.00 426.25,544.00 426.86,544.00 427.46,544.00 428.07,544.00 428.68,544.00 429.29,544.00 429.89,544.00 430.50,544.00 431.11,544.00 431.71,544.00 432.32,544.00 432.93,544.00 433.54,544.00 434.14,544.00 434.75,544.00 435.36,544.00 435.96,544.00 436.57,544.00 437.18,544.00 437.79,544.00 438.39,544.00 439.00,544.00 439.61,544.00 440.21,544.00 440.82,544.00 441.43,544.00 442.04,544.00 442.64,544.00 443.25,544.00 443.86,544.00 444.46,544.00 445.07,544.00 445.68,544.00 446.29,544.00 446.89,544.00 447.50,544.00 448.11,544.00 448.71,544.00 449.32,544.00 449.93,544.00 450.54,544.00 451.14,544.00 451.75,544.00 452.36,544.00 452.96,544.00 453.57,544.00 454.18,544.00 454.79,544.00 455.39,544.00 456.00,544.00 456.61,544.00 457.21,544.00 457.82,544.00 458.43,544.00 459.04,544.00 459.64,544.00 460.25,544.00 460.86,544.00 461.46,544.00 462.07,544.00 462.68,544.00 463.29,544.00 463.89,544.00 464.50,544.00 465.11,544.00 465.71,544.00 466.32,544.00 466.93,544.00 467.54,544.00 468.14,544.00 468.75,544.00 469.36,544.00 469.96,544.00 470.57,544.00 471.18,544.00 471.79,544.00 472.39,544.00 473.00,544.00 473.61,544.00 474.21,544.00 474.82,544.00 475.43,544.00 476.04,544.00 476.64,544.00 477.25,544.00 477.86,544.00 478.46,544.00 479.07,544.00 479.68,544.00 480.29,544.00 480.89,544.00 481.50,544.00 482.11,544.00 482.71,544.00 483.32,544.00 483.93,544.00 484.54,544.00 485.14,544.00 485.75,544.00 486.36,544.00 486.96,544.00 487.57,544.00 488.18,544.00 488.79,544.00 489.39,544.00 490.00,544.00 490.61,544.00 491.21,544.00 491.82,544.00 492.43,544.00 493.04,544.00 493.64,544.00 494.25,544.00 494.86,544.00 495.46,544.00 496.07,544.00 496.68,544.00 497.29,544.00 497.89,544.00 498.50,544.00 499.11,544.00 499.71,544.00 500.32,544.00 500.93,544.00 501.54,544.00 502.14,544.00 502.75,544.00 503.36,544.00 503.96,544.00 504.57,544.00 505.18,544.00 505.79,544.00 506.39,544.00 507.00,544.00 507.61,544.00 508.21,544.00 508.82,544.00 509.43,544.00 510.04,544.00 510.64,544.00 511.25,544.00 511.86,544.00 512.46,544.00 513.07,544.00 513.68,544.00 514.29,544.00 514.89,544.00 515.50,544.00 516.11,544.00 516.71,544.00 517.32,544.00 517.93,544.00 518.54,544.00 519.14,544.00 519.75,544.00 520.36,544.00 520.96,544.00 521.57,544.00 522.18,544.00 522.79,544.00 523.39,544.00 524.00,544.00 524.61,544.00 525.21,544.00 525.82,544.00 526.43,544.00 527.04,544.00 527.64,544.00 528.25,544.00 528.86,544.00 529.46,544.00 530.07,544.00 530.68,544.00 531.29,544.00 531.89,544.00 532.50,544.00 533.11,544.00 533.71,544.00 534.32,544.00 534.93,544.00 535.54,544.00 536.14,544.00 536.75,544.00 537.36,544.00 537.96,544.00 538.57,544.00 539.18,544.00 539.79,544.00 540.39,544.00 541.00,544.00 541.61,544.00 542.21,544.00 542.82,544.00 543.43,544.00 544.04,544.00 544.64,544.00 545.25,544.00 545.86,544.00 546.46,544.00 547.07,544.00 547.68,544.00 548.29,544.00 548.89,544.00 549.50,544.00 550.11,544.00 550.71,544.00 551.32,544.00 551.93,544.00 552.54,544.00 553.14,544.00 553.75,544.00 554.36,544.00 554.96,544.00 555.57,544.00 556.18,399.40 556.79,399.40 557.39,544.00 558.00,544.00 558.61,544.00 559.21,544.00 559.82,399.40 560.43,399.40 561.04,544.00 561.64,399.40 562.25,544.00 562.86,544.00 563.46,544.00 564.07,544.00 564.68,544.00 565.29,544.00 565.89,544.00 566.50,544.00 567.11,544.00 567.71,399.40 568.32,399.40 568.93,399.40 569.54,399.40 570.14,399.40 570.75,399.40 571.36,399.40 571.96,399.40 572.57,399.40 573.18,399.40 573.79,399.40 574.39,399.40 575.00,399.40 575.61,399.40 576.21,399.40 576.82,399.40 577.43,399.40 578.04,399.40 578.64,399.40 579.25,399.40 579.86,399.40 580.46,399.40 581.07,399.40 581.68,399.40 582.29,399.40 582.89,399.40 583.50,399.40 584.11,399.40 584.71,399.40 585.32,399.40 585.93,399.40 586.54,399.40 587.14,399.40 587.75,544.00 588.36,544.00 588.96,544.00 589.57,544.00 590.18,544.00 590.79,544.00 591.39,544.00 592.00,544.00 592.61,544.00 593.21,544.00 593.82,544.00 594.43,544.00 595.04,544.00 595.64,544.00 596.25,544.00 596.86,544.00 597.46,544.00 598.07,544.00 598.68,544.00 599.29,544.00 599.89,544.00 600.50,544.00 601.11,544.00 601.71,544.00 602.32,544.00 602.93,544.00 603.54,544.00 604.14,544.00 604.75,399.40 605.36,399.40 605.96,399.40 606.57,399.40 607.18,399.40 607.79,399.40 608.39,399.40 609.00,399.40 609.61,399.40 610.21,399.40 610.82,399.40 611.43,399.40 612.04,399.40 612.64,399.40 613.25,399.40 613.86,399.40 614.46,399.40 615.07,399.40 615.68,399.40 616.29,399.40 616.89,399.40 617.50,399.40 618.11,399.40 618.71,399.40 619.32,399.40 619.93,399.40 620.54,399.40 621.14,399.40 621.75,399.40 622.36,544.00 622.96,544.00 623.57,544.00 624.18,544.00 624.79,544.00 625.39,544.00 626.00,544.00 626.61,544.00 627.21,544.00 627.82,544.00 628.43,544.00 629.04,544.00 629.64,544.00 630.25,544.00 630.86,544.00 631.46,544.00 632.07,544.00 632.68,544.00 633.29,544.00 633.89,544.00 634.50,544.00 635.11,544.00 635.71,544.00 636.32,544.00 636.93,544.00 637.54,544.00 638.14,544.00 638.75,544.00 639.36,544.00 639.96,544.00 640.57,544.00 641.18,544.00 641.79,544.00 642.39,544.00 643.00,544.00 643.61,544.00 644.21,544.00 644.82,544.00 645.43,544.00 646.04,544.00 646.64,544.00 647.25,544.00 647.86,544.00 648.46,544.00 649.07,399.40 649.68,399.40 650.29,399.40 650.89,399.40 651.50,399.40 652.11,399.40 652.71,399.40 653.32,399.40 653.93,399.40 654.54,399.40 655.14,399.40 655.75,399.40 656.36,399.40 656.96,399.40 657.57,399.40 658.18,399.40 658.79,399.40 659.39,399.40 660.00,399.40 660.61,399.40 661.21,399.40 661.82,399.40 662.43,399.40 663.04,399.40 663.64,399.40 664.25,399.40 664.86,399.40 665.46,399.40 666.07,399.40 666.68,399.40 667.29,399.40 667.89,399.40 668.50,399.40 669.11,399.40 669.71,399.40 670.32,399.40 670.93,399.40 671.54,399.40 672.14,399.40 672.75,399.40 673.36,399.40 673.96,399.40 674.57,399.40 675.18,399.40 675.79,399.40 676.39,399.40 677.00,399.40 677.61,399.40 678.21,399.40 678.82,399.40 679.43,544.00 680.04,544.00 680.64,544.00 681.25,544.00 681.86,544.00 682.46,544.00 683.07,544.00 683.68,544.00 684.29,544.00 684.89,544.00 685.50,544.00 686.11,544.00 686.71,544.00 687.32,544.00 687.93,544.00 688.54,544.00 689.14,544.00 689.75,399.40 690.36,399.40 690.96,399.40 691.57,399.40 692.18,399.40 692.79,399.40 693.39,399.40 694.00,399.40 694.61,399.40 695.21,399.40 695.82,399.40 696.43,399.40 697.04,399.40 697.64,399.40 698.25,399.40 698.86,399.40 699.46,399.40 700.07,399.40 700.68,399.40 701.29,399.40 701.89,399.40 702.50,399.40 703.11,399.40 703.71,399.40 704.32,399.40 704.93,399.40 705.54,399.40 706.14,399.40 706.75,399.40 707.36,399.40 707.96,399.40 708.57,399.40 709.18,399.40 709.79,399.40 710.39,399.40 711.00,399.40 711.61,399.40 712.21,399.40 712.82,399.40 713.43,399.40 714.04,399.40 714.64,544.00 715.25,544.00 715.86,544.00 716.46,544.00 717.07,544.00 717.68,544.00 718.29,544.00 718.89,544.00 719.50,544.00 720.11,544.00 720.71,544.00 721.32,544.00 721.93,544.00 722.54,544.00 723.14,544.00 723.75,544.00 724.36,544.00 724.96,544.00 725.57,544.00 726.18,544.00 726.79,544.00 727.39,544.00 728.00,544.00 728.61,544.00 729.21,544.00 729.82,544.00 730.43,544.00 731.04,544.00 731.64,544.00 732.25,544.00 732.86,544.00 733.46,544.00 734.07,544.00 734.68,544.00 735.29,544.00 735.89,544.00 736.50,544.00 737.11,544.00 737.71,544.00 738.32,544.00 738.93,544.00 739.54,544.00 740.14,544.00 740.75,544.00 741.36,544.00 741.96,544.00 742.57,544.00 743.18,544.00 743.79,544.00 744.39,544.00 745.00,399.40 745.61,399.40 746.21,399.40 746.82,399.40 747.43,399.40 748.04,399.40 748.64,399.40 749.25,399.40 749.86,399.40 750.46,399.40 751.07,399.40 751.68,399.40 752.29,399.40 752.89,399.40 753.50,399.40 754.11,399.40 754.71,399.40 755.32,399.40 755.93,399.40 756.54,399.40 757.14,399.40 757.75,399.40 758.36,399.40 758.96,399.40 759.57,399.40 760.18,399.40 760.79,399.40 761.39,399.40 762.00,399.40 762.61,399.40 763.21,399.40 763.82,399.40 764.43,399.40 765.04,399.40 765.64,399.40 766.25,399.40 766.86,399.40 767.46,399.40 768.07,399.40 768.68,399.40 769.29,399.40 769.89,399.40 770.50,399.40 771.11,399.40 771.71,399.40 772.32,399.40 772.93,399.40 773.54,399.40 774.14,399.40 774.75,399.40 775.36,399.40 775.96,399.40 776.57,399.40 777.18,399.40 777.79,399.40 778.39,399.40 779.00,399.40 779.61,399.40 780.21,399.40 780.82,399.40 781.43,399.40 782.04,399.40 782.64,399.40 783.25,399.40 783.86,399.40 784.46,399.40 785.07,399.40 785.68,399.40 786.29,399.40 786.89,399.40 787.50,399.40 788.11,399.40 788.71,399.40 789.32,399.40 789.93,399.40 790.54,399.40 791.14,399.40 791.75,399.40 792.36,399.40 792.96,399.40 793.57,399.40 794.18,399.40 794.79,399.40 795.39,399.40 796.00,399.40 796.61,399.40 797.21,399.40 797.82,399.40 798.43,399.40 799.04,399.40 799.64,399.40 800.25,399.40 800.86,399.40 801.46,399.40 802.07,399.40 802.68,399.40 803.29,399.40 803.89,399.40 804.50,399.40 805.11,399.40 805.71,544.00 806.32,544.00 806.93,544.00 807.54,544.00 808.14,544.00 808.75,544.00 809.36,544.00 809.96,544.00 810.57,544.00 811.18,399.40 811.79,399.40 812.39,399.40 813.00,399.40 813.61,399.40 814.21,399.40 814.82,399.40 815.43,399.40 816.04,399.40 816.64,399.40 817.25,399.40 817.86,399.40 818.46,399.40 819.07,399.40 819.68,399.40 820.29,399.40 820.89,399.40 821.50,399.40 822.11,399.40 822.71,399.40 823.32,399.40 823.93,399.40 824.54,399.40 825.14,399.40 825.75,544.00 826.36,399.40 826.96,544.00 827.57,544.00 828.18,544.00 828.79,544.00 829.39,544.00 830.00,544.00 830.61,544.00 831.21,544.00 831.82,399.40 832.43,399.40 833.04,399.40 833.64,399.40 834.25,399.40 834.86,399.40 835.46,399.40 836.07,399.40 836.68,399.40 837.29,544.00 837.89,544.00 838.50,544.00 839.11,544.00 839.71,544.00 840.32,544.00 840.93,544.00 841.54,544.00 842.14,544.00 842.75,544.00 843.36,544.00 843.96,544.00 844.57,544.00 845.18,399.40 845.79,399.40 846.39,399.40 847.00,399.40 847.61,399.40 848.21,399.40 848.82,399.40 849.43,544.00 850.04,399.40 850.64,399.40 851.25,399.40 851.86,399.40 852.46,544.00 853.07,544.00 853.68,399.40 854.29,399.40 854.89,399.40 855.50,399.40 856.11,399.40 856.71,399.40 857.32,399.40 857.93,399.40 858.54,399.40 859.14,399.40 859.75,399.40 860.36,399.40 860.96,544.00 861.57,544.00 862.18,544.00 862.79,544.00 863.39,544.00 864.00,544.00 864.61,544.00 865.21,544.00 865.82,544.00 866.43,544.00 867.04,544.00 867.64,544.00 868.25,544.00 868.86,399.40 869.46,399.40 870.07,399.40 870.68,399.40 871.29,399.40 871.89,399.40 872.50,399.40 873.11,399.40 873.71,399.40 874.32,399.40 874.93,399.40 875.54,399.40 876.14,399.40 876.75,399.40 877.36,399.40 877.96,399.40 878.57,399.40 879.18,399.40 879.79,399.40 880.39,399.40 881.00,399.40 881.61,399.40 882.21,399.40 882.82,399.40 883.43,399.40 884.04,399.40 884.64,399.40 885.25,399.40 885.86,399.40 886.46,544.00 887.07,544.00 887.68,544.00 888.29,544.00 888.89,544.00 889.50,544.00 890.11,544.00 890.71,544.00 891.32,544.00 891.93,544.00 892.54,544.00 893.14,544.00 893.75,544.00 894.36,544.00 894.96,544.00 895.57,544.00 896.18,544.00 896.79,544.00 897.39,544.00 898.00,544.00 898.61,544.00 899.21,544.00 899.82,544.00 900.43,544.00 901.04,399.40 901.64,399.40 902.25,399.40 902.86,399.40 903.46,399.40 904.07,399.40 904.68,399.40 905.29,399.40 905.89,399.40 906.50,399.40 907.11,399.40 907.71,399.40 908.32,399.40 908.93,399.40 909.54,399.40 910.14,399.40 910.75,399.40 911.36,399.40 911.96,399.40 912.57,399.40 913.18,399.40 913.79,399.40 914.39,399.40 915.00,399.40 915.61,399.40 916.21,544.00 916.82,544.00 917.43,544.00 918.04,544.00 918.64,544.00 919.25,544.00 919.86,544.00 920.46,544.00 921.07,544.00 921.68,544.00 922.29,544.00 922.89,544.00 923.50,544.00 924.11,544.00 924.71,544.00 925.32,544.00 925.93,544.00 926.54,544.00 927.14,544.00 927.75,544.00 928.36,544.00 928.96,544.00 929.57,544.00 930.18,544.00 930.79,544.00 931.39,544.00 932.00,544.00 932.61,544.00 933.21,544.00 933.82,544.00 934.43,544.00 935.04,544.00 935.64,544.00 936.25,544.00 936.86,544.00 937.46,399.40 938.07,399.40 938.68,399.40 939.29,399.40 939.89,399.40 940.50,544.00 941.11,544.00 941.71,544.00 942.32,544.00 942.93,544.00 943.54,544.00 944.14,544.00 944.75,544.00 945.36,399.40 945.96,399.40 946.57,399.40 947.18,399.40 947.79,399.40 948.39,399.40 949.00,399.40 949.61,399.40 950.21,399.40 950.82,399.40 951.43,399.40 952.04,399.40 952.64,399.40 953.25,399.40 953.86,399.40 954.46,399.40 955.07,399.40 955.68,399.40 956.29,399.40 956.89,399.40 957.50,399.40 958.11,399.40 958.71,399.40 959.32,399.40 959.93,399.40 960.54,399.40 961.14,399.40 961.75,399.40 962.36,399.40 962.96,399.40 963.57,399.40 964.18,399.40 964.79,399.40 965.39,399.40 966.00,399.40 966.61,399.40 967.21,399.40 967.82,399.40 968.43,399.40 969.04,399.40 969.64,399.40 970.25,399.40 970.86,399.40 971.46,399.40 972.07,399.40 972.68,399.40 973.29,399.40 973.89,399.40 974.50,399.40 975.11,399.40 975.71,399.40 976.32,399.40 976.93,399.40 977.54,399.40 978.14,399.40 978.75,399.40 979.36,399.40 979.96,399.40 980.57,399.40 981.18,399.40 981.79,399.40 982.39,399.40 983.00,399.40 983.61,399.40 984.21,399.40 984.82,399.40 985.43,399.40 986.04,399.40 986.64,399.40 987.25,399.40 987.86,399.40 988.46,399.40 989.07,399.40 989.68,399.40 990.29,399.40 990.89,399.40 991.50,399.40 992.11,399.40 992.71,399.40 993.32,447.60 993.93,447.60 994.54,447.60 995.14,447.60 995.75,447.60 996.36,447.60 996.96,447.60 997.57,447.60 998.18,447.60 998.79,447.60 999.39,447.60 1000.00,447.60 1000.61,447.60 1001.21,447.60 1001.82,447.60 1002.43,447.60 1003.04,544.00 1003.64,544.00 1004.25,544.00 1004.86,544.00 1005.46,544.00 1006.07,544.00 1006.68,544.00 1007.29,544.00 1007.89,544.00 1008.50,544.00 1009.11,544.00 1009.71,544.00 1010.32,544.00 1010.93,544.00 1011.54,544.00 1012.14,544.00 1012.75,544.00 1013.36,544.00 1013.96,544.00 1014.57,544.00 1015.18,544.00 1015.79,544.00 1016.39,544.00 1017.00,544.00 1017.61,544.00 1018.21,544.00 1018.82,544.00 1019.43,544.00 1020.04,544.00 1020.64,544.00 1021.25,544.00 1021.86,544.00 1022.46,544.00 1023.07,544.00 1023.68,544.00 1024.29,544.00 1024.89,544.00 1025.50,544.00 1026.11,544.00 1026.71,544.00 1027.32,544.00 1027.93,544.00 1028.54,544.00 1029.14,544.00 1029.75,544.00 1030.36,544.00 1030.96,544.00 1031.57,544.00 1032.18,544.00 1032.79,544.00 1033.39,544.00 1034.00,544.00 1034.61,544.00 1035.21,544.00 1035.82,544.00 1036.43,544.00 1037.04,544.00 1037.64,544.00 1038.25,544.00 1038.86,544.00 1039.46,544.00 1040.07,544.00 1040.68,544.00 1041.29,544.00 1041.89,544.00 1042.50,544.00 1043.11,544.00 1043.71,544.00 1044.32,544.00 1044.93,544.00 1045.54,544.00 1046.14,544.00 1046.75,544.00 1047.36,544.00 1047.96,544.00 1048.57,544.00 1049.18,544.00 1049.79,544.00 1050.39,544.00 1051.00,544.00 1051.61,544.00 1052.21,544.00 1052.82,544.00 1053.43,544.00 1054.04,544.00 1054.64,544.00 1055.25,544.00 1055.86,544.00 1056.46,544.00 1057.07,544.00 1057.68,544.00 1058.29,544.00 1058.89,544.00 1059.50,544.00 1060.11,544.00 1060.71,544.00 1061.32,544.00 1061.93,544.00 1062.54,544.00 1063.14,544.00 1063.75,544.00 1064.36,544.00 1064.96,544.00 1065.57,544.00 1066.18,544.00 1066.79,544.00 1067.39,544.00 1068.00,544.00 1068.61,544.00 1069.21,544.00 1069.82,544.00 1070.43,544.00 1071.04,544.00 1071.64,544.00 1072.25,544.00 1072.86,544.00 1073.46,544.00 1074.07,158.40 1074.68,158.40 1075.29,158.40 1075.89,158.40 1076.50,158.40 1077.11,158.40 1077.71,158.40 1078.32,158.40 1078.93,158.40 1079.54,158.40 1080.14,158.40 1080.75,158.40 1081.36,158.40 1081.96,158.40 1082.57,158.40 1083.18,158.40 1083.79,158.40 1084.39,158.40 1085.00,158.40 1085.61,158.40 1086.21,158.40 1086.82,158.40 1087.43,158.40 1088.04,158.40 1088.64,158.40 1089.25,158.40 1089.86,158.40 1090.46,158.40 1091.07,158.40 1091.68,158.40 1092.29,158.40 1092.89,158.40 1093.50,158.40 1094.11,158.40 1094.71,158.40 1095.32,158.40 1095.93,158.40 1096.54,158.40 1097.14,158.40 1097.75,158.40 1098.36,158.40 1098.96,158.40 1099.57,158.40 1100.18,158.40 1100.79,158.40 1101.39,158.40 1102.00,158.40 1102.61,158.40 1103.21,158.40 1103.82,158.40 1104.43,158.40 1105.04,158.40 1105.64,158.40 1106.25,158.40 1106.86,158.40 1107.46,158.40 1108.07,158.40 1108.68,158.40 1109.29,158.40 1109.89,158.40 1110.50,158.40 1111.11,158.40 1111.71,158.40 1112.32,158.40 1112.93,158.40 1113.54,158.40 1114.14,158.40 1114.75,158.40 1115.36,158.40 1115.96,158.40 1116.57,158.40 1117.18,158.40 1117.79,158.40 1118.39,158.40 1119.00,158.40 1119.61,303.00 1120.21,544.00 1120.82,544.00 1121.43,544.00 1122.04,544.00 1122.64,544.00 1123.25,544.00 1123.86,544.00 1124.46,544.00 1125.07,544.00 1125.68,544.00 1126.29,544.00 1126.89,544.00 1127.50,544.00 1128.11,544.00 1128.71,544.00 1129.32,544.00 1129.93,544.00 1130.54,544.00 1131.14,544.00 1131.75,544.00 1132.36,544.00 1132.96,544.00 1133.57,544.00 1134.18,544.00 1134.79,544.00 1135.39,544.00 1136.00,544.00 1136.61,544.00 1137.21,544.00 1137.82,544.00 1138.43,158.40 1139.04,158.40 1139.64,158.40 1140.25,158.40 1140.86,158.40 1141.46,158.40 1142.07,158.40 1142.68,158.40 1143.29,158.40 1143.89,158.40 1144.50,158.40 1145.11,158.40 1145.71,158.40 1146.32,158.40 1146.93,158.40 1147.54,158.40 1148.14,158.40 1148.75,158.40 1149.36,158.40 1149.96,158.40 1150.57,158.40 1151.18,158.40 1151.79,158.40 1152.39,158.40 1153.00,158.40 1153.61,158.40 1154.21,158.40 1154.82,158.40 1155.43,158.40 1156.04,158.40 1156.64,158.40 1157.25,158.40 1157.86,158.40 1158.46,158.40 1159.07,158.40 1159.68,158.40 1160.29,158.40 1160.89,544.00 1161.50,544.00 1162.11,544.00 1162.71,544.00 1163.32,544.00 1163.93,544.00 1164.54,544.00 1165.14,544.00 1165.75,544.00 1166.36,158.40 1166.96,158.40 1167.57,158.40 1168.18,158.40 1168.79,158.40 1169.39,158.40 1170.00,158.40 1170.61,158.40 1171.21,158.40 1171.82,158.40 1172.43,158.40 1173.04,158.40 1173.64,158.40 1174.25,158.40 1174.86,158.40 1175.46,158.40 1176.07,158.40 1176.68,158.40 1177.29,158.40 1177.89,158.40 1178.50,158.40 1179.11,158.40 1179.71,158.40 1180.32,158.40 1180.93,158.40 1181.54,544.00 1182.14,158.40 1182.75,158.40 1183.36,544.00 1183.96,158.40 1184.57,158.40 1185.18,158.40 1185.79,158.40 1186.39,158.40 1187.00,158.40 1187.61,158.40 1188.21,158.40 1188.82,158.40 1189.43,158.40 1190.04,158.40 1190.64,158.40 1191.25,158.40 1191.86,158.40 1192.46,158.40 1193.07,158.40 1193.68,158.40 1194.29,158.40 1194.89,158.40 1195.50,158.40 1196.11,158.40 1196.71,158.40 1197.32,158.40 1197.93,158.40 1198.54,158.40 1199.14,158.40 1199.75,158.40 1200.36,158.40 1200.96,158.40 1201.57,158.40 1202.18,158.40 1202.79,158.40 1203.39,158.40 1204.00,158.40 1204.61,158.40 1205.21,158.40 1205.82,158.40 1206.43,158.40 1207.04,158.40 1207.64,158.40 1208.25,158.40 1208.86,158.40 1209.46,158.40 1210.07,158.40 1210.68,158.40 1211.29,158.40 1211.89,158.40 1212.50,158.40 1213.11,158.40 1213.71,158.40 1214.32,158.40 1214.93,158.40 1215.54,158.40 1216.14,158.40 1216.75,158.40 1217.36,158.40 1217.96,158.40 1218.57,158.40 1219.18,158.40 1219.79,158.40 1220.39,158.40 1221.00,158.40 1221.61,158.40 1222.21,158.40 1222.82,158.40 1223.43,158.40 1224.04,158.40 1224.64,158.40 1225.25,158.40 1225.86,158.40 1226.46,158.40 1227.07,158.40 1227.68,158.40 1228.29,158.40 1228.89,158.40 1229.50,158.40 1230.11,158.40 1230.71,158.40 1231.32,158.40 1231.93,158.40 1232.54,158.40 1233.14,158.40 1233.75,158.40 1234.36,158.40 1234.96,158.40 1235.57,158.40 1236.18,158.40 1236.79,158.40 1237.39,158.40 1238.00,158.40"/>
<line x1="100" y1="86" x2="134" y2="86" stroke="#073b3a" stroke-width="4"/>
<text class="small" x="144" y="91">NDX w czesci akcyjnej: 80.0%; SPX: 20.0%</text>
</svg>