<?xml version="1.0" encoding="UTF-8"?>
<svg xmlns="http://www.w3.org/2000/svg" width="1280" height="620" viewBox="0 0 1280 620">
<rect width="100%" height="100%" fill="#fbfbf8"/>
<style>text{font-family:Segoe UI,Arial,sans-serif;fill:#222}.title{font-size:24px;font-weight:700}.small{font-size:13px}.tick{font-size:12px;fill:#555}.axis{font-size:14px;font-weight:600}</style>
<text class="title" x="82" y="32">Proporcja SPX / NDX w czesci akcyjnej</text>
<text class="small" x="82" y="56">Jedna linia pokazuje udzial NDX w czesci akcyjnej: 0% = calosc SPX, 50% = 50/50, 100% = calosc NDX</text>
<line x1="82" y1="544.00" x2="1238" y2="544.00" stroke="#deded8" stroke-width="1"/>
<text class="tick" x="72" y="548.00" text-anchor="end">0%</text>
<line x1="82" y1="495.80" x2="1238" y2="495.80" stroke="#deded8" stroke-width="1"/>
<text class="tick" x="72" y="499.80" text-anchor="end">10%</text>
<line x1="82" y1="447.60" x2="1238" y2="447.60" stroke="#deded8" stroke-width="1"/>
<text class="tick" x="72" y="451.60" text-anchor="end">20%</text>
<line x1="82" y1="399.40" x2="1238" y2="399.40" stroke="#deded8" stroke-width="1"/>
<text class="tick" x="72" y="403.40" text-anchor="end">30%</text>
<line x1="82" y1="351.20" x2="1238" y2="351.20" stroke="#deded8" stroke-width="1"/>
<text class="tick" x="72" y="355.20" text-anchor="end">40%</text>
<line x1="82" y1="303.00" x2="1238" y2="303.00" stroke="#deded8" stroke-width="1"/>
<text class="tick" x="72" y="307.00" text-anchor="end">50%</text>
<line x1="82" y1="254.80" x2="1238" y2="254.80" stroke="#deded8" stroke-width="1"/>
<text class="tick" x="72" y="258.80" text-anchor="end">60%</text>
<line x1="82" y1="206.60" x2="1238" y2="206.60" stroke="#deded8" stroke-width="1"/>
<text class="tick" x="72" y="210.60" text-anchor="end">70%</text>
<line x1="82" y1="158.40" x2="1238" y2="158.40" stroke="#deded8" stroke-width="1"/>
<text class="tick" x="72" y="162.40" text-anchor="end">80%</text>
<line x1="82" y1="110.20" x2="1238" y2="110.20" stroke="#deded8" stroke-width="1"/>
<text class="tick" x="72" y="114.20" text-anchor="end">90%</text>
<line x1="82" y1="62.00" x2="1238" y2="62.00" stroke="#deded8" stroke-width="1"/>
<text class="tick" x="72" y="66.00" text-anchor="end">100%</text>
<line x1="90.31" y1="62" x2="90.31" y2="544" stroke="#eeeeea" stroke-width="1"/>
<text class="tick" x="90.31" y="578" text-anchor="middle">1955</text>
<line x1="170.28" y1="62" x2="170.28" y2="544" stroke="#eeeeea" stroke-width="1"/>
<text class="tick" x="170.28" y="578" text-anchor="middle">1960</text>
<line x1="250.57" y1="62" x2="250.57" y2="544" stroke="#eeeeea" stroke-width="1"/>
<text class="tick" x="250.57" y="578" text-anchor="middle">1965</text>
<line x1="330.86" y1="62" x2="330.86" y2="544" stroke="#eeeeea" stroke-width="1"/>
<text class="tick" x="330.86" y="578" text-anchor="middle">1970</text>
<line x1="411.14" y1="62" x2="411.14" y2="544" stroke="#eeeeea" stroke-width="1"/>
<text class="tick" x="411.14" y="578" text-anchor="middle">1975</text>
<line x1="491.43" y1="62" x2="491.43" y2="544" stroke="#eeeeea" stroke-width="1"/>
<text class="tick" x="491.43" y="578" text-anchor="middle">1980</text>
<line x1="571.72" y1="62" x2="571.72" y2="544" stroke="#eeeeea" stroke-width="1"/>
<text class="tick" x="571.72" y="578" text-anchor="middle">1985</text>
<line x1="652.00" y1="62" x2="652.00" y2="544" stroke="#eeeeea" stroke-width="1"/>
<text class="tick" x="652.00" y="578" text-anchor="middle">1990</text>
<line x1="732.29" y1="62" x2="732.29" y2="544" stroke="#eeeeea" stroke-width="1"/>
<text class="tick" x="732.29" y="578" text-anchor="middle">1995</text>
<line x1="812.57" y1="62" x2="812.57" y2="544" stroke="#eeeeea" stroke-width="1"/>
<text class="tick" x="812.57" y="578" text-anchor="middle">2000</text>
<line x1="892.86" y1="62" x2="892.86" y2="544" stroke="#eeeeea" stroke-width="1"/>
<text class="tick" x="892.86" y="578" text-anchor="middle">2005</text>
<line x1="972.84" y1="62" x2="972.84" y2="544" stroke="#eeeeea" stroke-width="1"/>
<text class="tick" x="972.84" y="578" text-anchor="middle">2010</text>
<line x1="1053.13" y1="62" x2="1053.13" y2="544" stroke="#eeeeea" stroke-width="1"/>
<text class="tick" x="1053.13" y="578" text-anchor="middle">2015</text>
<line x1="1133.41" y1="62" x2="1133.41" y2="544" stroke="#eeeeea" stroke-width="1"/>
<text class="tick" x="1133.41" y="578" text-anchor="middle">2020</text>
<line x1="1213.70" y1="62" x2="1213.70" y2="544" stroke="#eeeeea" stroke-width="1"/>
<text class="tick" x="1213.70" y="578" text-anchor="middle">2025</text>
<line x1="82" y1="62" x2="82" y2="544" stroke="#333" stroke-width="1.2"/>
<line x1="82" y1="544" x2="1238" y2="544" stroke="#333" stroke-width="1.2"/>
<text class="axis" transform="translate(24 303.00) rotate(-90)" text-anchor="middle">Udzial NDX w czesci akcyjnej</text>
<text class="small" x="1246" y="548.00" fill="#555">SPX</text>
<text class="small" x="1246" y="307.00" fill="#555">50/50</text>
<text class="small" x="1246" y="66.00" fill="#555">NDX</text>
<polyline fill="none" stroke="#073b3a" stroke-width="3.8" stroke-linejoin="round" stroke-linecap="round" points="82.00,544.00 82.31,544.00 82.62,544.00 82.92,544.00 83.23,544.00 83.54,544.00 83.85,544.00 84.15,544.00 84.46,544.00 84.77,544.00 85.08,544.00 85.38,544.00 85.69,544.00 86.00,544.00 86.31,544.00 86.61,544.00 86.92,544.00 87.23,544.00 87.54,544.00 87.84,544.00 88.15,544.00 88.46,544.00 88.77,544.00 89.08,544.00 89.38,544.00 89.69,544.00 90.00,544.00 90.31,544.00 90.61,544.00 90.92,544.00 91.23,544.00 91.54,544.00 91.84,544.00 92.15,544.00 92.46,544.00 92.77,544.00 93.07,544.00 93.38,544.00 93.69,544.00 94.00,544.00 94.30,544.00 94.61,544.00 94.92,544.00 95.23,544.00 95.53,544.00 95.84,544.00 96.15,544.00 96.46,544.00 96.77,544.00 97.07,544.00 97.38,544.00 97.69,544.00 98.00,544.00 98.30,544.00 98.61,544.00 98.92,544.00 99.23,544.00 99.53,544.00 99.84,544.00 100.15,544.00 100.46,544.00 100.76,544.00 101.07,544.00 101.38,544.00 101.69,544.00 101.99,544.00 102.30,544.00 102.61,544.00 102.92,544.00 103.23,544.00 103.53,544.00 103.84,544.00 104.15,544.00 104.46,544.00 104.76,544.00 105.07,544.00 105.38,544.00 105.69,544.00 105.99,544.00 106.30,544.00 106.61,544.00 106.92,544.00 107.22,544.00 107.53,544.00 107.84,544.00 108.15,544.00 108.45,544.00 108.76,544.00 109.07,544.00 109.38,544.00 109.68,544.00 109.99,544.00 110.30,544.00 110.61,544.00 110.92,544.00 111.22,544.00 111.53,544.00 111.84,544.00 112.15,544.00 112.45,544.00 112.76,544.00 113.07,544.00 113.38,544.00 113.68,544.00 113.99,544.00 114.30,544.00 114.61,544.00 114.91,544.00 115.22,544.00 115.53,544.00 115.84,544.00 116.14,544.00 116.45,544.00 116.76,544.00 117.07,544.00 117.38,544.00 117.68,544.00 117.99,544.00 118.30,544.00 118.61,544.00 118.91,544.00 119.22,544.00 119.53,544.00 119.84,544.00 120.14,544.00 120.45,544.00 120.76,544.00 121.07,544.00 121.37,544.00 121.68,544.00 121.99,544.00 122.30,544.00 122.60,544.00 122.91,544.00 123.22,544.00 123.53,544.00 123.84,544.00 124.14,544.00 124.45,544.00 124.76,544.00 125.07,544.00 125.37,544.00 125.68,544.00 125.99,544.00 126.30,544.00 126.60,544.00 126.91,544.00 127.22,544.00 127.53,544.00 127.83,544.00 128.14,544.00 128.45,544.00 128.76,544.00 129.06,544.00 129.37,544.00 129.68,544.00 129.99,544.00 130.29,544.00 130.60,544.00 130.91,544.00 131.22,544.00 131.53,544.00 131.83,544.00 132.14,544.00 132.45,544.00 132.76,544.00 133.06,544.00 133.37,544.00 133.68,544.00 133.99,544.00 134.29,544.00 134.60,544.00 134.91,544.00 135.22,544.00 135.52,544.00 135.83,544.00 136.14,544.00 136.45,544.00 136.75,544.00 137.06,544.00 137.37,544.00 137.68,544.00 137.99,544.00 138.29,544.00 138.60,544.00 138.91,544.00 139.22,544.00 139.52,544.00 139.83,544.00 140.14,544.00 140.45,544.00 140.75,544.00 141.06,544.00 141.37,544.00 141.68,544.00 141.98,544.00 142.29,544.00 142.60,544.00 142.91,544.00 143.21,544.00 143.52,544.00 143.83,544.00 144.14,544.00 144.44,544.00 144.75,544.00 145.06,544.00 145.37,544.00 145.68,544.00 145.98,544.00 146.29,544.00 146.60,544.00 146.91,544.00 147.21,544.00 147.52,544.00 147.83,544.00 148.14,544.00 148.44,544.00 148.75,544.00 149.06,544.00 149.37,544.00 149.67,544.00 149.98,544.00 150.29,544.00 150.60,544.00 150.90,544.00 151.21,544.00 151.52,544.00 151.83,544.00 152.14,544.00 152.44,544.00 152.75,544.00 153.06,544.00 153.37,544.00 153.67,544.00 153.98,544.00 154.29,544.00 154.60,544.00 154.90,544.00 155.21,544.00 155.52,544.00 155.83,544.00 156.13,544.00 156.44,544.00 156.75,544.00 157.06,544.00 157.36,544.00 157.67,544.00 157.98,544.00 158.29,544.00 158.59,544.00 158.90,544.00 159.21,544.00 159.52,544.00 159.83,544.00 160.13,544.00 160.44,544.00 160.75,544.00 161.06,544.00 161.36,544.00 161.67,544.00 161.98,544.00 162.29,544.00 162.59,544.00 162.90,544.00 163.21,544.00 163.52,544.00 163.82,544.00 164.13,544.00 164.44,544.00 164.75,544.00 165.05,544.00 165.36,544.00 165.67,544.00 165.98,544.00 166.29,544.00 166.59,544.00 166.90,544.00 167.21,544.00 167.52,544.00 167.82,544.00 168.13,544.00 168.44,544.00 168.75,544.00 169.05,544.00 169.36,544.00 169.67,544.00 169.98,544.00 170.28,544.00 170.59,544.00 170.90,544.00 171.21,544.00 171.51,544.00 171.82,544.00 172.13,544.00 172.44,544.00 172.75,544.00 173.05,544.00 173.36,544.00 173.67,544.00 173.98,544.00 174.28,544.00 174.59,544.00 174.90,544.00 175.21,544.00 175.51,544.00 175.82,544.00 176.13,544.00 176.44,544.00 176.74,544.00 177.05,544.00 177.36,544.00 177.67,544.00 177.97,544.00 178.28,544.00 178.59,544.00 178.90,544.00 179.20,544.00 179.51,544.00 179.82,544.00 180.13,544.00 180.44,544.00 180.74,544.00 181.05,544.00 181.36,544.00 181.67,544.00 181.97,544.00 182.28,544.00 182.59,544.00 182.90,544.00 183.20,544.00 183.51,544.00 183.82,544.00 184.13,544.00 184.43,544.00 184.74,544.00 185.05,544.00 185.36,544.00 185.66,544.00 185.97,544.00 186.28,544.00 186.59,544.00 186.90,544.00 187.20,544.00 187.51,544.00 187.82,544.00 188.13,544.00 188.43,544.00 188.74,544.00 189.05,544.00 189.36,544.00 189.66,544.00 189.97,544.00 190.28,544.00 190.59,544.00 190.89,544.00 191.20,544.00 191.51,544.00 191.82,544.00 192.12,544.00 192.43,544.00 192.74,544.00 193.05,544.00 193.35,544.00 193.66,544.00 193.97,544.00 194.28,544.00 194.59,544.00 194.89,544.00 195.20,544.00 195.51,544.00 195.82,544.00 196.12,544.00 196.43,544.00 196.74,544.00 197.05,544.00 197.35,544.00 197.66,544.00 197.97,544.00 198.28,544.00 198.58,544.00 198.89,544.00 199.20,544.00 199.51,544.00 199.81,544.00 200.12,544.00 200.43,544.00 200.74,544.00 201.05,544.00 201.35,544.00 201.66,544.00 201.97,544.00 202.28,544.00 202.58,544.00 202.89,544.00 203.20,544.00 203.51,544.00 203.81,544.00 204.12,544.00 204.43,544.00 204.74,544.00 205.04,544.00 205.35,544.00 205.66,544.00 205.97,544.00 206.27,544.00 206.58,544.00 206.89,544.00 207.20,544.00 207.51,544.00 207.81,544.00 208.12,544.00 208.43,544.00 208.74,544.00 209.04,544.00 209.35,544.00 209.66,544.00 209.97,544.00 210.27,544.00 210.58,544.00 210.89,544.00 211.20,544.00 211.50,544.00 211.81,544.00 212.12,544.00 212.43,544.00 212.73,544.00 213.04,544.00 213.35,544.00 213.66,544.00 213.96,544.00 214.27,544.00 214.58,544.00 214.89,544.00 215.20,544.00 215.50,544.00 215.81,544.00 216.12,544.00 216.43,544.00 216.73,544.00 217.04,544.00 217.35,544.00 217.66,544.00 217.96,544.00 218.27,544.00 218.58,544.00 218.89,544.00 219.19,544.00 219.50,544.00 219.81,544.00 220.12,544.00 220.42,544.00 220.73,544.00 221.04,544.00 221.35,544.00 221.66,544.00 221.96,544.00 222.27,544.00 222.58,544.00 222.89,544.00 223.19,544.00 223.50,544.00 223.81,544.00 224.12,544.00 224.42,544.00 224.73,544.00 225.04,544.00 225.35,544.00 225.65,544.00 225.96,544.00 226.27,544.00 226.58,544.00 226.88,544.00 227.19,544.00 227.50,544.00 227.81,544.00 228.11,544.00 228.42,544.00 228.73,544.00 229.04,544.00 229.35,544.00 229.65,544.00 229.96,544.00 230.27,544.00 230.58,544.00 230.88,544.00 231.19,544.00 231.50,544.00 231.81,544.00 232.11,544.00 232.42,544.00 232.73,544.00 233.04,544.00 233.34,544.00 233.65,544.00 233.96,544.00 234.27,544.00 234.57,544.00 234.88,544.00 235.19,544.00 235.50,544.00 235.81,544.00 236.11,544.00 236.42,544.00 236.73,544.00 237.04,544.00 237.34,544.00 237.65,544.00 237.96,544.00 238.27,544.00 238.57,544.00 238.88,544.00 239.19,544.00 239.50,544.00 239.80,544.00 240.11,544.00 240.42,544.00 240.73,544.00 241.03,544.00 241.34,544.00 241.65,544.00 241.96,544.00 242.27,544.00 242.57,544.00 242.88,544.00 243.19,544.00 243.50,544.00 243.80,544.00 244.11,544.00 244.42,544.00 244.73,544.00 245.03,544.00 245.34,544.00 245.65,544.00 245.96,544.00 246.26,544.00 246.57,544.00 246.88,544.00 247.19,544.00 247.49,544.00 247.80,544.00 248.11,544.00 248.42,544.00 248.72,544.00 249.03,544.00 249.34,544.00 249.65,544.00 249.96,544.00 250.26,544.00 250.57,544.00 250.88,544.00 251.19,544.00 251.49,544.00 251.80,544.00 252.11,544.00 252.42,544.00 252.72,544.00 253.03,544.00 253.34,544.00 253.65,544.00 253.95,544.00 254.26,544.00 254.57,544.00 254.88,544.00 255.18,544.00 255.49,544.00 255.80,544.00 256.11,544.00 256.42,544.00 256.72,544.00 257.03,544.00 257.34,544.00 257.65,544.00 257.95,544.00 258.26,544.00 258.57,544.00 258.88,544.00 259.18,544.00 259.49,544.00 259.80,544.00 260.11,544.00 260.41,544.00 260.72,544.00 261.03,544.00 261.34,544.00 261.64,544.00 261.95,544.00 262.26,544.00 262.57,544.00 262.87,544.00 263.18,544.00 263.49,544.00 263.80,544.00 264.11,544.00 264.41,544.00 264.72,544.00 265.03,544.00 265.34,544.00 265.64,544.00 265.95,544.00 266.26,544.00 266.57,544.00 266.87,544.00 267.18,544.00 267.49,544.00 267.80,544.00 268.10,544.00 268.41,544.00 268.72,544.00 269.03,544.00 269.33,544.00 269.64,544.00 269.95,544.00 270.26,544.00 270.57,544.00 270.87,544.00 271.18,544.00 271.49,544.00 271.80,544.00 272.10,544.00 272.41,544.00 272.72,544.00 273.03,544.00 273.33,544.00 273.64,544.00 273.95,544.00 274.26,544.00 274.56,544.00 274.87,544.00 275.18,544.00 275.49,544.00 275.79,544.00 276.10,544.00 276.41,544.00 276.72,544.00 277.03,544.00 277.33,544.00 277.64,544.00 277.95,544.00 278.26,544.00 278.56,544.00 278.87,544.00 279.18,544.00 279.49,544.00 279.79,544.00 280.10,544.00 280.41,544.00 280.72,544.00 281.02,544.00 281.33,544.00 281.64,544.00 281.95,544.00 282.25,544.00 282.56,544.00 282.87,544.00 283.18,544.00 283.48,544.00 283.79,544.00 284.10,544.00 284.41,544.00 284.72,544.00 285.02,544.00 285.33,544.00 285.64,544.00 285.95,544.00 286.25,544.00 286.56,544.00 286.87,544.00 287.18,544.00 287.48,544.00 287.79,544.00 288.10,544.00 288.41,544.00 288.71,544.00 289.02,544.00 289.33,544.00 289.64,544.00 289.94,544.00 290.25,544.00 290.56,544.00 290.87,544.00 291.18,544.00 291.48,544.00 291.79,544.00 292.10,544.00 292.41,544.00 292.71,544.00 293.02,544.00 293.33,544.00 293.64,544.00 293.94,544.00 294.25,544.00 294.56,544.00 294.87,544.00 295.17,544.00 295.48,544.00 295.79,544.00 296.10,544.00 296.40,544.00 296.71,544.00 297.02,544.00 297.33,544.00 297.63,544.00 297.94,544.00 298.25,544.00 298.56,544.00 298.87,544.00 299.17,544.00 299.48,544.00 299.79,544.00 300.10,544.00 300.40,544.00 300.71,544.00 301.02,544.00 301.33,544.00 301.63,544.00 301.94,544.00 302.25,544.00 302.56,544.00 302.86,544.00 303.17,544.00 303.48,544.00 303.79,544.00 304.09,544.00 304.40,544.00 304.71,544.00 305.02,544.00 305.33,544.00 305.63,544.00 305.94,544.00 306.25,544.00 306.56,544.00 306.86,544.00 307.17,544.00 307.48,544.00 307.79,544.00 308.09,544.00 308.40,544.00 308.71,544.00 309.02,544.00 309.32,544.00 309.63,544.00 309.94,544.00 310.25,544.00 310.55,544.00 310.86,544.00 311.17,544.00 311.48,544.00 311.78,544.00 312.09,544.00 312.40,544.00 312.71,544.00 313.02,544.00 313.32,544.00 313.63,544.00 313.94,544.00 314.25,544.00 314.55,544.00 314.86,544.00 315.17,544.00 315.48,544.00 315.78,544.00 316.09,544.00 316.40,544.00 316.71,544.00 317.01,544.00 317.32,544.00 317.63,544.00 317.94,544.00 318.24,544.00 318.55,544.00 318.86,544.00 319.17,544.00 319.48,544.00 319.78,544.00 320.09,544.00 320.40,544.00 320.71,544.00 321.01,544.00 321.32,544.00 321.63,544.00 321.94,544.00 322.24,399.40 322.55,399.40 322.86,544.00 323.17,544.00 323.47,544.00 323.78,544.00 324.09,399.40 324.40,399.40 324.70,544.00 325.01,399.40 325.32,544.00 325.63,544.00 325.94,544.00 326.24,544.00 326.55,544.00 326.86,544.00 327.17,544.00 327.47,544.00 327.78,544.00 328.09,399.40 328.40,399.40 328.70,399.40 329.01,399.40 329.32,399.40 329.63,399.40 329.93,399.40 330.24,399.40 330.55,399.40 330.86,399.40 331.16,399.40 331.47,399.40 331.78,399.40 332.09,399.40 332.39,399.40 332.70,399.40 333.01,399.40 333.32,399.40 333.63,399.40 333.93,399.40 334.24,399.40 334.55,399.40 334.86,399.40 335.16,399.40 335.47,399.40 335.78,399.40 336.09,399.40 336.39,399.40 336.70,399.40 337.01,399.40 337.32,399.40 337.62,399.40 337.93,399.40 338.24,544.00 338.55,544.00 338.85,544.00 339.16,544.00 339.47,544.00 339.78,544.00 340.09,544.00 340.39,544.00 340.70,544.00 341.01,544.00 341.32,544.00 341.62,544.00 341.93,544.00 342.24,544.00 342.55,544.00 342.85,544.00 343.16,544.00 343.47,544.00 343.78,544.00 344.08,544.00 344.39,544.00 344.70,544.00 345.01,544.00 345.31,544.00 345.62,544.00 345.93,544.00 346.24,544.00 346.54,544.00 346.85,399.40 347.16,399.40 347.47,399.40 347.78,399.40 348.08,399.40 348.39,399.40 348.70,399.40 349.01,399.40 349.31,399.40 349.62,399.40 349.93,399.40 350.24,399.40 350.54,399.40 350.85,399.40 351.16,399.40 351.47,399.40 351.77,399.40 352.08,399.40 352.39,399.40 352.70,399.40 353.00,399.40 353.31,399.40 353.62,399.40 353.93,399.40 354.24,399.40 354.54,399.40 354.85,399.40 355.16,399.40 355.47,399.40 355.77,544.00 356.08,544.00 356.39,544.00 356.70,544.00 357.00,544.00 357.31,544.00 357.62,544.00 357.93,544.00 358.23,544.00 358.54,544.00 358.85,544.00 359.16,544.00 359.46,544.00 359.77,544.00 360.08,544.00 360.39,544.00 360.70,544.00 361.00,544.00 361.31,544.00 361.62,544.00 361.93,544.00 362.23,544.00 362.54,544.00 362.85,544.00 363.16,544.00 363.46,544.00 363.77,544.00 364.08,544.00 364.39,544.00 364.69,544.00 365.00,544.00 365.31,544.00 365.62,544.00 365.92,544.00 366.23,544.00 366.54,544.00 366.85,544.00 367.15,544.00 367.46,544.00 367.77,544.00 368.08,544.00 368.39,544.00 368.69,544.00 369.00,544.00 369.31,399.40 369.62,399.40 369.92,399.40 370.23,399.40 370.54,399.40 370.85,399.40 371.15,399.40 371.46,399.40 371.77,399.40 372.08,399.40 372.38,399.40 372.69,399.40 373.00,399.40 373.31,399.40 373.61,399.40 373.92,399.40 374.23,399.40 374.54,399.40 374.85,399.40 375.15,399.40 375.46,399.40 375.77,399.40 376.08,399.40 376.38,399.40 376.69,399.40 377.00,399.40 377.31,399.40 377.61,399.40 377.92,399.40 378.23,399.40 378.54,399.40 378.84,399.40 379.15,399.40 379.46,399.40 379.77,399.40 380.07,399.40 380.38,399.40 380.69,399.40 381.00,399.40 381.30,399.40 381.61,399.40 381.92,399.40 382.23,399.40 382.54,399.40 382.84,399.40 383.15,399.40 383.46,399.40 383.77,399.40 384.07,399.40 384.38,399.40 384.69,544.00 385.00,544.00 385.30,544.00 385.61,544.00 385.92,544.00 386.23,544.00 386.53,544.00 386.84,544.00 387.15,544.00 387.46,544.00 387.76,544.00 388.07,544.00 388.38,544.00 388.69,544.00 389.00,544.00 389.30,544.00 389.61,544.00 389.92,399.40 390.23,399.40 390.53,399.40 390.84,399.40 391.15,399.40 391.46,399.40 391.76,399.40 392.07,399.40 392.38,399.40 392.69,399.40 392.99,399.40 393.30,399.40 393.61,399.40 393.92,399.40 394.22,399.40 394.53,399.40 394.84,399.40 395.15,399.40 395.46,399.40 395.76,399.40 396.07,399.40 396.38,399.40 396.69,399.40 396.99,399.40 397.30,399.40 397.61,399.40 397.92,399.40 398.22,399.40 398.53,399.40 398.84,399.40 399.15,399.40 399.45,399.40 399.76,399.40 400.07,399.40 400.38,399.40 400.68,399.40 400.99,399.40 401.30,399.40 401.61,399.40 401.91,399.40 402.22,399.40 402.53,544.00 402.84,544.00 403.15,544.00 403.45,544.00 403.76,544.00 404.07,544.00 404.38,544.00 404.68,544.00 404.99,544.00 405.30,544.00 405.61,544.00 405.91,544.00 406.22,544.00 406.53,544.00 406.84,544.00 407.14,544.00 407.45,544.00 407.76,544.00 408.07,544.00 408.37,544.00 408.68,544.00 408.99,544.00 409.30,544.00 409.61,544.00 409.91,544.00 410.22,544.00 410.53,544.00 410.84,544.00 411.14,544.00 411.45,544.00 411.76,544.00 412.07,544.00 412.37,544.00 412.68,544.00 412.99,544.00 413.30,544.00 413.60,544.00 413.91,544.00 414.22,544.00 414.53,544.00 414.83,544.00 415.14,544.00 415.45,544.00 415.76,544.00 416.06,544.00 416.37,544.00 416.68,544.00 416.99,544.00 417.30,544.00 417.60,544.00 417.91,399.40 418.22,399.40 418.53,399.40 418.83,399.40 419.14,399.40 419.45,399.40 419.76,399.40 420.06,399.40 420.37,399.40 420.68,399.40 420.99,399.40 421.29,399.40 421.60,399.40 421.91,399.40 422.22,399.40 422.52,399.40 422.83,399.40 423.14,399.40 423.45,399.40 423.76,399.40 424.06,399.40 424.37,399.40 424.68,399.40 424.99,399.40 425.29,399.40 425.60,399.40 425.91,399.40 426.22,399.40 426.52,399.40 426.83,399.40 427.14,399.40 427.45,399.40 427.75,399.40 428.06,399.40 428.37,399.40 428.68,399.40 428.98,399.40 429.29,399.40 429.60,399.40 429.91,399.40 430.22,399.40 430.52,399.40 430.83,399.40 431.14,399.40 431.45,399.40 431.75,399.40 432.06,399.40 432.37,399.40 432.68,399.40 432.98,399.40 433.29,399.40 433.60,399.40 433.91,399.40 434.21,399.40 434.52,399.40 434.83,399.40 435.14,399.40 435.44,399.40 435.75,399.40 436.06,399.40 436.37,399.40 436.67,399.40 436.98,399.40 437.29,399.40 437.60,399.40 437.91,399.40 438.21,399.40 438.52,399.40 438.83,399.40 439.14,399.40 439.44,399.40 439.75,399.40 440.06,399.40 440.37,399.40 440.67,399.40 440.98,399.40 441.29,399.40 441.60,399.40 441.90,399.40 442.21,399.40 442.52,399.40 442.83,399.40 443.13,399.40 443.44,399.40 443.75,399.40 444.06,399.40 444.37,399.40 444.67,399.40 444.98,399.40 445.29,399.40 445.60,399.40 445.90,399.40 446.21,399.40 446.52,399.40 446.83,399.40 447.13,399.40 447.44,399.40 447.75,399.40 448.06,399.40 448.36,399.40 448.67,544.00 448.98,544.00 449.29,544.00 449.59,544.00 449.90,544.00 450.21,544.00 450.52,544.00 450.82,544.00 451.13,544.00 451.44,399.40 451.75,399.40 452.06,399.40 452.36,399.40 452.67,399.40 452.98,399.40 453.29,399.40 453.59,399.40 453.90,399.40 454.21,399.40 454.52,399.40 454.82,399.40 455.13,399.40 455.44,399.40 455.75,399.40 456.05,399.40 456.36,399.40 456.67,399.40 456.98,399.40 457.28,399.40 457.59,399.40 457.90,399.40 458.21,399.40 458.52,399.40 458.82,544.00 459.13,399.40 459.44,544.00 459.75,544.00 460.05,544.00 460.36,544.00 460.67,544.00 460.98,544.00 461.28,544.00 461.59,544.00 461.90,399.40 462.21,399.40 462.51,399.40 462.82,399.40 463.13,399.40 463.44,399.40 463.74,399.40 464.05,399.40 464.36,399.40 464.67,544.00 464.97,544.00 465.28,544.00 465.59,544.00 465.90,544.00 466.21,544.00 466.51,544.00 466.82,544.00 467.13,544.00 467.44,544.00 467.74,544.00 468.05,544.00 468.36,544.00 468.67,399.40 468.97,399.40 469.28,399.40 469.59,399.40 469.90,399.40 470.20,399.40 470.51,399.40 470.82,544.00 471.13,399.40 471.43,399.40 471.74,399.40 472.05,399.40 472.36,544.00 472.67,544.00 472.97,399.40 473.28,399.40 473.59,399.40 473.90,399.40 474.20,399.40 474.51,399.40 474.82,399.40 475.13,399.40 475.43,399.40 475.74,399.40 476.05,399.40 476.36,399.40 476.66,544.00 476.97,544.00 477.28,544.00 477.59,544.00 477.89,544.00 478.20,544.00 478.51,544.00 478.82,544.00 479.13,544.00 479.43,544.00 479.74,544.00 480.05,544.00 480.36,544.00 480.66,399.40 480.97,399.40 481.28,399.40 481.59,399.40 481.89,399.40 482.20,399.40 482.51,399.40 482.82,399.40 483.12,399.40 483.43,399.40 483.74,399.40 484.05,399.40 484.35,399.40 484.66,399.40 484.97,399.40 485.28,399.40 485.58,399.40 485.89,399.40 486.20,399.40 486.51,399.40 486.82,399.40 487.12,399.40 487.43,399.40 487.74,399.40 488.05,399.40 488.35,399.40 488.66,399.40 488.97,399.40 489.28,399.40 489.58,544.00 489.89,544.00 490.20,544.00 490.51,544.00 490.81,544.00 491.12,544.00 491.43,544.00 491.74,544.00 492.04,544.00 492.35,544.00 492.66,544.00 492.97,544.00 493.28,544.00 493.58,544.00 493.89,544.00 494.20,544.00 494.51,544.00 494.81,544.00 495.12,544.00 495.43,544.00 495.74,544.00 496.04,544.00 496.35,544.00 496.66,544.00 496.97,399.40 497.27,399.40 497.58,399.40 497.89,399.40 498.20,399.40 498.50,399.40 498.81,399.40 499.12,399.40 499.43,399.40 499.73,399.40 500.04,399.40 500.35,399.40 500.66,399.40 500.97,399.40 501.27,399.40 501.58,399.40 501.89,399.40 502.20,399.40 502.50,399.40 502.81,399.40 503.12,399.40 503.43,399.40 503.73,399.40 504.04,399.40 504.35,399.40 504.66,544.00 504.96,544.00 505.27,544.00 505.58,544.00 505.89,544.00 506.19,544.00 506.50,544.00 506.81,544.00 507.12,544.00 507.43,544.00 507.73,544.00 508.04,544.00 508.35,544.00 508.66,544.00 508.96,544.00 509.27,544.00 509.58,544.00 509.89,544.00 510.19,544.00 510.50,544.00 510.81,544.00 511.12,544.00 511.42,544.00 511.73,544.00 512.04,544.00 512.35,544.00 512.65,544.00 512.96,544.00 513.27,544.00 513.58,544.00 513.89,544.00 514.19,544.00 514.50,544.00 514.81,544.00 515.12,544.00 515.42,399.40 515.73,399.40 516.04,399.40 516.35,399.40 516.65,399.40 516.96,544.00 517.27,544.00 517.58,544.00 517.88,544.00 518.19,544.00 518.50,544.00 518.81,544.00 519.11,544.00 519.42,399.40 519.73,399.40 520.04,399.40 520.34,399.40 520.65,399.40 520.96,399.40 521.27,399.40 521.58,399.40 521.88,399.40 522.19,399.40 522.50,399.40 522.81,399.40 523.11,399.40 523.42,399.40 523.73,399.40 524.04,399.40 524.34,399.40 524.65,399.40 524.96,399.40 525.27,399.40 525.57,399.40 525.88,399.40 526.19,399.40 526.50,399.40 526.80,399.40 527.11,399.40 527.42,399.40 527.73,399.40 528.04,399.40 528.34,399.40 528.65,399.40 528.96,399.40 529.27,399.40 529.57,399.40 529.88,399.40 530.19,399.40 530.50,399.40 530.80,399.40 531.11,399.40 531.42,399.40 531.73,399.40 532.03,399.40 532.34,399.40 532.65,399.40 532.96,399.40 533.26,399.40 533.57,399.40 533.88,399.40 534.19,399.40 534.49,399.40 534.80,399.40 535.11,399.40 535.42,399.40 535.73,399.40 536.03,399.40 536.34,399.40 536.65,399.40 536.96,399.40 537.26,399.40 537.57,399.40 537.88,399.40 538.19,399.40 538.49,399.40 538.80,399.40 539.11,399.40 539.42,399.40 539.72,399.40 540.03,399.40 540.34,399.40 540.65,399.40 540.95,399.40 541.26,399.40 541.57,399.40 541.88,399.40 542.19,399.40 542.49,399.40 542.80,399.40 543.11,399.40 543.42,399.40 543.72,447.60 544.03,447.60 544.34,447.60 544.65,447.60 544.95,447.60 545.26,447.60 545.57,447.60 545.88,447.60 546.18,447.60 546.49,447.60 546.80,447.60 547.11,447.60 547.41,447.60 547.72,447.60 548.03,447.60 548.34,447.60 548.65,544.00 548.95,544.00 549.26,544.00 549.57,544.00 549.88,544.00 550.18,544.00 550.49,544.00 550.80,544.00 551.11,544.00 551.41,544.00 551.72,544.00 552.03,544.00 552.34,544.00 552.64,544.00 552.95,544.00 553.26,544.00 553.57,544.00 553.87,544.00 554.18,544.00 554.49,544.00 554.80,544.00 555.10,544.00 555.41,544.00 555.72,544.00 556.03,544.00 556.34,544.00 556.64,544.00 556.95,544.00 557.26,544.00 557.57,544.00 557.87,544.00 558.18,544.00 558.49,544.00 558.80,544.00 559.10,544.00 559.41,544.00 559.72,544.00 560.03,544.00 560.33,544.00 560.64,544.00 560.95,544.00 561.26,544.00 561.56,544.00 561.87,544.00 562.18,544.00 562.49,544.00 562.80,544.00 563.10,544.00 563.41,544.00 563.72,544.00 564.03,544.00 564.33,544.00 564.64,544.00 564.95,544.00 565.26,544.00 565.56,544.00 565.87,544.00 566.18,544.00 566.49,544.00 566.79,544.00 567.10,544.00 567.41,544.00 567.72,544.00 568.02,544.00 568.33,544.00 568.64,544.00 568.95,544.00 569.25,544.00 569.56,544.00 569.87,544.00 570.18,544.00 570.49,544.00 570.79,544.00 571.10,544.00 571.41,544.00 571.72,544.00 572.02,544.00 572.33,544.00 572.64,544.00 572.95,544.00 573.25,544.00 573.56,544.00 573.87,544.00 574.18,544.00 574.48,544.00 574.79,544.00 575.10,544.00 575.41,544.00 575.71,544.00 576.02,544.00 576.33,544.00 576.64,544.00 576.95,544.00 577.25,544.00 577.56,544.00 577.87,544.00 578.18,544.00 578.48,544.00 578.79,544.00 579.10,544.00 579.41,544.00 579.71,544.00 580.02,544.00 580.33,544.00 580.64,544.00 580.94,544.00 581.25,544.00 581.56,544.00 581.87,544.00 582.17,544.00 582.48,544.00 582.79,544.00 583.10,544.00 583.41,544.00 583.71,544.00 584.02,544.00 584.33,544.00 584.64,158.40 584.94,158.40 585.25,158.40 585.56,158.40 585.87,158.40 586.17,158.40 586.48,158.40 586.79,158.40 587.10,158.40 587.40,158.40 587.71,158.40 588.02,158.40 588.33,158.40 588.63,158.40 588.94,158.40 589.25,158.40 589.56,158.40 589.86,158.40 590.17,158.40 590.48,158.40 590.79,158.40 591.10,158.40 591.40,158.40 591.71,158.40 592.02,158.40 592.33,158.40 592.63,158.40 592.94,158.40 593.25,158.40 593.56,158.40 593.86,158.40 594.17,158.40 594.48,158.40 594.79,158.40 595.09,158.40 595.40,158.40 595.71,158.40 596.02,158.40 596.32,158.40 596.63,158.40 596.94,158.40 597.25,158.40 597.56,158.40 597.86,158.40 598.17,158.40 598.48,158.40 598.79,158.40 599.09,158.40 599.40,158.40 599.71,158.40 600.02,158.40 600.32,158.40 600.63,158.40 600.94,158.40 601.25,158.40 601.55,158.40 601.86,158.40 602.17,158.40 602.48,158.40 602.78,158.40 603.09,158.40 603.40,158.40 603.71,158.40 604.01,158.40 604.32,158.40 604.63,158.40 604.94,158.40 605.25,158.40 605.55,158.40 605.86,158.40 606.17,158.40 606.48,158.40 606.78,158.40 607.09,158.40 607.40,158.40 607.71,303.00 608.01,544.00 608.32,544.00 608.63,544.00 608.94,544.00 609.24,544.00 609.55,544.00 609.86,544.00 610.17,544.00 610.47,544.00 610.78,544.00 611.09,544.00 611.40,544.00 611.71,544.00 612.01,544.00 612.32,544.00 612.63,544.00 612.94,544.00 613.24,544.00 613.55,544.00 613.86,544.00 614.17,544.00 614.47,544.00 614.78,544.00 615.09,544.00 615.40,544.00 615.70,544.00 616.01,544.00 616.32,544.00 616.63,544.00 616.93,544.00 617.24,158.40 617.55,158.40 617.86,158.40 618.16,158.40 618.47,158.40 618.78,158.40 619.09,158.40 619.40,158.40 619.70,158.40 620.01,158.40 620.32,158.40 620.63,158.40 620.93,158.40 621.24,158.40 621.55,158.40 621.86,158.40 622.16,158.40 622.47,158.40 622.78,158.40 623.09,158.40 623.39,158.40 623.70,158.40 624.01,158.40 624.32,158.40 624.62,158.40 624.93,158.40 625.24,158.40 625.55,158.40 625.86,158.40 626.16,158.40 626.47,158.40 626.78,158.40 627.09,158.40 627.39,158.40 627.70,158.40 628.01,158.40 628.32,158.40 628.62,544.00 628.93,544.00 629.24,544.00 629.55,544.00 629.85,544.00 630.16,544.00 630.47,544.00 630.78,544.00 631.08,544.00 631.39,158.40 631.70,158.40 632.01,158.40 632.32,158.40 632.62,158.40 632.93,158.40 633.24,158.40 633.55,158.40 633.85,158.40 634.16,158.40 634.47,158.40 634.78,158.40 635.08,158.40 635.39,158.40 635.70,158.40 636.01,158.40 636.31,158.40 636.62,158.40 636.93,158.40 637.24,158.40 637.54,158.40 637.85,158.40 638.16,158.40 638.47,158.40 638.77,158.40 639.08,544.00 639.39,158.40 639.70,158.40 640.01,544.00 640.31,158.40 640.62,158.40 640.93,158.40 641.24,158.40 641.54,158.40 641.85,158.40 642.16,158.40 642.47,158.40 642.77,158.40 643.08,158.40 643.39,158.40 643.70,158.40 644.00,158.40 644.31,158.40 644.62,158.40 644.93,158.40 645.23,158.40 645.54,158.40 645.85,158.40 646.16,158.40 646.47,158.40 646.77,158.40 647.08,158.40 647.39,158.40 647.70,158.40 648.00,158.40 648.31,158.40 648.62,158.40 648.93,158.40 649.23,158.40 649.54,158.40 649.85,158.40 650.16,158.40 650.46,158.40 650.77,158.40 651.08,158.40 651.39,158.40 651.69,158.40 652.00,158.40 652.31,158.40 652.62,158.40 652.92,158.40 653.23,158.40 653.54,158.40 653.85,158.40 654.16,158.40 654.46,158.40 654.77,158.40 655.08,158.40 655.39,158.40 655.69,158.40 656.00,158.40 656.31,158.40 656.62,158.40 656.92,158.40 657.23,158.40 657.54,158.40 657.85,158.40 658.15,158.40 658.46,158.40 658.77,158.40 659.08,158.40 659.38,158.40 659.69,158.40 660.00,158.40 660.31,158.40 660.62,158.40 660.92,158.40 661.23,158.40 661.54,158.40 661.85,158.40 662.15,158.40 662.46,158.40 662.77,158.40 663.08,158.40 663.38,158.40 663.69,158.40 664.00,158.40 664.31,158.40 664.61,158.40 664.92,158.40 665.23,158.40 665.54,158.40 665.84,158.40 666.15,158.40 666.46,158.40 666.77,158.40 667.08,158.40 667.38,158.40 667.69,158.40 668.00,158.40 668.31,158.40 668.61,158.40 668.92,158.40 669.23,158.40 669.54,158.40 669.84,158.40 670.15,158.40 670.46,158.40 670.77,158.40 671.07,158.40 671.38,158.40 671.69,158.40 672.00,158.40 672.30,158.40 672.61,158.40 672.92,158.40 673.23,158.40 673.53,158.40 673.84,158.40 674.15,158.40 674.46,158.40 674.77,158.40 675.07,158.40 675.38,158.40 675.69,158.40 676.00,158.40 676.30,158.40 676.61,158.40 676.92,158.40 677.23,158.40 677.53,158.40 677.84,158.40 678.15,158.40 678.46,158.40 678.76,158.40 679.07,158.40 679.38,158.40 679.69,158.40 679.99,158.40 680.30,158.40 680.61,158.40 680.92,158.40 681.23,158.40 681.53,158.40 681.84,158.40 682.15,158.40 682.46,158.40 682.76,158.40 683.07,544.00 683.38,544.00 683.69,544.00 683.99,544.00 684.30,544.00 684.61,544.00 684.92,544.00 685.22,544.00 685.53,544.00 685.84,544.00 686.15,544.00 686.45,544.00 686.76,544.00 687.07,544.00 687.38,544.00 687.68,544.00 687.99,544.00 688.30,544.00 688.61,544.00 688.92,544.00 689.22,544.00 689.53,544.00 689.84,544.00 690.15,544.00 690.45,544.00 690.76,544.00 691.07,544.00 691.38,544.00 691.68,544.00 691.99,544.00 692.30,544.00 692.61,544.00 692.91,544.00 693.22,544.00 693.53,544.00 693.84,544.00 694.14,544.00 694.45,544.00 694.76,544.00 695.07,544.00 695.38,544.00 695.68,544.00 695.99,544.00 696.30,544.00 696.61,544.00 696.91,544.00 697.22,544.00 697.53,544.00 697.84,544.00 698.14,544.00 698.45,544.00 698.76,544.00 699.07,544.00 699.37,544.00 699.68,544.00 699.99,544.00 700.30,544.00 700.60,544.00 700.91,544.00 701.22,544.00 701.53,544.00 701.84,544.00 702.14,544.00 702.45,544.00 702.76,544.00 703.07,544.00 703.37,544.00 703.68,544.00 703.99,544.00 704.30,544.00 704.60,544.00 704.91,544.00 705.22,544.00 705.53,544.00 705.83,158.40 706.14,158.40 706.45,158.40 706.76,158.40 707.06,158.40 707.37,158.40 707.68,158.40 707.99,158.40 708.29,158.40 708.60,158.40 708.91,158.40 709.22,158.40 709.53,158.40 709.83,158.40 710.14,158.40 710.45,158.40 710.76,158.40 711.06,158.40 711.37,158.40 711.68,158.40 711.99,158.40 712.29,158.40 712.60,158.40 712.91,158.40 713.22,158.40 713.52,158.40 713.83,158.40 714.14,158.40 714.45,158.40 714.75,158.40 715.06,158.40 715.37,158.40 715.68,158.40 715.99,303.00 716.29,303.00 716.60,303.00 716.91,303.00 717.22,303.00 717.52,303.00 717.83,303.00 718.14,303.00 718.45,303.00 718.75,303.00 719.06,303.00 719.37,303.00 719.68,303.00 719.98,544.00 720.29,544.00 720.60,544.00 720.91,544.00 721.21,544.00 721.52,544.00 721.83,544.00 722.14,544.00 722.44,544.00 722.75,544.00 723.06,544.00 723.37,544.00 723.68,544.00 723.98,544.00 724.29,544.00 724.60,544.00 724.91,544.00 725.21,544.00 725.52,544.00 725.83,544.00 726.14,544.00 726.44,544.00 726.75,544.00 727.06,544.00 727.37,544.00 727.67,544.00 727.98,544.00 728.29,544.00 728.60,544.00 728.90,544.00 729.21,544.00 729.52,544.00 729.83,544.00 730.14,544.00 730.44,544.00 730.75,544.00 731.06,544.00 731.37,544.00 731.67,544.00 731.98,544.00 732.29,544.00 732.60,544.00 732.90,544.00 733.21,544.00 733.52,544.00 733.83,544.00 734.13,544.00 734.44,544.00 734.75,544.00 735.06,544.00 735.36,544.00 735.67,544.00 735.98,544.00 736.29,544.00 736.59,544.00 736.90,544.00 737.21,544.00 737.52,544.00 737.83,544.00 738.13,544.00 738.44,544.00 738.75,544.00 739.06,544.00 739.36,544.00 739.67,544.00 739.98,544.00 740.29,544.00 740.59,544.00 740.90,544.00 741.21,544.00 741.52,544.00 741.82,544.00 742.13,544.00 742.44,544.00 742.75,544.00 743.05,544.00 743.36,544.00 743.67,544.00 743.98,544.00 744.29,544.00 744.59,544.00 744.90,544.00 745.21,544.00 745.52,544.00 745.82,544.00 746.13,544.00 746.44,544.00 746.75,544.00 747.05,544.00 747.36,544.00 747.67,544.00 747.98,544.00 748.28,544.00 748.59,544.00 748.90,544.00 749.21,544.00 749.51,544.00 749.82,544.00 750.13,544.00 750.44,544.00 750.75,544.00 751.05,544.00 751.36,544.00 751.67,544.00 751.98,544.00 752.28,544.00 752.59,544.00 752.90,544.00 753.21,544.00 753.51,544.00 753.82,544.00 754.13,544.00 754.44,544.00 754.74,544.00 755.05,544.00 755.36,544.00 755.67,544.00 755.97,544.00 756.28,544.00 756.59,544.00 756.90,544.00 757.20,544.00 757.51,544.00 757.82,544.00 758.13,544.00 758.44,544.00 758.74,544.00 759.05,544.00 759.36,544.00 759.67,544.00 759.97,544.00 760.28,544.00 760.59,544.00 760.90,544.00 761.20,544.00 761.51,544.00 761.82,544.00 762.13,544.00 762.43,544.00 762.74,544.00 763.05,544.00 763.36,544.00 763.66,544.00 763.97,544.00 764.28,544.00 764.59,544.00 764.90,544.00 765.20,544.00 765.51,544.00 765.82,544.00 766.13,544.00 766.43,544.00 766.74,544.00 767.05,544.00 767.36,544.00 767.66,544.00 767.97,544.00 768.28,544.00 768.59,544.00 768.89,544.00 769.20,544.00 769.51,544.00 769.82,544.00 770.12,544.00 770.43,544.00 770.74,544.00 771.05,544.00 771.35,544.00 771.66,544.00 771.97,544.00 772.28,544.00 772.59,544.00 772.89,544.00 773.20,544.00 773.51,544.00 773.82,544.00 774.12,544.00 774.43,544.00 774.74,544.00 775.05,544.00 775.35,544.00 775.66,544.00 775.97,544.00 776.28,544.00 776.58,544.00 776.89,544.00 777.20,544.00 777.51,544.00 777.81,544.00 778.12,544.00 778.43,544.00 778.74,544.00 779.05,544.00 779.35,544.00 779.66,544.00 779.97,544.00 780.28,544.00 780.58,544.00 780.89,544.00 781.20,544.00 781.51,544.00 781.81,544.00 782.12,544.00 782.43,544.00 782.74,544.00 783.04,544.00 783.35,544.00 783.66,544.00 783.97,544.00 784.27,544.00 784.58,544.00 784.89,544.00 785.20,544.00 785.51,544.00 785.81,544.00 786.12,544.00 786.43,544.00 786.74,544.00 787.04,544.00 787.35,544.00 787.66,544.00 787.97,544.00 788.27,544.00 788.58,544.00 788.89,544.00 789.20,544.00 789.50,544.00 789.81,544.00 790.12,544.00 790.43,544.00 790.73,544.00 791.04,544.00 791.35,544.00 791.66,544.00 791.96,544.00 792.27,544.00 792.58,544.00 792.89,544.00 793.20,544.00 793.50,544.00 793.81,544.00 794.12,544.00 794.43,544.00 794.73,544.00 795.04,544.00 795.35,544.00 795.66,544.00 795.96,544.00 796.27,544.00 796.58,544.00 796.89,544.00 797.19,544.00 797.50,544.00 797.81,544.00 798.12,544.00 798.42,544.00 798.73,544.00 799.04,544.00 799.35,544.00 799.66,544.00 799.96,544.00 800.27,544.00 800.58,544.00 800.89,544.00 801.19,544.00 801.50,544.00 801.81,544.00 802.12,544.00 802.42,544.00 802.73,544.00 803.04,544.00 803.35,544.00 803.65,544.00 803.96,544.00 804.27,544.00 804.58,544.00 804.88,544.00 805.19,544.00 805.50,544.00 805.81,544.00 806.11,544.00 806.42,544.00 806.73,544.00 807.04,544.00 807.35,544.00 807.65,544.00 807.96,544.00 808.27,544.00 808.58,544.00 808.88,544.00 809.19,544.00 809.50,544.00 809.81,544.00 810.11,544.00 810.42,544.00 810.73,544.00 811.04,544.00 811.34,544.00 811.65,544.00 811.96,544.00 812.27,544.00 812.57,544.00 812.88,544.00 813.19,544.00 813.50,544.00 813.81,544.00 814.11,544.00 814.42,544.00 814.73,544.00 815.04,544.00 815.34,544.00 815.65,544.00 815.96,544.00 816.27,544.00 816.57,544.00 816.88,544.00 817.19,544.00 817.50,544.00 817.80,544.00 818.11,544.00 818.42,544.00 818.73,544.00 819.03,544.00 819.34,544.00 819.65,544.00 819.96,544.00 820.27,544.00 820.57,544.00 820.88,544.00 821.19,544.00 821.50,544.00 821.80,544.00 822.11,544.00 822.42,544.00 822.73,544.00 823.03,544.00 823.34,544.00 823.65,544.00 823.96,544.00 824.26,544.00 824.57,544.00 824.88,544.00 825.19,544.00 825.49,544.00 825.80,544.00 826.11,544.00 826.42,544.00 826.72,544.00 827.03,544.00 827.34,544.00 827.65,544.00 827.96,544.00 828.26,544.00 828.57,544.00 828.88,544.00 829.19,544.00 829.49,544.00 829.80,544.00 830.11,544.00 830.42,544.00 830.72,544.00 831.03,544.00 831.34,544.00 831.65,544.00 831.95,544.00 832.26,544.00 832.57,544.00 832.88,544.00 833.18,544.00 833.49,544.00 833.80,544.00 834.11,544.00 834.42,544.00 834.72,544.00 835.03,544.00 835.34,544.00 835.65,544.00 835.95,544.00 836.26,544.00 836.57,544.00 836.88,544.00 837.18,544.00 837.49,544.00 837.80,544.00 838.11,544.00 838.41,544.00 838.72,544.00 839.03,544.00 839.34,544.00 839.64,544.00 839.95,544.00 840.26,544.00 840.57,544.00 840.87,544.00 841.18,544.00 841.49,544.00 841.80,544.00 842.11,544.00 842.41,544.00 842.72,544.00 843.03,544.00 843.34,544.00 843.64,544.00 843.95,544.00 844.26,544.00 844.57,544.00 844.87,544.00 845.18,544.00 845.49,544.00 845.80,544.00 846.10,544.00 846.41,544.00 846.72,544.00 847.03,544.00 847.33,544.00 847.64,544.00 847.95,544.00 848.26,544.00 848.57,544.00 848.87,544.00 849.18,544.00 849.49,544.00 849.80,544.00 850.10,544.00 850.41,544.00 850.72,544.00 851.03,544.00 851.33,544.00 851.64,544.00 851.95,544.00 852.26,544.00 852.56,544.00 852.87,544.00 853.18,544.00 853.49,544.00 853.79,544.00 854.10,544.00 854.41,544.00 854.72,544.00 855.03,544.00 855.33,544.00 855.64,544.00 855.95,544.00 856.26,544.00 856.56,544.00 856.87,544.00 857.18,544.00 857.49,544.00 857.79,544.00 858.10,544.00 858.41,544.00 858.72,544.00 859.02,544.00 859.33,544.00 859.64,544.00 859.95,544.00 860.25,544.00 860.56,544.00 860.87,544.00 861.18,544.00 861.48,544.00 861.79,544.00 862.10,544.00 862.41,544.00 862.72,544.00 863.02,544.00 863.33,544.00 863.64,544.00 863.95,544.00 864.25,544.00 864.56,544.00 864.87,544.00 865.18,544.00 865.48,544.00 865.79,544.00 866.10,544.00 866.41,544.00 866.71,544.00 867.02,544.00 867.33,544.00 867.64,544.00 867.94,544.00 868.25,544.00 868.56,544.00 868.87,544.00 869.18,544.00 869.48,544.00 869.79,544.00 870.10,544.00 870.41,544.00 870.71,544.00 871.02,544.00 871.33,544.00 871.64,544.00 871.94,544.00 872.25,544.00 872.56,544.00 872.87,544.00 873.17,544.00 873.48,544.00 873.79,544.00 874.10,544.00 874.40,544.00 874.71,544.00 875.02,544.00 875.33,544.00 875.63,544.00 875.94,544.00 876.25,544.00 876.56,544.00 876.87,544.00 877.17,544.00 877.48,158.40 877.79,158.40 878.10,158.40 878.40,158.40 878.71,158.40 879.02,158.40 879.33,158.40 879.63,158.40 879.94,158.40 880.25,158.40 880.56,158.40 880.86,158.40 881.17,158.40 881.48,158.40 881.79,158.40 882.09,158.40 882.40,158.40 882.71,158.40 883.02,158.40 883.33,158.40 883.63,158.40 883.94,158.40 884.25,158.40 884.56,158.40 884.86,158.40 885.17,158.40 885.48,158.40 885.79,158.40 886.09,158.40 886.40,158.40 886.71,158.40 887.02,158.40 887.32,158.40 887.63,158.40 887.94,158.40 888.25,158.40 888.55,158.40 888.86,158.40 889.17,158.40 889.48,158.40 889.78,158.40 890.09,158.40 890.40,158.40 890.71,158.40 891.02,158.40 891.32,158.40 891.63,158.40 891.94,158.40 892.25,158.40 892.55,158.40 892.86,158.40 893.17,158.40 893.48,158.40 893.78,158.40 894.09,158.40 894.40,158.40 894.71,158.40 895.01,158.40 895.32,303.00 895.63,544.00 895.94,544.00 896.24,544.00 896.55,544.00 896.86,544.00 897.17,544.00 897.48,544.00 897.78,544.00 898.09,544.00 898.40,544.00 898.71,544.00 899.01,544.00 899.32,544.00 899.63,544.00 899.94,544.00 900.24,544.00 900.55,544.00 900.86,544.00 901.17,544.00 901.47,544.00 901.78,544.00 902.09,544.00 902.40,544.00 902.70,544.00 903.01,544.00 903.32,544.00 903.63,544.00 903.94,544.00 904.24,544.00 904.55,544.00 904.86,544.00 905.17,544.00 905.47,544.00 905.78,544.00 906.09,544.00 906.40,544.00 906.70,544.00 907.01,544.00 907.32,544.00 907.63,544.00 907.93,544.00 908.24,544.00 908.55,544.00 908.86,544.00 909.16,544.00 909.47,544.00 909.78,544.00 910.09,544.00 910.39,544.00 910.70,544.00 911.01,544.00 911.32,544.00 911.63,544.00 911.93,544.00 912.24,544.00 912.55,544.00 912.86,544.00 913.16,544.00 913.47,544.00 913.78,544.00 914.09,544.00 914.39,544.00 914.70,544.00 915.01,544.00 915.32,544.00 915.62,544.00 915.93,544.00 916.24,544.00 916.55,544.00 916.85,544.00 917.16,544.00 917.47,544.00 917.78,544.00 918.09,544.00 918.39,544.00 918.70,544.00 919.01,544.00 919.32,544.00 919.62,544.00 919.93,544.00 920.24,544.00 920.55,544.00 920.85,544.00 921.16,544.00 921.47,544.00 921.78,544.00 922.08,544.00 922.39,544.00 922.70,544.00 923.01,544.00 923.31,544.00 923.62,544.00 923.93,544.00 924.24,544.00 924.54,544.00 924.85,544.00 925.16,544.00 925.47,544.00 925.78,544.00 926.08,544.00 926.39,544.00 926.70,544.00 927.01,544.00 927.31,544.00 927.62,544.00 927.93,544.00 928.24,544.00 928.54,544.00 928.85,544.00 929.16,544.00 929.47,544.00 929.77,544.00 930.08,544.00 930.39,544.00 930.70,544.00 931.00,544.00 931.31,544.00 931.62,544.00 931.93,544.00 932.24,544.00 932.54,544.00 932.85,544.00 933.16,544.00 933.47,544.00 933.77,544.00 934.08,544.00 934.39,544.00 934.70,544.00 935.00,544.00 935.31,544.00 935.62,544.00 935.93,544.00 936.23,544.00 936.54,544.00 936.85,544.00 937.16,544.00 937.46,544.00 937.77,544.00 938.08,544.00 938.39,544.00 938.70,544.00 939.00,544.00 939.31,544.00 939.62,544.00 939.93,544.00 940.23,544.00 940.54,544.00 940.85,544.00 941.16,544.00 941.46,544.00 941.77,544.00 942.08,544.00 942.39,544.00 942.69,544.00 943.00,544.00 943.31,544.00 943.62,544.00 943.92,544.00 944.23,544.00 944.54,544.00 944.85,544.00 945.15,544.00 945.46,544.00 945.77,544.00 946.08,544.00 946.39,544.00 946.69,544.00 947.00,544.00 947.31,544.00 947.62,544.00 947.92,544.00 948.23,544.00 948.54,544.00 948.85,544.00 949.15,544.00 949.46,544.00 949.77,544.00 950.08,544.00 950.38,544.00 950.69,544.00 951.00,544.00 951.31,544.00 951.61,544.00 951.92,544.00 952.23,544.00 952.54,544.00 952.85,544.00 953.15,544.00 953.46,544.00 953.77,544.00 954.08,544.00 954.38,544.00 954.69,544.00 955.00,544.00 955.31,544.00 955.61,544.00 955.92,544.00 956.23,544.00 956.54,544.00 956.84,544.00 957.15,544.00 957.46,544.00 957.77,544.00 958.07,544.00 958.38,544.00 958.69,544.00 959.00,544.00 959.30,544.00 959.61,544.00 959.92,544.00 960.23,544.00 960.54,544.00 960.84,544.00 961.15,544.00 961.46,544.00 961.77,544.00 962.07,544.00 962.38,544.00 962.69,544.00 963.00,544.00 963.30,544.00 963.61,544.00 963.92,544.00 964.23,544.00 964.53,544.00 964.84,544.00 965.15,544.00 965.46,544.00 965.76,544.00 966.07,544.00 966.38,544.00 966.69,544.00 967.00,544.00 967.30,544.00 967.61,544.00 967.92,544.00 968.23,544.00 968.53,544.00 968.84,544.00 969.15,544.00 969.46,544.00 969.76,544.00 970.07,544.00 970.38,544.00 970.69,544.00 970.99,544.00 971.30,544.00 971.61,544.00 971.92,544.00 972.22,544.00 972.53,544.00 972.84,544.00 973.15,544.00 973.46,544.00 973.76,544.00 974.07,544.00 974.38,544.00 974.69,544.00 974.99,544.00 975.30,544.00 975.61,544.00 975.92,544.00 976.22,544.00 976.53,544.00 976.84,158.40 977.15,158.40 977.45,158.40 977.76,158.40 978.07,158.40 978.38,158.40 978.68,158.40 978.99,158.40 979.30,158.40 979.61,158.40 979.91,158.40 980.22,158.40 980.53,158.40 980.84,158.40 981.15,158.40 981.45,158.40 981.76,158.40 982.07,158.40 982.38,158.40 982.68,158.40 982.99,158.40 983.30,158.40 983.61,158.40 983.91,158.40 984.22,158.40 984.53,158.40 984.84,158.40 985.14,158.40 985.45,158.40 985.76,158.40 986.07,158.40 986.37,158.40 986.68,158.40 986.99,158.40 987.30,158.40 987.61,158.40 987.91,158.40 988.22,158.40 988.53,158.40 988.84,158.40 989.14,158.40 989.45,158.40 989.76,158.40 990.07,158.40 990.37,158.40 990.68,158.40 990.99,158.40 991.30,158.40 991.60,158.40 991.91,158.40 992.22,158.40 992.53,158.40 992.83,158.40 993.14,158.40 993.45,158.40 993.76,158.40 994.06,158.40 994.37,158.40 994.68,158.40 994.99,158.40 995.30,158.40 995.60,158.40 995.91,158.40 996.22,158.40 996.53,158.40 996.83,158.40 997.14,158.40 997.45,158.40 997.76,158.40 998.06,158.40 998.37,158.40 998.68,158.40 998.99,158.40 999.29,158.40 999.60,158.40 999.91,158.40 1000.22,158.40 1000.52,158.40 1000.83,158.40 1001.14,158.40 1001.45,158.40 1001.76,158.40 1002.06,158.40 1002.37,158.40 1002.68,158.40 1002.99,158.40 1003.29,158.40 1003.60,158.40 1003.91,158.40 1004.22,158.40 1004.52,158.40 1004.83,303.00 1005.14,303.00 1005.45,303.00 1005.75,303.00 1006.06,303.00 1006.37,303.00 1006.68,303.00 1006.98,303.00 1007.29,303.00 1007.60,303.00 1007.91,303.00 1008.22,303.00 1008.52,303.00 1008.83,303.00 1009.14,303.00 1009.45,303.00 1009.75,303.00 1010.06,303.00 1010.37,303.00 1010.68,303.00 1010.98,303.00 1011.29,303.00 1011.60,303.00 1011.91,303.00 1012.21,303.00 1012.52,303.00 1012.83,303.00 1013.14,303.00 1013.44,303.00 1013.75,303.00 1014.06,303.00 1014.37,303.00 1014.67,303.00 1014.98,303.00 1015.29,303.00 1015.60,303.00 1015.91,303.00 1016.21,303.00 1016.52,303.00 1016.83,303.00 1017.14,303.00 1017.44,303.00 1017.75,303.00 1018.06,303.00 1018.37,303.00 1018.67,303.00 1018.98,303.00 1019.29,303.00 1019.60,303.00 1019.90,303.00 1020.21,303.00 1020.52,303.00 1020.83,303.00 1021.13,303.00 1021.44,303.00 1021.75,303.00 1022.06,303.00 1022.37,303.00 1022.67,303.00 1022.98,303.00 1023.29,303.00 1023.60,303.00 1023.90,303.00 1024.21,303.00 1024.52,303.00 1024.83,303.00 1025.13,303.00 1025.44,303.00 1025.75,303.00 1026.06,303.00 1026.36,303.00 1026.67,303.00 1026.98,303.00 1027.29,303.00 1027.59,303.00 1027.90,303.00 1028.21,303.00 1028.52,303.00 1028.82,303.00 1029.13,158.40 1029.44,158.40 1029.75,158.40 1030.06,158.40 1030.36,158.40 1030.67,158.40 1030.98,158.40 1031.29,158.40 1031.59,158.40 1031.90,158.40 1032.21,158.40 1032.52,158.40 1032.82,158.40 1033.13,158.40 1033.44,158.40 1033.75,158.40 1034.05,158.40 1034.36,158.40 1034.67,158.40 1034.98,158.40 1035.28,158.40 1035.59,158.40 1035.90,158.40 1036.21,158.40 1036.52,158.40 1036.82,158.40 1037.13,158.40 1037.44,158.40 1037.75,158.40 1038.05,158.40 1038.36,158.40 1038.67,158.40 1038.98,158.40 1039.28,158.40 1039.59,158.40 1039.90,158.40 1040.21,158.40 1040.51,158.40 1040.82,158.40 1041.13,158.40 1041.44,158.40 1041.74,158.40 1042.05,158.40 1042.36,158.40 1042.67,158.40 1042.97,158.40 1043.28,158.40 1043.59,158.40 1043.90,158.40 1044.21,158.40 1044.51,158.40 1044.82,158.40 1045.13,158.40 1045.44,158.40 1045.74,158.40 1046.05,158.40 1046.36,158.40 1046.67,158.40 1046.97,158.40 1047.28,158.40 1047.59,158.40 1047.90,158.40 1048.20,158.40 1048.51,158.40 1048.82,158.40 1049.13,158.40 1049.43,158.40 1049.74,158.40 1050.05,158.40 1050.36,158.40 1050.67,158.40 1050.97,158.40 1051.28,158.40 1051.59,158.40 1051.90,158.40 1052.20,158.40 1052.51,158.40 1052.82,158.40 1053.13,303.00 1053.43,303.00 1053.74,303.00 1054.05,303.00 1054.36,303.00 1054.66,303.00 1054.97,303.00 1055.28,303.00 1055.59,303.00 1055.89,303.00 1056.20,303.00 1056.51,303.00 1056.82,303.00 1057.13,303.00 1057.43,303.00 1057.74,303.00 1058.05,303.00 1058.36,303.00 1058.66,303.00 1058.97,303.00 1059.28,303.00 1059.59,303.00 1059.89,303.00 1060.20,303.00 1060.51,303.00 1060.82,303.00 1061.12,303.00 1061.43,303.00 1061.74,303.00 1062.05,303.00 1062.35,303.00 1062.66,303.00 1062.97,303.00 1063.28,303.00 1063.58,303.00 1063.89,303.00 1064.20,303.00 1064.51,303.00 1064.82,303.00 1065.12,303.00 1065.43,303.00 1065.74,303.00 1066.05,303.00 1066.35,303.00 1066.66,303.00 1066.97,303.00 1067.28,303.00 1067.58,303.00 1067.89,303.00 1068.20,303.00 1068.51,303.00 1068.81,303.00 1069.12,303.00 1069.43,303.00 1069.74,303.00 1070.04,303.00 1070.35,303.00 1070.66,303.00 1070.97,303.00 1071.28,303.00 1071.58,303.00 1071.89,303.00 1072.20,303.00 1072.51,303.00 1072.81,303.00 1073.12,303.00 1073.43,303.00 1073.74,303.00 1074.04,303.00 1074.35,303.00 1074.66,303.00 1074.97,303.00 1075.27,303.00 1075.58,303.00 1075.89,303.00 1076.20,303.00 1076.50,303.00 1076.81,303.00 1077.12,303.00 1077.43,303.00 1077.73,303.00 1078.04,303.00 1078.35,303.00 1078.66,303.00 1078.97,303.00 1079.27,303.00 1079.58,303.00 1079.89,303.00 1080.20,303.00 1080.50,303.00 1080.81,303.00 1081.12,303.00 1081.43,158.40 1081.73,158.40 1082.04,158.40 1082.35,158.40 1082.66,158.40 1082.96,158.40 1083.27,158.40 1083.58,158.40 1083.89,158.40 1084.19,158.40 1084.50,158.40 1084.81,158.40 1085.12,158.40 1085.43,158.40 1085.73,158.40 1086.04,158.40 1086.35,158.40 1086.66,158.40 1086.96,158.40 1087.27,158.40 1087.58,158.40 1087.89,158.40 1088.19,158.40 1088.50,158.40 1088.81,158.40 1089.12,158.40 1089.42,158.40 1089.73,158.40 1090.04,158.40 1090.35,158.40 1090.65,158.40 1090.96,158.40 1091.27,158.40 1091.58,158.40 1091.89,158.40 1092.19,158.40 1092.50,158.40 1092.81,158.40 1093.12,158.40 1093.42,158.40 1093.73,158.40 1094.04,158.40 1094.35,158.40 1094.65,158.40 1094.96,158.40 1095.27,158.40 1095.58,158.40 1095.88,158.40 1096.19,158.40 1096.50,158.40 1096.81,158.40 1097.11,158.40 1097.42,158.40 1097.73,158.40 1098.04,158.40 1098.34,158.40 1098.65,158.40 1098.96,158.40 1099.27,158.40 1099.58,158.40 1099.88,158.40 1100.19,158.40 1100.50,158.40 1100.81,158.40 1101.11,158.40 1101.42,303.00 1101.73,544.00 1102.04,544.00 1102.34,544.00 1102.65,544.00 1102.96,544.00 1103.27,544.00 1103.57,544.00 1103.88,544.00 1104.19,544.00 1104.50,544.00 1104.80,544.00 1105.11,544.00 1105.42,544.00 1105.73,544.00 1106.04,544.00 1106.34,544.00 1106.65,544.00 1106.96,544.00 1107.27,544.00 1107.57,544.00 1107.88,544.00 1108.19,544.00 1108.50,544.00 1108.80,544.00 1109.11,544.00 1109.42,544.00 1109.73,544.00 1110.03,544.00 1110.34,544.00 1110.65,544.00 1110.96,544.00 1111.26,544.00 1111.57,544.00 1111.88,544.00 1112.19,544.00 1112.49,544.00 1112.80,544.00 1113.11,544.00 1113.42,544.00 1113.73,544.00 1114.03,544.00 1114.34,544.00 1114.65,544.00 1114.96,544.00 1115.26,544.00 1115.57,544.00 1115.88,544.00 1116.19,544.00 1116.49,544.00 1116.80,544.00 1117.11,544.00 1117.42,544.00 1117.72,544.00 1118.03,544.00 1118.34,544.00 1118.65,544.00 1118.95,544.00 1119.26,544.00 1119.57,544.00 1119.88,544.00 1120.19,544.00 1120.49,544.00 1120.80,544.00 1121.11,544.00 1121.42,158.40 1121.72,158.40 1122.03,158.40 1122.34,158.40 1122.65,158.40 1122.95,158.40 1123.26,158.40 1123.57,158.40 1123.88,158.40 1124.18,158.40 1124.49,158.40 1124.80,158.40 1125.11,158.40 1125.41,158.40 1125.72,158.40 1126.03,158.40 1126.34,158.40 1126.65,158.40 1126.95,158.40 1127.26,158.40 1127.57,158.40 1127.88,158.40 1128.18,158.40 1128.49,158.40 1128.80,158.40 1129.11,158.40 1129.41,303.00 1129.72,303.00 1130.03,303.00 1130.34,303.00 1130.64,303.00 1130.95,303.00 1131.26,303.00 1131.57,303.00 1131.87,303.00 1132.18,303.00 1132.49,303.00 1132.80,303.00 1133.10,303.00 1133.41,303.00 1133.72,303.00 1134.03,303.00 1134.34,303.00 1134.64,303.00 1134.95,303.00 1135.26,303.00 1135.57,303.00 1135.87,303.00 1136.18,303.00 1136.49,303.00 1136.80,303.00 1137.10,303.00 1137.41,544.00 1137.72,544.00 1138.03,544.00 1138.33,544.00 1138.64,158.40 1138.95,158.40 1139.26,158.40 1139.56,158.40 1139.87,158.40 1140.18,158.40 1140.49,544.00 1140.80,544.00 1141.10,544.00 1141.41,544.00 1141.72,544.00 1142.03,544.00 1142.33,544.00 1142.64,544.00 1142.95,544.00 1143.26,544.00 1143.56,544.00 1143.87,544.00 1144.18,544.00 1144.49,544.00 1144.79,544.00 1145.10,544.00 1145.41,544.00 1145.72,544.00 1146.02,544.00 1146.33,544.00 1146.64,544.00 1146.95,544.00 1147.25,544.00 1147.56,544.00 1147.87,544.00 1148.18,544.00 1148.49,544.00 1148.79,544.00 1149.10,544.00 1149.41,544.00 1149.72,544.00 1150.02,544.00 1150.33,544.00 1150.64,544.00 1150.95,544.00 1151.25,544.00 1151.56,544.00 1151.87,544.00 1152.18,544.00 1152.48,544.00 1152.79,544.00 1153.10,544.00 1153.41,544.00 1153.71,544.00 1154.02,544.00 1154.33,544.00 1154.64,544.00 1154.95,544.00 1155.25,544.00 1155.56,544.00 1155.87,544.00 1156.18,544.00 1156.48,544.00 1156.79,544.00 1157.10,544.00 1157.41,544.00 1157.71,544.00 1158.02,544.00 1158.33,544.00 1158.64,544.00 1158.94,544.00 1159.25,544.00 1159.56,544.00 1159.87,544.00 1160.17,544.00 1160.48,544.00 1160.79,544.00 1161.10,544.00 1161.41,544.00 1161.71,544.00 1162.02,544.00 1162.33,544.00 1162.64,544.00 1162.94,544.00 1163.25,544.00 1163.56,544.00 1163.87,544.00 1164.17,544.00 1164.48,544.00 1164.79,544.00 1165.10,544.00 1165.40,544.00 1165.71,544.00 1166.02,544.00 1166.33,544.00 1166.63,544.00 1166.94,544.00 1167.25,544.00 1167.56,544.00 1167.86,544.00 1168.17,544.00 1168.48,544.00 1168.79,544.00 1169.10,544.00 1169.40,544.00 1169.71,544.00 1170.02,544.00 1170.33,544.00 1170.63,544.00 1170.94,544.00 1171.25,544.00 1171.56,544.00 1171.86,544.00 1172.17,544.00 1172.48,544.00 1172.79,544.00 1173.09,544.00 1173.40,544.00 1173.71,544.00 1174.02,544.00 1174.32,544.00 1174.63,544.00 1174.94,544.00 1175.25,544.00 1175.56,544.00 1175.86,544.00 1176.17,544.00 1176.48,544.00 1176.79,544.00 1177.09,544.00 1177.40,544.00 1177.71,544.00 1178.02,544.00 1178.32,544.00 1178.63,544.00 1178.94,544.00 1179.25,544.00 1179.55,544.00 1179.86,544.00 1180.17,544.00 1180.48,544.00 1180.78,544.00 1181.09,544.00 1181.40,544.00 1181.71,544.00 1182.01,544.00 1182.32,544.00 1182.63,544.00 1182.94,544.00 1183.25,544.00 1183.55,544.00 1183.86,544.00 1184.17,544.00 1184.48,544.00 1184.78,544.00 1185.09,544.00 1185.40,544.00 1185.71,544.00 1186.01,544.00 1186.32,544.00 1186.63,544.00 1186.94,544.00 1187.24,544.00 1187.55,544.00 1187.86,544.00 1188.17,544.00 1188.47,544.00 1188.78,544.00 1189.09,544.00 1189.40,544.00 1189.71,544.00 1190.01,544.00 1190.32,544.00 1190.63,544.00 1190.94,544.00 1191.24,544.00 1191.55,544.00 1191.86,544.00 1192.17,544.00 1192.47,544.00 1192.78,544.00 1193.09,544.00 1193.40,544.00 1193.70,544.00 1194.01,544.00 1194.32,544.00 1194.63,544.00 1194.93,544.00 1195.24,544.00 1195.55,544.00 1195.86,544.00 1196.16,544.00 1196.47,544.00 1196.78,544.00 1197.09,544.00 1197.40,544.00 1197.70,158.40 1198.01,158.40 1198.32,158.40 1198.63,158.40 1198.93,158.40 1199.24,544.00 1199.55,544.00 1199.86,544.00 1200.16,544.00 1200.47,544.00 1200.78,544.00 1201.09,544.00 1201.39,544.00 1201.70,544.00 1202.01,544.00 1202.32,544.00 1202.62,544.00 1202.93,544.00 1203.24,544.00 1203.55,544.00 1203.86,544.00 1204.16,544.00 1204.47,544.00 1204.78,544.00 1205.09,544.00 1205.39,544.00 1205.70,544.00 1206.01,544.00 1206.32,544.00 1206.62,544.00 1206.93,544.00 1207.24,544.00 1207.55,544.00 1207.85,544.00 1208.16,544.00 1208.47,544.00 1208.78,544.00 1209.08,544.00 1209.39,544.00 1209.70,544.00 1210.01,544.00 1210.32,544.00 1210.62,544.00 1210.93,544.00 1211.24,544.00 1211.55,544.00 1211.85,544.00 1212.16,544.00 1212.47,544.00 1212.78,544.00 1213.08,544.00 1213.39,544.00 1213.70,544.00 1214.01,544.00 1214.31,544.00 1214.62,544.00 1214.93,544.00 1215.24,544.00 1215.54,544.00 1215.85,544.00 1216.16,544.00 1216.47,544.00 1216.77,544.00 1217.08,544.00 1217.39,544.00 1217.70,544.00 1218.01,544.00 1218.31,544.00 1218.62,544.00 1218.93,544.00 1219.24,544.00 1219.54,544.00 1219.85,544.00 1220.16,544.00 1220.47,544.00 1220.77,544.00 1221.08,544.00 1221.39,544.00 1221.70,544.00 1222.00,544.00 1222.31,544.00 1222.62,544.00 1222.93,544.00 1223.23,544.00 1223.54,544.00 1223.85,544.00 1224.16,544.00 1224.47,544.00 1224.77,544.00 1225.08,544.00 1225.39,544.00 1225.70,544.00 1226.00,544.00 1226.31,544.00 1226.62,544.00 1226.93,544.00 1227.23,544.00 1227.54,544.00 1227.85,544.00 1228.16,544.00 1228.46,544.00 1228.77,544.00 1229.08,544.00 1229.39,544.00 1229.69,544.00 1230.00,544.00 1230.31,544.00 1230.62,544.00 1230.92,544.00 1231.23,544.00 1231.54,544.00 1231.85,544.00 1232.16,544.00 1232.46,544.00 1232.77,544.00 1233.08,544.00 1233.39,544.00 1233.69,544.00 1234.00,544.00 1234.31,544.00 1234.62,544.00 1234.92,544.00 1235.23,544.00 1235.54,544.00 1235.85,544.00 1236.15,544.00 1236.46,544.00 1236.77,544.00 1237.08,544.00 1237.38,544.00 1237.69,544.00 1238.00,544.00"/>
<line x1="100" y1="86" x2="134" y2="86" stroke="#073b3a" stroke-width="4"/>
<text class="small" x="144" y="91">NDX w czesci akcyjnej: 0.0%; SPX: 100.0%</text>
</svg>