<?xml version="1.0" encoding="UTF-8"?>
<svg xmlns="http://www.w3.org/2000/svg" width="1280" height="620" viewBox="0 0 1280 620">
<rect width="100%" height="100%" fill="#fbfbf8"/>
<style>text{font-family:Segoe UI,Arial,sans-serif;fill:#222}.title{font-size:24px;font-weight:700}.small{font-size:13px}.tick{font-size:12px;fill:#555}.axis{font-size:14px;font-weight:600}</style>
<text class="title" x="82" y="32">Proporcja SPX / NDX w czesci akcyjnej</text>
<text class="small" x="82" y="56">Jedna linia pokazuje udzial NDX w czesci akcyjnej: 0% = calosc SPX, 50% = 50/50, 100% = calosc NDX</text>
<line x1="82" y1="544.00" x2="1238" y2="544.00" stroke="#deded8" stroke-width="1"/>
<text class="tick" x="72" y="548.00" text-anchor="end">0%</text>
<line x1="82" y1="495.80" x2="1238" y2="495.80" stroke="#deded8" stroke-width="1"/>
<text class="tick" x="72" y="499.80" text-anchor="end">10%</text>
<line x1="82" y1="447.60" x2="1238" y2="447.60" stroke="#deded8" stroke-width="1"/>
<text class="tick" x="72" y="451.60" text-anchor="end">20%</text>
<line x1="82" y1="399.40" x2="1238" y2="399.40" stroke="#deded8" stroke-width="1"/>
<text class="tick" x="72" y="403.40" text-anchor="end">30%</text>
<line x1="82" y1="351.20" x2="1238" y2="351.20" stroke="#deded8" stroke-width="1"/>
<text class="tick" x="72" y="355.20" text-anchor="end">40%</text>
<line x1="82" y1="303.00" x2="1238" y2="303.00" stroke="#deded8" stroke-width="1"/>
<text class="tick" x="72" y="307.00" text-anchor="end">50%</text>
<line x1="82" y1="254.80" x2="1238" y2="254.80" stroke="#deded8" stroke-width="1"/>
<text class="tick" x="72" y="258.80" text-anchor="end">60%</text>
<line x1="82" y1="206.60" x2="1238" y2="206.60" stroke="#deded8" stroke-width="1"/>
<text class="tick" x="72" y="210.60" text-anchor="end">70%</text>
<line x1="82" y1="158.40" x2="1238" y2="158.40" stroke="#deded8" stroke-width="1"/>
<text class="tick" x="72" y="162.40" text-anchor="end">80%</text>
<line x1="82" y1="110.20" x2="1238" y2="110.20" stroke="#deded8" stroke-width="1"/>
<text class="tick" x="72" y="114.20" text-anchor="end">90%</text>
<line x1="82" y1="62.00" x2="1238" y2="62.00" stroke="#deded8" stroke-width="1"/>
<text class="tick" x="72" y="66.00" text-anchor="end">100%</text>
<line x1="90.30" y1="62" x2="90.30" y2="544" stroke="#eeeeea" stroke-width="1"/>
<text class="tick" x="90.30" y="578" text-anchor="middle">1955</text>
<line x1="170.26" y1="62" x2="170.26" y2="544" stroke="#eeeeea" stroke-width="1"/>
<text class="tick" x="170.26" y="578" text-anchor="middle">1960</text>
<line x1="250.53" y1="62" x2="250.53" y2="544" stroke="#eeeeea" stroke-width="1"/>
<text class="tick" x="250.53" y="578" text-anchor="middle">1965</text>
<line x1="330.79" y1="62" x2="330.79" y2="544" stroke="#eeeeea" stroke-width="1"/>
<text class="tick" x="330.79" y="578" text-anchor="middle">1970</text>
<line x1="411.06" y1="62" x2="411.06" y2="544" stroke="#eeeeea" stroke-width="1"/>
<text class="tick" x="411.06" y="578" text-anchor="middle">1975</text>
<line x1="491.32" y1="62" x2="491.32" y2="544" stroke="#eeeeea" stroke-width="1"/>
<text class="tick" x="491.32" y="578" text-anchor="middle">1980</text>
<line x1="571.59" y1="62" x2="571.59" y2="544" stroke="#eeeeea" stroke-width="1"/>
<text class="tick" x="571.59" y="578" text-anchor="middle">1985</text>
<line x1="651.85" y1="62" x2="651.85" y2="544" stroke="#eeeeea" stroke-width="1"/>
<text class="tick" x="651.85" y="578" text-anchor="middle">1990</text>
<line x1="732.12" y1="62" x2="732.12" y2="544" stroke="#eeeeea" stroke-width="1"/>
<text class="tick" x="732.12" y="578" text-anchor="middle">1995</text>
<line x1="812.38" y1="62" x2="812.38" y2="544" stroke="#eeeeea" stroke-width="1"/>
<text class="tick" x="812.38" y="578" text-anchor="middle">2000</text>
<line x1="892.65" y1="62" x2="892.65" y2="544" stroke="#eeeeea" stroke-width="1"/>
<text class="tick" x="892.65" y="578" text-anchor="middle">2005</text>
<line x1="972.60" y1="62" x2="972.60" y2="544" stroke="#eeeeea" stroke-width="1"/>
<text class="tick" x="972.60" y="578" text-anchor="middle">2010</text>
<line x1="1052.87" y1="62" x2="1052.87" y2="544" stroke="#eeeeea" stroke-width="1"/>
<text class="tick" x="1052.87" y="578" text-anchor="middle">2015</text>
<line x1="1133.13" y1="62" x2="1133.13" y2="544" stroke="#eeeeea" stroke-width="1"/>
<text class="tick" x="1133.13" y="578" text-anchor="middle">2020</text>
<line x1="1213.40" y1="62" x2="1213.40" y2="544" stroke="#eeeeea" stroke-width="1"/>
<text class="tick" x="1213.40" y="578" text-anchor="middle">2025</text>
<line x1="82" y1="62" x2="82" y2="544" stroke="#333" stroke-width="1.2"/>
<line x1="82" y1="544" x2="1238" y2="544" stroke="#333" stroke-width="1.2"/>
<text class="axis" transform="translate(24 303.00) rotate(-90)" text-anchor="middle">Udzial NDX w czesci akcyjnej</text>
<text class="small" x="1246" y="548.00" fill="#555">SPX</text>
<text class="small" x="1246" y="307.00" fill="#555">50/50</text>
<text class="small" x="1246" y="66.00" fill="#555">NDX</text>
<polyline fill="none" stroke="#073b3a" stroke-width="3.8" stroke-linejoin="round" stroke-linecap="round" points="82.00,544.00 82.31,544.00 82.62,544.00 82.92,544.00 83.23,544.00 83.54,544.00 83.85,544.00 84.15,544.00 84.46,544.00 84.77,544.00 85.08,544.00 85.38,544.00 85.69,544.00 86.00,544.00 86.31,544.00 86.61,544.00 86.92,544.00 87.23,544.00 87.54,544.00 87.84,544.00 88.15,544.00 88.46,544.00 88.77,544.00 89.07,544.00 89.38,544.00 89.69,544.00 90.00,544.00 90.30,544.00 90.61,544.00 90.92,544.00 91.23,544.00 91.53,544.00 91.84,544.00 92.15,544.00 92.46,544.00 92.76,544.00 93.07,544.00 93.38,544.00 93.69,544.00 93.99,544.00 94.30,544.00 94.61,544.00 94.92,544.00 95.22,544.00 95.53,544.00 95.84,544.00 96.15,544.00 96.45,544.00 96.76,544.00 97.07,544.00 97.38,544.00 97.68,544.00 97.99,544.00 98.30,544.00 98.61,544.00 98.91,544.00 99.22,544.00 99.53,544.00 99.84,544.00 100.14,544.00 100.45,544.00 100.76,544.00 101.07,544.00 101.37,544.00 101.68,544.00 101.99,544.00 102.30,544.00 102.60,544.00 102.91,544.00 103.22,544.00 103.53,544.00 103.83,544.00 104.14,544.00 104.45,544.00 104.76,544.00 105.06,544.00 105.37,544.00 105.68,544.00 105.99,544.00 106.29,544.00 106.60,544.00 106.91,544.00 107.22,544.00 107.52,544.00 107.83,544.00 108.14,544.00 108.45,544.00 108.75,544.00 109.06,544.00 109.37,544.00 109.68,544.00 109.99,544.00 110.29,544.00 110.60,544.00 110.91,544.00 111.22,544.00 111.52,544.00 111.83,544.00 112.14,544.00 112.45,544.00 112.75,544.00 113.06,544.00 113.37,544.00 113.68,544.00 113.98,544.00 114.29,544.00 114.60,544.00 114.91,544.00 115.21,544.00 115.52,544.00 115.83,544.00 116.14,544.00 116.44,544.00 116.75,544.00 117.06,544.00 117.37,544.00 117.67,544.00 117.98,544.00 118.29,544.00 118.60,544.00 118.90,544.00 119.21,544.00 119.52,544.00 119.83,544.00 120.13,544.00 120.44,544.00 120.75,544.00 121.06,544.00 121.36,544.00 121.67,544.00 121.98,544.00 122.29,544.00 122.59,544.00 122.90,544.00 123.21,544.00 123.52,544.00 123.82,544.00 124.13,544.00 124.44,544.00 124.75,544.00 125.05,544.00 125.36,544.00 125.67,544.00 125.98,544.00 126.28,544.00 126.59,544.00 126.90,544.00 127.21,544.00 127.51,544.00 127.82,544.00 128.13,544.00 128.44,544.00 128.74,544.00 129.05,544.00 129.36,544.00 129.67,544.00 129.97,544.00 130.28,544.00 130.59,544.00 130.90,544.00 131.20,544.00 131.51,544.00 131.82,544.00 132.13,544.00 132.43,544.00 132.74,544.00 133.05,544.00 133.36,544.00 133.66,544.00 133.97,544.00 134.28,544.00 134.59,544.00 134.89,544.00 135.20,544.00 135.51,544.00 135.82,544.00 136.13,544.00 136.43,544.00 136.74,544.00 137.05,544.00 137.36,544.00 137.66,544.00 137.97,544.00 138.28,544.00 138.59,544.00 138.89,544.00 139.20,544.00 139.51,544.00 139.82,544.00 140.12,544.00 140.43,544.00 140.74,544.00 141.05,544.00 141.35,544.00 141.66,544.00 141.97,544.00 142.28,544.00 142.58,544.00 142.89,544.00 143.20,544.00 143.51,544.00 143.81,544.00 144.12,544.00 144.43,544.00 144.74,544.00 145.04,544.00 145.35,544.00 145.66,544.00 145.97,544.00 146.27,544.00 146.58,544.00 146.89,544.00 147.20,544.00 147.50,544.00 147.81,544.00 148.12,544.00 148.43,544.00 148.73,544.00 149.04,544.00 149.35,544.00 149.66,544.00 149.96,544.00 150.27,544.00 150.58,544.00 150.89,544.00 151.19,544.00 151.50,544.00 151.81,544.00 152.12,544.00 152.42,544.00 152.73,544.00 153.04,544.00 153.35,544.00 153.65,544.00 153.96,544.00 154.27,544.00 154.58,544.00 154.88,544.00 155.19,544.00 155.50,544.00 155.81,544.00 156.11,544.00 156.42,544.00 156.73,544.00 157.04,544.00 157.34,544.00 157.65,544.00 157.96,544.00 158.27,544.00 158.57,544.00 158.88,544.00 159.19,544.00 159.50,544.00 159.80,544.00 160.11,544.00 160.42,544.00 160.73,544.00 161.03,544.00 161.34,544.00 161.65,544.00 161.96,544.00 162.26,544.00 162.57,544.00 162.88,544.00 163.19,544.00 163.50,544.00 163.80,544.00 164.11,544.00 164.42,544.00 164.73,544.00 165.03,544.00 165.34,544.00 165.65,544.00 165.96,544.00 166.26,544.00 166.57,544.00 166.88,544.00 167.19,544.00 167.49,544.00 167.80,544.00 168.11,544.00 168.42,544.00 168.72,544.00 169.03,544.00 169.34,544.00 169.65,544.00 169.95,544.00 170.26,544.00 170.57,544.00 170.88,544.00 171.18,544.00 171.49,544.00 171.80,544.00 172.11,544.00 172.41,544.00 172.72,544.00 173.03,544.00 173.34,544.00 173.64,544.00 173.95,544.00 174.26,544.00 174.57,544.00 174.87,544.00 175.18,544.00 175.49,544.00 175.80,544.00 176.10,544.00 176.41,544.00 176.72,544.00 177.03,544.00 177.33,544.00 177.64,544.00 177.95,544.00 178.26,544.00 178.56,544.00 178.87,544.00 179.18,544.00 179.49,544.00 179.79,544.00 180.10,544.00 180.41,544.00 180.72,544.00 181.02,544.00 181.33,544.00 181.64,544.00 181.95,544.00 182.25,544.00 182.56,544.00 182.87,544.00 183.18,544.00 183.48,544.00 183.79,544.00 184.10,544.00 184.41,544.00 184.71,544.00 185.02,544.00 185.33,544.00 185.64,544.00 185.94,544.00 186.25,544.00 186.56,544.00 186.87,544.00 187.17,544.00 187.48,544.00 187.79,544.00 188.10,544.00 188.40,544.00 188.71,544.00 189.02,544.00 189.33,544.00 189.64,544.00 189.94,544.00 190.25,544.00 190.56,544.00 190.87,544.00 191.17,544.00 191.48,544.00 191.79,544.00 192.10,544.00 192.40,544.00 192.71,544.00 193.02,544.00 193.33,544.00 193.63,544.00 193.94,544.00 194.25,544.00 194.56,544.00 194.86,544.00 195.17,544.00 195.48,544.00 195.79,544.00 196.09,544.00 196.40,544.00 196.71,544.00 197.02,544.00 197.32,544.00 197.63,544.00 197.94,544.00 198.25,544.00 198.55,544.00 198.86,544.00 199.17,544.00 199.48,544.00 199.78,544.00 200.09,544.00 200.40,544.00 200.71,544.00 201.01,544.00 201.32,544.00 201.63,544.00 201.94,544.00 202.24,544.00 202.55,544.00 202.86,544.00 203.17,544.00 203.47,544.00 203.78,544.00 204.09,544.00 204.40,544.00 204.70,544.00 205.01,544.00 205.32,544.00 205.63,544.00 205.93,544.00 206.24,544.00 206.55,544.00 206.86,544.00 207.16,544.00 207.47,544.00 207.78,544.00 208.09,544.00 208.39,544.00 208.70,544.00 209.01,544.00 209.32,544.00 209.62,544.00 209.93,544.00 210.24,544.00 210.55,544.00 210.85,544.00 211.16,544.00 211.47,544.00 211.78,544.00 212.08,544.00 212.39,544.00 212.70,544.00 213.01,544.00 213.31,544.00 213.62,544.00 213.93,544.00 214.24,544.00 214.54,544.00 214.85,544.00 215.16,544.00 215.47,544.00 215.77,544.00 216.08,544.00 216.39,544.00 216.70,544.00 217.01,544.00 217.31,544.00 217.62,544.00 217.93,544.00 218.24,544.00 218.54,544.00 218.85,544.00 219.16,544.00 219.47,544.00 219.77,544.00 220.08,544.00 220.39,544.00 220.70,544.00 221.00,544.00 221.31,544.00 221.62,544.00 221.93,544.00 222.23,544.00 222.54,544.00 222.85,544.00 223.16,544.00 223.46,544.00 223.77,544.00 224.08,544.00 224.39,544.00 224.69,544.00 225.00,544.00 225.31,544.00 225.62,544.00 225.92,544.00 226.23,544.00 226.54,544.00 226.85,544.00 227.15,544.00 227.46,544.00 227.77,544.00 228.08,544.00 228.38,544.00 228.69,544.00 229.00,544.00 229.31,544.00 229.61,544.00 229.92,544.00 230.23,544.00 230.54,544.00 230.84,544.00 231.15,544.00 231.46,544.00 231.77,544.00 232.07,544.00 232.38,544.00 232.69,544.00 233.00,544.00 233.30,544.00 233.61,544.00 233.92,544.00 234.23,544.00 234.53,544.00 234.84,544.00 235.15,544.00 235.46,544.00 235.76,544.00 236.07,544.00 236.38,544.00 236.69,544.00 236.99,544.00 237.30,544.00 237.61,544.00 237.92,544.00 238.22,544.00 238.53,544.00 238.84,544.00 239.15,544.00 239.45,544.00 239.76,544.00 240.07,544.00 240.38,544.00 240.68,544.00 240.99,544.00 241.30,544.00 241.61,544.00 241.91,544.00 242.22,544.00 242.53,544.00 242.84,544.00 243.14,544.00 243.45,544.00 243.76,544.00 244.07,544.00 244.38,544.00 244.68,544.00 244.99,544.00 245.30,544.00 245.61,544.00 245.91,544.00 246.22,544.00 246.53,544.00 246.84,544.00 247.14,544.00 247.45,544.00 247.76,544.00 248.07,544.00 248.37,544.00 248.68,544.00 248.99,544.00 249.30,544.00 249.60,544.00 249.91,544.00 250.22,544.00 250.53,544.00 250.83,544.00 251.14,544.00 251.45,544.00 251.76,544.00 252.06,544.00 252.37,544.00 252.68,544.00 252.99,544.00 253.29,544.00 253.60,544.00 253.91,544.00 254.22,544.00 254.52,544.00 254.83,544.00 255.14,544.00 255.45,544.00 255.75,544.00 256.06,544.00 256.37,544.00 256.68,544.00 256.98,544.00 257.29,544.00 257.60,544.00 257.91,544.00 258.21,544.00 258.52,544.00 258.83,544.00 259.14,544.00 259.44,544.00 259.75,544.00 260.06,544.00 260.37,544.00 260.67,544.00 260.98,544.00 261.29,544.00 261.60,544.00 261.90,544.00 262.21,544.00 262.52,544.00 262.83,544.00 263.13,544.00 263.44,544.00 263.75,544.00 264.06,544.00 264.36,544.00 264.67,544.00 264.98,544.00 265.29,544.00 265.59,544.00 265.90,544.00 266.21,544.00 266.52,544.00 266.82,544.00 267.13,544.00 267.44,544.00 267.75,544.00 268.05,544.00 268.36,544.00 268.67,544.00 268.98,544.00 269.28,544.00 269.59,544.00 269.90,544.00 270.21,544.00 270.52,544.00 270.82,544.00 271.13,544.00 271.44,544.00 271.75,544.00 272.05,544.00 272.36,544.00 272.67,544.00 272.98,544.00 273.28,544.00 273.59,544.00 273.90,544.00 274.21,544.00 274.51,544.00 274.82,544.00 275.13,544.00 275.44,544.00 275.74,544.00 276.05,544.00 276.36,544.00 276.67,544.00 276.97,544.00 277.28,544.00 277.59,544.00 277.90,544.00 278.20,544.00 278.51,544.00 278.82,544.00 279.13,544.00 279.43,544.00 279.74,544.00 280.05,544.00 280.36,544.00 280.66,544.00 280.97,544.00 281.28,544.00 281.59,544.00 281.89,544.00 282.20,544.00 282.51,544.00 282.82,544.00 283.12,544.00 283.43,544.00 283.74,544.00 284.05,544.00 284.35,544.00 284.66,544.00 284.97,544.00 285.28,544.00 285.58,544.00 285.89,544.00 286.20,544.00 286.51,544.00 286.81,544.00 287.12,544.00 287.43,544.00 287.74,544.00 288.04,544.00 288.35,544.00 288.66,544.00 288.97,544.00 289.27,544.00 289.58,544.00 289.89,544.00 290.20,544.00 290.50,544.00 290.81,544.00 291.12,544.00 291.43,544.00 291.73,544.00 292.04,544.00 292.35,544.00 292.66,544.00 292.96,544.00 293.27,544.00 293.58,544.00 293.89,544.00 294.19,544.00 294.50,544.00 294.81,544.00 295.12,544.00 295.42,544.00 295.73,544.00 296.04,544.00 296.35,544.00 296.65,544.00 296.96,544.00 297.27,544.00 297.58,544.00 297.89,544.00 298.19,544.00 298.50,544.00 298.81,544.00 299.12,544.00 299.42,544.00 299.73,544.00 300.04,544.00 300.35,544.00 300.65,544.00 300.96,544.00 301.27,544.00 301.58,544.00 301.88,544.00 302.19,544.00 302.50,544.00 302.81,544.00 303.11,544.00 303.42,544.00 303.73,544.00 304.04,544.00 304.34,544.00 304.65,544.00 304.96,544.00 305.27,544.00 305.57,544.00 305.88,544.00 306.19,544.00 306.50,544.00 306.80,544.00 307.11,544.00 307.42,544.00 307.73,544.00 308.03,544.00 308.34,544.00 308.65,544.00 308.96,544.00 309.26,544.00 309.57,544.00 309.88,544.00 310.19,544.00 310.49,544.00 310.80,544.00 311.11,544.00 311.42,544.00 311.72,544.00 312.03,544.00 312.34,544.00 312.65,544.00 312.95,544.00 313.26,544.00 313.57,544.00 313.88,544.00 314.18,544.00 314.49,544.00 314.80,544.00 315.11,544.00 315.41,544.00 315.72,544.00 316.03,544.00 316.34,544.00 316.64,544.00 316.95,544.00 317.26,544.00 317.57,544.00 317.87,544.00 318.18,544.00 318.49,544.00 318.80,544.00 319.10,544.00 319.41,544.00 319.72,544.00 320.03,544.00 320.33,544.00 320.64,544.00 320.95,544.00 321.26,544.00 321.56,544.00 321.87,544.00 322.18,399.40 322.49,399.40 322.79,544.00 323.10,544.00 323.41,544.00 323.72,544.00 324.03,399.40 324.33,399.40 324.64,544.00 324.95,399.40 325.26,544.00 325.56,544.00 325.87,544.00 326.18,544.00 326.49,544.00 326.79,544.00 327.10,544.00 327.41,544.00 327.72,544.00 328.02,399.40 328.33,399.40 328.64,399.40 328.95,399.40 329.25,399.40 329.56,399.40 329.87,399.40 330.18,399.40 330.48,399.40 330.79,399.40 331.10,399.40 331.41,399.40 331.71,399.40 332.02,399.40 332.33,399.40 332.64,399.40 332.94,399.40 333.25,399.40 333.56,399.40 333.87,399.40 334.17,399.40 334.48,399.40 334.79,399.40 335.10,399.40 335.40,399.40 335.71,399.40 336.02,399.40 336.33,399.40 336.63,399.40 336.94,399.40 337.25,399.40 337.56,399.40 337.86,399.40 338.17,544.00 338.48,544.00 338.79,544.00 339.09,544.00 339.40,544.00 339.71,544.00 340.02,544.00 340.32,544.00 340.63,544.00 340.94,544.00 341.25,544.00 341.55,544.00 341.86,544.00 342.17,544.00 342.48,544.00 342.78,544.00 343.09,544.00 343.40,544.00 343.71,544.00 344.01,544.00 344.32,544.00 344.63,544.00 344.94,544.00 345.24,544.00 345.55,544.00 345.86,544.00 346.17,544.00 346.47,544.00 346.78,399.40 347.09,399.40 347.40,399.40 347.70,399.40 348.01,399.40 348.32,399.40 348.63,399.40 348.93,399.40 349.24,399.40 349.55,399.40 349.86,399.40 350.16,399.40 350.47,399.40 350.78,399.40 351.09,399.40 351.40,399.40 351.70,399.40 352.01,399.40 352.32,399.40 352.63,399.40 352.93,399.40 353.24,399.40 353.55,399.40 353.86,399.40 354.16,399.40 354.47,399.40 354.78,399.40 355.09,399.40 355.39,399.40 355.70,544.00 356.01,544.00 356.32,544.00 356.62,544.00 356.93,544.00 357.24,544.00 357.55,544.00 357.85,544.00 358.16,544.00 358.47,544.00 358.78,544.00 359.08,544.00 359.39,544.00 359.70,544.00 360.01,544.00 360.31,544.00 360.62,544.00 360.93,544.00 361.24,544.00 361.54,544.00 361.85,544.00 362.16,544.00 362.47,544.00 362.77,544.00 363.08,544.00 363.39,544.00 363.70,544.00 364.00,544.00 364.31,544.00 364.62,544.00 364.93,544.00 365.23,544.00 365.54,544.00 365.85,544.00 366.16,544.00 366.46,544.00 366.77,544.00 367.08,544.00 367.39,544.00 367.69,544.00 368.00,544.00 368.31,544.00 368.62,544.00 368.92,544.00 369.23,399.40 369.54,399.40 369.85,399.40 370.15,399.40 370.46,399.40 370.77,399.40 371.08,399.40 371.38,399.40 371.69,399.40 372.00,399.40 372.31,399.40 372.61,399.40 372.92,399.40 373.23,399.40 373.54,399.40 373.84,399.40 374.15,399.40 374.46,399.40 374.77,399.40 375.07,399.40 375.38,399.40 375.69,399.40 376.00,399.40 376.30,399.40 376.61,399.40 376.92,399.40 377.23,399.40 377.53,399.40 377.84,399.40 378.15,399.40 378.46,399.40 378.77,399.40 379.07,399.40 379.38,399.40 379.69,399.40 380.00,399.40 380.30,399.40 380.61,399.40 380.92,399.40 381.23,399.40 381.53,399.40 381.84,399.40 382.15,399.40 382.46,399.40 382.76,399.40 383.07,399.40 383.38,399.40 383.69,399.40 383.99,399.40 384.30,399.40 384.61,544.00 384.92,544.00 385.22,544.00 385.53,544.00 385.84,544.00 386.15,544.00 386.45,544.00 386.76,544.00 387.07,544.00 387.38,544.00 387.68,544.00 387.99,544.00 388.30,544.00 388.61,544.00 388.91,544.00 389.22,544.00 389.53,544.00 389.84,399.40 390.14,399.40 390.45,399.40 390.76,399.40 391.07,399.40 391.37,399.40 391.68,399.40 391.99,399.40 392.30,399.40 392.60,399.40 392.91,399.40 393.22,399.40 393.53,399.40 393.83,399.40 394.14,399.40 394.45,399.40 394.76,399.40 395.06,399.40 395.37,399.40 395.68,399.40 395.99,399.40 396.29,399.40 396.60,399.40 396.91,399.40 397.22,399.40 397.52,399.40 397.83,399.40 398.14,399.40 398.45,399.40 398.75,399.40 399.06,399.40 399.37,399.40 399.68,399.40 399.98,399.40 400.29,399.40 400.60,399.40 400.91,399.40 401.21,399.40 401.52,399.40 401.83,399.40 402.14,399.40 402.44,544.00 402.75,544.00 403.06,544.00 403.37,544.00 403.67,544.00 403.98,544.00 404.29,544.00 404.60,544.00 404.91,544.00 405.21,544.00 405.52,544.00 405.83,544.00 406.14,544.00 406.44,544.00 406.75,544.00 407.06,544.00 407.37,544.00 407.67,544.00 407.98,544.00 408.29,544.00 408.60,544.00 408.90,544.00 409.21,544.00 409.52,544.00 409.83,544.00 410.13,544.00 410.44,544.00 410.75,544.00 411.06,544.00 411.36,544.00 411.67,544.00 411.98,544.00 412.29,544.00 412.59,544.00 412.90,544.00 413.21,544.00 413.52,544.00 413.82,544.00 414.13,544.00 414.44,544.00 414.75,544.00 415.05,544.00 415.36,544.00 415.67,544.00 415.98,544.00 416.28,544.00 416.59,544.00 416.90,544.00 417.21,544.00 417.51,544.00 417.82,399.40 418.13,399.40 418.44,399.40 418.74,399.40 419.05,399.40 419.36,399.40 419.67,399.40 419.97,399.40 420.28,399.40 420.59,399.40 420.90,399.40 421.20,399.40 421.51,399.40 421.82,399.40 422.13,399.40 422.43,399.40 422.74,399.40 423.05,399.40 423.36,399.40 423.66,399.40 423.97,399.40 424.28,399.40 424.59,399.40 424.89,399.40 425.20,399.40 425.51,399.40 425.82,399.40 426.12,399.40 426.43,399.40 426.74,399.40 427.05,399.40 427.35,399.40 427.66,399.40 427.97,399.40 428.28,399.40 428.58,399.40 428.89,399.40 429.20,399.40 429.51,399.40 429.81,399.40 430.12,399.40 430.43,399.40 430.74,399.40 431.04,399.40 431.35,399.40 431.66,399.40 431.97,399.40 432.28,399.40 432.58,399.40 432.89,399.40 433.20,399.40 433.51,399.40 433.81,399.40 434.12,399.40 434.43,399.40 434.74,399.40 435.04,399.40 435.35,399.40 435.66,399.40 435.97,399.40 436.27,399.40 436.58,399.40 436.89,399.40 437.20,399.40 437.50,399.40 437.81,399.40 438.12,399.40 438.43,399.40 438.73,399.40 439.04,399.40 439.35,399.40 439.66,399.40 439.96,399.40 440.27,399.40 440.58,399.40 440.89,399.40 441.19,399.40 441.50,399.40 441.81,399.40 442.12,399.40 442.42,399.40 442.73,399.40 443.04,399.40 443.35,399.40 443.65,399.40 443.96,399.40 444.27,399.40 444.58,399.40 444.88,399.40 445.19,399.40 445.50,399.40 445.81,399.40 446.11,399.40 446.42,399.40 446.73,399.40 447.04,399.40 447.34,399.40 447.65,399.40 447.96,399.40 448.27,399.40 448.57,544.00 448.88,544.00 449.19,544.00 449.50,544.00 449.80,544.00 450.11,544.00 450.42,544.00 450.73,544.00 451.03,544.00 451.34,399.40 451.65,399.40 451.96,399.40 452.26,399.40 452.57,399.40 452.88,399.40 453.19,399.40 453.49,399.40 453.80,399.40 454.11,399.40 454.42,399.40 454.72,399.40 455.03,399.40 455.34,399.40 455.65,399.40 455.95,399.40 456.26,399.40 456.57,399.40 456.88,399.40 457.18,399.40 457.49,399.40 457.80,399.40 458.11,399.40 458.42,399.40 458.72,544.00 459.03,399.40 459.34,544.00 459.65,544.00 459.95,544.00 460.26,544.00 460.57,544.00 460.88,544.00 461.18,544.00 461.49,544.00 461.80,399.40 462.11,399.40 462.41,399.40 462.72,399.40 463.03,399.40 463.34,399.40 463.64,399.40 463.95,399.40 464.26,399.40 464.57,544.00 464.87,544.00 465.18,544.00 465.49,544.00 465.80,544.00 466.10,544.00 466.41,544.00 466.72,544.00 467.03,544.00 467.33,544.00 467.64,544.00 467.95,544.00 468.26,544.00 468.56,399.40 468.87,399.40 469.18,399.40 469.49,399.40 469.79,399.40 470.10,399.40 470.41,399.40 470.72,544.00 471.02,399.40 471.33,399.40 471.64,399.40 471.95,399.40 472.25,544.00 472.56,544.00 472.87,399.40 473.18,399.40 473.48,399.40 473.79,399.40 474.10,399.40 474.41,399.40 474.71,399.40 475.02,399.40 475.33,399.40 475.64,399.40 475.94,399.40 476.25,399.40 476.56,544.00 476.87,544.00 477.17,544.00 477.48,544.00 477.79,544.00 478.10,544.00 478.40,544.00 478.71,544.00 479.02,544.00 479.33,544.00 479.63,544.00 479.94,544.00 480.25,544.00 480.56,399.40 480.86,399.40 481.17,399.40 481.48,399.40 481.79,399.40 482.09,399.40 482.40,399.40 482.71,399.40 483.02,399.40 483.32,399.40 483.63,399.40 483.94,399.40 484.25,399.40 484.55,399.40 484.86,399.40 485.17,399.40 485.48,399.40 485.79,399.40 486.09,399.40 486.40,399.40 486.71,399.40 487.02,399.40 487.32,399.40 487.63,399.40 487.94,399.40 488.25,399.40 488.55,399.40 488.86,399.40 489.17,399.40 489.48,544.00 489.78,544.00 490.09,544.00 490.40,544.00 490.71,544.00 491.01,544.00 491.32,544.00 491.63,544.00 491.94,544.00 492.24,544.00 492.55,544.00 492.86,544.00 493.17,544.00 493.47,544.00 493.78,544.00 494.09,544.00 494.40,544.00 494.70,544.00 495.01,544.00 495.32,544.00 495.63,544.00 495.93,544.00 496.24,544.00 496.55,544.00 496.86,399.40 497.16,399.40 497.47,399.40 497.78,399.40 498.09,399.40 498.39,399.40 498.70,399.40 499.01,399.40 499.32,399.40 499.62,399.40 499.93,399.40 500.24,399.40 500.55,399.40 500.85,399.40 501.16,399.40 501.47,399.40 501.78,399.40 502.08,399.40 502.39,399.40 502.70,399.40 503.01,399.40 503.31,399.40 503.62,399.40 503.93,399.40 504.24,399.40 504.54,544.00 504.85,544.00 505.16,544.00 505.47,544.00 505.77,544.00 506.08,544.00 506.39,544.00 506.70,544.00 507.00,544.00 507.31,544.00 507.62,544.00 507.93,544.00 508.23,544.00 508.54,544.00 508.85,544.00 509.16,544.00 509.46,544.00 509.77,544.00 510.08,544.00 510.39,544.00 510.69,544.00 511.00,544.00 511.31,544.00 511.62,544.00 511.92,544.00 512.23,544.00 512.54,544.00 512.85,544.00 513.16,544.00 513.46,544.00 513.77,544.00 514.08,544.00 514.39,544.00 514.69,544.00 515.00,544.00 515.31,399.40 515.62,399.40 515.92,399.40 516.23,399.40 516.54,399.40 516.85,544.00 517.15,544.00 517.46,544.00 517.77,544.00 518.08,544.00 518.38,544.00 518.69,544.00 519.00,544.00 519.31,399.40 519.61,399.40 519.92,399.40 520.23,399.40 520.54,399.40 520.84,399.40 521.15,399.40 521.46,399.40 521.77,399.40 522.07,399.40 522.38,399.40 522.69,399.40 523.00,399.40 523.30,399.40 523.61,399.40 523.92,399.40 524.23,399.40 524.53,399.40 524.84,399.40 525.15,399.40 525.46,399.40 525.76,399.40 526.07,399.40 526.38,399.40 526.69,399.40 526.99,399.40 527.30,399.40 527.61,399.40 527.92,399.40 528.22,399.40 528.53,399.40 528.84,399.40 529.15,399.40 529.45,399.40 529.76,399.40 530.07,399.40 530.38,399.40 530.68,399.40 530.99,399.40 531.30,399.40 531.61,399.40 531.91,399.40 532.22,399.40 532.53,399.40 532.84,399.40 533.14,399.40 533.45,399.40 533.76,399.40 534.07,399.40 534.37,399.40 534.68,399.40 534.99,399.40 535.30,399.40 535.60,399.40 535.91,399.40 536.22,399.40 536.53,399.40 536.83,399.40 537.14,399.40 537.45,399.40 537.76,399.40 538.06,399.40 538.37,399.40 538.68,399.40 538.99,399.40 539.30,399.40 539.60,399.40 539.91,399.40 540.22,399.40 540.53,399.40 540.83,399.40 541.14,399.40 541.45,399.40 541.76,399.40 542.06,399.40 542.37,399.40 542.68,399.40 542.99,399.40 543.29,399.40 543.60,447.60 543.91,447.60 544.22,447.60 544.52,447.60 544.83,447.60 545.14,447.60 545.45,447.60 545.75,447.60 546.06,447.60 546.37,447.60 546.68,447.60 546.98,447.60 547.29,447.60 547.60,447.60 547.91,447.60 548.21,447.60 548.52,544.00 548.83,544.00 549.14,544.00 549.44,544.00 549.75,544.00 550.06,544.00 550.37,544.00 550.67,544.00 550.98,544.00 551.29,544.00 551.60,544.00 551.90,544.00 552.21,544.00 552.52,544.00 552.83,544.00 553.13,544.00 553.44,544.00 553.75,544.00 554.06,544.00 554.36,544.00 554.67,544.00 554.98,544.00 555.29,544.00 555.59,544.00 555.90,544.00 556.21,544.00 556.52,544.00 556.82,544.00 557.13,544.00 557.44,544.00 557.75,544.00 558.05,544.00 558.36,544.00 558.67,544.00 558.98,544.00 559.28,544.00 559.59,544.00 559.90,544.00 560.21,544.00 560.51,544.00 560.82,544.00 561.13,544.00 561.44,544.00 561.74,544.00 562.05,544.00 562.36,544.00 562.67,544.00 562.97,544.00 563.28,544.00 563.59,544.00 563.90,544.00 564.20,544.00 564.51,544.00 564.82,544.00 565.13,544.00 565.43,544.00 565.74,544.00 566.05,544.00 566.36,544.00 566.67,544.00 566.97,544.00 567.28,544.00 567.59,544.00 567.90,544.00 568.20,544.00 568.51,544.00 568.82,544.00 569.13,544.00 569.43,544.00 569.74,544.00 570.05,544.00 570.36,544.00 570.66,544.00 570.97,544.00 571.28,544.00 571.59,544.00 571.89,544.00 572.20,544.00 572.51,544.00 572.82,544.00 573.12,544.00 573.43,544.00 573.74,544.00 574.05,544.00 574.35,544.00 574.66,544.00 574.97,544.00 575.28,544.00 575.58,544.00 575.89,544.00 576.20,544.00 576.51,544.00 576.81,544.00 577.12,544.00 577.43,544.00 577.74,544.00 578.04,544.00 578.35,544.00 578.66,544.00 578.97,544.00 579.27,544.00 579.58,544.00 579.89,544.00 580.20,544.00 580.50,544.00 580.81,544.00 581.12,544.00 581.43,544.00 581.73,544.00 582.04,544.00 582.35,544.00 582.66,544.00 582.96,544.00 583.27,544.00 583.58,544.00 583.89,544.00 584.19,544.00 584.50,158.40 584.81,158.40 585.12,158.40 585.42,158.40 585.73,158.40 586.04,158.40 586.35,158.40 586.65,158.40 586.96,158.40 587.27,158.40 587.58,158.40 587.88,158.40 588.19,158.40 588.50,158.40 588.81,158.40 589.11,158.40 589.42,158.40 589.73,158.40 590.04,158.40 590.34,158.40 590.65,158.40 590.96,158.40 591.27,158.40 591.57,158.40 591.88,158.40 592.19,158.40 592.50,158.40 592.81,158.40 593.11,158.40 593.42,158.40 593.73,158.40 594.04,158.40 594.34,158.40 594.65,158.40 594.96,158.40 595.27,158.40 595.57,158.40 595.88,158.40 596.19,158.40 596.50,158.40 596.80,158.40 597.11,158.40 597.42,158.40 597.73,158.40 598.03,158.40 598.34,158.40 598.65,158.40 598.96,158.40 599.26,158.40 599.57,158.40 599.88,158.40 600.19,158.40 600.49,158.40 600.80,158.40 601.11,158.40 601.42,158.40 601.72,158.40 602.03,158.40 602.34,158.40 602.65,158.40 602.95,158.40 603.26,158.40 603.57,158.40 603.88,158.40 604.18,158.40 604.49,158.40 604.80,158.40 605.11,158.40 605.41,158.40 605.72,158.40 606.03,158.40 606.34,158.40 606.64,158.40 606.95,158.40 607.26,158.40 607.57,303.00 607.87,544.00 608.18,544.00 608.49,544.00 608.80,544.00 609.10,544.00 609.41,544.00 609.72,544.00 610.03,544.00 610.33,544.00 610.64,544.00 610.95,544.00 611.26,544.00 611.56,544.00 611.87,544.00 612.18,544.00 612.49,544.00 612.79,544.00 613.10,544.00 613.41,544.00 613.72,544.00 614.02,544.00 614.33,544.00 614.64,544.00 614.95,544.00 615.25,544.00 615.56,544.00 615.87,544.00 616.18,544.00 616.48,544.00 616.79,544.00 617.10,158.40 617.41,158.40 617.71,158.40 618.02,158.40 618.33,158.40 618.64,158.40 618.94,158.40 619.25,158.40 619.56,158.40 619.87,158.40 620.18,158.40 620.48,158.40 620.79,158.40 621.10,158.40 621.41,158.40 621.71,158.40 622.02,158.40 622.33,158.40 622.64,158.40 622.94,158.40 623.25,158.40 623.56,158.40 623.87,158.40 624.17,158.40 624.48,158.40 624.79,158.40 625.10,158.40 625.40,158.40 625.71,158.40 626.02,158.40 626.33,158.40 626.63,158.40 626.94,158.40 627.25,158.40 627.56,158.40 627.86,158.40 628.17,158.40 628.48,544.00 628.79,544.00 629.09,544.00 629.40,544.00 629.71,544.00 630.02,544.00 630.32,544.00 630.63,544.00 630.94,544.00 631.25,158.40 631.55,158.40 631.86,158.40 632.17,158.40 632.48,158.40 632.78,158.40 633.09,158.40 633.40,158.40 633.71,158.40 634.01,158.40 634.32,158.40 634.63,158.40 634.94,158.40 635.24,158.40 635.55,158.40 635.86,158.40 636.17,158.40 636.47,158.40 636.78,158.40 637.09,158.40 637.40,158.40 637.70,158.40 638.01,158.40 638.32,158.40 638.63,158.40 638.93,544.00 639.24,158.40 639.55,158.40 639.86,544.00 640.16,158.40 640.47,158.40 640.78,158.40 641.09,158.40 641.39,158.40 641.70,158.40 642.01,158.40 642.32,158.40 642.62,158.40 642.93,158.40 643.24,158.40 643.55,158.40 643.85,158.40 644.16,158.40 644.47,158.40 644.78,158.40 645.08,158.40 645.39,158.40 645.70,158.40 646.01,158.40 646.31,158.40 646.62,158.40 646.93,158.40 647.24,158.40 647.55,158.40 647.85,158.40 648.16,158.40 648.47,158.40 648.78,158.40 649.08,158.40 649.39,158.40 649.70,158.40 650.01,158.40 650.31,158.40 650.62,158.40 650.93,158.40 651.24,158.40 651.54,158.40 651.85,158.40 652.16,158.40 652.47,158.40 652.77,158.40 653.08,158.40 653.39,158.40 653.70,158.40 654.00,158.40 654.31,158.40 654.62,158.40 654.93,158.40 655.23,158.40 655.54,158.40 655.85,158.40 656.16,158.40 656.46,158.40 656.77,158.40 657.08,158.40 657.39,158.40 657.69,158.40 658.00,158.40 658.31,158.40 658.62,158.40 658.92,158.40 659.23,158.40 659.54,158.40 659.85,158.40 660.15,158.40 660.46,158.40 660.77,158.40 661.08,158.40 661.38,158.40 661.69,158.40 662.00,158.40 662.31,158.40 662.61,158.40 662.92,158.40 663.23,158.40 663.54,158.40 663.84,158.40 664.15,158.40 664.46,158.40 664.77,158.40 665.07,158.40 665.38,158.40 665.69,158.40 666.00,158.40 666.30,158.40 666.61,158.40 666.92,158.40 667.23,158.40 667.53,158.40 667.84,158.40 668.15,158.40 668.46,158.40 668.76,158.40 669.07,158.40 669.38,158.40 669.69,158.40 669.99,158.40 670.30,158.40 670.61,158.40 670.92,158.40 671.22,158.40 671.53,158.40 671.84,158.40 672.15,158.40 672.45,158.40 672.76,158.40 673.07,158.40 673.38,158.40 673.69,158.40 673.99,158.40 674.30,158.40 674.61,158.40 674.92,158.40 675.22,158.40 675.53,158.40 675.84,158.40 676.15,158.40 676.45,158.40 676.76,158.40 677.07,158.40 677.38,158.40 677.68,158.40 677.99,158.40 678.30,158.40 678.61,158.40 678.91,158.40 679.22,158.40 679.53,158.40 679.84,158.40 680.14,158.40 680.45,158.40 680.76,158.40 681.07,158.40 681.37,158.40 681.68,158.40 681.99,158.40 682.30,158.40 682.60,158.40 682.91,544.00 683.22,544.00 683.53,544.00 683.83,544.00 684.14,544.00 684.45,544.00 684.76,544.00 685.06,544.00 685.37,544.00 685.68,544.00 685.99,544.00 686.29,544.00 686.60,544.00 686.91,544.00 687.22,544.00 687.52,544.00 687.83,544.00 688.14,544.00 688.45,544.00 688.75,544.00 689.06,544.00 689.37,544.00 689.68,544.00 689.98,544.00 690.29,544.00 690.60,544.00 690.91,544.00 691.21,544.00 691.52,544.00 691.83,544.00 692.14,544.00 692.44,544.00 692.75,544.00 693.06,544.00 693.37,544.00 693.67,544.00 693.98,544.00 694.29,544.00 694.60,544.00 694.90,544.00 695.21,544.00 695.52,544.00 695.83,544.00 696.13,544.00 696.44,544.00 696.75,544.00 697.06,544.00 697.36,544.00 697.67,544.00 697.98,544.00 698.29,544.00 698.59,544.00 698.90,544.00 699.21,544.00 699.52,544.00 699.82,544.00 700.13,544.00 700.44,544.00 700.75,544.00 701.06,544.00 701.36,544.00 701.67,544.00 701.98,544.00 702.29,544.00 702.59,544.00 702.90,544.00 703.21,544.00 703.52,544.00 703.82,544.00 704.13,544.00 704.44,544.00 704.75,544.00 705.05,544.00 705.36,544.00 705.67,158.40 705.98,158.40 706.28,158.40 706.59,158.40 706.90,158.40 707.21,158.40 707.51,158.40 707.82,158.40 708.13,158.40 708.44,158.40 708.74,158.40 709.05,158.40 709.36,158.40 709.67,158.40 709.97,158.40 710.28,158.40 710.59,158.40 710.90,158.40 711.20,158.40 711.51,158.40 711.82,158.40 712.13,158.40 712.43,158.40 712.74,158.40 713.05,158.40 713.36,158.40 713.66,158.40 713.97,158.40 714.28,158.40 714.59,158.40 714.89,158.40 715.20,158.40 715.51,158.40 715.82,303.00 716.12,303.00 716.43,303.00 716.74,303.00 717.05,303.00 717.35,303.00 717.66,303.00 717.97,303.00 718.28,303.00 718.58,303.00 718.89,303.00 719.20,303.00 719.51,303.00 719.81,544.00 720.12,544.00 720.43,544.00 720.74,544.00 721.04,544.00 721.35,544.00 721.66,544.00 721.97,544.00 722.27,544.00 722.58,544.00 722.89,544.00 723.20,544.00 723.50,544.00 723.81,544.00 724.12,544.00 724.43,544.00 724.73,544.00 725.04,544.00 725.35,544.00 725.66,544.00 725.96,544.00 726.27,544.00 726.58,544.00 726.89,544.00 727.19,544.00 727.50,544.00 727.81,544.00 728.12,544.00 728.43,544.00 728.73,544.00 729.04,544.00 729.35,544.00 729.66,544.00 729.96,544.00 730.27,544.00 730.58,544.00 730.89,544.00 731.19,544.00 731.50,544.00 731.81,544.00 732.12,544.00 732.42,544.00 732.73,544.00 733.04,544.00 733.35,544.00 733.65,544.00 733.96,544.00 734.27,544.00 734.58,544.00 734.88,544.00 735.19,544.00 735.50,544.00 735.81,544.00 736.11,544.00 736.42,544.00 736.73,544.00 737.04,544.00 737.34,544.00 737.65,544.00 737.96,544.00 738.27,544.00 738.57,544.00 738.88,544.00 739.19,544.00 739.50,544.00 739.80,544.00 740.11,544.00 740.42,544.00 740.73,544.00 741.03,544.00 741.34,544.00 741.65,544.00 741.96,544.00 742.26,544.00 742.57,544.00 742.88,544.00 743.19,544.00 743.49,544.00 743.80,544.00 744.11,544.00 744.42,544.00 744.72,544.00 745.03,544.00 745.34,544.00 745.65,544.00 745.95,544.00 746.26,544.00 746.57,544.00 746.88,544.00 747.18,544.00 747.49,544.00 747.80,544.00 748.11,544.00 748.41,544.00 748.72,544.00 749.03,544.00 749.34,544.00 749.64,544.00 749.95,544.00 750.26,544.00 750.57,544.00 750.87,544.00 751.18,544.00 751.49,544.00 751.80,544.00 752.10,544.00 752.41,544.00 752.72,544.00 753.03,544.00 753.33,544.00 753.64,544.00 753.95,544.00 754.26,544.00 754.57,544.00 754.87,544.00 755.18,544.00 755.49,544.00 755.80,544.00 756.10,544.00 756.41,544.00 756.72,544.00 757.03,544.00 757.33,544.00 757.64,544.00 757.95,544.00 758.26,544.00 758.56,544.00 758.87,544.00 759.18,544.00 759.49,544.00 759.79,544.00 760.10,544.00 760.41,544.00 760.72,544.00 761.02,544.00 761.33,544.00 761.64,544.00 761.95,544.00 762.25,544.00 762.56,544.00 762.87,544.00 763.18,544.00 763.48,544.00 763.79,544.00 764.10,544.00 764.41,544.00 764.71,544.00 765.02,544.00 765.33,544.00 765.64,544.00 765.94,544.00 766.25,544.00 766.56,544.00 766.87,544.00 767.17,544.00 767.48,544.00 767.79,544.00 768.10,544.00 768.40,544.00 768.71,544.00 769.02,544.00 769.33,544.00 769.63,544.00 769.94,544.00 770.25,544.00 770.56,544.00 770.86,544.00 771.17,544.00 771.48,544.00 771.79,544.00 772.09,544.00 772.40,544.00 772.71,544.00 773.02,544.00 773.32,544.00 773.63,544.00 773.94,544.00 774.25,544.00 774.55,544.00 774.86,544.00 775.17,544.00 775.48,544.00 775.78,544.00 776.09,544.00 776.40,544.00 776.71,544.00 777.01,544.00 777.32,544.00 777.63,544.00 777.94,544.00 778.24,544.00 778.55,544.00 778.86,544.00 779.17,544.00 779.47,544.00 779.78,544.00 780.09,544.00 780.40,544.00 780.70,544.00 781.01,544.00 781.32,544.00 781.63,544.00 781.94,544.00 782.24,544.00 782.55,544.00 782.86,544.00 783.17,544.00 783.47,544.00 783.78,544.00 784.09,544.00 784.40,544.00 784.70,544.00 785.01,544.00 785.32,544.00 785.63,544.00 785.93,544.00 786.24,544.00 786.55,544.00 786.86,544.00 787.16,544.00 787.47,544.00 787.78,544.00 788.09,544.00 788.39,544.00 788.70,544.00 789.01,544.00 789.32,544.00 789.62,544.00 789.93,544.00 790.24,544.00 790.55,544.00 790.85,544.00 791.16,544.00 791.47,544.00 791.78,544.00 792.08,544.00 792.39,544.00 792.70,544.00 793.01,544.00 793.31,544.00 793.62,544.00 793.93,544.00 794.24,544.00 794.54,544.00 794.85,544.00 795.16,544.00 795.47,544.00 795.77,544.00 796.08,544.00 796.39,544.00 796.70,544.00 797.00,544.00 797.31,544.00 797.62,544.00 797.93,544.00 798.23,544.00 798.54,544.00 798.85,544.00 799.16,544.00 799.46,544.00 799.77,544.00 800.08,544.00 800.39,544.00 800.69,544.00 801.00,544.00 801.31,544.00 801.62,544.00 801.92,544.00 802.23,544.00 802.54,544.00 802.85,544.00 803.15,544.00 803.46,544.00 803.77,544.00 804.08,544.00 804.38,544.00 804.69,544.00 805.00,544.00 805.31,544.00 805.61,544.00 805.92,544.00 806.23,544.00 806.54,544.00 806.84,544.00 807.15,544.00 807.46,544.00 807.77,544.00 808.08,544.00 808.38,544.00 808.69,544.00 809.00,544.00 809.31,544.00 809.61,544.00 809.92,544.00 810.23,544.00 810.54,544.00 810.84,544.00 811.15,544.00 811.46,544.00 811.77,544.00 812.07,544.00 812.38,544.00 812.69,544.00 813.00,544.00 813.30,544.00 813.61,544.00 813.92,544.00 814.23,544.00 814.53,544.00 814.84,544.00 815.15,544.00 815.46,544.00 815.76,544.00 816.07,544.00 816.38,544.00 816.69,544.00 816.99,544.00 817.30,544.00 817.61,544.00 817.92,544.00 818.22,544.00 818.53,544.00 818.84,544.00 819.15,544.00 819.45,544.00 819.76,544.00 820.07,544.00 820.38,544.00 820.68,544.00 820.99,544.00 821.30,544.00 821.61,544.00 821.91,544.00 822.22,544.00 822.53,544.00 822.84,544.00 823.14,544.00 823.45,544.00 823.76,544.00 824.07,544.00 824.37,544.00 824.68,544.00 824.99,544.00 825.30,544.00 825.60,544.00 825.91,544.00 826.22,544.00 826.53,544.00 826.83,544.00 827.14,544.00 827.45,544.00 827.76,544.00 828.06,544.00 828.37,544.00 828.68,544.00 828.99,544.00 829.29,544.00 829.60,544.00 829.91,544.00 830.22,544.00 830.52,544.00 830.83,544.00 831.14,544.00 831.45,544.00 831.75,544.00 832.06,544.00 832.37,544.00 832.68,544.00 832.98,544.00 833.29,544.00 833.60,544.00 833.91,544.00 834.21,544.00 834.52,544.00 834.83,544.00 835.14,544.00 835.45,544.00 835.75,544.00 836.06,544.00 836.37,544.00 836.68,544.00 836.98,544.00 837.29,544.00 837.60,544.00 837.91,544.00 838.21,544.00 838.52,544.00 838.83,544.00 839.14,544.00 839.44,544.00 839.75,544.00 840.06,544.00 840.37,544.00 840.67,544.00 840.98,544.00 841.29,544.00 841.60,544.00 841.90,544.00 842.21,544.00 842.52,544.00 842.83,544.00 843.13,544.00 843.44,544.00 843.75,544.00 844.06,544.00 844.36,544.00 844.67,544.00 844.98,544.00 845.29,544.00 845.59,544.00 845.90,544.00 846.21,544.00 846.52,544.00 846.82,544.00 847.13,544.00 847.44,544.00 847.75,544.00 848.05,544.00 848.36,544.00 848.67,544.00 848.98,544.00 849.28,544.00 849.59,544.00 849.90,544.00 850.21,544.00 850.51,544.00 850.82,544.00 851.13,544.00 851.44,544.00 851.74,544.00 852.05,544.00 852.36,544.00 852.67,544.00 852.97,544.00 853.28,544.00 853.59,544.00 853.90,544.00 854.20,544.00 854.51,544.00 854.82,544.00 855.13,544.00 855.43,544.00 855.74,544.00 856.05,544.00 856.36,544.00 856.66,544.00 856.97,544.00 857.28,544.00 857.59,544.00 857.89,544.00 858.20,544.00 858.51,544.00 858.82,544.00 859.12,544.00 859.43,544.00 859.74,544.00 860.05,544.00 860.35,544.00 860.66,544.00 860.97,544.00 861.28,544.00 861.58,544.00 861.89,544.00 862.20,544.00 862.51,544.00 862.82,544.00 863.12,544.00 863.43,544.00 863.74,544.00 864.05,544.00 864.35,544.00 864.66,544.00 864.97,544.00 865.28,544.00 865.58,544.00 865.89,544.00 866.20,544.00 866.51,544.00 866.81,544.00 867.12,544.00 867.43,544.00 867.74,544.00 868.04,544.00 868.35,544.00 868.66,544.00 868.97,544.00 869.27,544.00 869.58,544.00 869.89,544.00 870.20,544.00 870.50,544.00 870.81,544.00 871.12,544.00 871.43,544.00 871.73,544.00 872.04,544.00 872.35,544.00 872.66,544.00 872.96,544.00 873.27,544.00 873.58,544.00 873.89,544.00 874.19,544.00 874.50,544.00 874.81,544.00 875.12,544.00 875.42,544.00 875.73,544.00 876.04,544.00 876.35,544.00 876.65,544.00 876.96,544.00 877.27,158.40 877.58,158.40 877.88,158.40 878.19,158.40 878.50,158.40 878.81,158.40 879.11,158.40 879.42,158.40 879.73,158.40 880.04,158.40 880.34,158.40 880.65,158.40 880.96,158.40 881.27,158.40 881.57,158.40 881.88,158.40 882.19,158.40 882.50,158.40 882.80,158.40 883.11,158.40 883.42,158.40 883.73,158.40 884.03,158.40 884.34,158.40 884.65,158.40 884.96,158.40 885.26,158.40 885.57,158.40 885.88,158.40 886.19,158.40 886.49,158.40 886.80,158.40 887.11,158.40 887.42,158.40 887.72,158.40 888.03,158.40 888.34,158.40 888.65,158.40 888.96,158.40 889.26,158.40 889.57,158.40 889.88,158.40 890.19,158.40 890.49,158.40 890.80,158.40 891.11,158.40 891.42,158.40 891.72,158.40 892.03,158.40 892.34,158.40 892.65,158.40 892.95,158.40 893.26,158.40 893.57,158.40 893.88,158.40 894.18,158.40 894.49,158.40 894.80,158.40 895.11,303.00 895.41,544.00 895.72,544.00 896.03,544.00 896.34,544.00 896.64,544.00 896.95,544.00 897.26,544.00 897.57,544.00 897.87,544.00 898.18,544.00 898.49,544.00 898.80,544.00 899.10,544.00 899.41,544.00 899.72,544.00 900.03,544.00 900.33,544.00 900.64,544.00 900.95,544.00 901.26,544.00 901.56,544.00 901.87,544.00 902.18,544.00 902.49,544.00 902.79,544.00 903.10,544.00 903.41,544.00 903.72,544.00 904.02,544.00 904.33,544.00 904.64,544.00 904.95,544.00 905.25,544.00 905.56,544.00 905.87,544.00 906.18,544.00 906.48,544.00 906.79,544.00 907.10,544.00 907.41,544.00 907.71,544.00 908.02,544.00 908.33,544.00 908.64,544.00 908.94,544.00 909.25,544.00 909.56,544.00 909.87,544.00 910.17,544.00 910.48,544.00 910.79,544.00 911.10,544.00 911.40,544.00 911.71,544.00 912.02,544.00 912.33,544.00 912.63,544.00 912.94,544.00 913.25,544.00 913.56,544.00 913.86,544.00 914.17,544.00 914.48,544.00 914.79,544.00 915.09,544.00 915.40,544.00 915.71,544.00 916.02,544.00 916.33,544.00 916.63,544.00 916.94,544.00 917.25,544.00 917.56,544.00 917.86,544.00 918.17,544.00 918.48,544.00 918.79,544.00 919.09,544.00 919.40,544.00 919.71,544.00 920.02,544.00 920.32,544.00 920.63,544.00 920.94,544.00 921.25,544.00 921.55,544.00 921.86,544.00 922.17,544.00 922.48,544.00 922.78,544.00 923.09,544.00 923.40,544.00 923.71,544.00 924.01,544.00 924.32,544.00 924.63,544.00 924.94,544.00 925.24,544.00 925.55,544.00 925.86,544.00 926.17,544.00 926.47,544.00 926.78,544.00 927.09,544.00 927.40,544.00 927.70,544.00 928.01,544.00 928.32,544.00 928.63,544.00 928.93,544.00 929.24,544.00 929.55,544.00 929.86,544.00 930.16,544.00 930.47,544.00 930.78,544.00 931.09,544.00 931.39,544.00 931.70,544.00 932.01,544.00 932.32,544.00 932.62,544.00 932.93,544.00 933.24,544.00 933.55,544.00 933.85,544.00 934.16,544.00 934.47,544.00 934.78,544.00 935.08,544.00 935.39,544.00 935.70,544.00 936.01,544.00 936.31,544.00 936.62,544.00 936.93,544.00 937.24,544.00 937.54,544.00 937.85,544.00 938.16,544.00 938.47,544.00 938.77,544.00 939.08,544.00 939.39,544.00 939.70,544.00 940.00,544.00 940.31,544.00 940.62,544.00 940.93,544.00 941.23,544.00 941.54,544.00 941.85,544.00 942.16,544.00 942.47,544.00 942.77,544.00 943.08,544.00 943.39,544.00 943.70,544.00 944.00,544.00 944.31,544.00 944.62,544.00 944.93,544.00 945.23,544.00 945.54,544.00 945.85,544.00 946.16,544.00 946.46,544.00 946.77,544.00 947.08,544.00 947.39,544.00 947.69,544.00 948.00,544.00 948.31,544.00 948.62,544.00 948.92,544.00 949.23,544.00 949.54,544.00 949.85,544.00 950.15,544.00 950.46,544.00 950.77,544.00 951.08,544.00 951.38,544.00 951.69,544.00 952.00,544.00 952.31,544.00 952.61,544.00 952.92,544.00 953.23,544.00 953.54,544.00 953.84,544.00 954.15,544.00 954.46,544.00 954.77,544.00 955.07,544.00 955.38,544.00 955.69,544.00 956.00,544.00 956.30,544.00 956.61,544.00 956.92,544.00 957.23,544.00 957.53,544.00 957.84,544.00 958.15,544.00 958.46,544.00 958.76,544.00 959.07,544.00 959.38,544.00 959.69,544.00 959.99,544.00 960.30,544.00 960.61,544.00 960.92,544.00 961.22,544.00 961.53,544.00 961.84,544.00 962.15,544.00 962.45,544.00 962.76,544.00 963.07,544.00 963.38,544.00 963.68,544.00 963.99,544.00 964.30,544.00 964.61,544.00 964.91,544.00 965.22,544.00 965.53,544.00 965.84,544.00 966.14,544.00 966.45,544.00 966.76,544.00 967.07,544.00 967.37,544.00 967.68,544.00 967.99,544.00 968.30,544.00 968.60,544.00 968.91,544.00 969.22,544.00 969.53,544.00 969.84,544.00 970.14,544.00 970.45,544.00 970.76,544.00 971.07,544.00 971.37,544.00 971.68,544.00 971.99,544.00 972.30,544.00 972.60,544.00 972.91,544.00 973.22,544.00 973.53,544.00 973.83,544.00 974.14,544.00 974.45,544.00 974.76,544.00 975.06,544.00 975.37,544.00 975.68,544.00 975.99,544.00 976.29,544.00 976.60,158.40 976.91,158.40 977.22,158.40 977.52,158.40 977.83,158.40 978.14,158.40 978.45,158.40 978.75,158.40 979.06,158.40 979.37,158.40 979.68,158.40 979.98,158.40 980.29,158.40 980.60,158.40 980.91,158.40 981.21,158.40 981.52,158.40 981.83,158.40 982.14,158.40 982.44,158.40 982.75,158.40 983.06,158.40 983.37,158.40 983.67,158.40 983.98,158.40 984.29,158.40 984.60,158.40 984.90,158.40 985.21,158.40 985.52,158.40 985.83,158.40 986.13,158.40 986.44,158.40 986.75,158.40 987.06,158.40 987.36,158.40 987.67,158.40 987.98,158.40 988.29,158.40 988.59,158.40 988.90,158.40 989.21,158.40 989.52,158.40 989.82,158.40 990.13,158.40 990.44,158.40 990.75,158.40 991.05,158.40 991.36,158.40 991.67,158.40 991.98,158.40 992.28,158.40 992.59,158.40 992.90,158.40 993.21,158.40 993.51,158.40 993.82,158.40 994.13,158.40 994.44,158.40 994.74,158.40 995.05,158.40 995.36,158.40 995.67,158.40 995.97,158.40 996.28,158.40 996.59,158.40 996.90,158.40 997.21,158.40 997.51,158.40 997.82,158.40 998.13,158.40 998.44,158.40 998.74,158.40 999.05,158.40 999.36,158.40 999.67,158.40 999.97,158.40 1000.28,158.40 1000.59,158.40 1000.90,158.40 1001.20,158.40 1001.51,158.40 1001.82,158.40 1002.13,158.40 1002.43,158.40 1002.74,158.40 1003.05,158.40 1003.36,158.40 1003.66,158.40 1003.97,158.40 1004.28,158.40 1004.59,303.00 1004.89,303.00 1005.20,303.00 1005.51,303.00 1005.82,303.00 1006.12,303.00 1006.43,303.00 1006.74,303.00 1007.05,303.00 1007.35,303.00 1007.66,303.00 1007.97,303.00 1008.28,303.00 1008.58,303.00 1008.89,303.00 1009.20,303.00 1009.51,303.00 1009.81,303.00 1010.12,303.00 1010.43,303.00 1010.74,303.00 1011.04,303.00 1011.35,303.00 1011.66,303.00 1011.97,303.00 1012.27,303.00 1012.58,303.00 1012.89,303.00 1013.20,303.00 1013.50,303.00 1013.81,303.00 1014.12,303.00 1014.43,303.00 1014.73,303.00 1015.04,303.00 1015.35,303.00 1015.66,303.00 1015.96,303.00 1016.27,303.00 1016.58,303.00 1016.89,303.00 1017.19,303.00 1017.50,303.00 1017.81,303.00 1018.12,303.00 1018.42,303.00 1018.73,303.00 1019.04,303.00 1019.35,303.00 1019.65,303.00 1019.96,303.00 1020.27,303.00 1020.58,303.00 1020.88,303.00 1021.19,303.00 1021.50,303.00 1021.81,303.00 1022.11,303.00 1022.42,303.00 1022.73,303.00 1023.04,303.00 1023.35,303.00 1023.65,303.00 1023.96,303.00 1024.27,303.00 1024.58,303.00 1024.88,303.00 1025.19,303.00 1025.50,303.00 1025.81,303.00 1026.11,303.00 1026.42,303.00 1026.73,303.00 1027.04,303.00 1027.34,303.00 1027.65,303.00 1027.96,303.00 1028.27,303.00 1028.57,303.00 1028.88,158.40 1029.19,158.40 1029.50,158.40 1029.80,158.40 1030.11,158.40 1030.42,158.40 1030.73,158.40 1031.03,158.40 1031.34,158.40 1031.65,158.40 1031.96,158.40 1032.26,158.40 1032.57,158.40 1032.88,158.40 1033.19,158.40 1033.49,158.40 1033.80,158.40 1034.11,158.40 1034.42,158.40 1034.72,158.40 1035.03,158.40 1035.34,158.40 1035.65,158.40 1035.95,158.40 1036.26,158.40 1036.57,158.40 1036.88,158.40 1037.18,158.40 1037.49,158.40 1037.80,158.40 1038.11,158.40 1038.41,158.40 1038.72,158.40 1039.03,158.40 1039.34,158.40 1039.64,158.40 1039.95,158.40 1040.26,158.40 1040.57,158.40 1040.87,158.40 1041.18,158.40 1041.49,158.40 1041.80,158.40 1042.10,158.40 1042.41,158.40 1042.72,158.40 1043.03,158.40 1043.33,158.40 1043.64,158.40 1043.95,158.40 1044.26,158.40 1044.56,158.40 1044.87,158.40 1045.18,158.40 1045.49,158.40 1045.79,158.40 1046.10,158.40 1046.41,158.40 1046.72,158.40 1047.02,158.40 1047.33,158.40 1047.64,158.40 1047.95,158.40 1048.25,158.40 1048.56,158.40 1048.87,158.40 1049.18,158.40 1049.48,158.40 1049.79,158.40 1050.10,158.40 1050.41,158.40 1050.72,158.40 1051.02,158.40 1051.33,158.40 1051.64,158.40 1051.95,158.40 1052.25,158.40 1052.56,158.40 1052.87,303.00 1053.18,303.00 1053.48,303.00 1053.79,303.00 1054.10,303.00 1054.41,303.00 1054.71,303.00 1055.02,303.00 1055.33,303.00 1055.64,303.00 1055.94,303.00 1056.25,303.00 1056.56,303.00 1056.87,303.00 1057.17,303.00 1057.48,303.00 1057.79,303.00 1058.10,303.00 1058.40,303.00 1058.71,303.00 1059.02,303.00 1059.33,303.00 1059.63,303.00 1059.94,303.00 1060.25,303.00 1060.56,303.00 1060.86,303.00 1061.17,303.00 1061.48,303.00 1061.79,303.00 1062.09,303.00 1062.40,303.00 1062.71,303.00 1063.02,303.00 1063.32,303.00 1063.63,303.00 1063.94,303.00 1064.25,303.00 1064.55,303.00 1064.86,303.00 1065.17,303.00 1065.48,303.00 1065.78,303.00 1066.09,303.00 1066.40,303.00 1066.71,303.00 1067.01,303.00 1067.32,303.00 1067.63,303.00 1067.94,303.00 1068.24,303.00 1068.55,303.00 1068.86,303.00 1069.17,303.00 1069.47,303.00 1069.78,303.00 1070.09,303.00 1070.40,303.00 1070.70,303.00 1071.01,303.00 1071.32,303.00 1071.63,303.00 1071.93,303.00 1072.24,303.00 1072.55,303.00 1072.86,303.00 1073.16,303.00 1073.47,303.00 1073.78,303.00 1074.09,303.00 1074.39,303.00 1074.70,303.00 1075.01,303.00 1075.32,303.00 1075.62,303.00 1075.93,303.00 1076.24,303.00 1076.55,303.00 1076.86,303.00 1077.16,303.00 1077.47,303.00 1077.78,303.00 1078.09,303.00 1078.39,303.00 1078.70,303.00 1079.01,303.00 1079.32,303.00 1079.62,303.00 1079.93,303.00 1080.24,303.00 1080.55,303.00 1080.85,303.00 1081.16,158.40 1081.47,158.40 1081.78,158.40 1082.08,158.40 1082.39,158.40 1082.70,158.40 1083.01,158.40 1083.31,158.40 1083.62,158.40 1083.93,158.40 1084.24,158.40 1084.54,158.40 1084.85,158.40 1085.16,158.40 1085.47,158.40 1085.77,158.40 1086.08,158.40 1086.39,158.40 1086.70,158.40 1087.00,158.40 1087.31,158.40 1087.62,158.40 1087.93,158.40 1088.23,158.40 1088.54,158.40 1088.85,158.40 1089.16,158.40 1089.46,158.40 1089.77,158.40 1090.08,158.40 1090.39,158.40 1090.69,158.40 1091.00,158.40 1091.31,158.40 1091.62,158.40 1091.92,158.40 1092.23,158.40 1092.54,158.40 1092.85,158.40 1093.15,158.40 1093.46,158.40 1093.77,158.40 1094.08,158.40 1094.38,158.40 1094.69,158.40 1095.00,158.40 1095.31,158.40 1095.61,158.40 1095.92,158.40 1096.23,158.40 1096.54,158.40 1096.84,158.40 1097.15,158.40 1097.46,158.40 1097.77,158.40 1098.07,158.40 1098.38,158.40 1098.69,158.40 1099.00,158.40 1099.30,158.40 1099.61,158.40 1099.92,158.40 1100.23,158.40 1100.53,158.40 1100.84,158.40 1101.15,303.00 1101.46,544.00 1101.76,544.00 1102.07,544.00 1102.38,544.00 1102.69,544.00 1102.99,544.00 1103.30,544.00 1103.61,544.00 1103.92,544.00 1104.23,544.00 1104.53,544.00 1104.84,544.00 1105.15,544.00 1105.46,544.00 1105.76,544.00 1106.07,544.00 1106.38,544.00 1106.69,544.00 1106.99,544.00 1107.30,544.00 1107.61,544.00 1107.92,544.00 1108.22,544.00 1108.53,544.00 1108.84,544.00 1109.15,544.00 1109.45,544.00 1109.76,544.00 1110.07,544.00 1110.38,544.00 1110.68,544.00 1110.99,544.00 1111.30,544.00 1111.61,544.00 1111.91,544.00 1112.22,544.00 1112.53,544.00 1112.84,544.00 1113.14,544.00 1113.45,544.00 1113.76,544.00 1114.07,544.00 1114.37,544.00 1114.68,544.00 1114.99,544.00 1115.30,544.00 1115.60,544.00 1115.91,544.00 1116.22,544.00 1116.53,544.00 1116.83,544.00 1117.14,544.00 1117.45,544.00 1117.76,544.00 1118.06,544.00 1118.37,544.00 1118.68,544.00 1118.99,544.00 1119.29,544.00 1119.60,544.00 1119.91,544.00 1120.22,544.00 1120.52,544.00 1120.83,544.00 1121.14,158.40 1121.45,158.40 1121.75,158.40 1122.06,158.40 1122.37,158.40 1122.68,158.40 1122.98,158.40 1123.29,158.40 1123.60,158.40 1123.91,158.40 1124.21,158.40 1124.52,158.40 1124.83,158.40 1125.14,158.40 1125.44,158.40 1125.75,158.40 1126.06,158.40 1126.37,158.40 1126.67,158.40 1126.98,158.40 1127.29,158.40 1127.60,158.40 1127.90,158.40 1128.21,158.40 1128.52,158.40 1128.83,158.40 1129.13,303.00 1129.44,303.00 1129.75,303.00 1130.06,303.00 1130.36,303.00 1130.67,303.00 1130.98,303.00 1131.29,303.00 1131.60,303.00 1131.90,303.00 1132.21,303.00 1132.52,303.00 1132.83,303.00 1133.13,303.00 1133.44,303.00 1133.75,303.00 1134.06,303.00 1134.36,303.00 1134.67,303.00 1134.98,303.00 1135.29,303.00 1135.59,303.00 1135.90,303.00 1136.21,303.00 1136.52,303.00 1136.82,303.00 1137.13,544.00 1137.44,544.00 1137.75,544.00 1138.05,544.00 1138.36,158.40 1138.67,158.40 1138.98,158.40 1139.28,158.40 1139.59,158.40 1139.90,158.40 1140.21,544.00 1140.51,544.00 1140.82,544.00 1141.13,544.00 1141.44,544.00 1141.74,544.00 1142.05,544.00 1142.36,544.00 1142.67,544.00 1142.97,544.00 1143.28,544.00 1143.59,544.00 1143.90,544.00 1144.20,544.00 1144.51,544.00 1144.82,544.00 1145.13,544.00 1145.43,544.00 1145.74,544.00 1146.05,544.00 1146.36,544.00 1146.66,544.00 1146.97,544.00 1147.28,544.00 1147.59,544.00 1147.89,544.00 1148.20,544.00 1148.51,544.00 1148.82,544.00 1149.12,544.00 1149.43,544.00 1149.74,544.00 1150.05,544.00 1150.35,544.00 1150.66,544.00 1150.97,544.00 1151.28,544.00 1151.58,544.00 1151.89,544.00 1152.20,544.00 1152.51,544.00 1152.81,544.00 1153.12,544.00 1153.43,544.00 1153.74,544.00 1154.04,544.00 1154.35,544.00 1154.66,544.00 1154.97,544.00 1155.27,544.00 1155.58,544.00 1155.89,544.00 1156.20,544.00 1156.50,544.00 1156.81,544.00 1157.12,544.00 1157.43,544.00 1157.74,544.00 1158.04,544.00 1158.35,544.00 1158.66,544.00 1158.97,544.00 1159.27,544.00 1159.58,544.00 1159.89,544.00 1160.20,544.00 1160.50,544.00 1160.81,544.00 1161.12,544.00 1161.43,544.00 1161.73,544.00 1162.04,544.00 1162.35,544.00 1162.66,544.00 1162.96,544.00 1163.27,544.00 1163.58,544.00 1163.89,544.00 1164.19,544.00 1164.50,544.00 1164.81,544.00 1165.12,544.00 1165.42,544.00 1165.73,544.00 1166.04,544.00 1166.35,544.00 1166.65,544.00 1166.96,544.00 1167.27,544.00 1167.58,544.00 1167.88,544.00 1168.19,544.00 1168.50,544.00 1168.81,544.00 1169.11,544.00 1169.42,544.00 1169.73,544.00 1170.04,544.00 1170.34,544.00 1170.65,544.00 1170.96,544.00 1171.27,544.00 1171.57,544.00 1171.88,544.00 1172.19,544.00 1172.50,544.00 1172.80,544.00 1173.11,544.00 1173.42,544.00 1173.73,544.00 1174.03,544.00 1174.34,544.00 1174.65,544.00 1174.96,544.00 1175.26,544.00 1175.57,544.00 1175.88,544.00 1176.19,544.00 1176.49,544.00 1176.80,544.00 1177.11,544.00 1177.42,544.00 1177.72,544.00 1178.03,544.00 1178.34,544.00 1178.65,544.00 1178.95,544.00 1179.26,544.00 1179.57,544.00 1179.88,544.00 1180.18,544.00 1180.49,544.00 1180.80,544.00 1181.11,544.00 1181.41,544.00 1181.72,544.00 1182.03,544.00 1182.34,544.00 1182.64,544.00 1182.95,544.00 1183.26,544.00 1183.57,544.00 1183.87,544.00 1184.18,544.00 1184.49,544.00 1184.80,544.00 1185.11,544.00 1185.41,544.00 1185.72,544.00 1186.03,544.00 1186.34,544.00 1186.64,544.00 1186.95,544.00 1187.26,544.00 1187.57,544.00 1187.87,544.00 1188.18,544.00 1188.49,544.00 1188.80,544.00 1189.10,544.00 1189.41,544.00 1189.72,544.00 1190.03,544.00 1190.33,544.00 1190.64,544.00 1190.95,544.00 1191.26,544.00 1191.56,544.00 1191.87,544.00 1192.18,544.00 1192.49,544.00 1192.79,544.00 1193.10,544.00 1193.41,544.00 1193.72,544.00 1194.02,544.00 1194.33,544.00 1194.64,544.00 1194.95,544.00 1195.25,544.00 1195.56,544.00 1195.87,544.00 1196.18,544.00 1196.48,544.00 1196.79,544.00 1197.10,544.00 1197.41,158.40 1197.71,158.40 1198.02,158.40 1198.33,158.40 1198.64,158.40 1198.94,544.00 1199.25,544.00 1199.56,544.00 1199.87,544.00 1200.17,544.00 1200.48,544.00 1200.79,544.00 1201.10,544.00 1201.40,544.00 1201.71,544.00 1202.02,544.00 1202.33,544.00 1202.63,544.00 1202.94,544.00 1203.25,544.00 1203.56,544.00 1203.86,544.00 1204.17,544.00 1204.48,544.00 1204.79,544.00 1205.09,544.00 1205.40,544.00 1205.71,544.00 1206.02,544.00 1206.32,544.00 1206.63,544.00 1206.94,544.00 1207.25,544.00 1207.55,544.00 1207.86,544.00 1208.17,544.00 1208.48,544.00 1208.78,544.00 1209.09,544.00 1209.40,544.00 1209.71,544.00 1210.01,544.00 1210.32,544.00 1210.63,544.00 1210.94,544.00 1211.25,544.00 1211.55,544.00 1211.86,544.00 1212.17,544.00 1212.48,544.00 1212.78,544.00 1213.09,544.00 1213.40,544.00 1213.71,544.00 1214.01,544.00 1214.32,544.00 1214.63,544.00 1214.94,544.00 1215.24,544.00 1215.55,544.00 1215.86,544.00 1216.17,544.00 1216.47,544.00 1216.78,544.00 1217.09,544.00 1217.40,544.00 1217.70,544.00 1218.01,544.00 1218.32,544.00 1218.63,544.00 1218.93,544.00 1219.24,544.00 1219.55,544.00 1219.86,544.00 1220.16,544.00 1220.47,544.00 1220.78,544.00 1221.09,544.00 1221.39,544.00 1221.70,544.00 1222.01,544.00 1222.32,544.00 1222.62,544.00 1222.93,544.00 1223.24,544.00 1223.55,544.00 1223.85,544.00 1224.16,544.00 1224.47,544.00 1224.78,544.00 1225.08,544.00 1225.39,544.00 1225.70,544.00 1226.01,544.00 1226.31,544.00 1226.62,544.00 1226.93,544.00 1227.24,544.00 1227.54,544.00 1227.85,544.00 1228.16,544.00 1228.47,544.00 1228.77,544.00 1229.08,544.00 1229.39,544.00 1229.70,544.00 1230.00,544.00 1230.31,544.00 1230.62,544.00 1230.93,544.00 1231.23,544.00 1231.54,544.00 1231.85,544.00 1232.16,544.00 1232.46,544.00 1232.77,544.00 1233.08,544.00 1233.39,544.00 1233.69,544.00 1234.00,544.00 1234.31,544.00 1234.62,544.00 1234.92,544.00 1235.23,544.00 1235.54,544.00 1235.85,544.00 1236.15,544.00 1236.46,544.00 1236.77,544.00 1237.08,544.00 1237.38,544.00 1237.69,544.00 1238.00,544.00"/>
<line x1="100" y1="86" x2="134" y2="86" stroke="#073b3a" stroke-width="4"/>
<text class="small" x="144" y="91">NDX w czesci akcyjnej: 0.0%; SPX: 100.0%</text>
</svg>